<svg width="306" height="35" viewBox="0 0 306 35" fill="none" xmlns="http://www.w3.org/2000/svg"><g filter="url(#filter0_d_176_135)"><path d="M4.907.8H7.57v22.896h14.112V26H4.907V.8zm37.442 6.264V26H39.9v-3.456a7.137 7.137 0 01-2.772 2.7c-1.176.624-2.52.936-4.032.936-2.472 0-4.428-.684-5.868-2.052-1.416-1.392-2.124-3.42-2.124-6.084V7.064h2.556v10.728c0 1.992.492 3.504 1.476 4.536.984 1.032 2.388 1.548 4.212 1.548 1.992 0 3.564-.6 4.716-1.8 1.152-1.224 1.728-2.916 1.728-5.076V7.064h2.556zm16.806-.144c2.376 0 4.26.696 5.652 2.088 1.416 1.368 2.124 3.372 2.124 6.012V26h-2.556V15.272c0-1.968-.492-3.468-1.476-4.5s-2.388-1.548-4.212-1.548c-2.04 0-3.66.612-4.86 1.836-1.176 1.2-1.764 2.868-1.764 5.004V26h-2.556V7.064h2.448v3.492a7.016 7.016 0 012.88-2.664c1.248-.648 2.688-.972 4.32-.972zm21.34 0c2.472 0 4.368.624 5.688 1.872 1.32 1.224 1.98 3.048 1.98 5.472V26h-2.448v-2.952c-.576.984-1.428 1.752-2.556 2.304-1.104.552-2.424.828-3.96.828-2.112 0-3.792-.504-5.04-1.512-1.248-1.008-1.872-2.34-1.872-3.996 0-1.608.576-2.904 1.728-3.888 1.176-.984 3.036-1.476 5.58-1.476h6.012v-1.152c0-1.632-.456-2.868-1.368-3.708-.912-.864-2.244-1.296-3.996-1.296a9.89 9.89 0 00-3.456.612c-1.104.384-2.052.924-2.844 1.62L72.79 9.476c.96-.816 2.112-1.44 3.456-1.872a13.131 13.131 0 014.248-.684zm-.9 17.244c1.44 0 2.676-.324 3.708-.972 1.032-.672 1.8-1.632 2.304-2.88v-3.096h-5.94c-3.24 0-4.86 1.128-4.86 3.384 0 1.104.42 1.98 1.26 2.628.84.624 2.016.936 3.528.936zm17.958-13.392c.6-1.272 1.488-2.232 2.664-2.88 1.2-.648 2.676-.972 4.428-.972v2.484l-.612-.036c-1.992 0-3.552.612-4.68 1.836-1.128 1.224-1.692 2.94-1.692 5.148V26h-2.556V7.064h2.448v3.708zM140.576.8V26h-2.196l-16.2-20.448V26h-2.664V.8h2.196l16.236 20.448V.8h2.628zm24.173 16.524h-15.84c.144 1.968.9 3.564 2.268 4.788 1.368 1.2 3.096 1.8 5.184 1.8 1.176 0 2.256-.204 3.24-.612a7.27 7.27 0 002.556-1.872l1.44 1.656c-.84 1.008-1.896 1.776-3.168 2.304-1.248.528-2.628.792-4.14.792-1.944 0-3.672-.408-5.184-1.224a9.115 9.115 0 01-3.492-3.456c-.84-1.464-1.26-3.12-1.26-4.968 0-1.848.396-3.504 1.188-4.968.816-1.464 1.92-2.604 3.312-3.42 1.416-.816 3-1.224 4.752-1.224 1.752 0 3.324.408 4.716 1.224 1.392.816 2.484 1.956 3.276 3.42.792 1.44 1.188 3.096 1.188 4.968l-.036.792zm-9.144-8.208c-1.824 0-3.36.588-4.608 1.764-1.224 1.152-1.92 2.664-2.088 4.536h13.428c-.168-1.872-.876-3.384-2.124-4.536-1.224-1.176-2.76-1.764-4.608-1.764zm41.823-2.052L190.264 26h-2.412l-5.976-15.516L175.9 26h-2.412L166.36 7.064h2.448l5.94 16.092 6.084-16.092h2.196l6.048 16.092 6.012-16.092h2.34zm22.451 10.224V26h-2.628v-8.712L207.171.8h2.844l8.64 14.148L227.295.8h2.664l-10.08 16.488zm28.015.036h-15.84c.144 1.968.9 3.564 2.268 4.788 1.368 1.2 3.096 1.8 5.184 1.8 1.176 0 2.256-.204 3.24-.612a7.27 7.27 0 002.556-1.872l1.44 1.656c-.84 1.008-1.896 1.776-3.168 2.304-1.248.528-2.628.792-4.14.792-1.944 0-3.672-.408-5.184-1.224a9.115 9.115 0 01-3.492-3.456c-.84-1.464-1.26-3.12-1.26-4.968 0-1.848.396-3.504 1.188-4.968.816-1.464 1.92-2.604 3.312-3.42 1.416-.816 3-1.224 4.752-1.224 1.752 0 3.324.408 4.716 1.224 1.392.816 2.484 1.956 3.276 3.42.792 1.44 1.188 3.096 1.188 4.968l-.036.792zm-9.144-8.208c-1.824 0-3.36.588-4.608 1.764-1.224 1.152-1.92 2.664-2.088 4.536h13.428c-.168-1.872-.876-3.384-2.124-4.536-1.224-1.176-2.76-1.764-4.608-1.764zm20.479-2.196c2.472 0 4.368.624 5.688 1.872 1.32 1.224 1.98 3.048 1.98 5.472V26h-2.448v-2.952c-.576.984-1.428 1.752-2.556 2.304-1.104.552-2.424.828-3.96.828-2.112 0-3.792-.504-5.04-1.512-1.248-1.008-1.872-2.34-1.872-3.996 0-1.608.576-2.904 1.728-3.888 1.176-.984 3.036-1.476 5.58-1.476h6.012v-1.152c0-1.632-.456-2.868-1.368-3.708-.912-.864-2.244-1.296-3.996-1.296a9.89 9.89 0 00-3.456.612c-1.104.384-2.052.924-2.844 1.62l-1.152-1.908c.96-.816 2.112-1.44 3.456-1.872a13.131 13.131 0 014.248-.684zm-.9 17.244c1.44 0 2.676-.324 3.708-.972 1.032-.672 1.8-1.632 2.304-2.88v-3.096h-5.94c-3.24 0-4.86 1.128-4.86 3.384 0 1.104.42 1.98 1.26 2.628.84.624 2.016.936 3.528.936zm17.958-13.392c.6-1.272 1.488-2.232 2.664-2.88 1.2-.648 2.676-.972 4.428-.972v2.484l-.612-.036c-1.992 0-3.552.612-4.68 1.836-1.128 1.224-1.692 2.94-1.692 5.148V26h-2.556V7.064h2.448v3.708zm16.937 15.408a15.09 15.09 0 01-4.428-.648c-1.392-.456-2.484-1.02-3.276-1.692l1.152-2.016c.792.624 1.788 1.14 2.988 1.548 1.2.384 2.448.576 3.744.576 1.728 0 3-.264 3.816-.792.84-.552 1.26-1.32 1.26-2.304 0-.696-.228-1.236-.684-1.62-.456-.408-1.032-.708-1.728-.9-.696-.216-1.62-.42-2.772-.612-1.536-.288-2.772-.576-3.708-.864a5.725 5.725 0 01-2.412-1.548c-.648-.72-.972-1.716-.972-2.988 0-1.584.66-2.88 1.98-3.888 1.32-1.008 3.156-1.512 5.508-1.512 1.224 0 2.448.168 3.672.504 1.224.312 2.232.732 3.024 1.26l-1.116 2.052c-1.56-1.08-3.42-1.62-5.58-1.62-1.632 0-2.868.288-3.708.864-.816.576-1.224 1.332-1.224 2.268 0 .72.228 1.296.684 1.728.48.432 1.068.756 1.764.972.696.192 1.656.396 2.88.612 1.512.288 2.724.576 3.636.864.912.288 1.692.78 2.34 1.476.648.696.972 1.656.972 2.88 0 1.656-.696 2.976-2.088 3.96-1.368.96-3.276 1.44-5.724 1.44z" fill="#fff"/></g><defs><filter id="filter0_d_176_135" x=".907" y=".8" width="304.129" height="33.38" filterUnits="userSpaceOnUse" color-interpolation-filters="sRGB"><feFlood flood-opacity="0" result="BackgroundImageFix"/><feColorMatrix in="SourceAlpha" values="0 0 0 0 0 0 0 0 0 0 0 0 0 0 0 0 0 0 127 0" result="hardAlpha"/><feOffset dy="4"/><feGaussianBlur stdDeviation="2"/><feComposite in2="hardAlpha" operator="out"/><feColorMatrix values="0 0 0 0 0 0 0 0 0 0 0 0 0 0 0 0 0 0 0.25 0"/><feBlend in2="BackgroundImageFix" result="effect1_dropShadow_176_135"/><feBlend in="SourceGraphic" in2="effect1_dropShadow_176_135" result="shape"/></filter></defs></svg>