<svg width="522" height="46" viewBox="0 0 522 46" fill="none" xmlns="http://www.w3.org/2000/svg"><path d="M28.857 2.4V36h-3.504V20.496H4.329V36H.777V2.4h3.552v14.976h21.024V2.4h3.504zm20.567 33.84c-2.432 0-4.624-.544-6.576-1.632A12.251 12.251 0 0138.24 30c-1.12-1.952-1.68-4.16-1.68-6.624 0-2.464.56-4.672 1.68-6.624a11.905 11.905 0 014.608-4.56c1.952-1.088 4.144-1.632 6.576-1.632 2.432 0 4.624.544 6.576 1.632a11.574 11.574 0 014.56 4.56c1.12 1.952 1.68 4.16 1.68 6.624 0 2.464-.56 4.672-1.68 6.624A11.905 11.905 0 0156 34.608c-1.952 1.088-4.144 1.632-6.576 1.632zm0-3.024c1.792 0 3.392-.4 4.8-1.2 1.44-.832 2.56-2 3.36-3.504.8-1.504 1.2-3.216 1.2-5.136s-.4-3.632-1.2-5.136c-.8-1.504-1.92-2.656-3.36-3.456-1.408-.832-3.008-1.248-4.8-1.248-1.792 0-3.408.416-4.848 1.248-1.408.8-2.528 1.952-3.36 3.456-.8 1.504-1.2 3.216-1.2 5.136s.4 3.632 1.2 5.136c.832 1.504 1.952 2.672 3.36 3.504 1.44.8 3.056 1.2 4.848 1.2zM69.197.384h3.408V36h-3.408V.384zm12.89 10.368h3.409V36h-3.408V10.752zm1.729-5.52c-.704 0-1.296-.24-1.776-.72a2.357 2.357 0 01-.72-1.728c0-.64.24-1.2.72-1.68s1.072-.72 1.776-.72 1.296.24 1.776.72c.48.448.72.992.72 1.632 0 .704-.24 1.296-.72 1.776s-1.072.72-1.776.72zM118.019.384V36h-3.264v-4.992c-1.024 1.696-2.384 2.992-4.08 3.888-1.664.896-3.552 1.344-5.664 1.344-2.368 0-4.512-.544-6.432-1.632-1.92-1.088-3.424-2.608-4.512-4.56-1.088-1.952-1.632-4.176-1.632-6.672 0-2.496.544-4.72 1.632-6.672 1.088-1.952 2.592-3.456 4.512-4.512 1.92-1.088 4.064-1.632 6.432-1.632 2.048 0 3.888.432 5.52 1.296 1.664.832 3.024 2.064 4.08 3.696V.384h3.408zm-12.72 32.832c1.76 0 3.344-.4 4.752-1.2 1.44-.832 2.56-2 3.36-3.504.832-1.504 1.248-3.216 1.248-5.136s-.416-3.632-1.248-5.136c-.8-1.504-1.92-2.656-3.36-3.456-1.408-.832-2.992-1.248-4.752-1.248-1.792 0-3.408.416-4.848 1.248-1.408.8-2.528 1.952-3.36 3.456-.8 1.504-1.2 3.216-1.2 5.136s.4 3.632 1.2 5.136c.832 1.504 1.952 2.672 3.36 3.504 1.44.8 3.056 1.2 4.848 1.2zm31.043-22.656c3.296 0 5.824.832 7.584 2.496 1.76 1.632 2.64 4.064 2.64 7.296V36h-3.264v-3.936c-.768 1.312-1.904 2.336-3.408 3.072-1.472.736-3.232 1.104-5.28 1.104-2.816 0-5.056-.672-6.72-2.016-1.664-1.344-2.496-3.12-2.496-5.328 0-2.144.768-3.872 2.304-5.184 1.568-1.312 4.048-1.968 7.44-1.968h8.016v-1.536c0-2.176-.608-3.824-1.824-4.944-1.216-1.152-2.992-1.728-5.328-1.728-1.6 0-3.136.272-4.608.816-1.472.512-2.736 1.232-3.792 2.16l-1.536-2.544c1.28-1.088 2.816-1.92 4.608-2.496a17.508 17.508 0 015.664-.912zm-1.2 22.992c1.92 0 3.568-.432 4.944-1.296 1.376-.896 2.4-2.176 3.072-3.84v-4.128h-7.92c-4.32 0-6.48 1.504-6.48 4.512 0 1.472.56 2.64 1.68 3.504 1.12.832 2.688 1.248 4.704 1.248zm41.428-22.8l-12.624 28.272c-1.024 2.368-2.208 4.048-3.552 5.04-1.344.992-2.96 1.488-4.848 1.488-1.216 0-2.352-.192-3.408-.576a7.385 7.385 0 01-2.736-1.728l1.584-2.544c1.28 1.28 2.816 1.92 4.608 1.92 1.152 0 2.128-.32 2.928-.96.832-.64 1.6-1.728 2.304-3.264l1.104-2.448-11.28-25.2h3.552l9.504 21.456 9.504-21.456h3.36zm11.286 25.488a20.12 20.12 0 01-5.904-.864c-1.856-.608-3.312-1.36-4.368-2.256l1.536-2.688c1.056.832 2.384 1.52 3.984 2.064 1.6.512 3.264.768 4.992.768 2.304 0 4-.352 5.088-1.056 1.12-.736 1.68-1.76 1.68-3.072 0-.928-.304-1.648-.912-2.16-.608-.544-1.376-.944-2.304-1.2-.928-.288-2.16-.56-3.696-.816-2.048-.384-3.696-.768-4.944-1.152a7.634 7.634 0 01-3.216-2.064c-.864-.96-1.296-2.288-1.296-3.984 0-2.112.88-3.84 2.64-5.184 1.76-1.344 4.208-2.016 7.344-2.016 1.632 0 3.264.224 4.896.672 1.632.416 2.976.976 4.032 1.68l-1.488 2.736c-2.08-1.44-4.56-2.16-7.44-2.16-2.176 0-3.824.384-4.944 1.152-1.088.768-1.632 1.776-1.632 3.024 0 .96.304 1.728.912 2.304.64.576 1.424 1.008 2.352 1.296.928.256 2.208.528 3.84.816 2.016.384 3.632.768 4.848 1.152a7.122 7.122 0 013.12 1.968c.864.928 1.296 2.208 1.296 3.84 0 2.208-.928 3.968-2.784 5.28-1.824 1.28-4.368 1.92-7.632 1.92zm38.111-25.68c3.296 0 5.824.832 7.584 2.496 1.76 1.632 2.64 4.064 2.64 7.296V36h-3.264v-3.936c-.768 1.312-1.904 2.336-3.408 3.072-1.472.736-3.232 1.104-5.28 1.104-2.816 0-5.056-.672-6.72-2.016-1.664-1.344-2.496-3.12-2.496-5.328 0-2.144.768-3.872 2.304-5.184 1.568-1.312 4.048-1.968 7.44-1.968h8.016v-1.536c0-2.176-.608-3.824-1.824-4.944-1.216-1.152-2.992-1.728-5.328-1.728-1.6 0-3.136.272-4.608.816-1.472.512-2.736 1.232-3.792 2.16l-1.536-2.544c1.28-1.088 2.816-1.92 4.608-2.496a17.508 17.508 0 015.664-.912zm-1.2 22.992c1.92 0 3.568-.432 4.944-1.296 1.376-.896 2.4-2.176 3.072-3.84v-4.128h-7.92c-4.32 0-6.48 1.504-6.48 4.512 0 1.472.56 2.64 1.68 3.504 1.12.832 2.688 1.248 4.704 1.248zm33.544-22.992c3.168 0 5.68.928 7.536 2.784 1.888 1.824 2.832 4.496 2.832 8.016V36h-3.408V21.696c0-2.624-.656-4.624-1.968-6-1.312-1.376-3.184-2.064-5.616-2.064-2.72 0-4.88.816-6.48 2.448-1.568 1.6-2.352 3.824-2.352 6.672V36h-3.408V10.752h3.264v4.656c.928-1.536 2.208-2.72 3.84-3.552 1.664-.864 3.584-1.296 5.76-1.296zM301.065.384V36h-3.264v-4.992c-1.024 1.696-2.384 2.992-4.08 3.888-1.664.896-3.552 1.344-5.664 1.344-2.368 0-4.512-.544-6.432-1.632-1.92-1.088-3.424-2.608-4.512-4.56-1.088-1.952-1.632-4.176-1.632-6.672 0-2.496.544-4.72 1.632-6.672 1.088-1.952 2.592-3.456 4.512-4.512 1.92-1.088 4.064-1.632 6.432-1.632 2.048 0 3.888.432 5.52 1.296 1.664.832 3.024 2.064 4.08 3.696V.384h3.408zm-12.72 32.832c1.76 0 3.344-.4 4.752-1.2 1.44-.832 2.56-2 3.36-3.504.832-1.504 1.248-3.216 1.248-5.136s-.416-3.632-1.248-5.136c-.8-1.504-1.92-2.656-3.36-3.456-1.408-.832-2.992-1.248-4.752-1.248-1.792 0-3.408.416-4.848 1.248-1.408.8-2.528 1.952-3.36 3.456-.8 1.504-1.2 3.216-1.2 5.136s.4 3.632 1.2 5.136c.832 1.504 1.952 2.672 3.36 3.504 1.44.8 3.056 1.2 4.848 1.2zm39.046-27.744v13.2h17.376v3.072h-17.376V36h-3.552V2.4h23.04v3.072h-19.488zm47.243 18.96h-21.12c.192 2.624 1.2 4.752 3.024 6.384 1.824 1.6 4.128 2.4 6.912 2.4 1.568 0 3.008-.272 4.32-.816a9.694 9.694 0 003.408-2.496l1.92 2.208c-1.12 1.344-2.528 2.368-4.224 3.072-1.664.704-3.504 1.056-5.52 1.056-2.592 0-4.896-.544-6.912-1.632-1.984-1.12-3.536-2.656-4.656-4.608-1.12-1.952-1.68-4.16-1.68-6.624 0-2.464.528-4.672 1.584-6.624 1.088-1.952 2.56-3.472 4.416-4.56 1.888-1.088 4-1.632 6.336-1.632 2.336 0 4.432.544 6.288 1.632 1.856 1.088 3.312 2.608 4.368 4.56 1.056 1.92 1.584 4.128 1.584 6.624l-.048 1.056zm-12.192-10.944c-2.432 0-4.48.784-6.144 2.352-1.632 1.536-2.56 3.552-2.784 6.048h17.904c-.224-2.496-1.168-4.512-2.832-6.048-1.632-1.568-3.68-2.352-6.144-2.352zm25.945 22.752a20.12 20.12 0 01-5.904-.864c-1.856-.608-3.312-1.36-4.368-2.256l1.536-2.688c1.056.832 2.384 1.52 3.984 2.064 1.6.512 3.264.768 4.992.768 2.304 0 4-.352 5.088-1.056 1.12-.736 1.68-1.76 1.68-3.072 0-.928-.304-1.648-.912-2.16-.608-.544-1.376-.944-2.304-1.2-.928-.288-2.16-.56-3.696-.816-2.048-.384-3.696-.768-4.944-1.152a7.634 7.634 0 01-3.216-2.064c-.864-.96-1.296-2.288-1.296-3.984 0-2.112.88-3.84 2.64-5.184 1.76-1.344 4.208-2.016 7.344-2.016 1.632 0 3.264.224 4.896.672 1.632.416 2.976.976 4.032 1.68l-1.488 2.736c-2.08-1.44-4.56-2.16-7.44-2.16-2.176 0-3.824.384-4.944 1.152-1.088.768-1.632 1.776-1.632 3.024 0 .96.304 1.728.912 2.304.64.576 1.424 1.008 2.352 1.296.928.256 2.208.528 3.84.816 2.016.384 3.632.768 4.848 1.152a7.122 7.122 0 013.12 1.968c.864.928 1.296 2.208 1.296 3.84 0 2.208-.928 3.968-2.784 5.28-1.824 1.28-4.368 1.92-7.632 1.92zm30.013-1.776c-.64.576-1.44 1.024-2.4 1.344a9.822 9.822 0 01-2.928.432c-2.368 0-4.192-.64-5.472-1.92-1.28-1.28-1.92-3.088-1.92-5.424V13.632h-4.512v-2.88h4.512v-5.52h3.408v5.52h7.68v2.88h-7.68v15.072c0 1.504.368 2.656 1.104 3.456.768.768 1.856 1.152 3.264 1.152.704 0 1.376-.112 2.016-.336a5.034 5.034 0 001.728-.96l1.2 2.448zm6.204-23.712h3.408V36h-3.408V10.752zm1.728-5.52c-.704 0-1.296-.24-1.776-.72a2.357 2.357 0 01-.72-1.728c0-.64.24-1.2.72-1.68s1.072-.72 1.776-.72 1.296.24 1.776.72c.48.448.72.992.72 1.632 0 .704-.24 1.296-.72 1.776s-1.072.72-1.776.72zm32.378 5.52L447.478 36h-3.504L432.79 10.752h3.552l9.456 21.504 9.552-21.504h3.36zm12.882-.192c3.296 0 5.824.832 7.584 2.496 1.76 1.632 2.64 4.064 2.64 7.296V36h-3.264v-3.936c-.768 1.312-1.904 2.336-3.408 3.072-1.472.736-3.232 1.104-5.28 1.104-2.816 0-5.056-.672-6.72-2.016-1.664-1.344-2.496-3.12-2.496-5.328 0-2.144.768-3.872 2.304-5.184 1.568-1.312 4.048-1.968 7.44-1.968h8.016v-1.536c0-2.176-.608-3.824-1.824-4.944-1.216-1.152-2.992-1.728-5.328-1.728-1.6 0-3.136.272-4.608.816-1.472.512-2.736 1.232-3.792 2.16l-1.536-2.544c1.28-1.088 2.816-1.92 4.608-2.496a17.508 17.508 0 015.664-.912zm-1.2 22.992c1.92 0 3.568-.432 4.944-1.296 1.376-.896 2.4-2.176 3.072-3.84v-4.128h-7.92c-4.32 0-6.48 1.504-6.48 4.512 0 1.472.56 2.64 1.68 3.504 1.12.832 2.688 1.248 4.704 1.248zM491.072.384h3.408V36h-3.408V.384zm19.659 35.856a20.12 20.12 0 01-5.904-.864c-1.856-.608-3.312-1.36-4.368-2.256l1.536-2.688c1.056.832 2.384 1.52 3.984 2.064 1.6.512 3.264.768 4.992.768 2.304 0 4-.352 5.088-1.056 1.12-.736 1.68-1.76 1.68-3.072 0-.928-.304-1.648-.912-2.16-.608-.544-1.376-.944-2.304-1.2-.928-.288-2.16-.56-3.696-.816-2.048-.384-3.696-.768-4.944-1.152a7.634 7.634 0 01-3.216-2.064c-.864-.96-1.296-2.288-1.296-3.984 0-2.112.88-3.84 2.64-5.184 1.76-1.344 4.208-2.016 7.344-2.016 1.632 0 3.264.224 4.896.672 1.632.416 2.976.976 4.032 1.68l-1.488 2.736c-2.08-1.44-4.56-2.16-7.44-2.16-2.176 0-3.824.384-4.944 1.152-1.088.768-1.632 1.776-1.632 3.024 0 .96.304 1.728.912 2.304.64.576 1.424 1.008 2.352 1.296.928.256 2.208.528 3.84.816 2.016.384 3.632.768 4.848 1.152a7.122 7.122 0 013.12 1.968c.864.928 1.296 2.208 1.296 3.84 0 2.208-.928 3.968-2.784 5.28-1.824 1.28-4.368 1.92-7.632 1.92z" fill="#000"/></svg>