<svg width="379" height="36" viewBox="0 0 379 36" fill="none" xmlns="http://www.w3.org/2000/svg"><g filter="url(#filter0_d_217_18)"><path d="M30.881 1.8V27h-2.555V6.84l-9.9 16.956h-1.26l-9.9-16.848V27H4.708V1.8h2.196L17.85 20.484 28.686 1.8h2.195zm7.671 6.264h2.556V27h-2.556V8.064zm1.296-4.14a1.81 1.81 0 01-1.332-.54c-.36-.36-.54-.792-.54-1.296 0-.48.18-.9.54-1.26.36-.36.804-.54 1.332-.54s.972.18 1.332.54c.36.336.54.744.54 1.224 0 .528-.18.972-.54 1.332-.36.36-.804.54-1.332.54zM65.5.288V27h-2.448v-3.744c-.768 1.272-1.788 2.244-3.06 2.916-1.248.672-2.664 1.008-4.248 1.008-1.776 0-3.384-.408-4.824-1.224a8.748 8.748 0 01-3.384-3.42c-.816-1.464-1.224-3.132-1.224-5.004 0-1.872.408-3.54 1.224-5.004.816-1.464 1.944-2.592 3.384-3.384 1.44-.816 3.048-1.224 4.824-1.224 1.536 0 2.916.324 4.14.972 1.248.624 2.268 1.548 3.06 2.772V.288H65.5zm-9.54 24.624c1.32 0 2.508-.3 3.564-.9a6.486 6.486 0 002.52-2.628c.624-1.128.936-2.412.936-3.852s-.312-2.724-.936-3.852c-.6-1.128-1.44-1.992-2.52-2.592-1.056-.624-2.244-.936-3.564-.936-1.344 0-2.556.312-3.636.936-1.056.6-1.896 1.464-2.52 2.592-.6 1.128-.9 2.412-.9 3.852s.3 2.724.9 3.852c.624 1.128 1.464 2.004 2.52 2.628 1.08.6 2.292.9 3.636.9zm15.255-8.784h9.432v2.232h-9.432v-2.232zm30.966 4.14h-14.04L85.117 27h-2.772l11.52-25.2h2.628l11.52 25.2h-2.808l-3.024-6.732zm-.972-2.16L95.161 4.572l-6.048 13.536h12.096zm27.146-10.044V27h-2.448v-3.456a7.137 7.137 0 01-2.772 2.7c-1.176.624-2.52.936-4.032.936-2.472 0-4.428-.684-5.868-2.052-1.416-1.392-2.124-3.42-2.124-6.084V8.064h2.556v10.728c0 1.992.492 3.504 1.476 4.536.984 1.032 2.388 1.548 4.212 1.548 1.992 0 3.564-.6 4.716-1.8 1.152-1.224 1.728-2.916 1.728-5.076V8.064h2.556zm17.13 17.784c-.48.432-1.08.768-1.8 1.008a7.367 7.367 0 01-2.196.324c-1.776 0-3.144-.48-4.104-1.44s-1.44-2.316-1.44-4.068V10.224h-3.384v-2.16h3.384v-4.14h2.556v4.14h5.76v2.16h-5.76v11.304c0 1.128.276 1.992.828 2.592.576.576 1.392.864 2.448.864.528 0 1.032-.084 1.512-.252a3.776 3.776 0 001.296-.72l.9 1.836zm21.717-17.784V27h-2.448v-3.456a7.137 7.137 0 01-2.772 2.7c-1.176.624-2.52.936-4.032.936-2.472 0-4.428-.684-5.868-2.052-1.416-1.392-2.124-3.42-2.124-6.084V8.064h2.556v10.728c0 1.992.492 3.504 1.476 4.536.984 1.032 2.388 1.548 4.212 1.548 1.992 0 3.564-.6 4.716-1.8 1.152-1.224 1.728-2.916 1.728-5.076V8.064h2.556zm30.775-.144c2.376 0 4.236.684 5.58 2.052 1.368 1.368 2.052 3.384 2.052 6.048V27h-2.556V16.272c0-1.968-.48-3.468-1.44-4.5-.936-1.032-2.268-1.548-3.996-1.548-1.968 0-3.516.612-4.644 1.836-1.128 1.2-1.692 2.868-1.692 5.004V27h-2.556V16.272c0-1.968-.48-3.468-1.44-4.5-.936-1.032-2.28-1.548-4.032-1.548-1.944 0-3.492.612-4.644 1.836-1.128 1.2-1.692 2.868-1.692 5.004V27h-2.556V8.064h2.448v3.456a6.83 6.83 0 012.808-2.664c1.2-.624 2.58-.936 4.14-.936 1.584 0 2.952.336 4.104 1.008 1.176.672 2.052 1.668 2.628 2.988.696-1.248 1.692-2.22 2.988-2.916 1.32-.72 2.82-1.08 4.5-1.08zm24.212 0c2.376 0 4.26.696 5.652 2.088 1.416 1.368 2.124 3.372 2.124 6.012V27h-2.556V16.272c0-1.968-.492-3.468-1.476-4.5s-2.388-1.548-4.212-1.548c-2.04 0-3.66.612-4.86 1.836-1.176 1.2-1.764 2.868-1.764 5.004V27h-2.556V8.064h2.448v3.492a7.016 7.016 0 012.88-2.664c1.248-.648 2.688-.972 4.32-.972zm27.341-3.816v9.9h13.032v2.304H249.53V27h-2.664V1.8h17.28v2.304H249.53zm35.432 14.22h-15.84c.144 1.968.9 3.564 2.268 4.788 1.368 1.2 3.096 1.8 5.184 1.8 1.176 0 2.256-.204 3.24-.612a7.27 7.27 0 002.556-1.872l1.44 1.656c-.84 1.008-1.896 1.776-3.168 2.304-1.248.528-2.628.792-4.14.792-1.944 0-3.672-.408-5.184-1.224a9.115 9.115 0 01-3.492-3.456c-.84-1.464-1.26-3.12-1.26-4.968 0-1.848.396-3.504 1.188-4.968.816-1.464 1.92-2.604 3.312-3.42 1.416-.816 3-1.224 4.752-1.224 1.752 0 3.324.408 4.716 1.224 1.392.816 2.484 1.956 3.276 3.42.792 1.44 1.188 3.096 1.188 4.968l-.036.792zm-9.144-8.208c-1.824 0-3.36.588-4.608 1.764-1.224 1.152-1.92 2.664-2.088 4.536h13.428c-.168-1.872-.876-3.384-2.124-4.536-1.224-1.176-2.76-1.764-4.608-1.764zm19.459 17.064a15.09 15.09 0 01-4.428-.648c-1.392-.456-2.484-1.02-3.276-1.692l1.152-2.016c.792.624 1.788 1.14 2.988 1.548 1.2.384 2.448.576 3.744.576 1.728 0 3-.264 3.816-.792.84-.552 1.26-1.32 1.26-2.304 0-.696-.228-1.236-.684-1.62-.456-.408-1.032-.708-1.728-.9-.696-.216-1.62-.42-2.772-.612-1.536-.288-2.772-.576-3.708-.864a5.725 5.725 0 01-2.412-1.548c-.648-.72-.972-1.716-.972-2.988 0-1.584.66-2.88 1.98-3.888 1.32-1.008 3.156-1.512 5.508-1.512 1.224 0 2.448.168 3.672.504 1.224.312 2.232.732 3.024 1.26l-1.116 2.052c-1.56-1.08-3.42-1.62-5.58-1.62-1.632 0-2.868.288-3.708.864-.816.576-1.224 1.332-1.224 2.268 0 .72.228 1.296.684 1.728.48.432 1.068.756 1.764.972.696.192 1.656.396 2.88.612 1.512.288 2.724.576 3.636.864.912.288 1.692.78 2.34 1.476.648.696.972 1.656.972 2.88 0 1.656-.696 2.976-2.088 3.96-1.368.96-3.276 1.44-5.724 1.44zm22.509-1.332c-.48.432-1.08.768-1.8 1.008a7.367 7.367 0 01-2.196.324c-1.776 0-3.144-.48-4.104-1.44s-1.44-2.316-1.44-4.068V10.224h-3.384v-2.16h3.384v-4.14h2.556v4.14h5.76v2.16h-5.76v11.304c0 1.128.276 1.992.828 2.592.576.576 1.392.864 2.448.864.528 0 1.032-.084 1.512-.252a3.776 3.776 0 001.296-.72l.9 1.836zm4.653-17.784h2.556V27h-2.556V8.064zm1.296-4.14a1.81 1.81 0 01-1.332-.54c-.36-.36-.54-.792-.54-1.296 0-.48.18-.9.54-1.26.36-.36.804-.54 1.332-.54s.972.18 1.332.54c.36.336.54.744.54 1.224 0 .528-.18.972-.54 1.332-.36.36-.804.54-1.332.54zm24.284 4.14L339.595 27h-2.628l-8.388-18.936h2.664l7.092 16.128 7.164-16.128h2.52zm9.661-.144c2.472 0 4.368.624 5.688 1.872 1.32 1.224 1.98 3.048 1.98 5.472V27H362.9v-2.952c-.576.984-1.428 1.752-2.556 2.304-1.104.552-2.424.828-3.96.828-2.112 0-3.792-.504-5.04-1.512-1.248-1.008-1.872-2.34-1.872-3.996 0-1.608.576-2.904 1.728-3.888 1.176-.984 3.036-1.476 5.58-1.476h6.012v-1.152c0-1.632-.456-2.868-1.368-3.708-.912-.864-2.244-1.296-3.996-1.296a9.89 9.89 0 00-3.456.612c-1.104.384-2.052.924-2.844 1.62l-1.152-1.908c.96-.816 2.112-1.44 3.456-1.872a13.131 13.131 0 014.248-.684zm-.9 17.244c1.44 0 2.676-.324 3.708-.972 1.032-.672 1.8-1.632 2.304-2.88v-3.096h-5.94c-3.24 0-4.86 1.128-4.86 3.384 0 1.104.42 1.98 1.26 2.628.84.624 2.016.936 3.528.936zM372.291.288h2.556V27h-2.556V.288z" fill="#fff"/></g><defs><filter id="filter0_d_217_18" x=".709" y=".288" width="378.137" height="34.892" filterUnits="userSpaceOnUse" color-interpolation-filters="sRGB"><feFlood flood-opacity="0" result="BackgroundImageFix"/><feColorMatrix in="SourceAlpha" values="0 0 0 0 0 0 0 0 0 0 0 0 0 0 0 0 0 0 127 0" result="hardAlpha"/><feOffset dy="4"/><feGaussianBlur stdDeviation="2"/><feComposite in2="hardAlpha" operator="out"/><feColorMatrix values="0 0 0 0 0 0 0 0 0 0 0 0 0 0 0 0 0 0 0.25 0"/><feBlend in2="BackgroundImageFix" result="effect1_dropShadow_217_18"/><feBlend in="SourceGraphic" in2="effect1_dropShadow_217_18" result="shape"/></filter></defs></svg>