<svg width="237" height="43" viewBox="0 0 237 43" fill="none" xmlns="http://www.w3.org/2000/svg"><g filter="url(#filter0_d_217_28)"><path d="M25.56 1.8V27h-2.195L7.165 6.552V27H4.5V1.8h2.196l16.236 20.448V1.8h2.629zm14.31 6.12c2.472 0 4.368.624 5.688 1.872 1.32 1.224 1.98 3.048 1.98 5.472V27H45.09v-2.952c-.576.984-1.428 1.752-2.556 2.304-1.104.552-2.424.828-3.96.828-2.112 0-3.792-.504-5.04-1.512-1.248-1.008-1.872-2.34-1.872-3.996 0-1.608.576-2.904 1.728-3.888 1.176-.984 3.036-1.476 5.58-1.476h6.012v-1.152c0-1.632-.456-2.868-1.368-3.708-.912-.864-2.244-1.296-3.996-1.296a9.89 9.89 0 00-3.456.612c-1.104.384-2.052.924-2.844 1.62l-1.152-1.908c.96-.816 2.112-1.44 3.456-1.872a13.131 13.131 0 014.248-.684zm-.9 17.244c1.44 0 2.676-.324 3.708-.972 1.032-.672 1.8-1.632 2.304-2.88v-3.096h-5.94c-3.24 0-4.86 1.128-4.86 3.384 0 1.104.42 1.98 1.26 2.628.84.624 2.016.936 3.528.936zm25.482.684c-.48.432-1.08.768-1.8 1.008a7.367 7.367 0 01-2.196.324c-1.776 0-3.144-.48-4.104-1.44s-1.44-2.316-1.44-4.068V10.224h-3.384v-2.16h3.384v-4.14h2.556v4.14h5.76v2.16h-5.76v11.304c0 1.128.276 1.992.828 2.592.576.576 1.392.864 2.448.864.528 0 1.032-.084 1.512-.252a3.776 3.776 0 001.296-.72l.9 1.836zm4.653-17.784h2.556V27h-2.556V8.064zm1.296-4.14a1.81 1.81 0 01-1.332-.54c-.36-.36-.54-.792-.54-1.296 0-.48.18-.9.54-1.26.36-.36.804-.54 1.332-.54s.972.18 1.332.54c.36.336.54.744.54 1.224 0 .528-.18.972-.54 1.332-.36.36-.804.54-1.332.54zM86.513 27.18c-1.824 0-3.468-.408-4.932-1.224a9.189 9.189 0 01-3.456-3.456c-.84-1.464-1.26-3.12-1.26-4.968 0-1.848.42-3.504 1.26-4.968a8.929 8.929 0 013.456-3.42c1.464-.816 3.108-1.224 4.932-1.224 1.824 0 3.468.408 4.932 1.224a8.68 8.68 0 013.42 3.42c.84 1.464 1.26 3.12 1.26 4.968 0 1.848-.42 3.504-1.26 4.968a8.929 8.929 0 01-3.42 3.456c-1.464.816-3.108 1.224-4.932 1.224zm0-2.268c1.344 0 2.544-.3 3.6-.9a6.486 6.486 0 002.52-2.628c.6-1.128.9-2.412.9-3.852s-.3-2.724-.9-3.852c-.6-1.128-1.44-1.992-2.52-2.592-1.056-.624-2.256-.936-3.6-.936-1.344 0-2.556.312-3.636.936-1.056.6-1.896 1.464-2.52 2.592-.6 1.128-.9 2.412-.9 3.852s.3 2.724.9 3.852c.624 1.128 1.464 2.004 2.52 2.628 1.08.6 2.292.9 3.636.9zM110.991 7.92c2.376 0 4.26.696 5.652 2.088 1.416 1.368 2.124 3.372 2.124 6.012V27h-2.556V16.272c0-1.968-.492-3.468-1.476-4.5s-2.388-1.548-4.212-1.548c-2.04 0-3.66.612-4.86 1.836-1.176 1.2-1.764 2.868-1.764 5.004V27h-2.556V8.064h2.448v3.492a7.016 7.016 0 012.88-2.664c1.248-.648 2.688-.972 4.32-.972zm21.34 0c2.472 0 4.368.624 5.688 1.872 1.32 1.224 1.98 3.048 1.98 5.472V27h-2.448v-2.952c-.576.984-1.428 1.752-2.556 2.304-1.104.552-2.424.828-3.96.828-2.112 0-3.792-.504-5.04-1.512-1.248-1.008-1.872-2.34-1.872-3.996 0-1.608.576-2.904 1.728-3.888 1.176-.984 3.036-1.476 5.58-1.476h6.012v-1.152c0-1.632-.456-2.868-1.368-3.708-.912-.864-2.244-1.296-3.996-1.296a9.89 9.89 0 00-3.456.612c-1.104.384-2.052.924-2.844 1.62l-1.152-1.908c.96-.816 2.112-1.44 3.456-1.872a13.131 13.131 0 014.248-.684zm-.9 17.244c1.44 0 2.676-.324 3.708-.972 1.032-.672 1.8-1.632 2.304-2.88v-3.096h-5.94c-3.24 0-4.86 1.128-4.86 3.384 0 1.104.42 1.98 1.26 2.628.84.624 2.016.936 3.528.936zM146.941.288h2.556V27h-2.556V.288zm19.63 1.512h10.26c2.664 0 5.016.54 7.056 1.62 2.04 1.056 3.624 2.544 4.752 4.464 1.128 1.896 1.692 4.068 1.692 6.516 0 2.448-.564 4.632-1.692 6.552-1.128 1.896-2.712 3.384-4.752 4.464-2.04 1.056-4.392 1.584-7.056 1.584h-10.26V1.8zm10.116 22.896c2.208 0 4.14-.432 5.796-1.296 1.656-.888 2.94-2.1 3.852-3.636.912-1.56 1.368-3.348 1.368-5.364s-.456-3.792-1.368-5.328c-.912-1.56-2.196-2.772-3.852-3.636-1.656-.888-3.588-1.332-5.796-1.332h-7.452v20.592h7.452zm25.71-16.776c2.472 0 4.368.624 5.688 1.872 1.32 1.224 1.98 3.048 1.98 5.472V27h-2.448v-2.952c-.576.984-1.428 1.752-2.556 2.304-1.104.552-2.424.828-3.96.828-2.112 0-3.792-.504-5.04-1.512-1.248-1.008-1.872-2.34-1.872-3.996 0-1.608.576-2.904 1.728-3.888 1.176-.984 3.036-1.476 5.58-1.476h6.012v-1.152c0-1.632-.456-2.868-1.368-3.708-.912-.864-2.244-1.296-3.996-1.296a9.89 9.89 0 00-3.456.612c-1.104.384-2.052.924-2.844 1.62l-1.152-1.908c.96-.816 2.112-1.44 3.456-1.872a13.131 13.131 0 014.248-.684zm-.9 17.244c1.44 0 2.676-.324 3.708-.972 1.032-.672 1.8-1.632 2.304-2.88v-3.096h-5.94c-3.24 0-4.86 1.128-4.86 3.384 0 1.104.42 1.98 1.26 2.628.84.624 2.016.936 3.528.936zm31.071-17.1L223.1 29.268c-.768 1.776-1.656 3.036-2.664 3.78-1.008.744-2.22 1.116-3.636 1.116a7.423 7.423 0 01-2.556-.432 5.538 5.538 0 01-2.052-1.296l1.188-1.908c.96.96 2.112 1.44 3.456 1.44.864 0 1.596-.24 2.196-.72.624-.48 1.2-1.296 1.728-2.448l.828-1.836-8.46-18.9h2.664l7.128 16.092 7.128-16.092h2.52z" fill="#fff"/></g><defs><filter id="filter0_d_217_28" x=".5" y=".288" width="236.067" height="41.876" filterUnits="userSpaceOnUse" color-interpolation-filters="sRGB"><feFlood flood-opacity="0" result="BackgroundImageFix"/><feColorMatrix in="SourceAlpha" values="0 0 0 0 0 0 0 0 0 0 0 0 0 0 0 0 0 0 127 0" result="hardAlpha"/><feOffset dy="4"/><feGaussianBlur stdDeviation="2"/><feComposite in2="hardAlpha" operator="out"/><feColorMatrix values="0 0 0 0 0 0 0 0 0 0 0 0 0 0 0 0 0 0 0.25 0"/><feBlend in2="BackgroundImageFix" result="effect1_dropShadow_217_28"/><feBlend in="SourceGraphic" in2="effect1_dropShadow_217_28" result="shape"/></filter></defs></svg>