<svg width="70" height="25" viewBox="0 0 70 25" fill="none" xmlns="http://www.w3.org/2000/svg"><path d="M.524.4h7.98c2.072 0 3.901.42 5.488 1.26 1.587.821 2.819 1.979 3.696 3.472.877 1.475 1.316 3.164 1.316 5.068 0 1.904-.439 3.603-1.316 5.096-.877 1.475-2.11 2.632-3.696 3.472C12.405 19.589 10.576 20 8.504 20H.524V.4zm7.868 17.808c1.717 0 3.22-.336 4.508-1.008 1.288-.69 2.287-1.633 2.996-2.828.71-1.213 1.064-2.604 1.064-4.172 0-1.568-.355-2.95-1.064-4.144-.71-1.213-1.708-2.156-2.996-2.828-1.288-.69-2.79-1.036-4.508-1.036H2.596v16.016h5.796zM28.389 5.16c1.922 0 3.397.485 4.424 1.456 1.026.952 1.54 2.37 1.54 4.256V20h-1.904v-2.296c-.448.765-1.11 1.363-1.988 1.792-.859.43-1.885.644-3.08.644-1.643 0-2.95-.392-3.92-1.176-.97-.784-1.456-1.82-1.456-3.108 0-1.25.448-2.259 1.344-3.024.915-.765 2.361-1.148 4.34-1.148h4.676v-.896c0-1.27-.355-2.23-1.064-2.884-.71-.672-1.745-1.008-3.108-1.008-.934 0-1.83.159-2.688.476-.859.299-1.596.719-2.212 1.26l-.896-1.484c.747-.635 1.643-1.12 2.688-1.456a10.213 10.213 0 013.304-.532zm-.7 13.412c1.12 0 2.081-.252 2.884-.756.802-.523 1.4-1.27 1.792-2.24v-2.408h-4.62c-2.52 0-3.78.877-3.78 2.632 0 .859.326 1.54.98 2.044.653.485 1.568.728 2.744.728zm19.82.532c-.374.336-.84.597-1.4.784a5.73 5.73 0 01-1.709.252c-1.38 0-2.445-.373-3.191-1.12-.747-.747-1.12-1.801-1.12-3.164V6.952h-2.633v-1.68h2.633v-3.22h1.988v3.22h4.48v1.68h-4.48v8.792c0 .877.214 1.55.644 2.016.448.448 1.082.672 1.904.672.41 0 .802-.065 1.175-.196.393-.13.729-.317 1.009-.56l.7 1.428zm15.923-5.852h-12.32c.112 1.53.7 2.772 1.764 3.724 1.064.933 2.408 1.4 4.032 1.4.915 0 1.755-.159 2.52-.476a5.654 5.654 0 001.988-1.456l1.12 1.288a6.286 6.286 0 01-2.464 1.792c-.97.41-2.044.616-3.22.616-1.512 0-2.856-.317-4.032-.952a7.09 7.09 0 01-2.716-2.688c-.653-1.139-.98-2.427-.98-3.864 0-1.437.308-2.725.924-3.864.635-1.139 1.493-2.025 2.576-2.66 1.101-.635 2.333-.952 3.696-.952s2.585.317 3.668.952c1.083.635 1.932 1.521 2.548 2.66.616 1.12.924 2.408.924 3.864l-.028.616zM56.32 6.868c-1.419 0-2.613.457-3.584 1.372-.952.896-1.493 2.072-1.624 3.528h10.444c-.13-1.456-.681-2.632-1.652-3.528-.952-.915-2.147-1.372-3.584-1.372zm11.41 10.22c.43 0 .784.15 1.064.448.28.28.42.635.42 1.064 0 .224-.037.467-.112.728a5.98 5.98 0 01-.28.896l-1.176 3.864h-1.344l.952-4.06a1.435 1.435 0 01-.728-.504 1.548 1.548 0 01-.28-.924c0-.43.14-.784.42-1.064.28-.299.635-.448 1.064-.448z" fill="#000"/></svg>