<svg width="273" height="36" viewBox="0 0 273 36" fill="none" xmlns="http://www.w3.org/2000/svg"><g filter="url(#filter0_d_217_48)"><path d="M41.993 1.8L33.497 27h-2.808l-7.38-21.492L15.893 27h-2.772L4.625 1.8h2.736l7.272 21.672L22.157 1.8h2.484l7.416 21.78 7.38-21.78h2.556zm4.239 6.264h2.556V27h-2.556V8.064zm1.296-4.14a1.81 1.81 0 01-1.332-.54c-.36-.36-.54-.792-.54-1.296 0-.48.18-.9.54-1.26.36-.36.804-.54 1.332-.54s.972.18 1.332.54c.36.336.54.744.54 1.224 0 .528-.18.972-.54 1.332-.36.36-.804.54-1.332.54zm18.02 3.996c2.376 0 4.26.696 5.652 2.088 1.416 1.368 2.124 3.372 2.124 6.012V27h-2.556V16.272c0-1.968-.492-3.468-1.476-4.5s-2.388-1.548-4.212-1.548c-2.04 0-3.66.612-4.86 1.836-1.176 1.2-1.764 2.868-1.764 5.004V27H55.9V8.064h2.448v3.492a7.016 7.016 0 012.88-2.664c1.248-.648 2.688-.972 4.32-.972zm24.687 17.928c-.48.432-1.08.768-1.8 1.008a7.367 7.367 0 01-2.196.324c-1.776 0-3.144-.48-4.104-1.44s-1.44-2.316-1.44-4.068V10.224h-3.384v-2.16h3.384v-4.14h2.556v4.14h5.76v2.16h-5.76v11.304c0 1.128.276 1.992.828 2.592.576.576 1.392.864 2.448.864.528 0 1.032-.084 1.512-.252a3.776 3.776 0 001.296-.72l.9 1.836zm20.473-7.524h-15.84c.144 1.968.9 3.564 2.268 4.788 1.368 1.2 3.096 1.8 5.184 1.8 1.176 0 2.256-.204 3.24-.612a7.27 7.27 0 002.556-1.872l1.44 1.656c-.84 1.008-1.896 1.776-3.168 2.304-1.248.528-2.628.792-4.14.792-1.944 0-3.672-.408-5.184-1.224a9.115 9.115 0 01-3.492-3.456c-.84-1.464-1.26-3.12-1.26-4.968 0-1.848.396-3.504 1.188-4.968.816-1.464 1.92-2.604 3.312-3.42 1.416-.816 3-1.224 4.752-1.224 1.752 0 3.324.408 4.716 1.224 1.392.816 2.484 1.956 3.276 3.42.792 1.44 1.188 3.096 1.188 4.968l-.036.792zm-9.144-8.208c-1.824 0-3.36.588-4.608 1.764-1.224 1.152-1.92 2.664-2.088 4.536h13.428c-.168-1.872-.876-3.384-2.124-4.536-1.224-1.176-2.76-1.764-4.608-1.764zm16.831 1.656c.6-1.272 1.488-2.232 2.664-2.88 1.2-.648 2.676-.972 4.428-.972v2.484l-.612-.036c-1.992 0-3.552.612-4.68 1.836-1.128 1.224-1.692 2.94-1.692 5.148V27h-2.556V8.064h2.448v3.708zm26.499 15.408a15.09 15.09 0 01-4.428-.648c-1.392-.456-2.484-1.02-3.276-1.692l1.152-2.016c.792.624 1.788 1.14 2.988 1.548 1.2.384 2.448.576 3.744.576 1.728 0 3-.264 3.816-.792.84-.552 1.26-1.32 1.26-2.304 0-.696-.228-1.236-.684-1.62-.456-.408-1.032-.708-1.728-.9-.696-.216-1.62-.42-2.772-.612-1.536-.288-2.772-.576-3.708-.864a5.725 5.725 0 01-2.412-1.548c-.648-.72-.972-1.716-.972-2.988 0-1.584.66-2.88 1.98-3.888 1.32-1.008 3.156-1.512 5.508-1.512 1.224 0 2.448.168 3.672.504 1.224.312 2.232.732 3.024 1.26l-1.116 2.052c-1.56-1.08-3.42-1.62-5.58-1.62-1.632 0-2.868.288-3.708.864-.816.576-1.224 1.332-1.224 2.268 0 .72.228 1.296.684 1.728.48.432 1.068.756 1.764.972.696.192 1.656.396 2.88.612 1.512.288 2.724.576 3.636.864.912.288 1.692.78 2.34 1.476.648.696.972 1.656.972 2.88 0 1.656-.696 2.976-2.088 3.96-1.368.96-3.276 1.44-5.724 1.44zm20.277 0c-1.824 0-3.468-.408-4.932-1.224a9.189 9.189 0 01-3.456-3.456c-.84-1.464-1.26-3.12-1.26-4.968 0-1.848.42-3.504 1.26-4.968a8.929 8.929 0 013.456-3.42c1.464-.816 3.108-1.224 4.932-1.224 1.824 0 3.468.408 4.932 1.224a8.68 8.68 0 013.42 3.42c.84 1.464 1.26 3.12 1.26 4.968 0 1.848-.42 3.504-1.26 4.968a8.929 8.929 0 01-3.42 3.456c-1.464.816-3.108 1.224-4.932 1.224zm0-2.268c1.344 0 2.544-.3 3.6-.9a6.486 6.486 0 002.52-2.628c.6-1.128.9-2.412.9-3.852s-.3-2.724-.9-3.852c-.6-1.128-1.44-1.992-2.52-2.592-1.056-.624-2.256-.936-3.6-.936-1.344 0-2.556.312-3.636.936-1.056.6-1.896 1.464-2.52 2.592-.6 1.128-.9 2.412-.9 3.852s.3 2.724.9 3.852c.624 1.128 1.464 2.004 2.52 2.628 1.08.6 2.292.9 3.636.9zM180.002.288h2.556V27h-2.556V.288zm14.743 26.892a15.09 15.09 0 01-4.428-.648c-1.392-.456-2.484-1.02-3.276-1.692l1.152-2.016c.792.624 1.788 1.14 2.988 1.548 1.2.384 2.448.576 3.744.576 1.728 0 3-.264 3.816-.792.84-.552 1.26-1.32 1.26-2.304 0-.696-.228-1.236-.684-1.62-.456-.408-1.032-.708-1.728-.9-.696-.216-1.62-.42-2.772-.612-1.536-.288-2.772-.576-3.708-.864a5.725 5.725 0 01-2.412-1.548c-.648-.72-.972-1.716-.972-2.988 0-1.584.66-2.88 1.98-3.888 1.32-1.008 3.156-1.512 5.508-1.512 1.224 0 2.448.168 3.672.504 1.224.312 2.232.732 3.024 1.26l-1.116 2.052c-1.56-1.08-3.42-1.62-5.58-1.62-1.632 0-2.868.288-3.708.864-.816.576-1.224 1.332-1.224 2.268 0 .72.228 1.296.684 1.728.48.432 1.068.756 1.764.972.696.192 1.656.396 2.88.612 1.512.288 2.724.576 3.636.864.912.288 1.692.78 2.34 1.476.648.696.972 1.656.972 2.88 0 1.656-.696 2.976-2.088 3.96-1.368.96-3.276 1.44-5.724 1.44zm22.51-1.332c-.48.432-1.08.768-1.8 1.008a7.367 7.367 0 01-2.196.324c-1.776 0-3.144-.48-4.104-1.44s-1.44-2.316-1.44-4.068V10.224h-3.384v-2.16h3.384v-4.14h2.556v4.14h5.76v2.16h-5.76v11.304c0 1.128.276 1.992.828 2.592.576.576 1.392.864 2.448.864.528 0 1.032-.084 1.512-.252a3.776 3.776 0 001.296-.72l.9 1.836zm4.653-17.784h2.556V27h-2.556V8.064zm1.296-4.14a1.81 1.81 0 01-1.332-.54c-.36-.36-.54-.792-.54-1.296 0-.48.18-.9.54-1.26.36-.36.804-.54 1.332-.54s.972.18 1.332.54c.36.336.54.744.54 1.224 0 .528-.18.972-.54 1.332-.36.36-.804.54-1.332.54zm16.22 23.256c-1.872 0-3.552-.408-5.04-1.224a8.929 8.929 0 01-3.456-3.42c-.84-1.488-1.26-3.156-1.26-5.004 0-1.848.42-3.504 1.26-4.968a8.929 8.929 0 013.456-3.42c1.488-.816 3.168-1.224 5.04-1.224 1.632 0 3.084.324 4.356.972a7.123 7.123 0 013.06 2.772l-1.908 1.296c-.624-.936-1.416-1.632-2.376-2.088a6.905 6.905 0 00-3.132-.72c-1.368 0-2.604.312-3.708.936-1.08.6-1.932 1.464-2.556 2.592-.6 1.128-.9 2.412-.9 3.852 0 1.464.3 2.76.9 3.888a6.8 6.8 0 002.556 2.592c1.104.6 2.34.9 3.708.9 1.128 0 2.172-.228 3.132-.684.96-.456 1.752-1.152 2.376-2.088l1.908 1.296a7.358 7.358 0 01-3.06 2.808c-1.296.624-2.748.936-4.356.936zm28.608-8.856h-15.84c.144 1.968.9 3.564 2.268 4.788 1.368 1.2 3.096 1.8 5.184 1.8 1.176 0 2.256-.204 3.24-.612a7.27 7.27 0 002.556-1.872l1.44 1.656c-.84 1.008-1.896 1.776-3.168 2.304-1.248.528-2.628.792-4.14.792-1.944 0-3.672-.408-5.184-1.224a9.115 9.115 0 01-3.492-3.456c-.84-1.464-1.26-3.12-1.26-4.968 0-1.848.396-3.504 1.188-4.968.816-1.464 1.92-2.604 3.312-3.42 1.416-.816 3-1.224 4.752-1.224 1.752 0 3.324.408 4.716 1.224 1.392.816 2.484 1.956 3.276 3.42.792 1.44 1.188 3.096 1.188 4.968l-.036.792zm-9.144-8.208c-1.824 0-3.36.588-4.608 1.764-1.224 1.152-1.92 2.664-2.088 4.536h13.428c-.168-1.872-.876-3.384-2.124-4.536-1.224-1.176-2.76-1.764-4.608-1.764z" fill="#fff"/></g><defs><filter id="filter0_d_217_48" x=".625" y=".288" width="271.443" height="34.892" filterUnits="userSpaceOnUse" color-interpolation-filters="sRGB"><feFlood flood-opacity="0" result="BackgroundImageFix"/><feColorMatrix in="SourceAlpha" values="0 0 0 0 0 0 0 0 0 0 0 0 0 0 0 0 0 0 127 0" result="hardAlpha"/><feOffset dy="4"/><feGaussianBlur stdDeviation="2"/><feComposite in2="hardAlpha" operator="out"/><feColorMatrix values="0 0 0 0 0 0 0 0 0 0 0 0 0 0 0 0 0 0 0.25 0"/><feBlend in2="BackgroundImageFix" result="effect1_dropShadow_217_48"/><feBlend in="SourceGraphic" in2="effect1_dropShadow_217_48" result="shape"/></filter></defs></svg>