<svg width="1405" height="95" viewBox="0 0 1405 95" fill="none" xmlns="http://www.w3.org/2000/svg"><path d="M.967 1.4H3.04v17.808h10.976V21H.967V1.4zm21.87 19.74c-1.419 0-2.697-.317-3.836-.952a7.147 7.147 0 01-2.688-2.688c-.653-1.139-.98-2.427-.98-3.864 0-1.437.327-2.725.98-3.864A6.946 6.946 0 0119 7.112c1.139-.635 2.417-.952 3.836-.952s2.697.317 3.836.952a6.751 6.751 0 012.66 2.66c.653 1.139.98 2.427.98 3.864 0 1.437-.327 2.725-.98 3.864a6.944 6.944 0 01-2.66 2.688c-1.139.635-2.417.952-3.836.952zm0-1.764c1.045 0 1.979-.233 2.8-.7a5.044 5.044 0 001.96-2.044c.467-.877.7-1.876.7-2.996s-.233-2.119-.7-2.996a4.86 4.86 0 00-1.96-2.016c-.821-.485-1.755-.728-2.8-.728s-1.988.243-2.828.728c-.821.467-1.475 1.139-1.96 2.016-.467.877-.7 1.876-.7 2.996s.233 2.119.7 2.996c.485.877 1.139 1.559 1.96 2.044.84.467 1.783.7 2.828.7zm13.439-10.22c.466-.99 1.157-1.736 2.072-2.24.933-.504 2.08-.756 3.444-.756v1.932l-.476-.028c-1.55 0-2.763.476-3.64 1.428-.878.952-1.316 2.287-1.316 4.004V21h-1.988V6.272h1.904v2.884zm21.802 5.096h-12.32c.112 1.53.7 2.772 1.764 3.724 1.064.933 2.408 1.4 4.032 1.4.915 0 1.755-.159 2.52-.476a5.654 5.654 0 001.988-1.456l1.12 1.288a6.286 6.286 0 01-2.464 1.792c-.97.41-2.044.616-3.22.616-1.512 0-2.856-.317-4.032-.952A7.09 7.09 0 0144.75 17.5c-.653-1.139-.98-2.427-.98-3.864 0-1.437.308-2.725.924-3.864.635-1.139 1.494-2.025 2.576-2.66 1.102-.635 2.334-.952 3.696-.952 1.363 0 2.586.317 3.668.952 1.083.635 1.932 1.521 2.548 2.66.616 1.12.924 2.408.924 3.864l-.028.616zm-7.112-6.384c-1.418 0-2.613.457-3.584 1.372-.952.896-1.493 2.072-1.624 3.528h10.444c-.13-1.456-.68-2.632-1.652-3.528-.952-.915-2.146-1.372-3.584-1.372zM80.521 6.16c1.848 0 3.294.532 4.34 1.596 1.064 1.064 1.596 2.632 1.596 4.704V21h-1.988v-8.344c0-1.53-.373-2.697-1.12-3.5-.728-.803-1.764-1.204-3.108-1.204-1.53 0-2.735.476-3.612 1.428-.878.933-1.316 2.23-1.316 3.892V21h-1.988v-8.344c0-1.53-.374-2.697-1.12-3.5-.728-.803-1.773-1.204-3.136-1.204-1.512 0-2.716.476-3.612 1.428-.877.933-1.316 2.23-1.316 3.892V21h-1.988V6.272h1.904V8.96a5.311 5.311 0 012.184-2.072c.933-.485 2.007-.728 3.22-.728 1.232 0 2.296.261 3.192.784.914.523 1.596 1.297 2.044 2.324A5.67 5.67 0 0177.02 7c1.026-.56 2.193-.84 3.5-.84zm18.655.112h1.988V21h-1.988V6.272zm1.008-3.22c-.41 0-.756-.14-1.036-.42-.28-.28-.42-.616-.42-1.008 0-.373.14-.7.42-.98.28-.28.626-.42 1.036-.42.411 0 .756.14 1.036.42.28.261.42.579.42.952 0 .41-.14.756-.42 1.036-.28.28-.625.42-1.036.42zm14.1 3.108c1.381 0 2.632.317 3.752.952a6.615 6.615 0 012.632 2.632c.634 1.139.952 2.436.952 3.892 0 1.475-.318 2.781-.952 3.92a6.806 6.806 0 01-2.632 2.66c-1.102.616-2.352.924-3.752.924-1.195 0-2.278-.243-3.248-.728-.952-.504-1.736-1.232-2.352-2.184v8.204h-1.988V6.272h1.904v2.912a6.147 6.147 0 012.352-2.24c.989-.523 2.1-.784 3.332-.784zm-.14 13.216c1.026 0 1.96-.233 2.8-.7a5.047 5.047 0 001.96-2.044c.485-.877.728-1.876.728-2.996s-.243-2.11-.728-2.968a5.047 5.047 0 00-1.96-2.044c-.84-.485-1.774-.728-2.8-.728-1.046 0-1.988.243-2.828.728-.822.485-1.475 1.167-1.96 2.044-.467.859-.7 1.848-.7 2.968 0 1.12.233 2.119.7 2.996.485.877 1.138 1.559 1.96 2.044.84.467 1.782.7 2.828.7zm15.476 1.764c-1.194 0-2.342-.168-3.444-.504-1.082-.355-1.932-.793-2.548-1.316l.896-1.568c.616.485 1.391.887 2.324 1.204a9.498 9.498 0 002.912.448c1.344 0 2.334-.205 2.968-.616.654-.43.98-1.027.98-1.792 0-.541-.177-.961-.532-1.26-.354-.317-.802-.55-1.344-.7-.541-.168-1.26-.327-2.156-.476-1.194-.224-2.156-.448-2.884-.672a4.455 4.455 0 01-1.876-1.204c-.504-.56-.756-1.335-.756-2.324 0-1.232.514-2.24 1.54-3.024 1.027-.784 2.455-1.176 4.284-1.176.952 0 1.904.13 2.856.392.952.243 1.736.57 2.352.98l-.868 1.596c-1.213-.84-2.66-1.26-4.34-1.26-1.269 0-2.23.224-2.884.672-.634.448-.952 1.036-.952 1.764 0 .56.178 1.008.532 1.344.374.336.831.588 1.372.756.542.15 1.288.308 2.24.476 1.176.224 2.119.448 2.828.672.71.224 1.316.607 1.82 1.148.504.541.756 1.288.756 2.24 0 1.288-.541 2.315-1.624 3.08-1.064.747-2.548 1.12-4.452 1.12zm23.024-14.868V21h-1.904v-2.688a5.558 5.558 0 01-2.156 2.1c-.915.485-1.96.728-3.136.728-1.923 0-3.444-.532-4.564-1.596-1.102-1.083-1.652-2.66-1.652-4.732v-8.54h1.988v8.344c0 1.55.382 2.725 1.148 3.528.765.803 1.857 1.204 3.276 1.204 1.549 0 2.772-.467 3.668-1.4.896-.952 1.344-2.268 1.344-3.948V6.272h1.988zm23.935-.112c1.848 0 3.295.532 4.34 1.596 1.064 1.064 1.596 2.632 1.596 4.704V21h-1.988v-8.344c0-1.53-.373-2.697-1.12-3.5-.728-.803-1.764-1.204-3.108-1.204-1.53 0-2.734.476-3.612 1.428-.877.933-1.316 2.23-1.316 3.892V21h-1.988v-8.344c0-1.53-.373-2.697-1.12-3.5-.728-.803-1.773-1.204-3.136-1.204-1.512 0-2.716.476-3.612 1.428-.877.933-1.316 2.23-1.316 3.892V21h-1.988V6.272h1.904V8.96a5.316 5.316 0 012.184-2.072c.934-.485 2.007-.728 3.22-.728 1.232 0 2.296.261 3.192.784.915.523 1.596 1.297 2.044 2.324A5.673 5.673 0 01173.079 7c1.027-.56 2.194-.84 3.5-.84zM208.675.224V21h-1.904v-2.912a6.037 6.037 0 01-2.38 2.268c-.971.523-2.072.784-3.304.784-1.381 0-2.632-.317-3.752-.952a6.806 6.806 0 01-2.632-2.66c-.635-1.139-.952-2.436-.952-3.892s.317-2.753.952-3.892a6.615 6.615 0 012.632-2.632c1.12-.635 2.371-.952 3.752-.952 1.195 0 2.268.252 3.22.756.971.485 1.764 1.204 2.38 2.156V.224h1.988zm-7.42 19.152c1.027 0 1.951-.233 2.772-.7a5.047 5.047 0 001.96-2.044c.485-.877.728-1.876.728-2.996s-.243-2.119-.728-2.996a4.863 4.863 0 00-1.96-2.016c-.821-.485-1.745-.728-2.772-.728-1.045 0-1.988.243-2.828.728-.821.467-1.475 1.139-1.96 2.016-.467.877-.7 1.876-.7 2.996s.233 2.119.7 2.996a5.298 5.298 0 001.96 2.044c.84.467 1.783.7 2.828.7zm18.976 1.764c-1.418 0-2.697-.317-3.836-.952a7.156 7.156 0 01-2.688-2.688c-.653-1.139-.98-2.427-.98-3.864 0-1.437.327-2.725.98-3.864a6.954 6.954 0 012.688-2.66c1.139-.635 2.418-.952 3.836-.952 1.419 0 2.698.317 3.836.952a6.745 6.745 0 012.66 2.66c.654 1.139.98 2.427.98 3.864 0 1.437-.326 2.725-.98 3.864a6.938 6.938 0 01-2.66 2.688c-1.138.635-2.417.952-3.836.952zm0-1.764c1.046 0 1.979-.233 2.8-.7a5.04 5.04 0 001.96-2.044c.467-.877.7-1.876.7-2.996s-.233-2.119-.7-2.996a4.857 4.857 0 00-1.96-2.016c-.821-.485-1.754-.728-2.8-.728-1.045 0-1.988.243-2.828.728-.821.467-1.474 1.139-1.96 2.016-.466.877-.7 1.876-.7 2.996s.234 2.119.7 2.996c.486.877 1.139 1.559 1.96 2.044.84.467 1.783.7 2.828.7zM231.766.224h1.988V21h-1.988V.224zm13.54 20.916c-1.419 0-2.698-.317-3.836-.952a7.141 7.141 0 01-2.688-2.688c-.654-1.139-.98-2.427-.98-3.864 0-1.437.326-2.725.98-3.864a6.94 6.94 0 012.688-2.66c1.138-.635 2.417-.952 3.836-.952 1.418 0 2.697.317 3.836.952a6.758 6.758 0 012.66 2.66c.653 1.139.98 2.427.98 3.864 0 1.437-.327 2.725-.98 3.864a6.951 6.951 0 01-2.66 2.688c-1.139.635-2.418.952-3.836.952zm0-1.764c1.045 0 1.978-.233 2.8-.7a5.047 5.047 0 001.96-2.044c.466-.877.7-1.876.7-2.996s-.234-2.119-.7-2.996a4.863 4.863 0 00-1.96-2.016c-.822-.485-1.755-.728-2.8-.728-1.046 0-1.988.243-2.828.728-.822.467-1.475 1.139-1.96 2.016-.467.877-.7 1.876-.7 2.996s.233 2.119.7 2.996c.485.877 1.138 1.559 1.96 2.044.84.467 1.782.7 2.828.7zm13.438-10.22c.467-.99 1.158-1.736 2.072-2.24.934-.504 2.082-.756 3.444-.756v1.932l-.476-.028c-1.549 0-2.762.476-3.64 1.428-.877.952-1.316 2.287-1.316 4.004V21h-1.988V6.272h1.904v2.884zm20.611 11.984c-1.195 0-2.343-.168-3.444-.504-1.083-.355-1.932-.793-2.548-1.316l.896-1.568c.616.485 1.39.887 2.324 1.204a9.493 9.493 0 002.912.448c1.344 0 2.333-.205 2.968-.616.653-.43.98-1.027.98-1.792 0-.541-.178-.961-.532-1.26-.355-.317-.803-.55-1.344-.7-.542-.168-1.26-.327-2.156-.476-1.195-.224-2.156-.448-2.884-.672a4.45 4.45 0 01-1.876-1.204c-.504-.56-.756-1.335-.756-2.324 0-1.232.513-2.24 1.54-3.024 1.026-.784 2.454-1.176 4.284-1.176.952 0 1.904.13 2.856.392.952.243 1.736.57 2.352.98l-.868 1.596c-1.214-.84-2.66-1.26-4.34-1.26-1.27 0-2.231.224-2.884.672-.635.448-.952 1.036-.952 1.764 0 .56.177 1.008.532 1.344.373.336.83.588 1.372.756.541.15 1.288.308 2.24.476 1.176.224 2.118.448 2.828.672a4.157 4.157 0 011.82 1.148c.504.541.756 1.288.756 2.24 0 1.288-.542 2.315-1.624 3.08-1.064.747-2.548 1.12-4.452 1.12zm9.751-14.868h1.988V21h-1.988V6.272zm1.008-3.22c-.411 0-.756-.14-1.036-.42-.28-.28-.42-.616-.42-1.008 0-.373.14-.7.42-.98.28-.28.625-.42 1.036-.42.411 0 .756.14 1.036.42.28.261.42.579.42.952 0 .41-.14.756-.42 1.036-.28.28-.625.42-1.036.42zm14.268 17.052c-.374.336-.84.597-1.4.784a5.735 5.735 0 01-1.708.252c-1.382 0-2.446-.373-3.192-1.12-.747-.747-1.12-1.801-1.12-3.164V7.952h-2.632v-1.68h2.632v-3.22h1.988v3.22h4.48v1.68h-4.48v8.792c0 .877.214 1.55.644 2.016.448.448 1.082.672 1.904.672.41 0 .802-.065 1.176-.196.392-.13.728-.317 1.008-.56l.7 1.428zM320.481 6.16c1.922 0 3.397.485 4.424 1.456 1.026.952 1.54 2.37 1.54 4.256V21h-1.904v-2.296c-.448.765-1.111 1.363-1.988 1.792-.859.43-1.886.644-3.08.644-1.643 0-2.95-.392-3.92-1.176-.971-.784-1.456-1.82-1.456-3.108 0-1.25.448-2.259 1.344-3.024.914-.765 2.361-1.148 4.34-1.148h4.676v-.896c0-1.27-.355-2.23-1.064-2.884-.71-.672-1.746-1.008-3.108-1.008-.934 0-1.83.159-2.688.476-.859.299-1.596.719-2.212 1.26l-.896-1.484c.746-.635 1.642-1.12 2.688-1.456a10.209 10.209 0 013.304-.532zm-.7 13.412c1.12 0 2.081-.252 2.884-.756.802-.523 1.4-1.27 1.792-2.24v-2.408h-4.62c-2.52 0-3.78.877-3.78 2.632 0 .859.326 1.54.98 2.044.653.485 1.568.728 2.744.728zM350.212 6.16c1.848 0 3.295.532 4.34 1.596 1.064 1.064 1.596 2.632 1.596 4.704V21h-1.988v-8.344c0-1.53-.373-2.697-1.12-3.5-.728-.803-1.764-1.204-3.108-1.204-1.53 0-2.734.476-3.612 1.428-.877.933-1.316 2.23-1.316 3.892V21h-1.988v-8.344c0-1.53-.373-2.697-1.12-3.5-.728-.803-1.773-1.204-3.136-1.204-1.512 0-2.716.476-3.612 1.428-.877.933-1.316 2.23-1.316 3.892V21h-1.988V6.272h1.904V8.96a5.316 5.316 0 012.184-2.072c.934-.485 2.007-.728 3.22-.728 1.232 0 2.296.261 3.192.784.915.523 1.596 1.297 2.044 2.324A5.673 5.673 0 01346.712 7c1.027-.56 2.194-.84 3.5-.84zm24.206 8.092h-12.32c.112 1.53.7 2.772 1.764 3.724 1.064.933 2.408 1.4 4.032 1.4.915 0 1.755-.159 2.52-.476a5.648 5.648 0 001.988-1.456l1.12 1.288a6.28 6.28 0 01-2.464 1.792c-.97.41-2.044.616-3.22.616-1.512 0-2.856-.317-4.032-.952a7.096 7.096 0 01-2.716-2.688c-.653-1.139-.98-2.427-.98-3.864 0-1.437.308-2.725.924-3.864.635-1.139 1.494-2.025 2.576-2.66 1.102-.635 2.334-.952 3.696-.952 1.363 0 2.586.317 3.668.952 1.083.635 1.932 1.521 2.548 2.66.616 1.12.924 2.408.924 3.864l-.028.616zm-7.112-6.384c-1.418 0-2.613.457-3.584 1.372-.952.896-1.493 2.072-1.624 3.528h10.444c-.13-1.456-.681-2.632-1.652-3.528-.952-.915-2.146-1.372-3.584-1.372zm18.943 12.236c-.374.336-.84.597-1.4.784a5.735 5.735 0 01-1.708.252c-1.382 0-2.446-.373-3.192-1.12-.747-.747-1.12-1.801-1.12-3.164V7.952h-2.632v-1.68h2.632v-3.22h1.988v3.22h4.48v1.68h-4.48v8.792c0 .877.214 1.55.644 2.016.448.448 1.082.672 1.904.672.41 0 .802-.065 1.176-.196.392-.13.728-.317 1.008-.56l.7 1.428zm4.116-2.016c.429 0 .784.15 1.064.448.28.28.42.635.42 1.064 0 .224-.037.467-.112.728-.056.261-.149.56-.28.896l-1.176 3.864h-1.344l.952-4.06a1.436 1.436 0 01-.728-.504 1.546 1.546 0 01-.28-.924c0-.43.14-.784.42-1.064.28-.299.635-.448 1.064-.448zm19.142 3.052c-1.456 0-2.763-.317-3.92-.952a6.94 6.94 0 01-2.688-2.66c-.653-1.157-.98-2.455-.98-3.892 0-1.437.327-2.725.98-3.864a6.94 6.94 0 012.688-2.66c1.157-.635 2.464-.952 3.92-.952 1.269 0 2.399.252 3.388.756a5.542 5.542 0 012.38 2.156l-1.484 1.008a4.534 4.534 0 00-1.848-1.624 5.372 5.372 0 00-2.436-.56c-1.064 0-2.025.243-2.884.728a5.039 5.039 0 00-1.988 2.016c-.467.877-.7 1.876-.7 2.996 0 1.139.233 2.147.7 3.024a5.286 5.286 0 001.988 2.016c.859.467 1.82.7 2.884.7.877 0 1.689-.177 2.436-.532a4.534 4.534 0 001.848-1.624l1.484 1.008a5.725 5.725 0 01-2.38 2.184c-1.008.485-2.137.728-3.388.728zm15.447 0c-1.419 0-2.697-.317-3.836-.952a7.141 7.141 0 01-2.688-2.688c-.653-1.139-.98-2.427-.98-3.864 0-1.437.327-2.725.98-3.864a6.94 6.94 0 012.688-2.66c1.139-.635 2.417-.952 3.836-.952s2.697.317 3.836.952a6.752 6.752 0 012.66 2.66c.653 1.139.98 2.427.98 3.864 0 1.437-.327 2.725-.98 3.864a6.944 6.944 0 01-2.66 2.688c-1.139.635-2.417.952-3.836.952zm0-1.764c1.045 0 1.979-.233 2.8-.7a5.047 5.047 0 001.96-2.044c.467-.877.7-1.876.7-2.996s-.233-2.119-.7-2.996a4.863 4.863 0 00-1.96-2.016c-.821-.485-1.755-.728-2.8-.728s-1.988.243-2.828.728c-.821.467-1.475 1.139-1.96 2.016-.467.877-.7 1.876-.7 2.996s.233 2.119.7 2.996a5.298 5.298 0 001.96 2.044c.84.467 1.783.7 2.828.7zM443.993 6.16c1.848 0 3.313.541 4.396 1.624 1.101 1.064 1.652 2.623 1.652 4.676V21h-1.988v-8.344c0-1.53-.383-2.697-1.148-3.5-.766-.803-1.858-1.204-3.276-1.204-1.587 0-2.847.476-3.78 1.428-.915.933-1.372 2.23-1.372 3.892V21h-1.988V6.272h1.904v2.716a5.455 5.455 0 012.24-2.072c.97-.504 2.09-.756 3.36-.756zm15.393 14.98c-1.195 0-2.343-.168-3.444-.504-1.083-.355-1.932-.793-2.548-1.316l.896-1.568c.616.485 1.391.887 2.324 1.204a9.493 9.493 0 002.912.448c1.344 0 2.333-.205 2.968-.616.653-.43.98-1.027.98-1.792 0-.541-.177-.961-.532-1.26-.355-.317-.803-.55-1.344-.7-.541-.168-1.26-.327-2.156-.476-1.195-.224-2.156-.448-2.884-.672a4.455 4.455 0 01-1.876-1.204c-.504-.56-.756-1.335-.756-2.324 0-1.232.513-2.24 1.54-3.024 1.027-.784 2.455-1.176 4.284-1.176.952 0 1.904.13 2.856.392.952.243 1.736.57 2.352.98l-.868 1.596c-1.213-.84-2.66-1.26-4.34-1.26-1.269 0-2.231.224-2.884.672-.635.448-.952 1.036-.952 1.764 0 .56.177 1.008.532 1.344.373.336.831.588 1.372.756.541.15 1.288.308 2.24.476 1.176.224 2.119.448 2.828.672a4.157 4.157 0 011.82 1.148c.504.541.756 1.288.756 2.24 0 1.288-.541 2.315-1.624 3.08-1.064.747-2.548 1.12-4.452 1.12zm22.575-6.888h-12.32c.112 1.53.7 2.772 1.764 3.724 1.064.933 2.408 1.4 4.032 1.4.915 0 1.755-.159 2.52-.476a5.648 5.648 0 001.988-1.456l1.12 1.288a6.28 6.28 0 01-2.464 1.792c-.97.41-2.044.616-3.22.616-1.512 0-2.856-.317-4.032-.952a7.096 7.096 0 01-2.716-2.688c-.653-1.139-.98-2.427-.98-3.864 0-1.437.308-2.725.924-3.864.635-1.139 1.494-2.025 2.576-2.66 1.102-.635 2.334-.952 3.696-.952 1.363 0 2.586.317 3.668.952 1.083.635 1.932 1.521 2.548 2.66.616 1.12.924 2.408.924 3.864l-.028.616zm-7.112-6.384c-1.418 0-2.613.457-3.584 1.372-.952.896-1.493 2.072-1.624 3.528h10.444c-.13-1.456-.681-2.632-1.652-3.528-.952-.915-2.146-1.372-3.584-1.372zM492.14 21.14c-1.456 0-2.763-.317-3.92-.952a6.94 6.94 0 01-2.688-2.66c-.654-1.157-.98-2.455-.98-3.892 0-1.437.326-2.725.98-3.864a6.94 6.94 0 012.688-2.66c1.157-.635 2.464-.952 3.92-.952 1.269 0 2.398.252 3.388.756a5.542 5.542 0 012.38 2.156l-1.484 1.008c-.486-.728-1.102-1.27-1.848-1.624a5.372 5.372 0 00-2.436-.56c-1.064 0-2.026.243-2.884.728a5.039 5.039 0 00-1.988 2.016c-.467.877-.7 1.876-.7 2.996 0 1.139.233 2.147.7 3.024a5.286 5.286 0 001.988 2.016c.858.467 1.82.7 2.884.7.877 0 1.689-.177 2.436-.532.746-.355 1.362-.896 1.848-1.624l1.484 1.008a5.725 5.725 0 01-2.38 2.184c-1.008.485-2.138.728-3.388.728zm17.593-1.036c-.373.336-.84.597-1.4.784a5.73 5.73 0 01-1.708.252c-1.381 0-2.445-.373-3.192-1.12-.747-.747-1.12-1.801-1.12-3.164V7.952h-2.632v-1.68h2.632v-3.22h1.988v3.22h4.48v1.68h-4.48v8.792c0 .877.215 1.55.644 2.016.448.448 1.083.672 1.904.672a3.53 3.53 0 001.176-.196c.392-.13.728-.317 1.008-.56l.7 1.428zm15.924-5.852h-12.32c.112 1.53.7 2.772 1.764 3.724 1.064.933 2.408 1.4 4.032 1.4.914 0 1.754-.159 2.52-.476a5.657 5.657 0 001.988-1.456l1.12 1.288a6.294 6.294 0 01-2.464 1.792c-.971.41-2.044.616-3.22.616-1.512 0-2.856-.317-4.032-.952a7.082 7.082 0 01-2.716-2.688c-.654-1.139-.98-2.427-.98-3.864 0-1.437.308-2.725.924-3.864.634-1.139 1.493-2.025 2.576-2.66 1.101-.635 2.333-.952 3.696-.952 1.362 0 2.585.317 3.668.952a6.729 6.729 0 012.548 2.66c.616 1.12.924 2.408.924 3.864l-.028.616zm-7.112-6.384c-1.419 0-2.614.457-3.584 1.372-.952.896-1.494 2.072-1.624 3.528h10.444c-.131-1.456-.682-2.632-1.652-3.528-.952-.915-2.147-1.372-3.584-1.372zm18.942 12.236c-.373.336-.84.597-1.4.784a5.73 5.73 0 01-1.708.252c-1.381 0-2.445-.373-3.192-1.12-.747-.747-1.12-1.801-1.12-3.164V7.952h-2.632v-1.68h2.632v-3.22h1.988v3.22h4.48v1.68h-4.48v8.792c0 .877.215 1.55.644 2.016.448.448 1.083.672 1.904.672a3.53 3.53 0 001.176-.196c.392-.13.728-.317 1.008-.56l.7 1.428zm16.891-13.832V21h-1.904v-2.688a5.551 5.551 0 01-2.156 2.1c-.915.485-1.96.728-3.136.728-1.923 0-3.444-.532-4.564-1.596-1.101-1.083-1.652-2.66-1.652-4.732v-8.54h1.988v8.344c0 1.55.383 2.725 1.148 3.528.765.803 1.857 1.204 3.276 1.204 1.549 0 2.772-.467 3.668-1.4.896-.952 1.344-2.268 1.344-3.948V6.272h1.988zm7.472 2.884c.466-.99 1.157-1.736 2.072-2.24.933-.504 2.081-.756 3.444-.756v1.932l-.476-.028c-1.55 0-2.763.476-3.64 1.428-.878.952-1.316 2.287-1.316 4.004V21h-1.988V6.272h1.904v2.884zm21.814-2.996c1.923 0 3.398.485 4.424 1.456 1.027.952 1.54 2.37 1.54 4.256V21h-1.904v-2.296c-.448.765-1.11 1.363-1.988 1.792-.858.43-1.885.644-3.08.644-1.642 0-2.949-.392-3.92-1.176-.97-.784-1.456-1.82-1.456-3.108 0-1.25.448-2.259 1.344-3.024.915-.765 2.362-1.148 4.34-1.148h4.676v-.896c0-1.27-.354-2.23-1.064-2.884-.709-.672-1.745-1.008-3.108-1.008-.933 0-1.829.159-2.688.476-.858.299-1.596.719-2.212 1.26l-.896-1.484c.747-.635 1.643-1.12 2.688-1.456a10.217 10.217 0 013.304-.532zm-.7 13.412c1.12 0 2.082-.252 2.884-.756.803-.523 1.4-1.27 1.792-2.24v-2.408h-4.62c-2.52 0-3.78.877-3.78 2.632 0 .859.327 1.54.98 2.044.654.485 1.568.728 2.744.728zM608.523.224V21h-1.904v-2.912a6.044 6.044 0 01-2.38 2.268c-.971.523-2.072.784-3.304.784-1.382 0-2.632-.317-3.752-.952a6.8 6.8 0 01-2.632-2.66c-.635-1.139-.952-2.436-.952-3.892s.317-2.753.952-3.892a6.609 6.609 0 012.632-2.632c1.12-.635 2.37-.952 3.752-.952 1.194 0 2.268.252 3.22.756.97.485 1.764 1.204 2.38 2.156V.224h1.988zm-7.42 19.152c1.026 0 1.95-.233 2.772-.7a5.047 5.047 0 001.96-2.044c.485-.877.728-1.876.728-2.996s-.243-2.119-.728-2.996a4.863 4.863 0 00-1.96-2.016c-.822-.485-1.746-.728-2.772-.728-1.046 0-1.988.243-2.828.728-.822.467-1.475 1.139-1.96 2.016-.467.877-.7 1.876-.7 2.996s.233 2.119.7 2.996c.485.877 1.138 1.559 1.96 2.044.84.467 1.782.7 2.828.7zm12.956-13.104h1.988V21h-1.988V6.272zm1.008-3.22c-.411 0-.756-.14-1.036-.42-.28-.28-.42-.616-.42-1.008 0-.373.14-.7.42-.98.28-.28.625-.42 1.036-.42.411 0 .756.14 1.036.42.28.261.42.579.42.952 0 .41-.14.756-.42 1.036-.28.28-.625.42-1.036.42zm14.1 3.108c1.381 0 2.632.317 3.752.952a6.615 6.615 0 012.632 2.632c.634 1.139.952 2.436.952 3.892 0 1.475-.318 2.781-.952 3.92a6.806 6.806 0 01-2.632 2.66c-1.102.616-2.352.924-3.752.924-1.195 0-2.278-.243-3.248-.728-.952-.504-1.736-1.232-2.352-2.184v8.204h-1.988V6.272h1.904v2.912a6.147 6.147 0 012.352-2.24c.989-.523 2.1-.784 3.332-.784zm-.14 13.216c1.026 0 1.96-.233 2.8-.7a5.047 5.047 0 001.96-2.044c.485-.877.728-1.876.728-2.996s-.243-2.11-.728-2.968a5.047 5.047 0 00-1.96-2.044c-.84-.485-1.774-.728-2.8-.728-1.046 0-1.988.243-2.828.728-.822.485-1.475 1.167-1.96 2.044-.467.859-.7 1.848-.7 2.968 0 1.12.233 2.119.7 2.996.485.877 1.138 1.559 1.96 2.044.84.467 1.782.7 2.828.7zm11.528-13.104h1.988V21h-1.988V6.272zm1.008-3.22c-.41 0-.756-.14-1.036-.42-.28-.28-.42-.616-.42-1.008 0-.373.14-.7.42-.98.28-.28.626-.42 1.036-.42.411 0 .756.14 1.036.42.28.261.42.579.42.952 0 .41-.14.756-.42 1.036-.28.28-.625.42-1.036.42zm10.46 18.088c-1.195 0-2.343-.168-3.444-.504-1.083-.355-1.932-.793-2.548-1.316l.896-1.568c.616.485 1.39.887 2.324 1.204a9.493 9.493 0 002.912.448c1.344 0 2.333-.205 2.968-.616.653-.43.98-1.027.98-1.792 0-.541-.178-.961-.532-1.26-.355-.317-.803-.55-1.344-.7-.542-.168-1.26-.327-2.156-.476-1.195-.224-2.156-.448-2.884-.672a4.45 4.45 0 01-1.876-1.204c-.504-.56-.756-1.335-.756-2.324 0-1.232.513-2.24 1.54-3.024 1.026-.784 2.454-1.176 4.284-1.176.952 0 1.904.13 2.856.392.952.243 1.736.57 2.352.98l-.868 1.596c-1.214-.84-2.66-1.26-4.34-1.26-1.27 0-2.231.224-2.884.672-.635.448-.952 1.036-.952 1.764 0 .56.177 1.008.532 1.344.373.336.83.588 1.372.756.541.15 1.288.308 2.24.476 1.176.224 2.118.448 2.828.672a4.157 4.157 0 011.82 1.148c.504.541.756 1.288.756 2.24 0 1.288-.542 2.315-1.624 3.08-1.064.747-2.548 1.12-4.452 1.12zm15.855 0c-1.456 0-2.763-.317-3.92-.952a6.94 6.94 0 01-2.688-2.66c-.653-1.157-.98-2.455-.98-3.892 0-1.437.327-2.725.98-3.864a6.94 6.94 0 012.688-2.66c1.157-.635 2.464-.952 3.92-.952 1.269 0 2.399.252 3.388.756a5.542 5.542 0 012.38 2.156l-1.484 1.008a4.534 4.534 0 00-1.848-1.624 5.372 5.372 0 00-2.436-.56c-1.064 0-2.025.243-2.884.728a5.039 5.039 0 00-1.988 2.016c-.467.877-.7 1.876-.7 2.996 0 1.139.233 2.147.7 3.024a5.286 5.286 0 001.988 2.016c.859.467 1.82.7 2.884.7.877 0 1.689-.177 2.436-.532a4.534 4.534 0 001.848-1.624l1.484 1.008a5.725 5.725 0 01-2.38 2.184c-1.008.485-2.137.728-3.388.728zm9.673-14.868h1.988V21h-1.988V6.272zm1.008-3.22c-.41 0-.756-.14-1.036-.42-.28-.28-.42-.616-.42-1.008 0-.373.14-.7.42-.98.28-.28.626-.42 1.036-.42.411 0 .756.14 1.036.42.28.261.42.579.42.952 0 .41-.14.756-.42 1.036-.28.28-.625.42-1.036.42zm14.016 3.108c1.848 0 3.313.541 4.396 1.624 1.101 1.064 1.652 2.623 1.652 4.676V21h-1.988v-8.344c0-1.53-.383-2.697-1.148-3.5-.766-.803-1.858-1.204-3.276-1.204-1.587 0-2.847.476-3.78 1.428-.915.933-1.372 2.23-1.372 3.892V21h-1.988V6.272h1.904v2.716a5.455 5.455 0 012.24-2.072c.97-.504 2.09-.756 3.36-.756zm25.136.112v12.936c0 2.501-.616 4.35-1.848 5.544-1.214 1.213-3.052 1.82-5.516 1.82-1.363 0-2.66-.205-3.892-.616-1.214-.392-2.203-.943-2.968-1.652l1.008-1.512c.709.635 1.568 1.13 2.576 1.484 1.026.355 2.1.532 3.22.532 1.866 0 3.238-.439 4.116-1.316.877-.859 1.316-2.203 1.316-4.032v-1.876a5.97 5.97 0 01-2.436 2.128c-.99.485-2.091.728-3.304.728-1.382 0-2.642-.299-3.78-.896a6.975 6.975 0 01-2.66-2.548c-.635-1.101-.952-2.343-.952-3.724 0-1.381.317-2.613.952-3.696a6.771 6.771 0 012.66-2.52c1.12-.597 2.38-.896 3.78-.896 1.25 0 2.38.252 3.388.756a6.106 6.106 0 012.436 2.184V6.272h1.904zm-7.532 12.404c1.064 0 2.025-.224 2.884-.672a4.961 4.961 0 001.988-1.932c.485-.821.728-1.755.728-2.8s-.243-1.97-.728-2.772a4.778 4.778 0 00-1.988-1.904c-.84-.467-1.802-.7-2.884-.7-1.064 0-2.026.224-2.884.672a5 5 0 00-1.988 1.904c-.467.821-.7 1.755-.7 2.8s.233 1.979.7 2.8a5.2 5.2 0 001.988 1.932c.858.448 1.82.672 2.884.672zm33.243-4.424h-12.32c.112 1.53.7 2.772 1.764 3.724 1.064.933 2.408 1.4 4.032 1.4.915 0 1.755-.159 2.52-.476a5.648 5.648 0 001.988-1.456l1.12 1.288a6.28 6.28 0 01-2.464 1.792c-.97.41-2.044.616-3.22.616-1.512 0-2.856-.317-4.032-.952a7.096 7.096 0 01-2.716-2.688c-.653-1.139-.98-2.427-.98-3.864 0-1.437.308-2.725.924-3.864.635-1.139 1.494-2.025 2.576-2.66 1.102-.635 2.334-.952 3.696-.952 1.363 0 2.586.317 3.668.952 1.083.635 1.932 1.521 2.548 2.66.616 1.12.924 2.408.924 3.864l-.028.616zm-7.112-6.384c-1.418 0-2.613.457-3.584 1.372-.952.896-1.493 2.072-1.624 3.528h10.444c-.13-1.456-.681-2.632-1.652-3.528-.952-.915-2.146-1.372-3.584-1.372zM747.497.224h1.988V21h-1.988V.224zm7.519 6.048h1.988V21h-1.988V6.272zm1.008-3.22c-.411 0-.756-.14-1.036-.42-.28-.28-.42-.616-.42-1.008 0-.373.14-.7.42-.98.28-.28.625-.42 1.036-.42.411 0 .756.14 1.036.42.28.261.42.579.42.952 0 .41-.14.756-.42 1.036-.28.28-.625.42-1.036.42zm14.268 17.052c-.374.336-.84.597-1.4.784a5.735 5.735 0 01-1.708.252c-1.382 0-2.446-.373-3.192-1.12-.747-.747-1.12-1.801-1.12-3.164V7.952h-2.632v-1.68h2.632v-3.22h1.988v3.22h4.48v1.68h-4.48v8.792c0 .877.214 1.55.644 2.016.448.448 1.082.672 1.904.672.41 0 .802-.065 1.176-.196.392-.13.728-.317 1.008-.56l.7 1.428zm4.116-2.016c.429 0 .784.15 1.064.448.28.28.42.635.42 1.064 0 .224-.037.467-.112.728-.056.261-.149.56-.28.896l-1.176 3.864h-1.344l.952-4.06a1.436 1.436 0 01-.728-.504 1.546 1.546 0 01-.28-.924c0-.43.14-.784.42-1.064.28-.299.635-.448 1.064-.448zm16.986 3.052c-1.195 0-2.343-.168-3.444-.504-1.083-.355-1.932-.793-2.548-1.316l.896-1.568c.616.485 1.39.887 2.324 1.204a9.493 9.493 0 002.912.448c1.344 0 2.333-.205 2.968-.616.653-.43.98-1.027.98-1.792 0-.541-.178-.961-.532-1.26-.355-.317-.803-.55-1.344-.7-.542-.168-1.26-.327-2.156-.476-1.195-.224-2.156-.448-2.884-.672a4.45 4.45 0 01-1.876-1.204c-.504-.56-.756-1.335-.756-2.324 0-1.232.513-2.24 1.54-3.024 1.026-.784 2.454-1.176 4.284-1.176.952 0 1.904.13 2.856.392.952.243 1.736.57 2.352.98l-.868 1.596c-1.214-.84-2.66-1.26-4.34-1.26-1.27 0-2.231.224-2.884.672-.635.448-.952 1.036-.952 1.764 0 .56.177 1.008.532 1.344.373.336.83.588 1.372.756.541.15 1.288.308 2.24.476 1.176.224 2.118.448 2.828.672a4.157 4.157 0 011.82 1.148c.504.541.756 1.288.756 2.24 0 1.288-.542 2.315-1.624 3.08-1.064.747-2.548 1.12-4.452 1.12zm22.575-6.888h-12.32c.112 1.53.7 2.772 1.764 3.724 1.064.933 2.408 1.4 4.032 1.4.915 0 1.755-.159 2.52-.476a5.657 5.657 0 001.988-1.456l1.12 1.288a6.287 6.287 0 01-2.464 1.792c-.971.41-2.044.616-3.22.616-1.512 0-2.856-.317-4.032-.952a7.09 7.09 0 01-2.716-2.688c-.653-1.139-.98-2.427-.98-3.864 0-1.437.308-2.725.924-3.864.635-1.139 1.493-2.025 2.576-2.66 1.101-.635 2.333-.952 3.696-.952s2.585.317 3.668.952c1.083.635 1.932 1.521 2.548 2.66.616 1.12.924 2.408.924 3.864l-.028.616zm-7.112-6.384c-1.419 0-2.613.457-3.584 1.372-.952.896-1.493 2.072-1.624 3.528h10.444c-.131-1.456-.681-2.632-1.652-3.528-.952-.915-2.147-1.372-3.584-1.372zM831.483.224V21h-1.904v-2.912a6.03 6.03 0 01-2.38 2.268c-.97.523-2.072.784-3.304.784-1.381 0-2.632-.317-3.752-.952a6.806 6.806 0 01-2.632-2.66c-.634-1.139-.952-2.436-.952-3.892s.318-2.753.952-3.892a6.615 6.615 0 012.632-2.632c1.12-.635 2.371-.952 3.752-.952 1.195 0 2.268.252 3.22.756.971.485 1.764 1.204 2.38 2.156V.224h1.988zm-7.42 19.152c1.027 0 1.951-.233 2.772-.7a5.04 5.04 0 001.96-2.044c.486-.877.728-1.876.728-2.996s-.242-2.119-.728-2.996a4.857 4.857 0 00-1.96-2.016c-.821-.485-1.745-.728-2.772-.728-1.045 0-1.988.243-2.828.728-.821.467-1.474 1.139-1.96 2.016-.466.877-.7 1.876-.7 2.996s.234 2.119.7 2.996c.486.877 1.139 1.559 1.96 2.044.84.467 1.783.7 2.828.7zM857.788.224V21h-1.904v-2.912a6.03 6.03 0 01-2.38 2.268c-.97.523-2.072.784-3.304.784-1.381 0-2.632-.317-3.752-.952a6.806 6.806 0 01-2.632-2.66c-.634-1.139-.952-2.436-.952-3.892s.318-2.753.952-3.892a6.615 6.615 0 012.632-2.632c1.12-.635 2.371-.952 3.752-.952 1.195 0 2.268.252 3.22.756.971.485 1.764 1.204 2.38 2.156V.224h1.988zm-7.42 19.152c1.027 0 1.951-.233 2.772-.7a5.04 5.04 0 001.96-2.044c.486-.877.728-1.876.728-2.996s-.242-2.119-.728-2.996a4.857 4.857 0 00-1.96-2.016c-.821-.485-1.745-.728-2.772-.728-1.045 0-1.988.243-2.828.728-.821.467-1.474 1.139-1.96 2.016-.466.877-.7 1.876-.7 2.996s.234 2.119.7 2.996c.486.877 1.139 1.559 1.96 2.044.84.467 1.783.7 2.828.7zm18.977 1.764c-1.419 0-2.698-.317-3.836-.952a7.141 7.141 0 01-2.688-2.688c-.654-1.139-.98-2.427-.98-3.864 0-1.437.326-2.725.98-3.864a6.94 6.94 0 012.688-2.66c1.138-.635 2.417-.952 3.836-.952 1.418 0 2.697.317 3.836.952a6.758 6.758 0 012.66 2.66c.653 1.139.98 2.427.98 3.864 0 1.437-.327 2.725-.98 3.864a6.951 6.951 0 01-2.66 2.688c-1.139.635-2.418.952-3.836.952zm0-1.764c1.045 0 1.978-.233 2.8-.7a5.047 5.047 0 001.96-2.044c.466-.877.7-1.876.7-2.996s-.234-2.119-.7-2.996a4.863 4.863 0 00-1.96-2.016c-.822-.485-1.755-.728-2.8-.728-1.046 0-1.988.243-2.828.728-.822.467-1.475 1.139-1.96 2.016-.467.877-.7 1.876-.7 2.996s.233 2.119.7 2.996c.485.877 1.138 1.559 1.96 2.044.84.467 1.782.7 2.828.7zm31.687-5.124h-12.32c.112 1.53.7 2.772 1.764 3.724 1.064.933 2.408 1.4 4.032 1.4.914 0 1.754-.159 2.52-.476a5.657 5.657 0 001.988-1.456l1.12 1.288a6.294 6.294 0 01-2.464 1.792c-.971.41-2.044.616-3.22.616-1.512 0-2.856-.317-4.032-.952a7.082 7.082 0 01-2.716-2.688c-.654-1.139-.98-2.427-.98-3.864 0-1.437.308-2.725.924-3.864.634-1.139 1.493-2.025 2.576-2.66 1.101-.635 2.333-.952 3.696-.952 1.362 0 2.585.317 3.668.952a6.729 6.729 0 012.548 2.66c.616 1.12.924 2.408.924 3.864l-.028.616zm-7.112-6.384c-1.419 0-2.614.457-3.584 1.372-.952.896-1.494 2.072-1.624 3.528h10.444c-.131-1.456-.682-2.632-1.652-3.528-.952-.915-2.147-1.372-3.584-1.372zm11.186-1.596h1.988V21h-1.988V6.272zm1.008-3.22c-.411 0-.756-.14-1.036-.42-.28-.28-.42-.616-.42-1.008 0-.373.14-.7.42-.98.28-.28.625-.42 1.036-.42.411 0 .756.14 1.036.42.28.261.42.579.42.952 0 .41-.14.756-.42 1.036-.28.28-.625.42-1.036.42zm19.784 3.22V21h-1.904v-2.688a5.558 5.558 0 01-2.156 2.1c-.915.485-1.96.728-3.136.728-1.923 0-3.444-.532-4.564-1.596-1.102-1.083-1.652-2.66-1.652-4.732v-8.54h1.988v8.344c0 1.55.382 2.725 1.148 3.528.765.803 1.857 1.204 3.276 1.204 1.549 0 2.772-.467 3.668-1.4.896-.952 1.344-2.268 1.344-3.948V6.272h1.988zm9.515 14.868c-1.194 0-2.342-.168-3.444-.504-1.082-.355-1.932-.793-2.548-1.316l.896-1.568c.616.485 1.391.887 2.324 1.204a9.498 9.498 0 002.912.448c1.344 0 2.334-.205 2.968-.616.654-.43.98-1.027.98-1.792 0-.541-.177-.961-.532-1.26-.354-.317-.802-.55-1.344-.7-.541-.168-1.26-.327-2.156-.476-1.194-.224-2.156-.448-2.884-.672a4.455 4.455 0 01-1.876-1.204c-.504-.56-.756-1.335-.756-2.324 0-1.232.514-2.24 1.54-3.024 1.027-.784 2.455-1.176 4.284-1.176.952 0 1.904.13 2.856.392.952.243 1.736.57 2.352.98l-.868 1.596c-1.213-.84-2.66-1.26-4.34-1.26-1.269 0-2.23.224-2.884.672-.634.448-.952 1.036-.952 1.764 0 .56.178 1.008.532 1.344.374.336.831.588 1.372.756.542.15 1.288.308 2.24.476 1.176.224 2.119.448 2.828.672.71.224 1.316.607 1.82 1.148.504.541.756 1.288.756 2.24 0 1.288-.541 2.315-1.624 3.08-1.064.747-2.548 1.12-4.452 1.12zm28.12-14.98c1.848 0 3.294.532 4.34 1.596 1.064 1.064 1.596 2.632 1.596 4.704V21h-1.988v-8.344c0-1.53-.374-2.697-1.12-3.5-.728-.803-1.764-1.204-3.108-1.204-1.531 0-2.735.476-3.612 1.428-.878.933-1.316 2.23-1.316 3.892V21h-1.988v-8.344c0-1.53-.374-2.697-1.12-3.5-.728-.803-1.774-1.204-3.136-1.204-1.512 0-2.716.476-3.612 1.428-.878.933-1.316 2.23-1.316 3.892V21h-1.988V6.272h1.904V8.96a5.304 5.304 0 012.184-2.072c.933-.485 2.006-.728 3.22-.728 1.232 0 2.296.261 3.192.784.914.523 1.596 1.297 2.044 2.324A5.667 5.667 0 01960.033 7c1.026-.56 2.193-.84 3.5-.84zm17.402 14.98c-1.419 0-2.698-.317-3.836-.952a7.141 7.141 0 01-2.688-2.688c-.654-1.139-.98-2.427-.98-3.864 0-1.437.326-2.725.98-3.864a6.94 6.94 0 012.688-2.66c1.138-.635 2.417-.952 3.836-.952 1.418 0 2.697.317 3.836.952a6.758 6.758 0 012.66 2.66c.653 1.139.98 2.427.98 3.864 0 1.437-.327 2.725-.98 3.864a6.951 6.951 0 01-2.66 2.688c-1.139.635-2.418.952-3.836.952zm0-1.764c1.045 0 1.978-.233 2.8-.7a5.047 5.047 0 001.96-2.044c.466-.877.7-1.876.7-2.996s-.234-2.119-.7-2.996a4.863 4.863 0 00-1.96-2.016c-.822-.485-1.755-.728-2.8-.728-1.046 0-1.988.243-2.828.728-.822.467-1.475 1.139-1.96 2.016-.467.877-.7 1.876-.7 2.996s.233 2.119.7 2.996c.485.877 1.138 1.559 1.96 2.044.84.467 1.782.7 2.828.7zM1005.91.224V21h-1.9v-2.912c-.6.99-1.4 1.745-2.38 2.268-.98.523-2.077.784-3.309.784-1.381 0-2.632-.317-3.752-.952a6.806 6.806 0 01-2.632-2.66c-.634-1.139-.952-2.436-.952-3.892s.318-2.753.952-3.892a6.615 6.615 0 012.632-2.632c1.12-.635 2.371-.952 3.752-.952 1.195 0 2.269.252 3.219.756a5.96 5.96 0 012.38 2.156V.224h1.99zm-7.421 19.152c1.027 0 1.951-.233 2.771-.7a5.066 5.066 0 001.96-2.044c.49-.877.73-1.876.73-2.996s-.24-2.119-.73-2.996c-.47-.877-1.12-1.55-1.96-2.016-.82-.485-1.744-.728-2.771-.728-1.045 0-1.988.243-2.828.728-.821.467-1.474 1.139-1.96 2.016-.466.877-.7 1.876-.7 2.996s.234 2.119.7 2.996c.486.877 1.139 1.559 1.96 2.044.84.467 1.783.7 2.828.7zm28.041.728c-.37.336-.84.597-1.4.784-.54.168-1.11.252-1.71.252-1.38 0-2.44-.373-3.19-1.12-.75-.747-1.12-1.801-1.12-3.164V7.952h-2.63v-1.68h2.63v-3.22h1.99v3.22h4.48v1.68h-4.48v8.792c0 .877.21 1.55.64 2.016.45.448 1.08.672 1.91.672.41 0 .8-.065 1.17-.196.39-.13.73-.317 1.01-.56l.7 1.428zm15.92-5.852h-12.32c.12 1.53.7 2.772 1.77 3.724 1.06.933 2.41 1.4 4.03 1.4.91 0 1.75-.159 2.52-.476a5.71 5.71 0 001.99-1.456l1.12 1.288a6.351 6.351 0 01-2.47 1.792c-.97.41-2.04.616-3.22.616-1.51 0-2.85-.317-4.03-.952a7.032 7.032 0 01-2.71-2.688c-.66-1.139-.98-2.427-.98-3.864 0-1.437.3-2.725.92-3.864a6.848 6.848 0 012.58-2.66c1.1-.635 2.33-.952 3.69-.952 1.36 0 2.59.317 3.67.952s1.93 1.521 2.55 2.66c.61 1.12.92 2.408.92 3.864l-.03.616zm-7.11-6.384c-1.42 0-2.61.457-3.58 1.372-.95.896-1.5 2.072-1.63 3.528h10.45c-.13-1.456-.68-2.632-1.65-3.528-.96-.915-2.15-1.372-3.59-1.372zm29.56-1.708c1.84 0 3.29.532 4.34 1.596 1.06 1.064 1.59 2.632 1.59 4.704V21h-1.99v-8.344c0-1.53-.37-2.697-1.12-3.5-.72-.803-1.76-1.204-3.1-1.204-1.53 0-2.74.476-3.62 1.428-.87.933-1.31 2.23-1.31 3.892V21h-1.99v-8.344c0-1.53-.37-2.697-1.12-3.5-.73-.803-1.77-1.204-3.14-1.204-1.51 0-2.71.476-3.61 1.428-.88.933-1.31 2.23-1.31 3.892V21h-1.99V6.272h1.9V8.96a5.272 5.272 0 012.19-2.072c.93-.485 2-.728 3.22-.728 1.23 0 2.29.261 3.19.784.91.523 1.59 1.297 2.04 2.324.54-.97 1.32-1.727 2.33-2.268 1.02-.56 2.19-.84 3.5-.84zm18.91 0c1.38 0 2.63.317 3.75.952 1.12.616 2 1.493 2.64 2.632.63 1.139.95 2.436.95 3.892 0 1.475-.32 2.781-.95 3.92a6.86 6.86 0 01-2.64 2.66c-1.1.616-2.35.924-3.75.924-1.19 0-2.28-.243-3.25-.728-.95-.504-1.73-1.232-2.35-2.184v8.204h-1.99V6.272h1.91v2.912a6.1 6.1 0 012.35-2.24c.99-.523 2.1-.784 3.33-.784zm-.14 13.216c1.03 0 1.96-.233 2.8-.7a5.066 5.066 0 001.96-2.044c.49-.877.73-1.876.73-2.996s-.24-2.11-.73-2.968a5.066 5.066 0 00-1.96-2.044c-.84-.485-1.77-.728-2.8-.728-1.04 0-1.99.243-2.83.728-.82.485-1.47 1.167-1.96 2.044-.46.859-.7 1.848-.7 2.968 0 1.12.24 2.119.7 2.996.49.877 1.14 1.559 1.96 2.044.84.467 1.79.7 2.83.7zm17.55 1.764c-1.42 0-2.7-.317-3.84-.952a7.163 7.163 0 01-2.68-2.688c-.66-1.139-.98-2.427-.98-3.864 0-1.437.32-2.725.98-3.864a6.96 6.96 0 012.68-2.66c1.14-.635 2.42-.952 3.84-.952s2.7.317 3.84.952a6.843 6.843 0 012.66 2.66c.65 1.139.98 2.427.98 3.864 0 1.437-.33 2.725-.98 3.864a7.04 7.04 0 01-2.66 2.688c-1.14.635-2.42.952-3.84.952zm0-1.764c1.05 0 1.98-.233 2.8-.7a5.066 5.066 0 001.96-2.044c.47-.877.7-1.876.7-2.996s-.23-2.119-.7-2.996c-.47-.877-1.12-1.55-1.96-2.016-.82-.485-1.75-.728-2.8-.728-1.05 0-1.99.243-2.83.728-.82.467-1.47 1.139-1.96 2.016-.46.877-.7 1.876-.7 2.996s.24 2.119.7 2.996c.49.877 1.14 1.559 1.96 2.044.84.467 1.78.7 2.83.7zm13.44-10.22c.47-.99 1.16-1.736 2.07-2.24.93-.504 2.08-.756 3.44-.756v1.932l-.47-.028c-1.55 0-2.76.476-3.64 1.428-.88.952-1.32 2.287-1.32 4.004V21h-1.99V6.272h1.91v2.884zm16.66-2.884h1.99V21h-1.99V6.272zm1.01-3.22c-.41 0-.76-.14-1.04-.42-.28-.28-.42-.616-.42-1.008 0-.373.14-.7.42-.98.28-.28.63-.42 1.04-.42.41 0 .75.14 1.03.42.28.261.42.579.42.952 0 .41-.14.756-.42 1.036-.28.28-.62.42-1.03.42zm14.01 3.108c1.85 0 3.32.541 4.4 1.624 1.1 1.064 1.65 2.623 1.65 4.676V21h-1.99v-8.344c0-1.53-.38-2.697-1.14-3.5-.77-.803-1.86-1.204-3.28-1.204-1.59 0-2.85.476-3.78 1.428-.91.933-1.37 2.23-1.37 3.892V21h-1.99V6.272h1.9v2.716a5.523 5.523 0 012.24-2.072c.98-.504 2.1-.756 3.36-.756zm17.61 14.98c-1.46 0-2.76-.317-3.92-.952a6.919 6.919 0 01-2.69-2.66c-.65-1.157-.98-2.455-.98-3.892 0-1.437.33-2.725.98-3.864a6.919 6.919 0 012.69-2.66c1.16-.635 2.46-.952 3.92-.952 1.27 0 2.4.252 3.39.756 1 .485 1.8 1.204 2.38 2.156l-1.49 1.008a4.49 4.49 0 00-1.85-1.624 5.317 5.317 0 00-2.43-.56c-1.07 0-2.03.243-2.89.728a4.989 4.989 0 00-1.98 2.016c-.47.877-.7 1.876-.7 2.996 0 1.139.23 2.147.7 3.024a5.23 5.23 0 001.98 2.016c.86.467 1.82.7 2.89.7.88 0 1.69-.177 2.43-.532a4.49 4.49 0 001.85-1.624l1.49 1.008a5.78 5.78 0 01-2.38 2.184c-1.01.485-2.14.728-3.39.728zm9.67-14.868h1.99V21h-1.99V6.272zm1.01-3.22c-.41 0-.76-.14-1.04-.42-.28-.28-.42-.616-.42-1.008 0-.373.14-.7.42-.98.28-.28.63-.42 1.04-.42.41 0 .76.14 1.04.42.28.261.42.579.42.952 0 .41-.14.756-.42 1.036-.28.28-.63.42-1.04.42zm19.95-2.828V21h-1.9v-2.912c-.6.99-1.39 1.745-2.38 2.268-.97.523-2.07.784-3.31.784-1.38 0-2.63-.317-3.75-.952a6.768 6.768 0 01-2.63-2.66c-.64-1.139-.95-2.436-.95-3.892s.31-2.753.95-3.892a6.579 6.579 0 012.63-2.632c1.12-.635 2.37-.952 3.75-.952 1.2 0 2.27.252 3.22.756a5.96 5.96 0 012.38 2.156V.224h1.99zm-7.42 19.152c1.03 0 1.95-.233 2.77-.7a5.002 5.002 0 001.96-2.044c.49-.877.73-1.876.73-2.996s-.24-2.119-.73-2.996a4.821 4.821 0 00-1.96-2.016c-.82-.485-1.74-.728-2.77-.728-1.04 0-1.99.243-2.83.728-.82.467-1.47 1.139-1.96 2.016-.46.877-.7 1.876-.7 2.996s.24 2.119.7 2.996c.49.877 1.14 1.559 1.96 2.044.84.467 1.79.7 2.83.7zm12.96-13.104h1.99V21h-1.99V6.272zm1.01-3.22c-.41 0-.76-.14-1.04-.42-.28-.28-.42-.616-.42-1.008 0-.373.14-.7.42-.98.28-.28.63-.42 1.04-.42.41 0 .75.14 1.03.42.28.261.42.579.42.952 0 .41-.14.756-.42 1.036-.28.28-.62.42-1.03.42zm19.95-2.828V21h-1.91v-2.912a5.985 5.985 0 01-2.38 2.268c-.97.523-2.07.784-3.3.784-1.38 0-2.63-.317-3.75-.952a6.768 6.768 0 01-2.63-2.66c-.64-1.139-.96-2.436-.96-3.892s.32-2.753.96-3.892a6.579 6.579 0 012.63-2.632c1.12-.635 2.37-.952 3.75-.952 1.19 0 2.27.252 3.22.756.97.485 1.76 1.204 2.38 2.156V.224h1.99zm-7.42 19.152c1.02 0 1.95-.233 2.77-.7a5.066 5.066 0 001.96-2.044c.48-.877.73-1.876.73-2.996s-.25-2.119-.73-2.996c-.47-.877-1.12-1.55-1.96-2.016-.82-.485-1.75-.728-2.77-.728-1.05 0-1.99.243-2.83.728a5.07 5.07 0 00-1.96 2.016c-.47.877-.7 1.876-.7 2.996s.23 2.119.7 2.996a5.27 5.27 0 001.96 2.044c.84.467 1.78.7 2.83.7zm26.23-13.104V21h-1.91v-2.688a5.549 5.549 0 01-2.15 2.1c-.92.485-1.96.728-3.14.728-1.92 0-3.44-.532-4.56-1.596-1.11-1.083-1.66-2.66-1.66-4.732v-8.54h1.99v8.344c0 1.55.38 2.725 1.15 3.528.77.803 1.86 1.204 3.28 1.204 1.55 0 2.77-.467 3.66-1.4.9-.952 1.35-2.268 1.35-3.948V6.272h1.99zm13.07-.112c1.85 0 3.31.541 4.39 1.624 1.1 1.064 1.66 2.623 1.66 4.676V21h-1.99v-8.344c0-1.53-.39-2.697-1.15-3.5-.77-.803-1.86-1.204-3.28-1.204-1.58 0-2.84.476-3.78 1.428-.91.933-1.37 2.23-1.37 3.892V21h-1.99V6.272h1.91v2.716a5.46 5.46 0 012.24-2.072c.97-.504 2.09-.756 3.36-.756zm19.2 13.944c-.37.336-.84.597-1.4.784-.54.168-1.11.252-1.71.252-1.38 0-2.44-.373-3.19-1.12-.75-.747-1.12-1.801-1.12-3.164V7.952h-2.63v-1.68h2.63v-3.22h1.99v3.22h4.48v1.68h-4.48v8.792c0 .877.21 1.55.64 2.016.45.448 1.08.672 1.9.672.42 0 .81-.065 1.18-.196.39-.13.73-.317 1.01-.56l.7 1.428zm24.22-13.832V21h-1.91v-2.688a5.549 5.549 0 01-2.15 2.1c-.92.485-1.96.728-3.14.728-1.92 0-3.44-.532-4.56-1.596-1.1-1.083-1.65-2.66-1.65-4.732v-8.54h1.98v8.344c0 1.55.39 2.725 1.15 3.528.77.803 1.86 1.204 3.28 1.204 1.55 0 2.77-.467 3.67-1.4.89-.952 1.34-2.268 1.34-3.948V6.272h1.99zm13.32 13.832c-.37.336-.84.597-1.4.784-.54.168-1.11.252-1.71.252-1.38 0-2.44-.373-3.19-1.12-.74-.747-1.12-1.801-1.12-3.164V7.952h-2.63v-1.68h2.63v-3.22h1.99v3.22h4.48v1.68h-4.48v8.792c0 .877.21 1.55.64 2.016.45.448 1.09.672 1.91.672.41 0 .8-.065 1.17-.196.4-.13.73-.317 1.01-.56l.7 1.428zm10.95-19.88h1.99V21h-1.99V.224zm12.67 5.936c1.92 0 3.4.485 4.42 1.456 1.03.952 1.54 2.37 1.54 4.256V21h-1.9v-2.296c-.45.765-1.11 1.363-1.99 1.792-.86.43-1.88.644-3.08.644-1.64 0-2.95-.392-3.92-1.176-.97-.784-1.45-1.82-1.45-3.108 0-1.25.44-2.259 1.34-3.024.92-.765 2.36-1.148 4.34-1.148h4.68v-.896c0-1.27-.36-2.23-1.07-2.884-.71-.672-1.74-1.008-3.11-1.008-.93 0-1.82.159-2.68.476-.86.299-1.6.719-2.22 1.26l-.89-1.484c.75-.635 1.64-1.12 2.69-1.456 1.04-.355 2.14-.532 3.3-.532zm-.7 13.412c1.12 0 2.08-.252 2.88-.756.81-.523 1.4-1.27 1.8-2.24v-2.408h-4.62c-2.52 0-3.78.877-3.78 2.632 0 .859.32 1.54.98 2.044.65.485 1.56.728 2.74.728zm19.65-13.412c1.38 0 2.63.317 3.75.952 1.12.616 2 1.493 2.64 2.632.63 1.139.95 2.436.95 3.892s-.32 2.753-.95 3.892a6.86 6.86 0 01-2.64 2.66c-1.12.635-2.37.952-3.75.952-1.23 0-2.34-.261-3.33-.784-.97-.523-1.75-1.279-2.35-2.268V21h-1.91V.224h1.99v8.848c.62-.952 1.4-1.67 2.35-2.156.97-.504 2.06-.756 3.25-.756zm-.14 13.216c1.03 0 1.96-.233 2.8-.7a5.002 5.002 0 001.96-2.044c.49-.877.73-1.876.73-2.996s-.24-2.119-.73-2.996a4.821 4.821 0 00-1.96-2.016c-.84-.485-1.77-.728-2.8-.728-1.04 0-1.99.243-2.83.728-.82.467-1.47 1.139-1.96 2.016-.46.877-.7 1.876-.7 2.996s.24 2.119.7 2.996c.49.877 1.14 1.559 1.96 2.044.84.467 1.79.7 2.83.7zm17.55 1.764c-1.42 0-2.7-.317-3.84-.952a7.163 7.163 0 01-2.68-2.688c-.66-1.139-.98-2.427-.98-3.864 0-1.437.32-2.725.98-3.864a6.96 6.96 0 012.68-2.66c1.14-.635 2.42-.952 3.84-.952s2.7.317 3.84.952a6.777 6.777 0 012.66 2.66c.65 1.139.98 2.427.98 3.864 0 1.437-.33 2.725-.98 3.864a6.972 6.972 0 01-2.66 2.688c-1.14.635-2.42.952-3.84.952zm0-1.764c1.05 0 1.98-.233 2.8-.7a5.066 5.066 0 001.96-2.044c.47-.877.7-1.876.7-2.996s-.23-2.119-.7-2.996c-.47-.877-1.12-1.55-1.96-2.016-.82-.485-1.75-.728-2.8-.728-1.04 0-1.99.243-2.83.728-.82.467-1.47 1.139-1.96 2.016-.46.877-.7 1.876-.7 2.996s.24 2.119.7 2.996c.49.877 1.14 1.559 1.96 2.044.84.467 1.79.7 2.83.7zm13.44-10.22c.47-.99 1.16-1.736 2.07-2.24.93-.504 2.08-.756 3.45-.756v1.932l-.48-.028c-1.55 0-2.76.476-3.64 1.428-.88.952-1.32 2.287-1.32 4.004V21h-1.98V6.272h1.9v2.884zm21.8 5.096h-12.32c.11 1.53.7 2.772 1.77 3.724 1.06.933 2.4 1.4 4.03 1.4.91 0 1.75-.159 2.52-.476a5.71 5.71 0 001.99-1.456l1.12 1.288a6.351 6.351 0 01-2.47 1.792c-.97.41-2.04.616-3.22.616-1.51 0-2.85-.317-4.03-.952a7.127 7.127 0 01-2.72-2.688c-.65-1.139-.98-2.427-.98-3.864 0-1.437.31-2.725.93-3.864a6.893 6.893 0 012.57-2.66c1.11-.635 2.34-.952 3.7-.952 1.36 0 2.59.317 3.67.952s1.93 1.521 2.55 2.66c.61 1.12.92 2.408.92 3.864l-.03.616zm-7.11-6.384c-1.42 0-2.61.457-3.58 1.372-.96.896-1.5 2.072-1.63 3.528h10.45c-.13-1.456-.69-2.632-1.66-3.528-.95-.915-2.14-1.372-3.58-1.372zM25.047 48.252h-12.32c.112 1.53.7 2.772 1.764 3.724 1.064.933 2.408 1.4 4.032 1.4.915 0 1.755-.159 2.52-.476a5.655 5.655 0 001.988-1.456l1.12 1.288a6.288 6.288 0 01-2.464 1.792c-.97.41-2.044.616-3.22.616-1.512 0-2.856-.317-4.032-.952A7.088 7.088 0 0111.72 51.5c-.653-1.139-.98-2.427-.98-3.864 0-1.437.308-2.725.924-3.864.635-1.139 1.493-2.025 2.576-2.66 1.101-.635 2.334-.952 3.696-.952 1.363 0 2.585.317 3.668.952a6.725 6.725 0 012.548 2.66c.616 1.12.924 2.408.924 3.864l-.028.616zm-7.112-6.384c-1.418 0-2.613.457-3.584 1.372-.952.896-1.493 2.072-1.624 3.528h10.444c-.13-1.456-.681-2.632-1.652-3.528-.952-.915-2.146-1.372-3.584-1.372zm18.943 12.236c-.374.336-.84.597-1.4.784a5.73 5.73 0 01-1.708.252c-1.382 0-2.446-.373-3.192-1.12-.747-.747-1.12-1.801-1.12-3.164v-8.904h-2.632v-1.68h2.632v-3.22h1.988v3.22h4.48v1.68h-4.48v8.792c0 .877.214 1.55.644 2.016.448.448 1.082.672 1.904.672.41 0 .802-.065 1.176-.196.392-.13.728-.317 1.008-.56l.7 1.428zm24.387-19.88V55H59.36v-2.912a6.036 6.036 0 01-2.38 2.268c-.97.523-2.072.784-3.304.784-1.382 0-2.632-.317-3.752-.952a6.804 6.804 0 01-2.632-2.66c-.635-1.139-.952-2.436-.952-3.892s.317-2.753.952-3.892a6.613 6.613 0 012.632-2.632c1.12-.635 2.37-.952 3.752-.952 1.194 0 2.268.252 3.22.756.97.485 1.764 1.204 2.38 2.156v-8.848h1.988zm-7.42 19.152c1.026 0 1.95-.233 2.772-.7a5.044 5.044 0 001.96-2.044c.485-.877.728-1.876.728-2.996s-.243-2.119-.728-2.996a4.86 4.86 0 00-1.96-2.016c-.822-.485-1.746-.728-2.772-.728-1.046 0-1.988.243-2.828.728-.822.467-1.475 1.139-1.96 2.016-.467.877-.7 1.876-.7 2.996s.233 2.119.7 2.996c.485.877 1.138 1.559 1.96 2.044.84.467 1.782.7 2.828.7zM72.82 55.14c-1.418 0-2.697-.317-3.836-.952a7.146 7.146 0 01-2.688-2.688c-.653-1.139-.98-2.427-.98-3.864 0-1.437.327-2.725.98-3.864a6.944 6.944 0 012.688-2.66c1.139-.635 2.418-.952 3.836-.952 1.419 0 2.698.317 3.836.952a6.752 6.752 0 012.66 2.66c.654 1.139.98 2.427.98 3.864 0 1.437-.326 2.725-.98 3.864a6.944 6.944 0 01-2.66 2.688c-1.138.635-2.417.952-3.836.952zm0-1.764c1.046 0 1.979-.233 2.8-.7a5.045 5.045 0 001.96-2.044c.467-.877.7-1.876.7-2.996s-.233-2.119-.7-2.996a4.861 4.861 0 00-1.96-2.016c-.821-.485-1.754-.728-2.8-.728-1.045 0-1.988.243-2.828.728-.821.467-1.474 1.139-1.96 2.016-.466.877-.7 1.876-.7 2.996s.234 2.119.7 2.996c.486.877 1.139 1.559 1.96 2.044.84.467 1.783.7 2.828.7zm11.535-19.152h1.988V55h-1.988V34.224zm13.54 20.916c-1.42 0-2.698-.317-3.837-.952a7.146 7.146 0 01-2.688-2.688c-.653-1.139-.98-2.427-.98-3.864 0-1.437.327-2.725.98-3.864a6.944 6.944 0 012.689-2.66c1.138-.635 2.417-.952 3.835-.952 1.42 0 2.698.317 3.837.952a6.758 6.758 0 012.66 2.66c.653 1.139.98 2.427.98 3.864 0 1.437-.327 2.725-.98 3.864a6.951 6.951 0 01-2.66 2.688c-1.139.635-2.418.952-3.837.952zm0-1.764c1.045 0 1.978-.233 2.8-.7a5.047 5.047 0 001.96-2.044c.466-.877.7-1.876.7-2.996s-.234-2.119-.7-2.996a4.863 4.863 0 00-1.96-2.016c-.822-.485-1.755-.728-2.8-.728-1.046 0-1.989.243-2.829.728-.82.467-1.474 1.139-1.96 2.016-.466.877-.7 1.876-.7 2.996s.234 2.119.7 2.996c.486.877 1.14 1.559 1.96 2.044.84.467 1.783.7 2.829.7zm13.438-10.22c.467-.99 1.158-1.736 2.072-2.24.934-.504 2.082-.756 3.444-.756v1.932l-.476-.028c-1.549 0-2.762.476-3.64 1.428-.877.952-1.316 2.287-1.316 4.004V55h-1.988V40.272h1.904v2.884zm21.803 5.096h-12.32c.112 1.53.7 2.772 1.764 3.724 1.064.933 2.408 1.4 4.032 1.4.915 0 1.755-.159 2.52-.476a5.657 5.657 0 001.988-1.456l1.12 1.288a6.287 6.287 0 01-2.464 1.792c-.971.41-2.044.616-3.22.616-1.512 0-2.856-.317-4.032-.952a7.09 7.09 0 01-2.716-2.688c-.653-1.139-.98-2.427-.98-3.864 0-1.437.308-2.725.924-3.864.635-1.139 1.493-2.025 2.576-2.66 1.101-.635 2.333-.952 3.696-.952s2.585.317 3.668.952c1.083.635 1.932 1.521 2.548 2.66.616 1.12.924 2.408.924 3.864l-.028.616zm-7.112-6.384c-1.419 0-2.613.457-3.584 1.372-.952.896-1.493 2.072-1.624 3.528h10.444c-.131-1.456-.681-2.632-1.652-3.528-.952-.915-2.147-1.372-3.584-1.372zm36.883-1.708c1.848 0 3.294.532 4.34 1.596 1.064 1.064 1.596 2.632 1.596 4.704V55h-1.988v-8.344c0-1.53-.374-2.697-1.12-3.5-.728-.803-1.764-1.204-3.108-1.204-1.531 0-2.735.476-3.612 1.428-.878.933-1.316 2.23-1.316 3.892V55h-1.988v-8.344c0-1.53-.374-2.697-1.12-3.5-.728-.803-1.774-1.204-3.136-1.204-1.512 0-2.716.476-3.612 1.428-.878.933-1.316 2.23-1.316 3.892V55h-1.988V40.272h1.904v2.688a5.304 5.304 0 012.184-2.072c.933-.485 2.006-.728 3.22-.728 1.232 0 2.296.261 3.192.784.914.523 1.596 1.297 2.044 2.324A5.667 5.667 0 01159.408 41c1.026-.56 2.193-.84 3.5-.84zm16.479 0c1.923 0 3.397.485 4.424 1.456 1.027.952 1.54 2.37 1.54 4.256V55h-1.904v-2.296c-.448.765-1.111 1.363-1.988 1.792-.859.43-1.885.644-3.08.644-1.643 0-2.949-.392-3.92-1.176-.971-.784-1.456-1.82-1.456-3.108 0-1.25.448-2.259 1.344-3.024.915-.765 2.361-1.148 4.34-1.148h4.676v-.896c0-1.27-.355-2.23-1.064-2.884-.709-.672-1.745-1.008-3.108-1.008-.933 0-1.829.159-2.688.476-.859.299-1.596.719-2.212 1.26l-.896-1.484c.747-.635 1.643-1.12 2.688-1.456a10.212 10.212 0 013.304-.532zm-.7 13.412c1.12 0 2.081-.252 2.884-.756.803-.523 1.4-1.27 1.792-2.24v-2.408h-4.62c-2.52 0-3.78.877-3.78 2.632 0 .859.327 1.54.98 2.044.653.485 1.568.728 2.744.728zm25.754-13.3v12.936c0 2.501-.616 4.35-1.848 5.544-1.213 1.213-3.052 1.82-5.516 1.82-1.362 0-2.66-.205-3.892-.616-1.213-.392-2.202-.943-2.968-1.652l1.008-1.512c.71.635 1.568 1.13 2.576 1.484 1.027.355 2.1.532 3.22.532 1.867 0 3.239-.439 4.116-1.316.878-.859 1.316-2.203 1.316-4.032v-1.876a5.97 5.97 0 01-2.436 2.128c-.989.485-2.09.728-3.304.728-1.381 0-2.641-.299-3.78-.896a6.983 6.983 0 01-2.66-2.548c-.634-1.101-.952-2.343-.952-3.724 0-1.381.318-2.613.952-3.696a6.777 6.777 0 012.66-2.52c1.12-.597 2.38-.896 3.78-.896 1.251 0 2.38.252 3.388.756a6.106 6.106 0 012.436 2.184v-2.828h1.904zm-7.532 12.404c1.064 0 2.026-.224 2.884-.672a4.948 4.948 0 001.988-1.932c.486-.821.728-1.755.728-2.8s-.242-1.97-.728-2.772a4.766 4.766 0 00-1.988-1.904c-.84-.467-1.801-.7-2.884-.7-1.064 0-2.025.224-2.884.672a5.006 5.006 0 00-1.988 1.904c-.466.821-.7 1.755-.7 2.8s.234 1.979.7 2.8a5.207 5.207 0 001.988 1.932c.859.448 1.82.672 2.884.672zm20.596-12.516c1.848 0 3.313.541 4.396 1.624 1.101 1.064 1.652 2.623 1.652 4.676V55h-1.988v-8.344c0-1.53-.383-2.697-1.148-3.5-.766-.803-1.858-1.204-3.276-1.204-1.587 0-2.847.476-3.78 1.428-.915.933-1.372 2.23-1.372 3.892V55h-1.988V40.272h1.904v2.716a5.454 5.454 0 012.24-2.072c.97-.504 2.09-.756 3.36-.756zm16.597 0c1.922 0 3.397.485 4.424 1.456 1.026.952 1.54 2.37 1.54 4.256V55h-1.904v-2.296c-.448.765-1.111 1.363-1.988 1.792-.859.43-1.886.644-3.08.644-1.643 0-2.95-.392-3.92-1.176-.971-.784-1.456-1.82-1.456-3.108 0-1.25.448-2.259 1.344-3.024.914-.765 2.361-1.148 4.34-1.148h4.676v-.896c0-1.27-.355-2.23-1.064-2.884-.71-.672-1.746-1.008-3.108-1.008-.934 0-1.83.159-2.688.476-.859.299-1.596.719-2.212 1.26l-.896-1.484c.746-.635 1.642-1.12 2.688-1.456a10.208 10.208 0 013.304-.532zm-.7 13.412c1.12 0 2.081-.252 2.884-.756.802-.523 1.4-1.27 1.792-2.24v-2.408h-4.62c-2.52 0-3.78.877-3.78 2.632 0 .859.326 1.54.98 2.044.653.485 1.568.728 2.744.728zm24.543-13.412c1.923 0 3.398.485 4.424 1.456 1.027.952 1.54 2.37 1.54 4.256V55h-1.904v-2.296c-.448.765-1.11 1.363-1.988 1.792-.858.43-1.885.644-3.08.644-1.642 0-2.949-.392-3.92-1.176-.97-.784-1.456-1.82-1.456-3.108 0-1.25.448-2.259 1.344-3.024.915-.765 2.362-1.148 4.34-1.148h4.676v-.896c0-1.27-.354-2.23-1.064-2.884-.709-.672-1.745-1.008-3.108-1.008-.933 0-1.829.159-2.688.476-.858.299-1.596.719-2.212 1.26l-.896-1.484c.747-.635 1.643-1.12 2.688-1.456a10.217 10.217 0 013.304-.532zm-.7 13.412c1.12 0 2.082-.252 2.884-.756.803-.523 1.4-1.27 1.792-2.24v-2.408h-4.62c-2.52 0-3.78.877-3.78 2.632 0 .859.327 1.54.98 2.044.654.485 1.568.728 2.744.728zm12.064-19.348h1.988V55h-1.988V34.224zm7.52 6.048h1.988V55h-1.988V40.272zm1.008-3.22c-.411 0-.756-.14-1.036-.42-.28-.28-.42-.616-.42-1.008 0-.373.14-.7.42-.98.28-.28.625-.42 1.036-.42.41 0 .756.14 1.036.42.28.261.42.579.42.952 0 .41-.14.756-.42 1.036-.28.28-.626.42-1.036.42zm19.951 3.22v20.16H295.8v-8.204a6.207 6.207 0 01-2.38 2.184c-.952.485-2.025.728-3.22.728-1.4 0-2.66-.308-3.78-.924a6.865 6.865 0 01-2.604-2.66c-.634-1.139-.952-2.445-.952-3.92 0-1.456.318-2.753.952-3.892a6.615 6.615 0 012.632-2.632c1.12-.635 2.371-.952 3.752-.952 1.232 0 2.334.261 3.304.784a6.09 6.09 0 012.38 2.24v-2.912h1.904zm-7.42 13.104c1.027 0 1.951-.233 2.772-.7a5.04 5.04 0 001.96-2.044c.486-.877.728-1.876.728-2.996s-.242-2.11-.728-2.968a5.04 5.04 0 00-1.96-2.044c-.821-.485-1.745-.728-2.772-.728-1.045 0-1.988.243-2.828.728-.821.485-1.474 1.167-1.96 2.044-.466.859-.7 1.848-.7 2.968 0 1.12.234 2.119.7 2.996.486.877 1.139 1.559 1.96 2.044.84.467 1.783.7 2.828.7zm26.229-13.104V55h-1.904v-2.688a5.558 5.558 0 01-2.156 2.1c-.915.485-1.96.728-3.136.728-1.923 0-3.444-.532-4.564-1.596-1.102-1.083-1.652-2.66-1.652-4.732v-8.54h1.988v8.344c0 1.55.382 2.725 1.148 3.528.765.803 1.857 1.204 3.276 1.204 1.549 0 2.772-.467 3.668-1.4.896-.952 1.344-2.268 1.344-3.948v-7.728h1.988zm10.72-.112c1.922 0 3.397.485 4.424 1.456 1.026.952 1.54 2.37 1.54 4.256V55h-1.904v-2.296c-.448.765-1.111 1.363-1.988 1.792-.859.43-1.886.644-3.08.644-1.643 0-2.95-.392-3.92-1.176-.971-.784-1.456-1.82-1.456-3.108 0-1.25.448-2.259 1.344-3.024.914-.765 2.361-1.148 4.34-1.148h4.676v-.896c0-1.27-.355-2.23-1.064-2.884-.71-.672-1.746-1.008-3.108-1.008-.934 0-1.83.159-2.688.476-.859.299-1.596.719-2.212 1.26l-.896-1.484c.746-.635 1.642-1.12 2.688-1.456a10.208 10.208 0 013.304-.532zm-.7 13.412c1.12 0 2.081-.252 2.884-.756.802-.523 1.4-1.27 1.792-2.24v-2.408h-4.62c-2.52 0-3.78.877-3.78 2.632 0 .859.326 1.54.98 2.044.653.485 1.568.728 2.744.728zm12.259 1.568c-.41 0-.765-.15-1.064-.448a1.538 1.538 0 01-.42-1.092c0-.43.14-.784.42-1.064a1.455 1.455 0 011.064-.448c.411 0 .766.15 1.064.448.299.28.448.635.448 1.064 0 .43-.149.793-.448 1.092a1.452 1.452 0 01-1.064.448zm21.382.028c-2.539 0-4.517-.728-5.936-2.184-1.419-1.456-2.128-3.575-2.128-6.356V35.4h2.072v11.144c0 2.277.513 3.976 1.54 5.096 1.027 1.12 2.511 1.68 4.452 1.68 1.96 0 3.453-.56 4.48-1.68 1.027-1.12 1.54-2.819 1.54-5.096V35.4h2.016v11.228c0 2.781-.709 4.9-2.128 6.356-1.4 1.456-3.369 2.184-5.908 2.184zm21.616-1.064c-.374.336-.84.597-1.4.784a5.735 5.735 0 01-1.708.252c-1.382 0-2.446-.373-3.192-1.12-.747-.747-1.12-1.801-1.12-3.164v-8.904h-2.632v-1.68h2.632v-3.22h1.988v3.22h4.48v1.68h-4.48v8.792c0 .877.214 1.55.644 2.016.448.448 1.082.672 1.904.672.41 0 .802-.065 1.176-.196.392-.13.728-.317 1.008-.56l.7 1.428zm23.771-5.852h-12.32c.112 1.53.7 2.772 1.764 3.724 1.064.933 2.408 1.4 4.032 1.4.914 0 1.754-.159 2.52-.476a5.657 5.657 0 001.988-1.456l1.12 1.288a6.294 6.294 0 01-2.464 1.792c-.971.41-2.044.616-3.22.616-1.512 0-2.856-.317-4.032-.952a7.082 7.082 0 01-2.716-2.688c-.654-1.139-.98-2.427-.98-3.864 0-1.437.308-2.725.924-3.864.634-1.139 1.493-2.025 2.576-2.66 1.101-.635 2.333-.952 3.696-.952 1.362 0 2.585.317 3.668.952a6.729 6.729 0 012.548 2.66c.616 1.12.924 2.408.924 3.864l-.028.616zm-7.112-6.384c-1.419 0-2.614.457-3.584 1.372-.952.896-1.494 2.072-1.624 3.528h10.444c-.131-1.456-.682-2.632-1.652-3.528-.952-.915-2.147-1.372-3.584-1.372zm18.69-1.708c1.848 0 3.314.541 4.396 1.624 1.102 1.064 1.652 2.623 1.652 4.676V55h-1.988v-8.344c0-1.53-.382-2.697-1.148-3.5-.765-.803-1.857-1.204-3.276-1.204-1.586 0-2.846.476-3.78 1.428-.914.933-1.372 2.23-1.372 3.892V55h-1.988V40.272h1.904v2.716a5.46 5.46 0 012.24-2.072c.971-.504 2.091-.756 3.36-.756zm11.445.112h1.988V55h-1.988V40.272zm1.008-3.22c-.41 0-.756-.14-1.036-.42-.28-.28-.42-.616-.42-1.008 0-.373.14-.7.42-.98.28-.28.626-.42 1.036-.42.411 0 .756.14 1.036.42.28.261.42.579.42.952 0 .41-.14.756-.42 1.036-.28.28-.625.42-1.036.42zm24.88 3.108c1.848 0 3.295.532 4.34 1.596 1.064 1.064 1.596 2.632 1.596 4.704V55h-1.988v-8.344c0-1.53-.373-2.697-1.12-3.5-.728-.803-1.764-1.204-3.108-1.204-1.531 0-2.735.476-3.612 1.428-.877.933-1.316 2.23-1.316 3.892V55h-1.988v-8.344c0-1.53-.373-2.697-1.12-3.5-.728-.803-1.773-1.204-3.136-1.204-1.512 0-2.716.476-3.612 1.428-.877.933-1.316 2.23-1.316 3.892V55h-1.988V40.272h1.904v2.688a5.316 5.316 0 012.184-2.072c.933-.485 2.007-.728 3.22-.728 1.232 0 2.296.261 3.192.784.915.523 1.596 1.297 2.044 2.324A5.667 5.667 0 01451.056 41c1.027-.56 2.193-.84 3.5-.84zm23.807 0c1.923 0 3.398.485 4.424 1.456 1.027.952 1.54 2.37 1.54 4.256V55h-1.904v-2.296c-.448.765-1.11 1.363-1.988 1.792-.858.43-1.885.644-3.08.644-1.642 0-2.949-.392-3.92-1.176-.97-.784-1.456-1.82-1.456-3.108 0-1.25.448-2.259 1.344-3.024.915-.765 2.362-1.148 4.34-1.148h4.676v-.896c0-1.27-.354-2.23-1.064-2.884-.709-.672-1.745-1.008-3.108-1.008-.933 0-1.829.159-2.688.476-.858.299-1.596.719-2.212 1.26l-.896-1.484c.747-.635 1.643-1.12 2.688-1.456a10.217 10.217 0 013.304-.532zm-.7 13.412c1.12 0 2.082-.252 2.884-.756.803-.523 1.4-1.27 1.792-2.24v-2.408h-4.62c-2.52 0-3.78.877-3.78 2.632 0 .859.327 1.54.98 2.044.654.485 1.568.728 2.744.728zm25.559-19.348V55h-1.904v-2.912a6.044 6.044 0 01-2.38 2.268c-.971.523-2.072.784-3.304.784-1.382 0-2.632-.317-3.752-.952a6.8 6.8 0 01-2.632-2.66c-.635-1.139-.952-2.436-.952-3.892s.317-2.753.952-3.892a6.608 6.608 0 012.632-2.632c1.12-.635 2.37-.952 3.752-.952 1.194 0 2.268.252 3.22.756.97.485 1.764 1.204 2.38 2.156v-8.848h1.988zm-7.42 19.152c1.026 0 1.95-.233 2.772-.7a5.047 5.047 0 001.96-2.044c.485-.877.728-1.876.728-2.996s-.243-2.119-.728-2.996a4.863 4.863 0 00-1.96-2.016c-.822-.485-1.746-.728-2.772-.728-1.046 0-1.988.243-2.828.728-.822.467-1.475 1.139-1.96 2.016-.467.877-.7 1.876-.7 2.996s.233 2.119.7 2.996c.485.877 1.138 1.559 1.96 2.044.84.467 1.782.7 2.828.7zm38.652-13.216c1.848 0 3.295.532 4.34 1.596 1.064 1.064 1.596 2.632 1.596 4.704V55h-1.988v-8.344c0-1.53-.373-2.697-1.12-3.5-.728-.803-1.764-1.204-3.108-1.204-1.53 0-2.734.476-3.612 1.428-.877.933-1.316 2.23-1.316 3.892V55h-1.988v-8.344c0-1.53-.373-2.697-1.12-3.5-.728-.803-1.773-1.204-3.136-1.204-1.512 0-2.716.476-3.612 1.428-.877.933-1.316 2.23-1.316 3.892V55h-1.988V40.272h1.904v2.688a5.316 5.316 0 012.184-2.072c.934-.485 2.007-.728 3.22-.728 1.232 0 2.296.261 3.192.784.915.523 1.596 1.297 2.044 2.324A5.673 5.673 0 01530.954 41c1.027-.56 2.194-.84 3.5-.84zm11.328.112h1.988V55h-1.988V40.272zm1.008-3.22c-.411 0-.756-.14-1.036-.42-.28-.28-.42-.616-.42-1.008 0-.373.14-.7.42-.98.28-.28.625-.42 1.036-.42.41 0 .756.14 1.036.42.28.261.42.579.42.952 0 .41-.14.756-.42 1.036-.28.28-.626.42-1.036.42zm14.015 3.108c1.848 0 3.314.541 4.396 1.624 1.102 1.064 1.652 2.623 1.652 4.676V55h-1.988v-8.344c0-1.53-.382-2.697-1.148-3.5-.765-.803-1.857-1.204-3.276-1.204-1.586 0-2.846.476-3.78 1.428-.914.933-1.372 2.23-1.372 3.892V55h-1.988V40.272h1.904v2.716a5.46 5.46 0 012.24-2.072c.971-.504 2.091-.756 3.36-.756zm11.446.112h1.988V55h-1.988V40.272zm1.008-3.22c-.411 0-.756-.14-1.036-.42-.28-.28-.42-.616-.42-1.008 0-.373.14-.7.42-.98.28-.28.625-.42 1.036-.42.41 0 .756.14 1.036.42.28.261.42.579.42.952 0 .41-.14.756-.42 1.036-.28.28-.626.42-1.036.42zm24.879 3.108c1.848 0 3.295.532 4.34 1.596 1.064 1.064 1.596 2.632 1.596 4.704V55h-1.988v-8.344c0-1.53-.373-2.697-1.12-3.5-.728-.803-1.764-1.204-3.108-1.204-1.531 0-2.735.476-3.612 1.428-.877.933-1.316 2.23-1.316 3.892V55h-1.988v-8.344c0-1.53-.373-2.697-1.12-3.5-.728-.803-1.773-1.204-3.136-1.204-1.512 0-2.716.476-3.612 1.428-.877.933-1.316 2.23-1.316 3.892V55h-1.988V40.272h1.904v2.688a5.316 5.316 0 012.184-2.072c.933-.485 2.007-.728 3.22-.728 1.232 0 2.296.261 3.192.784.915.523 1.596 1.297 2.044 2.324A5.667 5.667 0 01594.638 41c1.027-.56 2.193-.84 3.5-.84zm31.031.112L622.617 55h-2.044l-6.524-14.728h2.072l5.516 12.544 5.572-12.544h1.96zm15.214 7.98h-12.32c.112 1.53.7 2.772 1.764 3.724 1.064.933 2.408 1.4 4.032 1.4.915 0 1.755-.159 2.52-.476a5.657 5.657 0 001.988-1.456l1.12 1.288a6.287 6.287 0 01-2.464 1.792c-.971.41-2.044.616-3.22.616-1.512 0-2.856-.317-4.032-.952a7.09 7.09 0 01-2.716-2.688c-.653-1.139-.98-2.427-.98-3.864 0-1.437.308-2.725.924-3.864.635-1.139 1.493-2.025 2.576-2.66 1.101-.635 2.333-.952 3.696-.952s2.585.317 3.668.952c1.083.635 1.932 1.521 2.548 2.66.616 1.12.924 2.408.924 3.864l-.028.616zm-7.112-6.384c-1.419 0-2.613.457-3.584 1.372-.952.896-1.493 2.072-1.624 3.528h10.444c-.131-1.456-.681-2.632-1.652-3.528-.952-.915-2.147-1.372-3.584-1.372zm18.691-1.708c1.848 0 3.313.541 4.396 1.624 1.101 1.064 1.652 2.623 1.652 4.676V55h-1.988v-8.344c0-1.53-.383-2.697-1.148-3.5-.766-.803-1.858-1.204-3.276-1.204-1.587 0-2.847.476-3.78 1.428-.915.933-1.372 2.23-1.372 3.892V55h-1.988V40.272h1.904v2.716a5.454 5.454 0 012.24-2.072c.97-.504 2.09-.756 3.36-.756zm11.445.112h1.988V55h-1.988V40.272zm1.008-3.22c-.411 0-.756-.14-1.036-.42-.28-.28-.42-.616-.42-1.008 0-.373.14-.7.42-.98.28-.28.625-.42 1.036-.42.41 0 .756.14 1.036.42.28.261.42.579.42.952 0 .41-.14.756-.42 1.036-.28.28-.626.42-1.036.42zm11.663 3.108c1.923 0 3.398.485 4.424 1.456 1.027.952 1.54 2.37 1.54 4.256V55h-1.904v-2.296c-.448.765-1.11 1.363-1.988 1.792-.858.43-1.885.644-3.08.644-1.642 0-2.949-.392-3.92-1.176-.97-.784-1.456-1.82-1.456-3.108 0-1.25.448-2.259 1.344-3.024.915-.765 2.362-1.148 4.34-1.148h4.676v-.896c0-1.27-.354-2.23-1.064-2.884-.709-.672-1.745-1.008-3.108-1.008-.933 0-1.829.159-2.688.476-.858.299-1.596.719-2.212 1.26l-.896-1.484c.747-.635 1.643-1.12 2.688-1.456a10.217 10.217 0 013.304-.532zm-.7 13.412c1.12 0 2.082-.252 2.884-.756.803-.523 1.4-1.27 1.792-2.24v-2.408h-4.62c-2.52 0-3.78.877-3.78 2.632 0 .859.327 1.54.98 2.044.654.485 1.568.728 2.744.728zM709.81 40.16c1.848 0 3.295.532 4.34 1.596 1.064 1.064 1.596 2.632 1.596 4.704V55h-1.988v-8.344c0-1.53-.373-2.697-1.12-3.5-.728-.803-1.764-1.204-3.108-1.204-1.531 0-2.735.476-3.612 1.428-.877.933-1.316 2.23-1.316 3.892V55h-1.988v-8.344c0-1.53-.373-2.697-1.12-3.5-.728-.803-1.773-1.204-3.136-1.204-1.512 0-2.716.476-3.612 1.428-.877.933-1.316 2.23-1.316 3.892V55h-1.988V40.272h1.904v2.688a5.316 5.316 0 012.184-2.072c.933-.485 2.007-.728 3.22-.728 1.232 0 2.296.261 3.192.784.915.523 1.596 1.297 2.044 2.324A5.667 5.667 0 01706.31 41c1.027-.56 2.193-.84 3.5-.84zm11.551 11.928c.43 0 .784.15 1.064.448.28.28.42.635.42 1.064 0 .224-.037.467-.112.728-.056.261-.149.56-.28.896l-1.176 3.864h-1.344l.952-4.06a1.44 1.44 0 01-.728-.504 1.552 1.552 0 01-.28-.924c0-.43.14-.784.42-1.064.28-.299.635-.448 1.064-.448zm26.478-11.816v20.16h-1.988v-8.204a6.207 6.207 0 01-2.38 2.184c-.952.485-2.025.728-3.22.728-1.4 0-2.66-.308-3.78-.924a6.865 6.865 0 01-2.604-2.66c-.635-1.139-.952-2.445-.952-3.92 0-1.456.317-2.753.952-3.892a6.615 6.615 0 012.632-2.632c1.12-.635 2.371-.952 3.752-.952 1.232 0 2.333.261 3.304.784a6.097 6.097 0 012.38 2.24v-2.912h1.904zm-7.42 13.104c1.027 0 1.951-.233 2.772-.7a5.047 5.047 0 001.96-2.044c.485-.877.728-1.876.728-2.996s-.243-2.11-.728-2.968a5.047 5.047 0 00-1.96-2.044c-.821-.485-1.745-.728-2.772-.728-1.045 0-1.988.243-2.828.728a5.298 5.298 0 00-1.96 2.044c-.467.859-.7 1.848-.7 2.968 0 1.12.233 2.119.7 2.996a5.298 5.298 0 001.96 2.044c.84.467 1.783.7 2.828.7zm26.229-13.104V55h-1.904v-2.688a5.558 5.558 0 01-2.156 2.1c-.915.485-1.96.728-3.136.728-1.923 0-3.444-.532-4.564-1.596-1.102-1.083-1.652-2.66-1.652-4.732v-8.54h1.988v8.344c0 1.55.382 2.725 1.148 3.528.765.803 1.857 1.204 3.276 1.204 1.549 0 2.772-.467 3.668-1.4.896-.952 1.344-2.268 1.344-3.948v-7.728h1.988zm5.567 0h1.988V55h-1.988V40.272zm1.008-3.22c-.41 0-.756-.14-1.036-.42-.28-.28-.42-.616-.42-1.008 0-.373.14-.7.42-.98.28-.28.626-.42 1.036-.42.411 0 .756.14 1.036.42.28.261.42.579.42.952 0 .41-.14.756-.42 1.036-.28.28-.625.42-1.036.42zm10.46 18.088c-1.195 0-2.343-.168-3.444-.504-1.083-.355-1.932-.793-2.548-1.316l.896-1.568c.616.485 1.391.887 2.324 1.204a9.493 9.493 0 002.912.448c1.344 0 2.333-.205 2.968-.616.653-.43.98-1.027.98-1.792 0-.541-.177-.961-.532-1.26-.355-.317-.803-.55-1.344-.7-.541-.168-1.26-.327-2.156-.476-1.195-.224-2.156-.448-2.884-.672a4.455 4.455 0 01-1.876-1.204c-.504-.56-.756-1.335-.756-2.324 0-1.232.513-2.24 1.54-3.024 1.027-.784 2.455-1.176 4.284-1.176.952 0 1.904.13 2.856.392.952.243 1.736.57 2.352.98l-.868 1.596c-1.213-.84-2.66-1.26-4.34-1.26-1.269 0-2.231.224-2.884.672-.635.448-.952 1.036-.952 1.764 0 .56.177 1.008.532 1.344.373.336.831.588 1.372.756.541.15 1.288.308 2.24.476 1.176.224 2.119.448 2.828.672a4.157 4.157 0 011.82 1.148c.504.541.756 1.288.756 2.24 0 1.288-.541 2.315-1.624 3.08-1.064.747-2.548 1.12-4.452 1.12zm24.583-14.98c1.848 0 3.314.541 4.396 1.624 1.102 1.064 1.652 2.623 1.652 4.676V55h-1.988v-8.344c0-1.53-.382-2.697-1.148-3.5-.765-.803-1.857-1.204-3.276-1.204-1.586 0-2.846.476-3.78 1.428-.914.933-1.372 2.23-1.372 3.892V55h-1.988V40.272h1.904v2.716a5.46 5.46 0 012.24-2.072c.971-.504 2.091-.756 3.36-.756zm17.52 14.98c-1.419 0-2.697-.317-3.836-.952a7.141 7.141 0 01-2.688-2.688c-.653-1.139-.98-2.427-.98-3.864 0-1.437.327-2.725.98-3.864a6.94 6.94 0 012.688-2.66c1.139-.635 2.417-.952 3.836-.952s2.697.317 3.836.952a6.752 6.752 0 012.66 2.66c.653 1.139.98 2.427.98 3.864 0 1.437-.327 2.725-.98 3.864a6.944 6.944 0 01-2.66 2.688c-1.139.635-2.417.952-3.836.952zm0-1.764c1.045 0 1.979-.233 2.8-.7a5.047 5.047 0 001.96-2.044c.467-.877.7-1.876.7-2.996s-.233-2.119-.7-2.996a4.863 4.863 0 00-1.96-2.016c-.821-.485-1.755-.728-2.8-.728s-1.988.243-2.828.728c-.821.467-1.475 1.139-1.96 2.016-.467.877-.7 1.876-.7 2.996s.233 2.119.7 2.996a5.298 5.298 0 001.96 2.044c.84.467 1.783.7 2.828.7zm15.483 1.764c-1.195 0-2.343-.168-3.444-.504-1.083-.355-1.932-.793-2.548-1.316l.896-1.568c.616.485 1.39.887 2.324 1.204a9.493 9.493 0 002.912.448c1.344 0 2.333-.205 2.968-.616.653-.43.98-1.027.98-1.792 0-.541-.178-.961-.532-1.26-.355-.317-.803-.55-1.344-.7-.542-.168-1.26-.327-2.156-.476-1.195-.224-2.156-.448-2.884-.672a4.45 4.45 0 01-1.876-1.204c-.504-.56-.756-1.335-.756-2.324 0-1.232.513-2.24 1.54-3.024 1.026-.784 2.454-1.176 4.284-1.176.952 0 1.904.13 2.856.392.952.243 1.736.57 2.352.98l-.868 1.596c-1.214-.84-2.66-1.26-4.34-1.26-1.27 0-2.231.224-2.884.672-.635.448-.952 1.036-.952 1.764 0 .56.177 1.008.532 1.344.373.336.83.588 1.372.756.541.15 1.288.308 2.24.476 1.176.224 2.118.448 2.828.672a4.157 4.157 0 011.82 1.148c.504.541.756 1.288.756 2.24 0 1.288-.542 2.315-1.624 3.08-1.064.747-2.548 1.12-4.452 1.12zm17.507-1.036c-.373.336-.84.597-1.4.784a5.73 5.73 0 01-1.708.252c-1.381 0-2.445-.373-3.192-1.12-.747-.747-1.12-1.801-1.12-3.164v-8.904h-2.632v-1.68h2.632v-3.22h1.988v3.22h4.48v1.68h-4.48v8.792c0 .877.215 1.55.644 2.016.448.448 1.083.672 1.904.672a3.53 3.53 0 001.176-.196c.392-.13.728-.317 1.008-.56l.7 1.428zm5.523-10.948c.467-.99 1.157-1.736 2.072-2.24.933-.504 2.081-.756 3.444-.756v1.932l-.476-.028c-1.549 0-2.763.476-3.64 1.428-.877.952-1.316 2.287-1.316 4.004V55h-1.988V40.272h1.904v2.884zm22.606-2.884V55h-1.904v-2.688a5.544 5.544 0 01-2.156 2.1c-.914.485-1.96.728-3.136.728-1.922 0-3.444-.532-4.564-1.596-1.101-1.083-1.652-2.66-1.652-4.732v-8.54h1.988v8.344c0 1.55.383 2.725 1.148 3.528.766.803 1.858 1.204 3.276 1.204 1.55 0 2.772-.467 3.668-1.4.896-.952 1.344-2.268 1.344-3.948v-7.728h1.988zm19.008-6.048V55h-1.904v-2.912a6.03 6.03 0 01-2.38 2.268c-.97.523-2.072.784-3.304.784-1.381 0-2.632-.317-3.752-.952a6.806 6.806 0 01-2.632-2.66c-.634-1.139-.952-2.436-.952-3.892s.318-2.753.952-3.892a6.615 6.615 0 012.632-2.632c1.12-.635 2.371-.952 3.752-.952 1.195 0 2.268.252 3.22.756.971.485 1.764 1.204 2.38 2.156v-8.848h1.988zm-7.42 19.152c1.027 0 1.951-.233 2.772-.7a5.04 5.04 0 001.96-2.044c.486-.877.728-1.876.728-2.996s-.242-2.119-.728-2.996a4.857 4.857 0 00-1.96-2.016c-.821-.485-1.745-.728-2.772-.728-1.045 0-1.988.243-2.828.728-.821.467-1.474 1.139-1.96 2.016-.466.877-.7 1.876-.7 2.996s.234 2.119.7 2.996c.486.877 1.139 1.559 1.96 2.044.84.467 1.783.7 2.828.7zm33.109-5.124h-12.32c.112 1.53.7 2.772 1.764 3.724 1.064.933 2.408 1.4 4.032 1.4.915 0 1.755-.159 2.52-.476a5.657 5.657 0 001.988-1.456l1.12 1.288a6.287 6.287 0 01-2.464 1.792c-.971.41-2.044.616-3.22.616-1.512 0-2.856-.317-4.032-.952a7.09 7.09 0 01-2.716-2.688c-.653-1.139-.98-2.427-.98-3.864 0-1.437.308-2.725.924-3.864.635-1.139 1.493-2.025 2.576-2.66 1.101-.635 2.333-.952 3.696-.952s2.585.317 3.668.952c1.083.635 1.932 1.521 2.548 2.66.616 1.12.924 2.408.924 3.864l-.028.616zm-7.112-6.384c-1.419 0-2.613.457-3.584 1.372-.952.896-1.493 2.072-1.624 3.528h10.444c-.131-1.456-.681-2.632-1.652-3.528-.952-.915-2.147-1.372-3.584-1.372zM944.646 55l-4.676-6.16-4.704 6.16h-2.24l5.824-7.56-5.544-7.168h2.24l4.424 5.768 4.424-5.768h2.184l-5.544 7.168 5.88 7.56h-2.268zm17.882-6.748h-12.32c.112 1.53.7 2.772 1.764 3.724 1.064.933 2.408 1.4 4.032 1.4.914 0 1.754-.159 2.52-.476a5.657 5.657 0 001.988-1.456l1.12 1.288a6.294 6.294 0 01-2.464 1.792c-.971.41-2.044.616-3.22.616-1.512 0-2.856-.317-4.032-.952A7.082 7.082 0 01949.2 51.5c-.654-1.139-.98-2.427-.98-3.864 0-1.437.308-2.725.924-3.864.634-1.139 1.493-2.025 2.576-2.66 1.101-.635 2.333-.952 3.696-.952 1.362 0 2.585.317 3.668.952a6.729 6.729 0 012.548 2.66c.616 1.12.924 2.408.924 3.864l-.028.616zm-7.112-6.384c-1.419 0-2.614.457-3.584 1.372-.952.896-1.494 2.072-1.624 3.528h10.444c-.131-1.456-.682-2.632-1.652-3.528-.952-.915-2.147-1.372-3.584-1.372zm13.09 1.288c.467-.99 1.157-1.736 2.072-2.24.933-.504 2.081-.756 3.444-.756v1.932l-.476-.028c-1.549 0-2.763.476-3.64 1.428-.877.952-1.316 2.287-1.316 4.004V55h-1.988V40.272h1.904v2.884zm15.083 11.984c-1.456 0-2.763-.317-3.92-.952a6.94 6.94 0 01-2.688-2.66c-.653-1.157-.98-2.455-.98-3.892 0-1.437.327-2.725.98-3.864a6.94 6.94 0 012.688-2.66c1.157-.635 2.464-.952 3.92-.952 1.269 0 2.399.252 3.388.756a5.542 5.542 0 012.38 2.156l-1.484 1.008a4.534 4.534 0 00-1.848-1.624 5.373 5.373 0 00-2.436-.56c-1.064 0-2.025.243-2.884.728a5.04 5.04 0 00-1.988 2.016c-.467.877-.7 1.876-.7 2.996 0 1.139.233 2.147.7 3.024a5.286 5.286 0 001.988 2.016c.859.467 1.82.7 2.884.7.877 0 1.689-.177 2.436-.532a4.534 4.534 0 001.848-1.624l1.484 1.008a5.725 5.725 0 01-2.38 2.184c-1.008.485-2.137.728-3.388.728zm9.673-14.868h1.988V55h-1.988V40.272zm1.008-3.22c-.41 0-.756-.14-1.036-.42-.28-.28-.42-.616-.42-1.008 0-.373.14-.7.42-.98.28-.28.626-.42 1.036-.42.411 0 .756.14 1.036.42.28.261.42.579.42.952 0 .41-.14.756-.42 1.036-.28.28-.625.42-1.036.42zm14.27 17.052c-.38.336-.84.597-1.4.784-.54.168-1.11.252-1.71.252-1.38 0-2.45-.373-3.19-1.12-.75-.747-1.12-1.801-1.12-3.164v-8.904h-2.634v-1.68h2.634v-3.22h1.99v3.22h4.48v1.68h-4.48v8.792c0 .877.21 1.55.64 2.016.45.448 1.08.672 1.9.672.41 0 .81-.065 1.18-.196.39-.13.73-.317 1.01-.56l.7 1.428zm8.77-13.944c1.92 0 3.4.485 4.42 1.456 1.03.952 1.54 2.37 1.54 4.256V55h-1.9v-2.296c-.45.765-1.11 1.363-1.99 1.792-.86.43-1.88.644-3.08.644-1.64 0-2.95-.392-3.92-1.176-.97-.784-1.46-1.82-1.46-3.108 0-1.25.45-2.259 1.35-3.024.91-.765 2.36-1.148 4.34-1.148h4.67v-.896c0-1.27-.35-2.23-1.06-2.884-.71-.672-1.74-1.008-3.11-1.008-.93 0-1.83.159-2.69.476-.85.299-1.59.719-2.21 1.26l-.89-1.484c.74-.635 1.64-1.12 2.68-1.456 1.05-.355 2.15-.532 3.31-.532zm-.7 13.412c1.12 0 2.08-.252 2.88-.756.81-.523 1.4-1.27 1.79-2.24v-2.408h-4.62c-2.52 0-3.78.877-3.78 2.632 0 .859.33 1.54.98 2.044.66.485 1.57.728 2.75.728zm19.82.532c-.37.336-.84.597-1.4.784-.54.168-1.11.252-1.71.252-1.38 0-2.44-.373-3.19-1.12-.75-.747-1.12-1.801-1.12-3.164v-8.904h-2.63v-1.68h2.63v-3.22h1.99v3.22h4.48v1.68H1031v8.792c0 .877.21 1.55.64 2.016.45.448 1.08.672 1.9.672.42 0 .81-.065 1.18-.196.39-.13.73-.317 1.01-.56l.7 1.428zm3.62-13.832h1.99V55h-1.99V40.272zm1.01-3.22c-.42 0-.76-.14-1.04-.42-.28-.28-.42-.616-.42-1.008 0-.373.14-.7.42-.98.28-.28.62-.42 1.04-.42.41 0 .75.14 1.03.42.28.261.42.579.42.952 0 .41-.14.756-.42 1.036-.28.28-.62.42-1.03.42zm12.53 18.088c-1.42 0-2.7-.317-3.84-.952a7.19 7.19 0 01-2.69-2.688c-.65-1.139-.98-2.427-.98-3.864 0-1.437.33-2.725.98-3.864a6.986 6.986 0 012.69-2.66c1.14-.635 2.42-.952 3.84-.952s2.69.317 3.83.952a6.713 6.713 0 012.66 2.66c.66 1.139.98 2.427.98 3.864 0 1.437-.32 2.725-.98 3.864a6.904 6.904 0 01-2.66 2.688c-1.14.635-2.41.952-3.83.952zm0-1.764c1.04 0 1.98-.233 2.8-.7a5.066 5.066 0 001.96-2.044c.46-.877.7-1.876.7-2.996s-.24-2.119-.7-2.996c-.47-.877-1.12-1.55-1.96-2.016-.82-.485-1.76-.728-2.8-.728-1.05 0-1.99.243-2.83.728a5.07 5.07 0 00-1.96 2.016c-.47.877-.7 1.876-.7 2.996s.23 2.119.7 2.996a5.27 5.27 0 001.96 2.044c.84.467 1.78.7 2.83.7zm19.04-13.216c1.84 0 3.31.541 4.39 1.624 1.1 1.064 1.65 2.623 1.65 4.676V55h-1.98v-8.344c0-1.53-.39-2.697-1.15-3.5-.77-.803-1.86-1.204-3.28-1.204-1.59 0-2.85.476-3.78 1.428-.91.933-1.37 2.23-1.37 3.892V55h-1.99V40.272h1.91v2.716a5.4 5.4 0 012.24-2.072c.97-.504 2.09-.756 3.36-.756zm32.04.112V55h-1.9v-2.688a5.575 5.575 0 01-2.16 2.1c-.91.485-1.96.728-3.14.728-1.92 0-3.44-.532-4.56-1.596-1.1-1.083-1.65-2.66-1.65-4.732v-8.54h1.99v8.344c0 1.55.38 2.725 1.14 3.528.77.803 1.86 1.204 3.28 1.204 1.55 0 2.77-.467 3.67-1.4.89-.952 1.34-2.268 1.34-3.948v-7.728h1.99zm5.57-6.048h1.99V55h-1.99V34.224zm7.52 0h1.99V55h-1.99V34.224zm12.67 5.936c1.92 0 3.4.485 4.42 1.456 1.03.952 1.54 2.37 1.54 4.256V55h-1.9v-2.296c-.45.765-1.11 1.363-1.99 1.792-.86.43-1.88.644-3.08.644-1.64 0-2.95-.392-3.92-1.176-.97-.784-1.45-1.82-1.45-3.108 0-1.25.44-2.259 1.34-3.024.91-.765 2.36-1.148 4.34-1.148h4.68v-.896c0-1.27-.36-2.23-1.07-2.884-.71-.672-1.74-1.008-3.11-1.008-.93 0-1.83.159-2.68.476-.86.299-1.6.719-2.22 1.26l-.89-1.484c.74-.635 1.64-1.12 2.69-1.456 1.04-.355 2.14-.532 3.3-.532zm-.7 13.412c1.12 0 2.08-.252 2.88-.756.81-.523 1.4-1.27 1.8-2.24v-2.408h-4.62c-2.52 0-3.78.877-3.78 2.632 0 .859.32 1.54.98 2.044.65.485 1.56.728 2.74.728zm30.43-13.412c1.85 0 3.3.532 4.34 1.596 1.07 1.064 1.6 2.632 1.6 4.704V55h-1.99v-8.344c0-1.53-.37-2.697-1.12-3.5-.73-.803-1.76-1.204-3.11-1.204-1.53 0-2.73.476-3.61 1.428-.88.933-1.32 2.23-1.32 3.892V55h-1.98v-8.344c0-1.53-.38-2.697-1.12-3.5-.73-.803-1.78-1.204-3.14-1.204-1.51 0-2.72.476-3.61 1.428-.88.933-1.32 2.23-1.32 3.892V55h-1.99V40.272h1.91v2.688a5.306 5.306 0 012.18-2.072c.93-.485 2.01-.728 3.22-.728 1.23 0 2.3.261 3.19.784.92.523 1.6 1.297 2.05 2.324a5.64 5.64 0 012.32-2.268c1.03-.56 2.19-.84 3.5-.84zm17.49 14.98c-1.46 0-2.77-.317-3.92-.952a6.919 6.919 0 01-2.69-2.66c-.65-1.157-.98-2.455-.98-3.892 0-1.437.33-2.725.98-3.864a6.919 6.919 0 012.69-2.66c1.15-.635 2.46-.952 3.92-.952 1.27 0 2.4.252 3.39.756 1 .485 1.8 1.204 2.38 2.156l-1.49 1.008a4.49 4.49 0 00-1.85-1.624 5.348 5.348 0 00-2.43-.56c-1.07 0-2.03.243-2.89.728a4.99 4.99 0 00-1.98 2.016c-.47.877-.7 1.876-.7 2.996 0 1.139.23 2.147.7 3.024a5.23 5.23 0 001.98 2.016c.86.467 1.82.7 2.89.7.87 0 1.69-.177 2.43-.532a4.49 4.49 0 001.85-1.624l1.49 1.008a5.78 5.78 0 01-2.38 2.184c-1.01.485-2.14.728-3.39.728zm15.44 0c-1.41 0-2.69-.317-3.83-.952a7.118 7.118 0 01-2.69-2.688c-.65-1.139-.98-2.427-.98-3.864 0-1.437.33-2.725.98-3.864a6.919 6.919 0 012.69-2.66c1.14-.635 2.42-.952 3.83-.952 1.42 0 2.7.317 3.84.952a6.713 6.713 0 012.66 2.66c.65 1.139.98 2.427.98 3.864 0 1.437-.33 2.725-.98 3.864a6.904 6.904 0 01-2.66 2.688c-1.14.635-2.42.952-3.84.952zm0-1.764c1.05 0 1.98-.233 2.8-.7a5.002 5.002 0 001.96-2.044c.47-.877.7-1.876.7-2.996s-.23-2.119-.7-2.996a4.821 4.821 0 00-1.96-2.016c-.82-.485-1.75-.728-2.8-.728-1.04 0-1.98.243-2.82.728a5.07 5.07 0 00-1.96 2.016c-.47.877-.7 1.876-.7 2.996s.23 2.119.7 2.996a5.27 5.27 0 001.96 2.044c.84.467 1.78.7 2.82.7zm18.87-19.152h1.99V55h-1.99V34.224zm12.67 5.936c1.92 0 3.4.485 4.42 1.456 1.03.952 1.54 2.37 1.54 4.256V55h-1.9v-2.296c-.45.765-1.11 1.363-1.99 1.792-.86.43-1.88.644-3.08.644-1.64 0-2.95-.392-3.92-1.176-.97-.784-1.45-1.82-1.45-3.108 0-1.25.44-2.259 1.34-3.024.91-.765 2.36-1.148 4.34-1.148h4.68v-.896c0-1.27-.36-2.23-1.07-2.884-.71-.672-1.74-1.008-3.11-1.008-.93 0-1.83.159-2.68.476-.86.299-1.6.719-2.22 1.26l-.89-1.484c.74-.635 1.64-1.12 2.69-1.456 1.04-.355 2.14-.532 3.3-.532zm-.7 13.412c1.12 0 2.08-.252 2.88-.756.81-.523 1.4-1.27 1.8-2.24v-2.408h-4.62c-2.52 0-3.78.877-3.78 2.632 0 .859.32 1.54.98 2.044.65.485 1.56.728 2.74.728zm19.65-13.412c1.38 0 2.63.317 3.75.952 1.12.616 2 1.493 2.63 2.632.64 1.139.96 2.436.96 3.892s-.32 2.753-.96 3.892a6.768 6.768 0 01-2.63 2.66c-1.12.635-2.37.952-3.75.952-1.23 0-2.34-.261-3.33-.784a6.041 6.041 0 01-2.35-2.268V55h-1.91V34.224h1.99v8.848c.62-.952 1.4-1.67 2.35-2.156.97-.504 2.06-.756 3.25-.756zm-.14 13.216c1.03 0 1.96-.233 2.8-.7a5.066 5.066 0 001.96-2.044c.49-.877.73-1.876.73-2.996s-.24-2.119-.73-2.996c-.47-.877-1.12-1.55-1.96-2.016-.84-.485-1.77-.728-2.8-.728-1.04 0-1.99.243-2.83.728-.82.467-1.47 1.139-1.96 2.016-.46.877-.7 1.876-.7 2.996s.24 2.119.7 2.996c.49.877 1.14 1.559 1.96 2.044.84.467 1.79.7 2.83.7zm17.55 1.764c-1.42 0-2.7-.317-3.84-.952a7.092 7.092 0 01-2.68-2.688c-.66-1.139-.98-2.427-.98-3.864 0-1.437.32-2.725.98-3.864a6.893 6.893 0 012.68-2.66c1.14-.635 2.42-.952 3.84-.952s2.7.317 3.84.952a6.843 6.843 0 012.66 2.66c.65 1.139.98 2.427.98 3.864 0 1.437-.33 2.725-.98 3.864a7.04 7.04 0 01-2.66 2.688c-1.14.635-2.42.952-3.84.952zm0-1.764c1.04 0 1.98-.233 2.8-.7a5.066 5.066 0 001.96-2.044c.47-.877.7-1.876.7-2.996s-.23-2.119-.7-2.996c-.47-.877-1.12-1.55-1.96-2.016-.82-.485-1.76-.728-2.8-.728-1.05 0-1.99.243-2.83.728-.82.467-1.47 1.139-1.96 2.016-.47.877-.7 1.876-.7 2.996s.23 2.119.7 2.996c.49.877 1.14 1.559 1.96 2.044.84.467 1.78.7 2.83.7zm13.44-10.22a4.822 4.822 0 012.07-2.24c.93-.504 2.08-.756 3.44-.756v1.932l-.47-.028c-1.55 0-2.76.476-3.64 1.428-.88.952-1.32 2.287-1.32 4.004V55h-1.99V40.272h1.91v2.884zm9.11-2.884h1.99V55h-1.99V40.272zm1.01-3.22c-.41 0-.75-.14-1.03-.42-.28-.28-.42-.616-.42-1.008 0-.373.14-.7.42-.98.28-.28.62-.42 1.03-.42.41 0 .76.14 1.04.42.28.261.42.579.42.952 0 .41-.14.756-.42 1.036-.28.28-.63.42-1.04.42zm10.46 18.088c-1.19 0-2.34-.168-3.44-.504-1.09-.355-1.93-.793-2.55-1.316l.9-1.568c.61.485 1.39.887 2.32 1.204.93.299 1.9.448 2.91.448 1.35 0 2.33-.205 2.97-.616.65-.43.98-1.027.98-1.792 0-.541-.18-.961-.53-1.26-.36-.317-.81-.55-1.35-.7-.54-.168-1.26-.327-2.15-.476-1.2-.224-2.16-.448-2.89-.672a4.467 4.467 0 01-1.87-1.204c-.51-.56-.76-1.335-.76-2.324 0-1.232.51-2.24 1.54-3.024 1.03-.784 2.46-1.176 4.29-1.176.95 0 1.9.13 2.85.392.95.243 1.74.57 2.35.98l-.86 1.596c-1.22-.84-2.66-1.26-4.34-1.26-1.27 0-2.24.224-2.89.672-.63.448-.95 1.036-.95 1.764 0 .56.18 1.008.53 1.344a3.6 3.6 0 001.37.756c.54.15 1.29.308 2.24.476 1.18.224 2.12.448 2.83.672.71.224 1.32.607 1.82 1.148.51.541.76 1.288.76 2.24 0 1.288-.54 2.315-1.63 3.08-1.06.747-2.54 1.12-4.45 1.12zm24.58-14.98c1.85 0 3.32.541 4.4 1.624 1.1 1.064 1.65 2.623 1.65 4.676V55h-1.99v-8.344c0-1.53-.38-2.697-1.14-3.5-.77-.803-1.86-1.204-3.28-1.204-1.59 0-2.85.476-3.78 1.428-.91.933-1.37 2.23-1.37 3.892V55h-1.99V40.272h1.9v2.716a5.523 5.523 0 012.24-2.072c.98-.504 2.1-.756 3.36-.756zm11.45.112h1.99V55h-1.99V40.272zm1.01-3.22c-.41 0-.76-.14-1.04-.42-.28-.28-.42-.616-.42-1.008 0-.373.14-.7.42-.98.28-.28.63-.42 1.04-.42.41 0 .75.14 1.03.42.28.261.42.579.42.952 0 .41-.14.756-.42 1.036-.28.28-.62.42-1.03.42zm10.46 18.088c-1.2 0-2.35-.168-3.45-.504-1.08-.355-1.93-.793-2.54-1.316l.89-1.568c.62.485 1.39.887 2.33 1.204.93.299 1.9.448 2.91.448 1.34 0 2.33-.205 2.97-.616.65-.43.98-1.027.98-1.792 0-.541-.18-.961-.54-1.26-.35-.317-.8-.55-1.34-.7-.54-.168-1.26-.327-2.16-.476-1.19-.224-2.15-.448-2.88-.672a4.5 4.5 0 01-1.88-1.204c-.5-.56-.75-1.335-.75-2.324 0-1.232.51-2.24 1.54-3.024 1.02-.784 2.45-1.176 4.28-1.176.95 0 1.91.13 2.86.392.95.243 1.73.57 2.35.98l-.87 1.596c-1.21-.84-2.66-1.26-4.34-1.26-1.27 0-2.23.224-2.88.672-.64.448-.95 1.036-.95 1.764 0 .56.17 1.008.53 1.344a3.6 3.6 0 001.37.756c.54.15 1.29.308 2.24.476 1.18.224 2.12.448 2.83.672.71.224 1.31.607 1.82 1.148.5.541.75 1.288.75 2.24 0 1.288-.54 2.315-1.62 3.08-1.06.747-2.55 1.12-4.45 1.12zm9.75-14.868h1.99V55h-1.99V40.272zm1.01-3.22c-.41 0-.76-.14-1.04-.42-.28-.28-.42-.616-.42-1.008 0-.373.14-.7.42-.98.28-.28.63-.42 1.04-.42.41 0 .75.14 1.03.42.28.261.42.579.42.952 0 .41-.14.756-.42 1.036-.28.28-.62.42-1.03.42zm27.11 3.22V55h-1.91v-2.688a5.549 5.549 0 01-2.15 2.1c-.92.485-1.96.728-3.14.728-1.92 0-3.44-.532-4.56-1.596-1.1-1.083-1.65-2.66-1.65-4.732v-8.54h1.98v8.344c0 1.55.39 2.725 1.15 3.528.77.803 1.86 1.204 3.28 1.204 1.55 0 2.77-.467 3.67-1.4.89-.952 1.34-2.268 1.34-3.948v-7.728h1.99zm13.32 13.832c-.37.336-.84.597-1.4.784-.54.168-1.11.252-1.71.252-1.38 0-2.44-.373-3.19-1.12-.74-.747-1.12-1.801-1.12-3.164v-8.904h-2.63v-1.68h2.63v-3.22h1.99v3.22h4.48v1.68h-4.48v8.792c0 .877.21 1.55.64 2.016.45.448 1.09.672 1.91.672.41 0 .8-.065 1.17-.196.4-.13.73-.317 1.01-.56l.7 1.428zM464.528 74.16c1.922 0 3.397.485 4.424 1.456 1.026.952 1.54 2.37 1.54 4.256V89h-1.904v-2.296c-.448.765-1.111 1.363-1.988 1.792-.859.43-1.886.644-3.08.644-1.643 0-2.95-.392-3.92-1.176-.971-.784-1.456-1.82-1.456-3.108 0-1.25.448-2.259 1.344-3.024.914-.765 2.361-1.148 4.34-1.148h4.676v-.896c0-1.27-.355-2.23-1.064-2.884-.71-.672-1.746-1.008-3.108-1.008-.934 0-1.83.159-2.688.476-.859.299-1.596.719-2.212 1.26l-.896-1.484c.746-.635 1.642-1.12 2.688-1.456a10.208 10.208 0 013.304-.532zm-.7 13.412c1.12 0 2.081-.252 2.884-.756.802-.523 1.4-1.27 1.792-2.24v-2.408h-4.62c-2.52 0-3.78.877-3.78 2.632 0 .859.326 1.54.98 2.044.653.485 1.568.728 2.744.728zm12.063-19.348h1.988V89h-1.988V68.224zm7.52 6.048h1.988V89h-1.988V74.272zm1.008-3.22c-.411 0-.756-.14-1.036-.42-.28-.28-.42-.616-.42-1.008 0-.373.14-.7.42-.98.28-.28.625-.42 1.036-.42.41 0 .756.14 1.036.42.28.261.42.579.42.952 0 .41-.14.756-.42 1.036-.28.28-.626.42-1.036.42zm19.951 3.22v20.16h-1.988v-8.204a6.207 6.207 0 01-2.38 2.184c-.952.485-2.025.728-3.22.728-1.4 0-2.66-.308-3.78-.924a6.865 6.865 0 01-2.604-2.66c-.634-1.139-.952-2.445-.952-3.92 0-1.456.318-2.753.952-3.892a6.615 6.615 0 012.632-2.632c1.12-.635 2.371-.952 3.752-.952 1.232 0 2.334.261 3.304.784a6.09 6.09 0 012.38 2.24v-2.912h1.904zm-7.42 13.104c1.027 0 1.951-.233 2.772-.7a5.04 5.04 0 001.96-2.044c.486-.877.728-1.876.728-2.996s-.242-2.11-.728-2.968a5.04 5.04 0 00-1.96-2.044c-.821-.485-1.745-.728-2.772-.728-1.045 0-1.988.243-2.828.728-.821.485-1.474 1.167-1.96 2.044-.466.859-.7 1.848-.7 2.968 0 1.12.234 2.119.7 2.996.486.877 1.139 1.559 1.96 2.044.84.467 1.783.7 2.828.7zm26.229-13.104V89h-1.904v-2.688a5.558 5.558 0 01-2.156 2.1c-.915.485-1.96.728-3.136.728-1.923 0-3.444-.532-4.564-1.596-1.102-1.083-1.652-2.66-1.652-4.732v-8.54h1.988v8.344c0 1.55.382 2.725 1.148 3.528.765.803 1.857 1.204 3.276 1.204 1.549 0 2.772-.467 3.668-1.4.896-.952 1.344-2.268 1.344-3.948v-7.728h1.988zm5.568 0h1.988V89h-1.988V74.272zm1.008-3.22c-.411 0-.756-.14-1.036-.42-.28-.28-.42-.616-.42-1.008 0-.373.14-.7.42-.98.28-.28.625-.42 1.036-.42.41 0 .756.14 1.036.42.28.261.42.579.42.952 0 .41-.14.756-.42 1.036-.28.28-.626.42-1.036.42zm14.099 3.108c1.381 0 2.632.317 3.752.952a6.615 6.615 0 012.632 2.632c.635 1.139.952 2.436.952 3.892 0 1.475-.317 2.781-.952 3.92a6.806 6.806 0 01-2.632 2.66c-1.101.616-2.352.924-3.752.924-1.195 0-2.277-.243-3.248-.728-.952-.504-1.736-1.232-2.352-2.184v8.204h-1.988v-20.16h1.904v2.912a6.147 6.147 0 012.352-2.24c.989-.523 2.1-.784 3.332-.784zm-.14 13.216c1.027 0 1.96-.233 2.8-.7a5.047 5.047 0 001.96-2.044c.485-.877.728-1.876.728-2.996s-.243-2.11-.728-2.968a5.047 5.047 0 00-1.96-2.044c-.84-.485-1.773-.728-2.8-.728-1.045 0-1.988.243-2.828.728a5.298 5.298 0 00-1.96 2.044c-.467.859-.7 1.848-.7 2.968 0 1.12.233 2.119.7 2.996a5.298 5.298 0 001.96 2.044c.84.467 1.783.7 2.828.7zm31.681-5.124h-12.32c.112 1.53.7 2.772 1.764 3.724 1.064.933 2.408 1.4 4.032 1.4.914 0 1.754-.159 2.52-.476a5.657 5.657 0 001.988-1.456l1.12 1.288a6.294 6.294 0 01-2.464 1.792c-.971.41-2.044.616-3.22.616-1.512 0-2.856-.317-4.032-.952a7.082 7.082 0 01-2.716-2.688c-.654-1.139-.98-2.427-.98-3.864 0-1.437.308-2.725.924-3.864.634-1.139 1.493-2.025 2.576-2.66 1.101-.635 2.333-.952 3.696-.952 1.362 0 2.585.317 3.668.952a6.729 6.729 0 012.548 2.66c.616 1.12.924 2.408.924 3.864l-.028.616zm-7.112-6.384c-1.419 0-2.614.457-3.584 1.372-.952.896-1.494 2.072-1.624 3.528h10.444c-.131-1.456-.682-2.632-1.652-3.528-.952-.915-2.147-1.372-3.584-1.372zM588.439 89l-4.676-6.16-4.704 6.16h-2.24l5.824-7.56-5.544-7.168h2.24l4.424 5.768 4.424-5.768h2.184l-5.544 7.168 5.88 7.56h-2.268zm25.729-6.748h-12.32c.112 1.53.7 2.772 1.764 3.724 1.064.933 2.408 1.4 4.032 1.4.915 0 1.755-.159 2.52-.476a5.648 5.648 0 001.988-1.456l1.12 1.288a6.28 6.28 0 01-2.464 1.792c-.97.41-2.044.616-3.22.616-1.512 0-2.856-.317-4.032-.952a7.096 7.096 0 01-2.716-2.688c-.653-1.139-.98-2.427-.98-3.864 0-1.437.308-2.725.924-3.864.635-1.139 1.494-2.025 2.576-2.66 1.102-.635 2.334-.952 3.696-.952 1.363 0 2.586.317 3.668.952 1.083.635 1.932 1.521 2.548 2.66.616 1.12.924 2.408.924 3.864l-.028.616zm-7.112-6.384c-1.418 0-2.613.457-3.584 1.372-.952.896-1.493 2.072-1.624 3.528h10.444c-.13-1.456-.681-2.632-1.652-3.528-.952-.915-2.146-1.372-3.584-1.372zm15.929-1.708c1.922 0 3.397.485 4.424 1.456 1.026.952 1.54 2.37 1.54 4.256V89h-1.904v-2.296c-.448.765-1.111 1.363-1.988 1.792-.859.43-1.886.644-3.08.644-1.643 0-2.95-.392-3.92-1.176-.971-.784-1.456-1.82-1.456-3.108 0-1.25.448-2.259 1.344-3.024.914-.765 2.361-1.148 4.34-1.148h4.676v-.896c0-1.27-.355-2.23-1.064-2.884-.71-.672-1.746-1.008-3.108-1.008-.934 0-1.83.159-2.688.476-.859.299-1.596.719-2.212 1.26l-.896-1.484c.746-.635 1.642-1.12 2.688-1.456a10.208 10.208 0 013.304-.532zm-.7 13.412c1.12 0 2.081-.252 2.884-.756.802-.523 1.4-1.27 1.792-2.24v-2.408h-4.62c-2.52 0-3.78.877-3.78 2.632 0 .859.326 1.54.98 2.044.653.485 1.568.728 2.744.728zm25.495 1.568c-1.456 0-2.762-.317-3.92-.952a6.954 6.954 0 01-2.688-2.66c-.653-1.157-.98-2.455-.98-3.892 0-1.437.327-2.725.98-3.864a6.954 6.954 0 012.688-2.66c1.158-.635 2.464-.952 3.92-.952 1.27 0 2.399.252 3.388.756a5.536 5.536 0 012.38 2.156l-1.484 1.008a4.534 4.534 0 00-1.848-1.624 5.367 5.367 0 00-2.436-.56c-1.064 0-2.025.243-2.884.728-.84.467-1.502 1.139-1.988 2.016-.466.877-.7 1.876-.7 2.996 0 1.139.234 2.147.7 3.024a5.293 5.293 0 001.988 2.016c.859.467 1.82.7 2.884.7a5.6 5.6 0 002.436-.532 4.534 4.534 0 001.848-1.624l1.484 1.008a5.719 5.719 0 01-2.38 2.184c-1.008.485-2.137.728-3.388.728zm15.448 0c-1.419 0-2.698-.317-3.836-.952a7.141 7.141 0 01-2.688-2.688c-.654-1.139-.98-2.427-.98-3.864 0-1.437.326-2.725.98-3.864a6.94 6.94 0 012.688-2.66c1.138-.635 2.417-.952 3.836-.952 1.418 0 2.697.317 3.836.952a6.758 6.758 0 012.66 2.66c.653 1.139.98 2.427.98 3.864 0 1.437-.327 2.725-.98 3.864a6.951 6.951 0 01-2.66 2.688c-1.139.635-2.418.952-3.836.952zm0-1.764c1.045 0 1.978-.233 2.8-.7a5.047 5.047 0 001.96-2.044c.466-.877.7-1.876.7-2.996s-.234-2.119-.7-2.996a4.863 4.863 0 00-1.96-2.016c-.822-.485-1.755-.728-2.8-.728-1.046 0-1.988.243-2.828.728-.822.467-1.475 1.139-1.96 2.016-.467.877-.7 1.876-.7 2.996s.233 2.119.7 2.996c.485.877 1.138 1.559 1.96 2.044.84.467 1.782.7 2.828.7zM693.13 74.16c1.848 0 3.295.532 4.34 1.596 1.064 1.064 1.596 2.632 1.596 4.704V89h-1.988v-8.344c0-1.53-.373-2.697-1.12-3.5-.728-.803-1.764-1.204-3.108-1.204-1.53 0-2.734.476-3.612 1.428-.877.933-1.316 2.23-1.316 3.892V89h-1.988v-8.344c0-1.53-.373-2.697-1.12-3.5-.728-.803-1.773-1.204-3.136-1.204-1.512 0-2.716.476-3.612 1.428-.877.933-1.316 2.23-1.316 3.892V89h-1.988V74.272h1.904v2.688a5.316 5.316 0 012.184-2.072c.934-.485 2.007-.728 3.22-.728 1.232 0 2.296.261 3.192.784.915.523 1.596 1.297 2.044 2.324A5.673 5.673 0 01689.63 75c1.027-.56 2.194-.84 3.5-.84zm29.696 0c1.848 0 3.294.532 4.34 1.596 1.064 1.064 1.596 2.632 1.596 4.704V89h-1.988v-8.344c0-1.53-.374-2.697-1.12-3.5-.728-.803-1.764-1.204-3.108-1.204-1.531 0-2.735.476-3.612 1.428-.878.933-1.316 2.23-1.316 3.892V89h-1.988v-8.344c0-1.53-.374-2.697-1.12-3.5-.728-.803-1.774-1.204-3.136-1.204-1.512 0-2.716.476-3.612 1.428-.878.933-1.316 2.23-1.316 3.892V89h-1.988V74.272h1.904v2.688a5.304 5.304 0 012.184-2.072c.933-.485 2.006-.728 3.22-.728 1.232 0 2.296.261 3.192.784.914.523 1.596 1.297 2.044 2.324A5.667 5.667 0 01719.326 75c1.026-.56 2.193-.84 3.5-.84zm17.402 14.98c-1.419 0-2.698-.317-3.836-.952a7.141 7.141 0 01-2.688-2.688c-.654-1.139-.98-2.427-.98-3.864 0-1.437.326-2.725.98-3.864a6.94 6.94 0 012.688-2.66c1.138-.635 2.417-.952 3.836-.952 1.418 0 2.697.317 3.836.952a6.758 6.758 0 012.66 2.66c.653 1.139.98 2.427.98 3.864 0 1.437-.327 2.725-.98 3.864a6.951 6.951 0 01-2.66 2.688c-1.139.635-2.418.952-3.836.952zm0-1.764c1.045 0 1.978-.233 2.8-.7a5.047 5.047 0 001.96-2.044c.466-.877.7-1.876.7-2.996s-.234-2.119-.7-2.996a4.863 4.863 0 00-1.96-2.016c-.822-.485-1.755-.728-2.8-.728-1.046 0-1.988.243-2.828.728-.822.467-1.475 1.139-1.96 2.016-.467.877-.7 1.876-.7 2.996s.233 2.119.7 2.996c.485.877 1.138 1.559 1.96 2.044.84.467 1.782.7 2.828.7zm24.974-19.152V89h-1.904v-2.912a6.03 6.03 0 01-2.38 2.268c-.97.523-2.072.784-3.304.784-1.381 0-2.632-.317-3.752-.952a6.806 6.806 0 01-2.632-2.66c-.634-1.139-.952-2.436-.952-3.892s.318-2.753.952-3.892a6.615 6.615 0 012.632-2.632c1.12-.635 2.371-.952 3.752-.952 1.195 0 2.268.252 3.22.756.971.485 1.764 1.204 2.38 2.156v-8.848h1.988zm-7.42 19.152c1.027 0 1.951-.233 2.772-.7a5.04 5.04 0 001.96-2.044c.486-.877.728-1.876.728-2.996s-.242-2.119-.728-2.996a4.857 4.857 0 00-1.96-2.016c-.821-.485-1.745-.728-2.772-.728-1.045 0-1.988.243-2.828.728-.821.467-1.474 1.139-1.96 2.016-.466.877-.7 1.876-.7 2.996s.234 2.119.7 2.996c.486.877 1.139 1.559 1.96 2.044.84.467 1.783.7 2.828.7zm18.977 1.764c-1.419 0-2.698-.317-3.836-.952a7.141 7.141 0 01-2.688-2.688c-.654-1.139-.98-2.427-.98-3.864 0-1.437.326-2.725.98-3.864a6.94 6.94 0 012.688-2.66c1.138-.635 2.417-.952 3.836-.952 1.418 0 2.697.317 3.836.952a6.758 6.758 0 012.66 2.66c.653 1.139.98 2.427.98 3.864 0 1.437-.327 2.725-.98 3.864a6.951 6.951 0 01-2.66 2.688c-1.139.635-2.418.952-3.836.952zm0-1.764c1.045 0 1.978-.233 2.8-.7a5.047 5.047 0 001.96-2.044c.466-.877.7-1.876.7-2.996s-.234-2.119-.7-2.996a4.863 4.863 0 00-1.96-2.016c-.822-.485-1.755-.728-2.8-.728-1.046 0-1.988.243-2.828.728-.822.467-1.475 1.139-1.96 2.016-.467.877-.7 1.876-.7 2.996s.233 2.119.7 2.996c.485.877 1.138 1.559 1.96 2.044.84.467 1.782.7 2.828.7zm24.967 1.764c-1.456 0-2.763-.317-3.92-.952a6.94 6.94 0 01-2.688-2.66c-.654-1.157-.98-2.455-.98-3.892 0-1.437.326-2.725.98-3.864a6.94 6.94 0 012.688-2.66c1.157-.635 2.464-.952 3.92-.952 1.269 0 2.398.252 3.388.756a5.542 5.542 0 012.38 2.156l-1.484 1.008c-.486-.728-1.102-1.27-1.848-1.624a5.373 5.373 0 00-2.436-.56c-1.064 0-2.026.243-2.884.728a5.04 5.04 0 00-1.988 2.016c-.467.877-.7 1.876-.7 2.996 0 1.139.233 2.147.7 3.024a5.286 5.286 0 001.988 2.016c.858.467 1.82.7 2.884.7.877 0 1.689-.177 2.436-.532.746-.355 1.362-.896 1.848-1.624l1.484 1.008a5.725 5.725 0 01-2.38 2.184c-1.008.485-2.138.728-3.388.728zm15.447 0c-1.419 0-2.697-.317-3.836-.952a7.141 7.141 0 01-2.688-2.688c-.653-1.139-.98-2.427-.98-3.864 0-1.437.327-2.725.98-3.864a6.94 6.94 0 012.688-2.66c1.139-.635 2.417-.952 3.836-.952s2.697.317 3.836.952a6.752 6.752 0 012.66 2.66c.653 1.139.98 2.427.98 3.864 0 1.437-.327 2.725-.98 3.864a6.944 6.944 0 01-2.66 2.688c-1.139.635-2.417.952-3.836.952zm0-1.764c1.045 0 1.979-.233 2.8-.7a5.047 5.047 0 001.96-2.044c.467-.877.7-1.876.7-2.996s-.233-2.119-.7-2.996a4.863 4.863 0 00-1.96-2.016c-.821-.485-1.755-.728-2.8-.728s-1.988.243-2.828.728c-.821.467-1.475 1.139-1.96 2.016-.467.877-.7 1.876-.7 2.996s.233 2.119.7 2.996a5.298 5.298 0 001.96 2.044c.84.467 1.783.7 2.828.7zm19.039-13.216c1.848 0 3.313.541 4.396 1.624 1.101 1.064 1.652 2.623 1.652 4.676V89h-1.988v-8.344c0-1.53-.383-2.697-1.148-3.5-.766-.803-1.858-1.204-3.276-1.204-1.587 0-2.847.476-3.78 1.428-.915.933-1.372 2.23-1.372 3.892V89h-1.988V74.272h1.904v2.716a5.454 5.454 0 012.24-2.072c.97-.504 2.09-.756 3.36-.756zm15.393 14.98c-1.195 0-2.343-.168-3.444-.504-1.083-.355-1.932-.793-2.548-1.316l.896-1.568c.616.485 1.39.887 2.324 1.204a9.493 9.493 0 002.912.448c1.344 0 2.333-.205 2.968-.616.653-.43.98-1.027.98-1.792 0-.541-.178-.961-.532-1.26-.355-.317-.803-.55-1.344-.7-.542-.168-1.26-.327-2.156-.476-1.195-.224-2.156-.448-2.884-.672a4.45 4.45 0 01-1.876-1.204c-.504-.56-.756-1.335-.756-2.324 0-1.232.513-2.24 1.54-3.024 1.026-.784 2.454-1.176 4.284-1.176.952 0 1.904.13 2.856.392.952.243 1.736.57 2.352.98l-.868 1.596c-1.214-.84-2.66-1.26-4.34-1.26-1.27 0-2.231.224-2.884.672-.635.448-.952 1.036-.952 1.764 0 .56.177 1.008.532 1.344.373.336.83.588 1.372.756.541.15 1.288.308 2.24.476 1.176.224 2.118.448 2.828.672a4.157 4.157 0 011.82 1.148c.504.541.756 1.288.756 2.24 0 1.288-.542 2.315-1.624 3.08-1.064.747-2.548 1.12-4.452 1.12zm22.575-6.888h-12.32c.112 1.53.7 2.772 1.764 3.724 1.064.933 2.408 1.4 4.032 1.4.915 0 1.755-.159 2.52-.476a5.657 5.657 0 001.988-1.456l1.12 1.288a6.287 6.287 0 01-2.464 1.792c-.971.41-2.044.616-3.22.616-1.512 0-2.856-.317-4.032-.952a7.09 7.09 0 01-2.716-2.688c-.653-1.139-.98-2.427-.98-3.864 0-1.437.308-2.725.924-3.864.635-1.139 1.493-2.025 2.576-2.66 1.101-.635 2.333-.952 3.696-.952s2.585.317 3.668.952c1.083.635 1.932 1.521 2.548 2.66.616 1.12.924 2.408.924 3.864l-.028.616zm-7.112-6.384c-1.419 0-2.613.457-3.584 1.372-.952.896-1.493 2.072-1.624 3.528h10.444c-.131-1.456-.681-2.632-1.652-3.528-.952-.915-2.147-1.372-3.584-1.372zm24.626-1.596v20.16h-1.988v-8.204a6.207 6.207 0 01-2.38 2.184c-.952.485-2.025.728-3.22.728-1.4 0-2.66-.308-3.78-.924a6.865 6.865 0 01-2.604-2.66c-.634-1.139-.952-2.445-.952-3.92 0-1.456.318-2.753.952-3.892a6.615 6.615 0 012.632-2.632c1.12-.635 2.371-.952 3.752-.952 1.232 0 2.334.261 3.304.784a6.09 6.09 0 012.38 2.24v-2.912h1.904zm-7.42 13.104c1.027 0 1.951-.233 2.772-.7a5.04 5.04 0 001.96-2.044c.486-.877.728-1.876.728-2.996s-.242-2.11-.728-2.968a5.04 5.04 0 00-1.96-2.044c-.821-.485-1.745-.728-2.772-.728-1.045 0-1.988.243-2.828.728-.821.485-1.474 1.167-1.96 2.044-.466.859-.7 1.848-.7 2.968 0 1.12.234 2.119.7 2.996.486.877 1.139 1.559 1.96 2.044.84.467 1.783.7 2.828.7zm26.229-13.104V89h-1.904v-2.688a5.551 5.551 0 01-2.156 2.1c-.915.485-1.96.728-3.136.728-1.923 0-3.444-.532-4.564-1.596-1.101-1.083-1.652-2.66-1.652-4.732v-8.54h1.988v8.344c0 1.55.383 2.725 1.148 3.528.765.803 1.857 1.204 3.276 1.204 1.549 0 2.772-.467 3.668-1.4.896-.952 1.344-2.268 1.344-3.948v-7.728h1.988zm10.72-.112c1.922 0 3.397.485 4.424 1.456 1.026.952 1.54 2.37 1.54 4.256V89h-1.904v-2.296c-.448.765-1.111 1.363-1.988 1.792-.859.43-1.886.644-3.08.644-1.643 0-2.95-.392-3.92-1.176-.971-.784-1.456-1.82-1.456-3.108 0-1.25.448-2.259 1.344-3.024.914-.765 2.361-1.148 4.34-1.148h4.676v-.896c0-1.27-.355-2.23-1.064-2.884-.71-.672-1.746-1.008-3.108-1.008-.934 0-1.83.159-2.688.476-.859.299-1.596.719-2.212 1.26l-.896-1.484c.746-.635 1.642-1.12 2.688-1.456a10.208 10.208 0 013.304-.532zm-.7 13.412c1.12 0 2.081-.252 2.884-.756.802-.523 1.4-1.27 1.792-2.24v-2.408h-4.62c-2.52 0-3.78.877-3.78 2.632 0 .859.326 1.54.98 2.044.653.485 1.568.728 2.744.728zm19.819.532c-.373.336-.84.597-1.4.784a5.725 5.725 0 01-1.708.252c-1.381 0-2.445-.373-3.192-1.12-.746-.747-1.12-1.801-1.12-3.164v-8.904h-2.632v-1.68h2.632v-3.22h1.988v3.22h4.48v1.68h-4.48v8.792c0 .877.215 1.55.644 2.016.448.448 1.083.672 1.904.672a3.53 3.53 0 001.176-.196c.392-.13.728-.317 1.008-.56l.7 1.428zm4.089 1.036c-.411 0-.765-.15-1.064-.448a1.538 1.538 0 01-.42-1.092c0-.43.14-.784.42-1.064a1.453 1.453 0 011.064-.448c.411 0 .765.15 1.064.448.299.28.448.635.448 1.064 0 .43-.149.793-.448 1.092a1.453 1.453 0 01-1.064.448z" fill="#000"/></svg>