<svg width="378" height="43" viewBox="0 0 378 43" fill="none" xmlns="http://www.w3.org/2000/svg"><g filter="url(#filter0_d_217_8)"><path d="M4.237 1.8h10.26c2.664 0 5.016.54 7.056 1.62 2.04 1.056 3.624 2.544 4.752 4.464 1.128 1.896 1.692 4.068 1.692 6.516 0 2.448-.564 4.632-1.692 6.552-1.128 1.896-2.712 3.384-4.752 4.464C19.513 26.472 17.16 27 14.497 27H4.237V1.8zm10.116 22.896c2.208 0 4.14-.432 5.796-1.296 1.656-.888 2.94-2.1 3.852-3.636.912-1.56 1.368-3.348 1.368-5.364S24.913 10.608 24 9.072c-.912-1.56-2.196-2.772-3.852-3.636-1.656-.888-3.588-1.332-5.796-1.332H6.9v20.592h7.452zm21.534-12.924c.6-1.272 1.488-2.232 2.664-2.88 1.2-.648 2.676-.972 4.428-.972v2.484l-.612-.036c-1.992 0-3.552.612-4.68 1.836-1.128 1.224-1.692 2.94-1.692 5.148V27h-2.556V8.064h2.448v3.708zM54.196 7.92c2.472 0 4.368.624 5.688 1.872 1.32 1.224 1.98 3.048 1.98 5.472V27h-2.448v-2.952c-.576.984-1.428 1.752-2.556 2.304-1.104.552-2.424.828-3.96.828-2.112 0-3.792-.504-5.04-1.512-1.248-1.008-1.872-2.34-1.872-3.996 0-1.608.576-2.904 1.728-3.888 1.176-.984 3.036-1.476 5.58-1.476h6.012v-1.152c0-1.632-.456-2.868-1.368-3.708-.912-.864-2.244-1.296-3.996-1.296a9.89 9.89 0 00-3.456.612c-1.104.384-2.052.924-2.844 1.62l-1.152-1.908c.96-.816 2.112-1.44 3.456-1.872a13.131 13.131 0 014.248-.684zm-.9 17.244c1.44 0 2.676-.324 3.708-.972 1.032-.672 1.8-1.632 2.304-2.88v-3.096h-5.94c-3.24 0-4.86 1.128-4.86 3.384 0 1.104.42 1.98 1.26 2.628.84.624 2.016.936 3.528.936zm33.113-17.1v16.632c0 3.216-.793 5.592-2.377 7.128-1.56 1.56-3.923 2.34-7.091 2.34a15.72 15.72 0 01-5.005-.792c-1.56-.504-2.832-1.212-3.816-2.124l1.296-1.944c.913.816 2.017 1.452 3.313 1.908 1.32.456 2.7.684 4.14.684 2.4 0 4.163-.564 5.291-1.692 1.129-1.104 1.693-2.832 1.693-5.184v-2.412a7.676 7.676 0 01-3.132 2.736c-1.273.624-2.689.936-4.249.936-1.775 0-3.395-.384-4.86-1.152a8.972 8.972 0 01-3.42-3.276c-.816-1.416-1.223-3.012-1.223-4.788 0-1.776.407-3.36 1.224-4.752a8.709 8.709 0 013.42-3.24c1.44-.768 3.06-1.152 4.86-1.152 1.608 0 3.06.324 4.356.972A7.85 7.85 0 0183.96 11.7V8.064h2.448zm-9.684 15.948c1.368 0 2.604-.288 3.708-.864 1.103-.6 1.955-1.428 2.555-2.484.624-1.056.936-2.256.936-3.6 0-1.344-.312-2.532-.936-3.564a6.135 6.135 0 00-2.555-2.448c-1.08-.6-2.317-.9-3.709-.9-1.368 0-2.603.288-3.708.864a6.43 6.43 0 00-2.556 2.448c-.6 1.056-.9 2.256-.9 3.6 0 1.344.3 2.544.9 3.6a6.688 6.688 0 002.556 2.484c1.105.576 2.34.864 3.709.864zm24.571 3.168c-1.824 0-3.468-.408-4.932-1.224a9.189 9.189 0 01-3.456-3.456c-.84-1.464-1.26-3.12-1.26-4.968 0-1.848.42-3.504 1.26-4.968a8.929 8.929 0 013.456-3.42c1.464-.816 3.108-1.224 4.932-1.224 1.824 0 3.468.408 4.932 1.224a8.68 8.68 0 013.42 3.42c.84 1.464 1.26 3.12 1.26 4.968 0 1.848-.42 3.504-1.26 4.968a8.929 8.929 0 01-3.42 3.456c-1.464.816-3.108 1.224-4.932 1.224zm0-2.268c1.344 0 2.544-.3 3.6-.9a6.486 6.486 0 002.52-2.628c.6-1.128.9-2.412.9-3.852s-.3-2.724-.9-3.852c-.6-1.128-1.44-1.992-2.52-2.592-1.056-.624-2.256-.936-3.6-.936-1.344 0-2.556.312-3.636.936-1.056.6-1.896 1.464-2.52 2.592-.6 1.128-.9 2.412-.9 3.852s.3 2.724.9 3.852c.624 1.128 1.464 2.004 2.52 2.628 1.08.6 2.292.9 3.636.9zM125.775 7.92c2.376 0 4.26.696 5.652 2.088 1.416 1.368 2.124 3.372 2.124 6.012V27h-2.556V16.272c0-1.968-.492-3.468-1.476-4.5s-2.388-1.548-4.212-1.548c-2.04 0-3.66.612-4.86 1.836-1.176 1.2-1.764 2.868-1.764 5.004V27h-2.556V8.064h2.448v3.492a7.016 7.016 0 012.88-2.664c1.248-.648 2.688-.972 4.32-.972zm40.553 6.084c1.656.36 2.928 1.08 3.816 2.16.912 1.056 1.368 2.424 1.368 4.104 0 2.16-.804 3.828-2.412 5.004-1.584 1.152-3.936 1.728-7.056 1.728h-11.592V1.8h10.872c2.808 0 4.98.564 6.516 1.692 1.56 1.128 2.34 2.724 2.34 4.788 0 1.392-.348 2.58-1.044 3.564-.672.96-1.608 1.68-2.808 2.16zM153.116 3.996v9.144h8.028c2.04 0 3.612-.384 4.716-1.152 1.104-.792 1.656-1.932 1.656-3.42s-.552-2.616-1.656-3.384c-1.104-.792-2.676-1.188-4.716-1.188h-8.028zm8.892 20.808c2.256 0 3.96-.384 5.112-1.152 1.152-.768 1.728-1.968 1.728-3.6 0-3.144-2.28-4.716-6.84-4.716h-8.892v9.468h8.892zm22.784 2.376c-1.824 0-3.468-.408-4.932-1.224a9.189 9.189 0 01-3.456-3.456c-.84-1.464-1.26-3.12-1.26-4.968 0-1.848.42-3.504 1.26-4.968a8.929 8.929 0 013.456-3.42c1.464-.816 3.108-1.224 4.932-1.224 1.824 0 3.468.408 4.932 1.224a8.68 8.68 0 013.42 3.42c.84 1.464 1.26 3.12 1.26 4.968 0 1.848-.42 3.504-1.26 4.968a8.929 8.929 0 01-3.42 3.456c-1.464.816-3.108 1.224-4.932 1.224zm0-2.268c1.344 0 2.544-.3 3.6-.9a6.486 6.486 0 002.52-2.628c.6-1.128.9-2.412.9-3.852s-.3-2.724-.9-3.852c-.6-1.128-1.44-1.992-2.52-2.592-1.056-.624-2.256-.936-3.6-.936-1.344 0-2.556.312-3.636.936-1.056.6-1.896 1.464-2.52 2.592-.6 1.128-.9 2.412-.9 3.852s.3 2.724.9 3.852c.624 1.128 1.464 2.004 2.52 2.628 1.08.6 2.292.9 3.636.9zM206.141 7.92c2.472 0 4.368.624 5.688 1.872 1.32 1.224 1.98 3.048 1.98 5.472V27h-2.448v-2.952c-.576.984-1.428 1.752-2.556 2.304-1.104.552-2.424.828-3.96.828-2.112 0-3.792-.504-5.04-1.512-1.248-1.008-1.872-2.34-1.872-3.996 0-1.608.576-2.904 1.728-3.888 1.176-.984 3.036-1.476 5.58-1.476h6.012v-1.152c0-1.632-.456-2.868-1.368-3.708-.912-.864-2.244-1.296-3.996-1.296a9.89 9.89 0 00-3.456.612c-1.104.384-2.052.924-2.844 1.62l-1.152-1.908c.96-.816 2.112-1.44 3.456-1.872a13.131 13.131 0 014.248-.684zm-.9 17.244c1.44 0 2.676-.324 3.708-.972 1.032-.672 1.8-1.632 2.304-2.88v-3.096h-5.94c-3.24 0-4.86 1.128-4.86 3.384 0 1.104.42 1.98 1.26 2.628.84.624 2.016.936 3.528.936zm25.483.684c-.48.432-1.08.768-1.8 1.008a7.367 7.367 0 01-2.196.324c-1.776 0-3.144-.48-4.104-1.44s-1.44-2.316-1.44-4.068V10.224H217.8v-2.16h3.384v-4.14h2.556v4.14h5.76v2.16h-5.76v11.304c0 1.128.276 1.992.828 2.592.576.576 1.392.864 2.448.864.528 0 1.032-.084 1.512-.252a3.776 3.776 0 001.296-.72l.9 1.836zm17.278-21.744v9.9h13.032v2.304h-13.032V27h-2.664V1.8h17.28v2.304h-14.616zm35.433 14.22h-15.84c.144 1.968.9 3.564 2.268 4.788 1.368 1.2 3.096 1.8 5.184 1.8 1.176 0 2.256-.204 3.24-.612a7.27 7.27 0 002.556-1.872l1.44 1.656c-.84 1.008-1.896 1.776-3.168 2.304-1.248.528-2.628.792-4.14.792-1.944 0-3.672-.408-5.184-1.224a9.115 9.115 0 01-3.492-3.456c-.84-1.464-1.26-3.12-1.26-4.968 0-1.848.396-3.504 1.188-4.968.816-1.464 1.92-2.604 3.312-3.42 1.416-.816 3-1.224 4.752-1.224 1.752 0 3.324.408 4.716 1.224 1.392.816 2.484 1.956 3.276 3.42.792 1.44 1.188 3.096 1.188 4.968l-.036.792zm-9.144-8.208c-1.824 0-3.36.588-4.608 1.764-1.224 1.152-1.92 2.664-2.088 4.536h13.428c-.168-1.872-.876-3.384-2.124-4.536-1.224-1.176-2.76-1.764-4.608-1.764zm19.458 17.064a15.09 15.09 0 01-4.428-.648c-1.392-.456-2.484-1.02-3.276-1.692l1.152-2.016c.792.624 1.788 1.14 2.988 1.548 1.2.384 2.448.576 3.744.576 1.728 0 3-.264 3.816-.792.84-.552 1.26-1.32 1.26-2.304 0-.696-.228-1.236-.684-1.62-.456-.408-1.032-.708-1.728-.9-.696-.216-1.62-.42-2.772-.612-1.536-.288-2.772-.576-3.708-.864a5.725 5.725 0 01-2.412-1.548c-.648-.72-.972-1.716-.972-2.988 0-1.584.66-2.88 1.98-3.888 1.32-1.008 3.156-1.512 5.508-1.512 1.224 0 2.448.168 3.672.504 1.224.312 2.232.732 3.024 1.26l-1.116 2.052c-1.56-1.08-3.42-1.62-5.58-1.62-1.632 0-2.868.288-3.708.864-.816.576-1.224 1.332-1.224 2.268 0 .72.228 1.296.684 1.728.48.432 1.068.756 1.764.972.696.192 1.656.396 2.88.612 1.512.288 2.724.576 3.636.864.912.288 1.692.78 2.34 1.476.648.696.972 1.656.972 2.88 0 1.656-.696 2.976-2.088 3.96-1.368.96-3.276 1.44-5.724 1.44zm22.51-1.332c-.48.432-1.08.768-1.8 1.008a7.367 7.367 0 01-2.196.324c-1.776 0-3.144-.48-4.104-1.44s-1.44-2.316-1.44-4.068V10.224h-3.384v-2.16h3.384v-4.14h2.556v4.14h5.76v2.16h-5.76v11.304c0 1.128.276 1.992.828 2.592.576.576 1.392.864 2.448.864.528 0 1.032-.084 1.512-.252a3.776 3.776 0 001.296-.72l.9 1.836zm4.653-17.784h2.556V27h-2.556V8.064zm1.296-4.14a1.81 1.81 0 01-1.332-.54c-.36-.36-.54-.792-.54-1.296 0-.48.18-.9.54-1.26.36-.36.804-.54 1.332-.54s.972.18 1.332.54c.36.336.54.744.54 1.224 0 .528-.18.972-.54 1.332-.36.36-.804.54-1.332.54zm24.284 4.14L338.068 27h-2.628l-8.388-18.936h2.664l7.092 16.128 7.164-16.128h2.52zm9.661-.144c2.472 0 4.368.624 5.688 1.872 1.32 1.224 1.98 3.048 1.98 5.472V27h-2.448v-2.952c-.576.984-1.428 1.752-2.556 2.304-1.104.552-2.424.828-3.96.828-2.112 0-3.792-.504-5.04-1.512-1.248-1.008-1.872-2.34-1.872-3.996 0-1.608.576-2.904 1.728-3.888 1.176-.984 3.036-1.476 5.58-1.476h6.012v-1.152c0-1.632-.456-2.868-1.368-3.708-.912-.864-2.244-1.296-3.996-1.296a9.89 9.89 0 00-3.456.612c-1.104.384-2.052.924-2.844 1.62l-1.152-1.908c.96-.816 2.112-1.44 3.456-1.872a13.131 13.131 0 014.248-.684zm-.9 17.244c1.44 0 2.676-.324 3.708-.972 1.032-.672 1.8-1.632 2.304-2.88v-3.096h-5.94c-3.24 0-4.86 1.128-4.86 3.384 0 1.104.42 1.98 1.26 2.628.84.624 2.016.936 3.528.936zM370.763.288h2.556V27h-2.556V.288z" fill="#fff"/></g><defs><filter id="filter0_d_217_8" x=".237" y=".288" width="377.083" height="41.876" filterUnits="userSpaceOnUse" color-interpolation-filters="sRGB"><feFlood flood-opacity="0" result="BackgroundImageFix"/><feColorMatrix in="SourceAlpha" values="0 0 0 0 0 0 0 0 0 0 0 0 0 0 0 0 0 0 127 0" result="hardAlpha"/><feOffset dy="4"/><feGaussianBlur stdDeviation="2"/><feComposite in2="hardAlpha" operator="out"/><feColorMatrix values="0 0 0 0 0 0 0 0 0 0 0 0 0 0 0 0 0 0 0.25 0"/><feBlend in2="BackgroundImageFix" result="effect1_dropShadow_217_8"/><feBlend in="SourceGraphic" in2="effect1_dropShadow_217_8" result="shape"/></filter></defs></svg>