<svg width="198" height="24" viewBox="0 0 198 24" fill="none" xmlns="http://www.w3.org/2000/svg"><g filter="url(#filter0_d_159_27)"><path d="M15.517 8h1.42v5.34a6.841 6.841 0 01-2.32 1.32 8.624 8.624 0 01-2.82.46c-1.4 0-2.66-.307-3.78-.92-1.12-.613-2-1.46-2.64-2.54-.64-1.093-.96-2.313-.96-3.66s.32-2.56.96-3.64a6.769 6.769 0 012.64-2.56c1.12-.613 2.387-.92 3.8-.92 1.067 0 2.047.173 2.94.52a5.75 5.75 0 012.26 1.5l-.92.94c-1.107-1.093-2.513-1.64-4.22-1.64-1.133 0-2.16.253-3.08.76a5.44 5.44 0 00-2.14 2.08c-.52.88-.78 1.867-.78 2.96s.26 2.08.78 2.96a5.627 5.627 0 002.14 2.08c.907.507 1.927.76 3.06.76 1.44 0 2.66-.36 3.66-1.08V8zm6.669-1.46a3.454 3.454 0 011.48-1.6c.666-.36 1.486-.54 2.46-.54v1.38l-.34-.02c-1.107 0-1.974.34-2.6 1.02-.627.68-.94 1.633-.94 2.86V15h-1.42V4.48h1.36v2.06zm15.573 3.64h-8.8c.08 1.093.5 1.98 1.26 2.66.76.667 1.72 1 2.88 1 .654 0 1.254-.113 1.8-.34a4.04 4.04 0 001.42-1.04l.8.92a4.49 4.49 0 01-1.76 1.28c-.693.293-1.46.44-2.3.44-1.08 0-2.04-.227-2.88-.68a5.065 5.065 0 01-1.94-1.92c-.466-.813-.7-1.733-.7-2.76 0-1.027.22-1.947.66-2.76a4.945 4.945 0 011.84-1.9c.787-.453 1.667-.68 2.64-.68.974 0 1.847.227 2.62.68a4.803 4.803 0 011.82 1.9c.44.8.66 1.72.66 2.76l-.02.44zm-5.08-4.56c-1.013 0-1.867.327-2.56.98-.68.64-1.067 1.48-1.16 2.52h7.46c-.093-1.04-.486-1.88-1.18-2.52-.68-.653-1.533-.98-2.56-.98zM44.056 4.4c1.374 0 2.427.347 3.16 1.04.734.68 1.1 1.693 1.1 3.04V15h-1.36v-1.64c-.32.547-.793.973-1.42 1.28-.613.307-1.346.46-2.2.46-1.173 0-2.106-.28-2.8-.84-.693-.56-1.04-1.3-1.04-2.22 0-.893.32-1.613.96-2.16.654-.547 1.687-.82 3.1-.82h3.34v-.64c0-.907-.253-1.593-.76-2.06-.506-.48-1.246-.72-2.22-.72-.666 0-1.306.113-1.92.34a4.703 4.703 0 00-1.58.9l-.64-1.06c.534-.453 1.174-.8 1.92-1.04a7.295 7.295 0 012.36-.38zm-.5 9.58c.8 0 1.487-.18 2.06-.54.574-.373 1-.907 1.28-1.6v-1.72h-3.3c-1.8 0-2.7.627-2.7 1.88 0 .613.234 1.1.7 1.46.467.347 1.12.52 1.96.52zm14.157.38c-.266.24-.6.427-1 .56-.386.12-.793.18-1.22.18-.986 0-1.746-.267-2.28-.8-.533-.533-.8-1.287-.8-2.26V5.68h-1.88v-1.2h1.88v-2.3h1.42v2.3h3.2v1.2h-3.2v6.28c0 .627.154 1.107.46 1.44.32.32.774.48 1.36.48.294 0 .574-.047.84-.14.28-.093.52-.227.72-.4l.5 1.02zM85.053 1l-4.72 14h-1.56l-4.1-11.94L70.553 15h-1.54l-4.72-14h1.52l4.04 12.04L74.033 1h1.38l4.12 12.1 4.1-12.1h1.42zm5.293 3.4c1.373 0 2.426.347 3.16 1.04.733.68 1.1 1.693 1.1 3.04V15h-1.36v-1.64c-.32.547-.794.973-1.42 1.28-.614.307-1.347.46-2.2.46-1.174 0-2.107-.28-2.8-.84-.694-.56-1.04-1.3-1.04-2.22 0-.893.32-1.613.96-2.16.653-.547 1.686-.82 3.1-.82h3.34v-.64c0-.907-.254-1.593-.76-2.06-.507-.48-1.247-.72-2.22-.72-.667 0-1.307.113-1.92.34a4.703 4.703 0 00-1.58.9l-.64-1.06c.533-.453 1.173-.8 1.92-1.04a7.296 7.296 0 012.36-.38zm-.5 9.58c.8 0 1.486-.18 2.06-.54.573-.373 1-.907 1.28-1.6v-1.72h-3.3c-1.8 0-2.7.627-2.7 1.88 0 .613.233 1.1.7 1.46.466.347 1.12.52 1.96.52zM98.462.16h1.42V15h-1.42V.16zm5.372 0h1.42V15h-1.42V.16zm14.905 14.94c-1.013 0-1.927-.227-2.74-.68a5.11 5.11 0 01-1.92-1.92c-.467-.813-.7-1.733-.7-2.76 0-1.027.233-1.947.7-2.76a4.965 4.965 0 011.92-1.9c.813-.453 1.727-.68 2.74-.68 1.013 0 1.927.227 2.74.68a4.823 4.823 0 011.9 1.9c.467.813.7 1.733.7 2.76 0 1.027-.233 1.947-.7 2.76a4.961 4.961 0 01-1.9 1.92c-.813.453-1.727.68-2.74.68zm0-1.26c.747 0 1.413-.167 2-.5a3.601 3.601 0 001.4-1.46c.333-.627.5-1.34.5-2.14s-.167-1.513-.5-2.14a3.47 3.47 0 00-1.4-1.44c-.587-.347-1.253-.52-2-.52-.747 0-1.42.173-2.02.52a3.64 3.64 0 00-1.4 1.44c-.333.627-.5 1.34-.5 2.14s.167 1.513.5 2.14a3.784 3.784 0 001.4 1.46c.6.333 1.273.5 2.02.5zm11.719-12.58c-.613 0-1.08.167-1.4.5-.307.333-.46.827-.46 1.48v1.24h3.24v1.2h-3.2V15h-1.42V5.68h-1.88v-1.2h1.88v-1.3c0-.96.273-1.72.82-2.28.56-.56 1.347-.84 2.36-.84.4 0 .787.06 1.16.18.373.107.687.267.94.48l-.48 1.06c-.413-.347-.933-.52-1.56-.52zm14.912 13.86c-1.387 0-2.64-.307-3.76-.92a6.848 6.848 0 01-2.62-2.54c-.627-1.093-.94-2.313-.94-3.66s.313-2.56.94-3.64a6.769 6.769 0 012.64-2.56c1.12-.613 2.373-.92 3.76-.92 1.04 0 2 .173 2.88.52.88.347 1.626.853 2.24 1.52l-.94.94c-1.094-1.107-2.474-1.66-4.14-1.66-1.107 0-2.114.253-3.02.76a5.624 5.624 0 00-2.14 2.08c-.507.88-.76 1.867-.76 2.96s.253 2.08.76 2.96a5.625 5.625 0 002.14 2.08c.906.507 1.913.76 3.02.76 1.68 0 3.06-.56 4.14-1.68l.94.94a6.148 6.148 0 01-2.26 1.54c-.88.347-1.84.52-2.88.52zM158.725 4.4c1.32 0 2.366.387 3.14 1.16.786.76 1.18 1.873 1.18 3.34V15h-1.42V9.04c0-1.093-.274-1.927-.82-2.5-.547-.573-1.327-.86-2.34-.86-1.134 0-2.034.34-2.7 1.02-.654.667-.98 1.593-.98 2.78V15h-1.42V.16h1.42v6.16a3.846 3.846 0 011.6-1.42c.68-.333 1.46-.5 2.34-.5zm8.175.08h1.42V15h-1.42V4.48zm.72-2.3c-.293 0-.54-.1-.74-.3-.2-.2-.3-.44-.3-.72 0-.267.1-.5.3-.7.2-.2.447-.3.74-.3s.54.1.74.3c.2.187.3.413.3.68 0 .293-.1.54-.3.74-.2.2-.447.3-.74.3zm10.011 2.22c1.32 0 2.367.387 3.14 1.16.787.76 1.18 1.873 1.18 3.34V15h-1.42V9.04c0-1.093-.273-1.927-.82-2.5-.547-.573-1.327-.86-2.34-.86-1.133 0-2.033.34-2.7 1.02-.653.667-.98 1.593-.98 2.78V15h-1.42V4.48h1.36v1.94a3.9 3.9 0 011.6-1.48c.693-.36 1.493-.54 2.4-.54zm11.855 0c1.374 0 2.427.347 3.16 1.04.734.68 1.1 1.693 1.1 3.04V15h-1.36v-1.64c-.32.547-.793.973-1.42 1.28-.613.307-1.346.46-2.2.46-1.173 0-2.106-.28-2.8-.84-.693-.56-1.04-1.3-1.04-2.22 0-.893.32-1.613.96-2.16.654-.547 1.687-.82 3.1-.82h3.34v-.64c0-.907-.253-1.593-.76-2.06-.506-.48-1.246-.72-2.22-.72a5.5 5.5 0 00-1.92.34 4.706 4.706 0 00-1.58.9l-.64-1.06c.534-.453 1.174-.8 1.92-1.04a7.3 7.3 0 012.36-.38zm-.5 9.58c.8 0 1.487-.18 2.06-.54.574-.373 1-.907 1.28-1.6v-1.72h-3.3c-1.8 0-2.7.627-2.7 1.88 0 .613.234 1.1.7 1.46.467.347 1.12.52 1.96.52z" fill="#fff"/></g><defs><filter id="filter0_d_159_27" x=".417" y=".06" width="197.329" height="23.06" filterUnits="userSpaceOnUse" color-interpolation-filters="sRGB"><feFlood flood-opacity="0" result="BackgroundImageFix"/><feColorMatrix in="SourceAlpha" values="0 0 0 0 0 0 0 0 0 0 0 0 0 0 0 0 0 0 127 0" result="hardAlpha"/><feOffset dy="4"/><feGaussianBlur stdDeviation="2"/><feComposite in2="hardAlpha" operator="out"/><feColorMatrix values="0 0 0 0 0 0 0 0 0 0 0 0 0 0 0 0 0 0 0.25 0"/><feBlend in2="BackgroundImageFix" result="effect1_dropShadow_159_27"/><feBlend in="SourceGraphic" in2="effect1_dropShadow_159_27" result="shape"/></filter></defs></svg>