<svg width="242" height="27" viewBox="0 0 242 27" fill="none" xmlns="http://www.w3.org/2000/svg"><g filter="url(#filter0_d_159_21)"><path d="M16.394 1v14h-1.46V8.54h-8.76V15h-1.48V1h1.48v6.24h8.76V1h1.46zm13.43 9.18h-8.8c.08 1.093.5 1.98 1.26 2.66.76.667 1.72 1 2.88 1 .653 0 1.253-.113 1.8-.34a4.04 4.04 0 001.42-1.04l.8.92a4.49 4.49 0 01-1.76 1.28c-.694.293-1.46.44-2.3.44-1.08 0-2.04-.227-2.88-.68a5.064 5.064 0 01-1.94-1.92c-.467-.813-.7-1.733-.7-2.76 0-1.027.22-1.947.66-2.76a4.944 4.944 0 011.84-1.9c.786-.453 1.666-.68 2.64-.68.973 0 1.846.227 2.62.68a4.803 4.803 0 011.82 1.9c.44.8.66 1.72.66 2.76l-.02.44zm-5.08-4.56c-1.014 0-1.867.327-2.56.98-.68.64-1.067 1.48-1.16 2.52h7.46c-.094-1.04-.487-1.88-1.18-2.52-.68-.653-1.534-.98-2.56-.98zm13.35-1.22c1.32 0 2.367.387 3.14 1.16.787.76 1.18 1.873 1.18 3.34V15h-1.42V9.04c0-1.093-.273-1.927-.82-2.5-.547-.573-1.327-.86-2.34-.86-1.133 0-2.033.34-2.7 1.02-.653.667-.98 1.593-.98 2.78V15h-1.42V4.48h1.36v1.94c.387-.64.92-1.133 1.6-1.48.693-.36 1.493-.54 2.4-.54zm17.954.08v9.24c0 1.787-.44 3.107-1.32 3.96-.867.867-2.18 1.3-3.94 1.3-.973 0-1.9-.147-2.78-.44-.867-.28-1.573-.673-2.12-1.18l.72-1.08c.507.453 1.12.807 1.84 1.06.733.253 1.5.38 2.3.38 1.334 0 2.314-.313 2.94-.94.627-.613.94-1.573.94-2.88v-1.34a4.264 4.264 0 01-1.74 1.52c-.706.347-1.493.52-2.36.52-.986 0-1.886-.213-2.7-.64a4.985 4.985 0 01-1.9-1.82c-.453-.787-.68-1.673-.68-2.66 0-.987.227-1.867.68-2.64a4.838 4.838 0 011.9-1.8c.8-.427 1.7-.64 2.7-.64.894 0 1.7.18 2.42.54.72.36 1.3.88 1.74 1.56V4.48h1.36zm-5.38 8.86c.76 0 1.447-.16 2.06-.48a3.538 3.538 0 001.42-1.38c.347-.587.52-1.253.52-2 0-.747-.173-1.407-.52-1.98a3.408 3.408 0 00-1.42-1.36c-.6-.333-1.287-.5-2.06-.5-.76 0-1.447.16-2.06.48-.6.32-1.073.773-1.42 1.36-.333.587-.5 1.253-.5 2 0 .747.167 1.413.5 2 .347.587.82 1.047 1.42 1.38.614.32 1.3.48 2.06.48zM69.62.16V15h-1.36v-2.08a4.312 4.312 0 01-1.7 1.62c-.693.373-1.48.56-2.36.56-.987 0-1.88-.227-2.68-.68a4.86 4.86 0 01-1.88-1.9c-.453-.813-.68-1.74-.68-2.78 0-1.04.227-1.967.68-2.78a4.723 4.723 0 011.88-1.88c.8-.453 1.693-.68 2.68-.68.853 0 1.62.18 2.3.54.693.347 1.26.86 1.7 1.54V.16h1.42zm-5.3 13.68c.733 0 1.393-.167 1.98-.5a3.604 3.604 0 001.4-1.46c.347-.627.52-1.34.52-2.14s-.173-1.513-.52-2.14a3.472 3.472 0 00-1.4-1.44c-.587-.347-1.247-.52-1.98-.52-.747 0-1.42.173-2.02.52a3.64 3.64 0 00-1.4 1.44c-.333.627-.5 1.34-.5 2.14s.167 1.513.5 2.14a3.784 3.784 0 001.4 1.46c.6.333 1.273.5 2.02.5zm9.255-9.36h1.42V15h-1.42V4.48zm.72-2.3c-.294 0-.54-.1-.74-.3-.2-.2-.3-.44-.3-.72 0-.267.1-.5.3-.7.2-.2.446-.3.74-.3.293 0 .54.1.74.3.2.187.3.413.3.68 0 .293-.1.54-.3.74-.2.2-.447.3-.74.3zm8.33 2.22c1.374 0 2.428.347 3.16 1.04.734.68 1.1 1.693 1.1 3.04V15h-1.36v-1.64c-.32.547-.793.973-1.42 1.28-.612.307-1.346.46-2.2.46-1.172 0-2.106-.28-2.8-.84-.692-.56-1.04-1.3-1.04-2.22 0-.893.32-1.613.96-2.16.654-.547 1.688-.82 3.1-.82h3.34v-.64c0-.907-.252-1.593-.76-2.06-.506-.48-1.246-.72-2.22-.72-.666 0-1.306.113-1.92.34a4.703 4.703 0 00-1.58.9l-.64-1.06c.534-.453 1.174-.8 1.92-1.04a7.296 7.296 0 012.36-.38zm-.5 9.58c.8 0 1.488-.18 2.06-.54.574-.373 1-.907 1.28-1.6v-1.72h-3.3c-1.8 0-2.7.627-2.7 1.88 0 .613.234 1.1.7 1.46.468.347 1.12.52 1.96.52zM96.103 4.4c1.32 0 2.366.387 3.14 1.16.786.76 1.18 1.873 1.18 3.34V15h-1.42V9.04c0-1.093-.274-1.927-.82-2.5-.547-.573-1.327-.86-2.34-.86-1.134 0-2.034.34-2.7 1.02-.654.667-.98 1.593-.98 2.78V15h-1.42V4.48h1.36v1.94c.386-.64.92-1.133 1.6-1.48.693-.36 1.493-.54 2.4-.54zM129.03 1l-4.72 14h-1.56l-4.1-11.94-4.12 11.94h-1.54l-4.72-14h1.52l4.04 12.04L118.011 1h1.38l4.12 12.1 4.1-12.1h1.42zm5.913 14.1c-1.013 0-1.927-.227-2.74-.68a5.11 5.11 0 01-1.92-1.92c-.467-.813-.7-1.733-.7-2.76 0-1.027.233-1.947.7-2.76a4.965 4.965 0 011.92-1.9c.813-.453 1.727-.68 2.74-.68 1.013 0 1.927.227 2.74.68a4.823 4.823 0 011.9 1.9c.467.813.7 1.733.7 2.76 0 1.027-.233 1.947-.7 2.76a4.961 4.961 0 01-1.9 1.92c-.813.453-1.727.68-2.74.68zm0-1.26c.747 0 1.413-.167 2-.5a3.601 3.601 0 001.4-1.46c.333-.627.5-1.34.5-2.14s-.167-1.513-.5-2.14a3.47 3.47 0 00-1.4-1.44c-.587-.347-1.253-.52-2-.52-.747 0-1.42.173-2.02.52a3.64 3.64 0 00-1.4 1.44c-.333.627-.5 1.34-.5 2.14s.167 1.513.5 2.14a3.784 3.784 0 001.4 1.46c.6.333 1.273.5 2.02.5zm9.599-7.3a3.454 3.454 0 011.48-1.6c.667-.36 1.487-.54 2.46-.54v1.38l-.34-.02c-1.107 0-1.973.34-2.6 1.02-.627.68-.94 1.633-.94 2.86V15h-1.42V4.48h1.36v2.06zm6.511-6.38h1.42V15h-1.42V.16zm14.971 0V15h-1.36v-2.08a4.305 4.305 0 01-1.7 1.62c-.693.373-1.48.56-2.36.56-.986 0-1.88-.227-2.68-.68a4.865 4.865 0 01-1.88-1.9c-.453-.813-.68-1.74-.68-2.78 0-1.04.227-1.967.68-2.78a4.728 4.728 0 011.88-1.88c.8-.453 1.694-.68 2.68-.68.854 0 1.62.18 2.3.54.694.347 1.26.86 1.7 1.54V.16h1.42zm-5.3 13.68c.734 0 1.394-.167 1.98-.5a3.601 3.601 0 001.4-1.46c.347-.627.52-1.34.52-2.14s-.173-1.513-.52-2.14a3.47 3.47 0 00-1.4-1.44c-.586-.347-1.246-.52-1.98-.52-.746 0-1.42.173-2.02.52a3.647 3.647 0 00-1.4 1.44c-.333.627-.5 1.34-.5 2.14s.167 1.513.5 2.14a3.791 3.791 0 001.4 1.46c.6.333 1.274.5 2.02.5zm18.649 1.28c-1.04 0-2.04-.167-3-.5-.946-.333-1.68-.773-2.2-1.32l.58-1.14c.507.507 1.18.92 2.02 1.24.84.307 1.707.46 2.6.46 1.254 0 2.194-.227 2.82-.68.627-.467.94-1.067.94-1.8 0-.56-.173-1.007-.52-1.34a3.236 3.236 0 00-1.24-.76c-.493-.187-1.18-.387-2.06-.6-1.053-.267-1.893-.52-2.52-.76a4.33 4.33 0 01-1.62-1.14c-.44-.507-.66-1.193-.66-2.06 0-.707.187-1.347.56-1.92.374-.587.947-1.053 1.72-1.4.774-.347 1.734-.52 2.88-.52.8 0 1.58.113 2.34.34.774.213 1.44.513 2 .9l-.5 1.18a6.65 6.65 0 00-1.88-.86c-.666-.2-1.32-.3-1.96-.3-1.226 0-2.153.24-2.78.72-.613.467-.92 1.073-.92 1.82 0 .56.167 1.013.5 1.36.347.333.774.593 1.28.78.52.173 1.214.367 2.08.58 1.027.253 1.854.507 2.48.76.64.24 1.18.613 1.62 1.12.44.493.66 1.167.66 2.02a3.45 3.45 0 01-.58 1.94c-.373.573-.953 1.033-1.74 1.38-.786.333-1.753.5-2.9.5zm13.685-.76c-.267.24-.6.427-1 .56-.387.12-.793.18-1.22.18-.987 0-1.747-.267-2.28-.8-.533-.533-.8-1.287-.8-2.26V5.68h-1.88v-1.2h1.88v-2.3h1.42v2.3h3.2v1.2h-3.2v6.28c0 .627.153 1.107.46 1.44.32.32.773.48 1.36.48.293 0 .573-.047.84-.14.28-.093.52-.227.72-.4l.5 1.02zm12.065-9.88V15h-1.36v-1.92a3.965 3.965 0 01-1.54 1.5c-.653.347-1.4.52-2.24.52-1.373 0-2.46-.38-3.26-1.14-.787-.773-1.18-1.9-1.18-3.38v-6.1h1.42v5.96c0 1.107.273 1.947.82 2.52.547.573 1.327.86 2.34.86 1.107 0 1.98-.333 2.62-1 .64-.68.96-1.62.96-2.82V4.48h1.42zM218.701.16V15h-1.36v-2.08a4.311 4.311 0 01-1.7 1.62c-.693.373-1.48.56-2.36.56-.987 0-1.88-.227-2.68-.68a4.858 4.858 0 01-1.88-1.9c-.453-.813-.68-1.74-.68-2.78 0-1.04.227-1.967.68-2.78a4.721 4.721 0 011.88-1.88c.8-.453 1.693-.68 2.68-.68.853 0 1.62.18 2.3.54.693.347 1.26.86 1.7 1.54V.16h1.42zm-5.3 13.68c.733 0 1.393-.167 1.98-.5a3.601 3.601 0 001.4-1.46c.347-.627.52-1.34.52-2.14s-.173-1.513-.52-2.14a3.47 3.47 0 00-1.4-1.44 3.82 3.82 0 00-1.98-.52c-.747 0-1.42.173-2.02.52a3.64 3.64 0 00-1.4 1.44c-.333.627-.5 1.34-.5 2.14s.167 1.513.5 2.14a3.784 3.784 0 001.4 1.46c.6.333 1.273.5 2.02.5zm9.255-9.36h1.42V15h-1.42V4.48zm.72-2.3c-.294 0-.54-.1-.74-.3-.2-.2-.3-.44-.3-.72 0-.267.1-.5.3-.7.2-.2.446-.3.74-.3.293 0 .54.1.74.3.2.187.3.413.3.68 0 .293-.1.54-.3.74-.2.2-.447.3-.74.3zm8.951 12.92c-1.013 0-1.927-.227-2.74-.68a5.11 5.11 0 01-1.92-1.92c-.467-.813-.7-1.733-.7-2.76 0-1.027.233-1.947.7-2.76a4.965 4.965 0 011.92-1.9c.813-.453 1.727-.68 2.74-.68 1.013 0 1.927.227 2.74.68a4.823 4.823 0 011.9 1.9c.467.813.7 1.733.7 2.76 0 1.027-.233 1.947-.7 2.76a4.961 4.961 0 01-1.9 1.92c-.813.453-1.727.68-2.74.68zm0-1.26c.747 0 1.413-.167 2-.5a3.601 3.601 0 001.4-1.46c.333-.627.5-1.34.5-2.14s-.167-1.513-.5-2.14a3.47 3.47 0 00-1.4-1.44c-.587-.347-1.253-.52-2-.52-.747 0-1.42.173-2.02.52a3.64 3.64 0 00-1.4 1.44c-.333.627-.5 1.34-.5 2.14s.167 1.513.5 2.14a3.784 3.784 0 001.4 1.46c.6.333 1.273.5 2.02.5z" fill="#fff"/></g><defs><filter id="filter0_d_159_21" x=".694" y=".16" width="240.973" height="26.82" filterUnits="userSpaceOnUse" color-interpolation-filters="sRGB"><feFlood flood-opacity="0" result="BackgroundImageFix"/><feColorMatrix in="SourceAlpha" values="0 0 0 0 0 0 0 0 0 0 0 0 0 0 0 0 0 0 127 0" result="hardAlpha"/><feOffset dy="4"/><feGaussianBlur stdDeviation="2"/><feComposite in2="hardAlpha" operator="out"/><feColorMatrix values="0 0 0 0 0 0 0 0 0 0 0 0 0 0 0 0 0 0 0.25 0"/><feBlend in2="BackgroundImageFix" result="effect1_dropShadow_159_21"/><feBlend in="SourceGraphic" in2="effect1_dropShadow_159_21" result="shape"/></filter></defs></svg>