<svg width="205" height="27" viewBox="0 0 205 27" fill="none" xmlns="http://www.w3.org/2000/svg"><g filter="url(#filter0_d_159_2)"><path d="M4.415 1h1.48v12.72h7.84V15h-9.32V1zm15.62 14.1c-1.012 0-1.926-.227-2.74-.68a5.104 5.104 0 01-1.92-1.92c-.466-.813-.7-1.733-.7-2.76 0-1.027.234-1.947.7-2.76a4.96 4.96 0 011.92-1.9c.814-.453 1.727-.68 2.74-.68 1.014 0 1.927.227 2.74.68a4.823 4.823 0 011.9 1.9c.467.813.7 1.733.7 2.76 0 1.027-.233 1.947-.7 2.76a4.962 4.962 0 01-1.9 1.92c-.813.453-1.726.68-2.74.68zm0-1.26c.747 0 1.414-.167 2-.5a3.604 3.604 0 001.4-1.46c.334-.627.5-1.34.5-2.14s-.166-1.513-.5-2.14a3.472 3.472 0 00-1.4-1.44c-.586-.347-1.253-.52-2-.52-.746 0-1.42.173-2.02.52a3.64 3.64 0 00-1.4 1.44c-.332.627-.5 1.34-.5 2.14s.168 1.513.5 2.14a3.784 3.784 0 001.4 1.46c.6.333 1.274.5 2.02.5zm13.6-9.44c1.32 0 2.367.387 3.14 1.16.787.76 1.18 1.873 1.18 3.34V15h-1.42V9.04c0-1.093-.273-1.927-.82-2.5-.547-.573-1.327-.86-2.34-.86-1.133 0-2.033.34-2.7 1.02-.653.667-.98 1.593-.98 2.78V15h-1.42V4.48h1.36v1.94c.387-.64.92-1.133 1.6-1.48.693-.36 1.493-.54 2.4-.54zm17.954.08v9.24c0 1.787-.44 3.107-1.32 3.96-.866.867-2.18 1.3-3.94 1.3-.973 0-1.9-.147-2.78-.44-.867-.28-1.573-.673-2.12-1.18l.72-1.08c.507.453 1.12.807 1.84 1.06.733.253 1.5.38 2.3.38 1.334 0 2.313-.313 2.94-.94.627-.613.94-1.573.94-2.88v-1.34a4.264 4.264 0 01-1.74 1.52c-.707.347-1.493.52-2.36.52-.986 0-1.887-.213-2.7-.64a4.985 4.985 0 01-1.9-1.82c-.453-.787-.68-1.673-.68-2.66 0-.987.227-1.867.68-2.64a4.838 4.838 0 011.9-1.8c.8-.427 1.7-.64 2.7-.64.893 0 1.7.18 2.42.54.72.36 1.3.88 1.74 1.56V4.48h1.36zm-5.38 8.86c.76 0 1.447-.16 2.06-.48a3.538 3.538 0 001.42-1.38c.347-.587.52-1.253.52-2 0-.747-.173-1.407-.52-1.98a3.408 3.408 0 00-1.42-1.36c-.6-.333-1.286-.5-2.06-.5-.76 0-1.447.16-2.06.48-.6.32-1.073.773-1.42 1.36-.333.587-.5 1.253-.5 2 0 .747.167 1.413.5 2 .347.587.82 1.047 1.42 1.38.614.32 1.3.48 2.06.48zM54 18.98c-.44 0-.853-.06-1.24-.18-.4-.107-.727-.273-.98-.5l.5-1.08c.413.36.96.54 1.64.54.56 0 .987-.167 1.28-.5.307-.333.46-.827.46-1.48V4.48h1.42v11.3c0 .987-.267 1.767-.8 2.34s-1.293.86-2.28.86zm2.38-16.82c-.293 0-.54-.1-.74-.3-.2-.2-.3-.44-.3-.72 0-.267.1-.5.3-.7.2-.2.447-.3.74-.3s.54.1.74.3c.2.187.3.413.3.68 0 .293-.1.54-.3.74-.2.2-.447.3-.74.3zm4.668 2.32h1.42V15h-1.42V4.48zm.72-2.3c-.293 0-.54-.1-.74-.3-.2-.2-.3-.44-.3-.72 0-.267.1-.5.3-.7.2-.2.447-.3.74-.3.294 0 .54.1.74.3.2.187.3.413.3.68 0 .293-.1.54-.3.74-.2.2-.446.3-.74.3zM81.514 15l-3.2-4.5c-.36.04-.733.06-1.12.06h-3.76V15h-1.48V1h5.24c1.787 0 3.186.427 4.2 1.28 1.013.853 1.52 2.027 1.52 3.52 0 1.093-.28 2.02-.84 2.78-.547.747-1.334 1.287-2.36 1.62l3.42 4.8h-1.62zm-4.36-5.7c1.386 0 2.447-.307 3.18-.92.733-.613 1.1-1.473 1.1-2.58 0-1.133-.367-2-1.1-2.6-.734-.613-1.794-.92-3.18-.92h-3.72V9.3h3.72zm8.953-4.82h1.42V15h-1.42V4.48zm.72-2.3c-.293 0-.54-.1-.74-.3-.2-.2-.3-.44-.3-.72 0-.267.1-.5.3-.7.2-.2.447-.3.74-.3s.54.1.74.3c.2.187.3.413.3.68 0 .293-.1.54-.3.74-.2.2-.447.3-.74.3zm9.011 12.92c-1.04 0-1.973-.227-2.8-.68a4.961 4.961 0 01-1.92-1.9c-.467-.827-.7-1.753-.7-2.78s.233-1.947.7-2.76a4.961 4.961 0 011.92-1.9c.827-.453 1.76-.68 2.8-.68.907 0 1.713.18 2.42.54.72.347 1.287.86 1.7 1.54l-1.06.72a3.24 3.24 0 00-1.32-1.16 3.836 3.836 0 00-1.74-.4c-.76 0-1.447.173-2.06.52-.6.333-1.073.813-1.42 1.44-.333.627-.5 1.34-.5 2.14 0 .813.167 1.533.5 2.16.347.613.82 1.093 1.42 1.44.613.333 1.3.5 2.06.5.627 0 1.207-.127 1.74-.38a3.24 3.24 0 001.32-1.16l1.06.72c-.413.68-.98 1.2-1.7 1.56-.72.347-1.527.52-2.42.52zm15.894-4.92h-8.8c.08 1.093.5 1.98 1.26 2.66.76.667 1.72 1 2.88 1 .653 0 1.253-.113 1.8-.34a4.046 4.046 0 001.42-1.04l.8.92a4.497 4.497 0 01-1.76 1.28c-.694.293-1.46.44-2.3.44-1.08 0-2.04-.227-2.88-.68a5.058 5.058 0 01-1.94-1.92c-.467-.813-.7-1.733-.7-2.76 0-1.027.22-1.947.66-2.76a4.937 4.937 0 011.84-1.9c.786-.453 1.666-.68 2.64-.68.973 0 1.846.227 2.62.68a4.805 4.805 0 011.82 1.9c.44.8.66 1.72.66 2.76l-.02.44zm-5.08-4.56c-1.014 0-1.867.327-2.56.98-.68.64-1.067 1.48-1.16 2.52h7.46c-.094-1.04-.487-1.88-1.18-2.52-.68-.653-1.534-.98-2.56-.98zm16.244-3.34h-4.92V1h11.32v1.28h-4.92V15h-1.48V2.28zm16.531 7.9h-8.8c.08 1.093.5 1.98 1.26 2.66.76.667 1.72 1 2.88 1 .653 0 1.253-.113 1.8-.34a4.037 4.037 0 001.42-1.04l.8.92a4.49 4.49 0 01-1.76 1.28c-.693.293-1.46.44-2.3.44-1.08 0-2.04-.227-2.88-.68a5.064 5.064 0 01-1.94-1.92c-.467-.813-.7-1.733-.7-2.76 0-1.027.22-1.947.66-2.76a4.944 4.944 0 011.84-1.9c.787-.453 1.667-.68 2.64-.68.973 0 1.847.227 2.62.68a4.805 4.805 0 011.82 1.9c.44.8.66 1.72.66 2.76l-.02.44zm-5.08-4.56c-1.013 0-1.867.327-2.56.98-.68.64-1.067 1.48-1.16 2.52h7.46c-.093-1.04-.487-1.88-1.18-2.52-.68-.653-1.533-.98-2.56-.98zm9.35.92c.334-.707.827-1.24 1.48-1.6.667-.36 1.487-.54 2.46-.54v1.38l-.34-.02c-1.106 0-1.973.34-2.6 1.02-.626.68-.94 1.633-.94 2.86V15h-1.42V4.48h1.36v2.06zm7.872 0c.333-.707.826-1.24 1.48-1.6.666-.36 1.486-.54 2.46-.54v1.38l-.34-.02c-1.107 0-1.974.34-2.6 1.02-.627.68-.94 1.633-.94 2.86V15h-1.42V4.48h1.36v2.06zM161.74 4.4c1.373 0 2.427.347 3.16 1.04.733.68 1.1 1.693 1.1 3.04V15h-1.36v-1.64c-.32.547-.793.973-1.42 1.28-.613.307-1.347.46-2.2.46-1.173 0-2.107-.28-2.8-.84-.693-.56-1.04-1.3-1.04-2.22 0-.893.32-1.613.96-2.16.653-.547 1.687-.82 3.1-.82h3.34v-.64c0-.907-.253-1.593-.76-2.06-.507-.48-1.247-.72-2.22-.72-.667 0-1.307.113-1.92.34a4.706 4.706 0 00-1.58.9l-.64-1.06c.533-.453 1.173-.8 1.92-1.04a7.295 7.295 0 012.36-.38zm-.5 9.58c.8 0 1.487-.18 2.06-.54.573-.373 1-.907 1.28-1.6v-1.72h-3.3c-1.8 0-2.7.627-2.7 1.88 0 .613.233 1.1.7 1.46.467.347 1.12.52 1.96.52zm13.016 1.12c-1.04 0-1.973-.227-2.8-.68a4.965 4.965 0 01-1.92-1.9c-.467-.827-.7-1.753-.7-2.78s.233-1.947.7-2.76a4.965 4.965 0 011.92-1.9c.827-.453 1.76-.68 2.8-.68.907 0 1.713.18 2.42.54.72.347 1.287.86 1.7 1.54l-1.06.72a3.246 3.246 0 00-1.32-1.16 3.834 3.834 0 00-1.74-.4c-.76 0-1.447.173-2.06.52-.6.333-1.073.813-1.42 1.44-.333.627-.5 1.34-.5 2.14 0 .813.167 1.533.5 2.16a3.78 3.78 0 001.42 1.44c.613.333 1.3.5 2.06.5.627 0 1.207-.127 1.74-.38.533-.253.973-.64 1.32-1.16l1.06.72c-.413.68-.98 1.2-1.7 1.56-.72.347-1.527.52-2.42.52zm15.894-4.92h-8.8c.08 1.093.5 1.98 1.26 2.66.76.667 1.72 1 2.88 1 .653 0 1.253-.113 1.8-.34a4.046 4.046 0 001.42-1.04l.8.92a4.497 4.497 0 01-1.76 1.28c-.694.293-1.46.44-2.3.44-1.08 0-2.04-.227-2.88-.68a5.058 5.058 0 01-1.94-1.92c-.467-.813-.7-1.733-.7-2.76 0-1.027.22-1.947.66-2.76a4.937 4.937 0 011.84-1.9c.786-.453 1.666-.68 2.64-.68.973 0 1.846.227 2.62.68a4.805 4.805 0 011.82 1.9c.44.8.66 1.72.66 2.76l-.02.44zm-5.08-4.56c-1.014 0-1.867.327-2.56.98-.68.64-1.067 1.48-1.16 2.52h7.46c-.094-1.04-.487-1.88-1.18-2.52-.68-.653-1.534-.98-2.56-.98zm10.81 9.48c-.853 0-1.673-.12-2.46-.36-.773-.253-1.38-.567-1.82-.94l.64-1.12c.44.347.993.633 1.66.86.667.213 1.36.32 2.08.32.96 0 1.667-.147 2.12-.44.467-.307.7-.733.7-1.28 0-.387-.127-.687-.38-.9a2.347 2.347 0 00-.96-.5c-.387-.12-.9-.233-1.54-.34-.853-.16-1.54-.32-2.06-.48a3.179 3.179 0 01-1.34-.86c-.36-.4-.54-.953-.54-1.66 0-.88.367-1.6 1.1-2.16.733-.56 1.753-.84 3.06-.84.68 0 1.36.093 2.04.28.68.173 1.24.407 1.68.7l-.62 1.14c-.867-.6-1.9-.9-3.1-.9-.907 0-1.593.16-2.06.48-.453.32-.68.74-.68 1.26 0 .4.127.72.38.96.267.24.593.42.98.54.387.107.92.22 1.6.34.84.16 1.513.32 2.02.48.507.16.94.433 1.3.82.36.387.54.92.54 1.6 0 .92-.387 1.653-1.16 2.2-.76.533-1.82.8-3.18.8z" fill="#fff"/></g><defs><filter id="filter0_d_159_2" x=".415" y=".14" width="203.806" height="26.84" filterUnits="userSpaceOnUse" color-interpolation-filters="sRGB"><feFlood flood-opacity="0" result="BackgroundImageFix"/><feColorMatrix in="SourceAlpha" values="0 0 0 0 0 0 0 0 0 0 0 0 0 0 0 0 0 0 127 0" result="hardAlpha"/><feOffset dy="4"/><feGaussianBlur stdDeviation="2"/><feComposite in2="hardAlpha" operator="out"/><feColorMatrix values="0 0 0 0 0 0 0 0 0 0 0 0 0 0 0 0 0 0 0.25 0"/><feBlend in2="BackgroundImageFix" result="effect1_dropShadow_159_2"/><feBlend in="SourceGraphic" in2="effect1_dropShadow_159_2" result="shape"/></filter></defs></svg>