<svg width="281" height="24" viewBox="0 0 281 24" fill="none" xmlns="http://www.w3.org/2000/svg"><g filter="url(#filter0_d_166_9)"><path d="M9.687 15.12c-1.04 0-2.04-.167-3-.5-.947-.333-1.68-.773-2.2-1.32l.58-1.14c.507.507 1.18.92 2.02 1.24.84.307 1.707.46 2.6.46 1.253 0 2.193-.227 2.82-.68.627-.467.94-1.067.94-1.8 0-.56-.173-1.007-.52-1.34a3.244 3.244 0 00-1.24-.76c-.493-.187-1.18-.387-2.06-.6-1.053-.267-1.893-.52-2.52-.76a4.319 4.319 0 01-1.62-1.14c-.44-.507-.66-1.193-.66-2.06 0-.707.187-1.347.56-1.92.373-.587.947-1.053 1.72-1.4S8.84.88 9.987.88c.8 0 1.58.113 2.34.34.773.213 1.44.513 2 .9l-.5 1.18a6.663 6.663 0 00-1.88-.86 6.8 6.8 0 00-1.96-.3c-1.227 0-2.153.24-2.78.72-.613.467-.92 1.073-.92 1.82 0 .56.167 1.013.5 1.36.347.333.773.593 1.28.78.52.173 1.213.367 2.08.58 1.027.253 1.853.507 2.48.76.64.24 1.18.613 1.62 1.12.44.493.66 1.167.66 2.02 0 .707-.194 1.353-.58 1.94-.373.573-.954 1.033-1.74 1.38-.787.333-1.753.5-2.9.5zm8.145-10.64h1.42V15h-1.42V4.48zm.72-2.3c-.294 0-.54-.1-.74-.3-.2-.2-.3-.44-.3-.72 0-.267.1-.5.3-.7.2-.2.446-.3.74-.3.293 0 .54.1.74.3.2.187.3.413.3.68 0 .293-.1.54-.3.74-.2.2-.447.3-.74.3zm9.01 12.92c-1.04 0-1.973-.227-2.8-.68a4.96 4.96 0 01-1.92-1.9c-.466-.827-.7-1.753-.7-2.78s.234-1.947.7-2.76a4.96 4.96 0 011.92-1.9c.827-.453 1.76-.68 2.8-.68.907 0 1.714.18 2.42.54.72.347 1.287.86 1.7 1.54l-1.06.72a3.242 3.242 0 00-1.32-1.16 3.836 3.836 0 00-1.74-.4c-.76 0-1.446.173-2.06.52a3.6 3.6 0 00-1.42 1.44c-.333.627-.5 1.34-.5 2.14 0 .813.167 1.533.5 2.16.347.613.82 1.093 1.42 1.44.614.333 1.3.5 2.06.5.627 0 1.207-.127 1.74-.38.534-.253.974-.64 1.32-1.16l1.06.72c-.413.68-.98 1.2-1.7 1.56-.72.347-1.526.52-2.42.52zM39.677 4.4c1.32 0 2.367.387 3.14 1.16.787.76 1.18 1.873 1.18 3.34V15h-1.42V9.04c0-1.093-.273-1.927-.82-2.5-.547-.573-1.327-.86-2.34-.86-1.133 0-2.033.34-2.7 1.02-.653.667-.98 1.593-.98 2.78V15h-1.42V.16h1.42v6.16a3.85 3.85 0 011.6-1.42c.68-.333 1.46-.5 2.34-.5zm17.655.08V15h-1.36v-1.92a3.965 3.965 0 01-1.54 1.5c-.653.347-1.4.52-2.24.52-1.373 0-2.46-.38-3.26-1.14-.787-.773-1.18-1.9-1.18-3.38v-6.1h1.42v5.96c0 1.107.273 1.947.82 2.52.547.573 1.327.86 2.34.86 1.107 0 1.98-.333 2.62-1 .64-.68.96-1.62.96-2.82V4.48h1.42zm7.657-.08c1.374 0 2.427.347 3.16 1.04.734.68 1.1 1.693 1.1 3.04V15h-1.36v-1.64c-.32.547-.793.973-1.42 1.28-.613.307-1.347.46-2.2.46-1.173 0-2.107-.28-2.8-.84-.693-.56-1.04-1.3-1.04-2.22 0-.893.32-1.613.96-2.16.654-.547 1.687-.82 3.1-.82h3.34v-.64c0-.907-.253-1.593-.76-2.06-.507-.48-1.246-.72-2.22-.72-.666 0-1.306.113-1.92.34a4.703 4.703 0 00-1.58.9l-.64-1.06c.534-.453 1.174-.8 1.92-1.04a7.296 7.296 0 012.36-.38zm-.5 9.58c.8 0 1.487-.18 2.06-.54.573-.373 1-.907 1.28-1.6v-1.72h-3.3c-1.8 0-2.7.627-2.7 1.88 0 .613.233 1.1.7 1.46.467.347 1.12.52 1.96.52zM78.465 4.4c1.32 0 2.367.387 3.14 1.16.787.76 1.18 1.873 1.18 3.34V15h-1.42V9.04c0-1.093-.273-1.927-.82-2.5-.547-.573-1.327-.86-2.34-.86-1.133 0-2.033.34-2.7 1.02-.653.667-.98 1.593-.98 2.78V15h-1.42V4.48h1.36v1.94c.387-.64.92-1.133 1.6-1.48.693-.36 1.493-.54 2.4-.54zM97.415 1c1.786 0 3.186.427 4.2 1.28 1.013.853 1.52 2.027 1.52 3.52 0 1.493-.507 2.667-1.52 3.52-1.014.84-2.414 1.26-4.2 1.26h-3.76V15h-1.48V1h5.24zm-.04 8.28c1.386 0 2.446-.3 3.18-.9.733-.613 1.1-1.473 1.1-2.58 0-1.133-.367-2-1.1-2.6-.734-.613-1.794-.92-3.18-.92h-3.72v7h3.72zm12.242-4.88c1.373 0 2.427.347 3.16 1.04.733.68 1.1 1.693 1.1 3.04V15h-1.36v-1.64c-.32.547-.793.973-1.42 1.28-.613.307-1.347.46-2.2.46-1.173 0-2.107-.28-2.8-.84-.693-.56-1.04-1.3-1.04-2.22 0-.893.32-1.613.96-2.16.653-.547 1.687-.82 3.1-.82h3.34v-.64c0-.907-.253-1.593-.76-2.06-.507-.48-1.247-.72-2.22-.72-.667 0-1.307.113-1.92.34a4.706 4.706 0 00-1.58.9l-.64-1.06c.533-.453 1.173-.8 1.92-1.04a7.295 7.295 0 012.36-.38zm-.5 9.58c.8 0 1.487-.18 2.06-.54.573-.373 1-.907 1.28-1.6v-1.72h-3.3c-1.8 0-2.7.627-2.7 1.88 0 .613.233 1.1.7 1.46.467.347 1.12.52 1.96.52zm13.977-9.58c1.32 0 2.367.387 3.14 1.16.787.76 1.18 1.873 1.18 3.34V15h-1.42V9.04c0-1.093-.273-1.927-.82-2.5-.547-.573-1.327-.86-2.34-.86-1.133 0-2.033.34-2.7 1.02-.653.667-.98 1.593-.98 2.78V15h-1.42V4.48h1.36v1.94a3.9 3.9 0 011.6-1.48c.693-.36 1.493-.54 2.4-.54zM140.908.16V15h-1.36v-2.08a4.311 4.311 0 01-1.7 1.62c-.693.373-1.48.56-2.36.56-.987 0-1.88-.227-2.68-.68a4.858 4.858 0 01-1.88-1.9c-.453-.813-.68-1.74-.68-2.78 0-1.04.227-1.967.68-2.78a4.721 4.721 0 011.88-1.88c.8-.453 1.693-.68 2.68-.68.853 0 1.62.18 2.3.54.693.347 1.26.86 1.7 1.54V.16h1.42zm-5.3 13.68c.733 0 1.393-.167 1.98-.5a3.601 3.601 0 001.4-1.46c.347-.627.52-1.34.52-2.14s-.173-1.513-.52-2.14a3.47 3.47 0 00-1.4-1.44 3.82 3.82 0 00-1.98-.52c-.747 0-1.42.173-2.02.52a3.64 3.64 0 00-1.4 1.44c-.333.627-.5 1.34-.5 2.14s.167 1.513.5 2.14a3.784 3.784 0 001.4 1.46c.6.333 1.273.5 2.02.5zm12.935-9.44c1.373 0 2.426.347 3.16 1.04.733.68 1.1 1.693 1.1 3.04V15h-1.36v-1.64c-.32.547-.794.973-1.42 1.28-.614.307-1.347.46-2.2.46-1.174 0-2.107-.28-2.8-.84-.694-.56-1.04-1.3-1.04-2.22 0-.893.32-1.613.96-2.16.653-.547 1.686-.82 3.1-.82h3.34v-.64c0-.907-.254-1.593-.76-2.06-.507-.48-1.247-.72-2.22-.72-.667 0-1.307.113-1.92.34a4.697 4.697 0 00-1.58.9l-.64-1.06c.533-.453 1.173-.8 1.92-1.04a7.29 7.29 0 012.36-.38zm-.5 9.58c.8 0 1.486-.18 2.06-.54.573-.373 1-.907 1.28-1.6v-1.72h-3.3c-1.8 0-2.7.627-2.7 1.88 0 .613.233 1.1.7 1.46.466.347 1.12.52 1.96.52zm18.011 1.14c-1.04 0-2.04-.167-3-.5-.947-.333-1.68-.773-2.2-1.32l.58-1.14c.507.507 1.18.92 2.02 1.24.84.307 1.707.46 2.6.46 1.253 0 2.193-.227 2.82-.68.627-.467.94-1.067.94-1.8 0-.56-.173-1.007-.52-1.34a3.243 3.243 0 00-1.24-.76c-.493-.187-1.18-.387-2.06-.6-1.053-.267-1.893-.52-2.52-.76a4.314 4.314 0 01-1.62-1.14c-.44-.507-.66-1.193-.66-2.06 0-.707.187-1.347.56-1.92.373-.587.947-1.053 1.72-1.4s1.733-.52 2.88-.52c.8 0 1.58.113 2.34.34.773.213 1.44.513 2 .9l-.5 1.18a6.662 6.662 0 00-1.88-.86c-.667-.2-1.32-.3-1.96-.3-1.227 0-2.153.24-2.78.72-.613.467-.92 1.073-.92 1.82 0 .56.167 1.013.5 1.36.347.333.773.593 1.28.78.52.173 1.213.367 2.08.58 1.027.253 1.853.507 2.48.76.64.24 1.18.613 1.62 1.12.44.493.66 1.167.66 2.02a3.45 3.45 0 01-.58 1.94c-.373.573-.953 1.033-1.74 1.38-.787.333-1.753.5-2.9.5zM177.879 4.4c1.373 0 2.426.347 3.16 1.04.733.68 1.1 1.693 1.1 3.04V15h-1.36v-1.64c-.32.547-.794.973-1.42 1.28-.614.307-1.347.46-2.2.46-1.174 0-2.107-.28-2.8-.84-.694-.56-1.04-1.3-1.04-2.22 0-.893.32-1.613.96-2.16.653-.547 1.686-.82 3.1-.82h3.34v-.64c0-.907-.254-1.593-.76-2.06-.507-.48-1.247-.72-2.22-.72-.667 0-1.307.113-1.92.34a4.697 4.697 0 00-1.58.9l-.64-1.06c.533-.453 1.173-.8 1.92-1.04a7.29 7.29 0 012.36-.38zm-.5 9.58c.8 0 1.486-.18 2.06-.54.573-.373 1-.907 1.28-1.6v-1.72h-3.3c-1.8 0-2.7.627-2.7 1.88 0 .613.233 1.1.7 1.46.466.347 1.12.52 1.96.52zm13.977-9.58c1.32 0 2.366.387 3.14 1.16.786.76 1.18 1.873 1.18 3.34V15h-1.42V9.04c0-1.093-.274-1.927-.82-2.5-.547-.573-1.327-.86-2.34-.86-1.134 0-2.034.34-2.7 1.02-.654.667-.98 1.593-.98 2.78V15h-1.42V4.48h1.36v1.94c.386-.64.92-1.133 1.6-1.48.693-.36 1.493-.54 2.4-.54zm12.574 10.7c-1.04 0-1.973-.227-2.8-.68a4.965 4.965 0 01-1.92-1.9c-.467-.827-.7-1.753-.7-2.78s.233-1.947.7-2.76a4.965 4.965 0 011.92-1.9c.827-.453 1.76-.68 2.8-.68.907 0 1.713.18 2.42.54.72.347 1.287.86 1.7 1.54l-1.06.72a3.246 3.246 0 00-1.32-1.16 3.834 3.834 0 00-1.74-.4c-.76 0-1.447.173-2.06.52-.6.333-1.073.813-1.42 1.44-.333.627-.5 1.34-.5 2.14 0 .813.167 1.533.5 2.16a3.78 3.78 0 001.42 1.44c.613.333 1.3.5 2.06.5.627 0 1.207-.127 1.74-.38.533-.253.973-.64 1.32-1.16l1.06.72c-.413.68-.98 1.2-1.7 1.56-.72.347-1.527.52-2.42.52zm12.567-.74c-.267.24-.6.427-1 .56-.387.12-.794.18-1.22.18-.987 0-1.747-.267-2.28-.8-.534-.533-.8-1.287-.8-2.26V5.68h-1.88v-1.2h1.88v-2.3h1.42v2.3h3.2v1.2h-3.2v6.28c0 .627.153 1.107.46 1.44.32.32.773.48 1.36.48.293 0 .573-.047.84-.14.28-.093.52-.227.72-.4l.5 1.02zm12.065-9.88V15h-1.36v-1.92a3.972 3.972 0 01-1.54 1.5c-.654.347-1.4.52-2.24.52-1.374 0-2.46-.38-3.26-1.14-.787-.773-1.18-1.9-1.18-3.38v-6.1h1.42v5.96c0 1.107.273 1.947.82 2.52.546.573 1.326.86 2.34.86 1.106 0 1.98-.333 2.62-1 .64-.68.96-1.62.96-2.82V4.48h1.42zm7.657-.08c1.373 0 2.426.347 3.16 1.04.733.68 1.1 1.693 1.1 3.04V15h-1.36v-1.64c-.32.547-.794.973-1.42 1.28-.614.307-1.347.46-2.2.46-1.174 0-2.107-.28-2.8-.84-.694-.56-1.04-1.3-1.04-2.22 0-.893.32-1.613.96-2.16.653-.547 1.686-.82 3.1-.82h3.34v-.64c0-.907-.254-1.593-.76-2.06-.507-.48-1.247-.72-2.22-.72-.667 0-1.307.113-1.92.34a4.697 4.697 0 00-1.58.9l-.64-1.06c.533-.453 1.173-.8 1.92-1.04a7.29 7.29 0 012.36-.38zm-.5 9.58c.8 0 1.486-.18 2.06-.54.573-.373 1-.907 1.28-1.6v-1.72h-3.3c-1.8 0-2.7.627-2.7 1.88 0 .613.233 1.1.7 1.46.466.347 1.12.52 1.96.52zm9.976-7.44c.334-.707.827-1.24 1.48-1.6.667-.36 1.487-.54 2.46-.54v1.38l-.34-.02c-1.106 0-1.973.34-2.6 1.02-.626.68-.94 1.633-.94 2.86V15h-1.42V4.48h1.36v2.06zm6.512-2.06h1.42V15h-1.42V4.48zm.72-2.3c-.294 0-.54-.1-.74-.3-.2-.2-.3-.44-.3-.72 0-.267.1-.5.3-.7.2-.2.446-.3.74-.3.293 0 .54.1.74.3.2.187.3.413.3.68 0 .293-.1.54-.3.74-.2.2-.447.3-.74.3zm13.811 8h-8.8c.08 1.093.5 1.98 1.26 2.66.76.667 1.72 1 2.88 1 .653 0 1.253-.113 1.8-.34a4.046 4.046 0 001.42-1.04l.8.92a4.497 4.497 0 01-1.76 1.28c-.694.293-1.46.44-2.3.44-1.08 0-2.04-.227-2.88-.68a5.058 5.058 0 01-1.94-1.92c-.467-.813-.7-1.733-.7-2.76 0-1.027.22-1.947.66-2.76a4.937 4.937 0 011.84-1.9c.786-.453 1.666-.68 2.64-.68.973 0 1.846.227 2.62.68a4.805 4.805 0 011.82 1.9c.44.8.66 1.72.66 2.76l-.02.44zm-5.08-4.56c-1.014 0-1.867.327-2.56.98-.68.64-1.067 1.48-1.16 2.52h7.46c-.094-1.04-.487-1.88-1.18-2.52-.68-.653-1.534-.98-2.56-.98zm10.81 9.48c-.853 0-1.673-.12-2.46-.36-.773-.253-1.38-.567-1.82-.94l.64-1.12c.44.347.993.633 1.66.86.667.213 1.36.32 2.08.32.96 0 1.667-.147 2.12-.44.467-.307.7-.733.7-1.28 0-.387-.127-.687-.38-.9a2.347 2.347 0 00-.96-.5c-.387-.12-.9-.233-1.54-.34-.853-.16-1.54-.32-2.06-.48a3.179 3.179 0 01-1.34-.86c-.36-.4-.54-.953-.54-1.66 0-.88.367-1.6 1.1-2.16.733-.56 1.753-.84 3.06-.84.68 0 1.36.093 2.04.28.68.173 1.24.407 1.68.7l-.62 1.14c-.867-.6-1.9-.9-3.1-.9-.907 0-1.593.16-2.06.48-.453.32-.68.74-.68 1.26 0 .4.127.72.38.96.267.24.593.42.98.54.387.107.92.22 1.6.34.84.16 1.513.32 2.02.48.507.16.94.433 1.3.82.36.387.54.92.54 1.6 0 .92-.387 1.653-1.16 2.2-.76.533-1.82.8-3.18.8z" fill="#fff"/></g><defs><filter id="filter0_d_166_9" x=".487" y=".16" width="280.321" height="22.96" filterUnits="userSpaceOnUse" color-interpolation-filters="sRGB"><feFlood flood-opacity="0" result="BackgroundImageFix"/><feColorMatrix in="SourceAlpha" values="0 0 0 0 0 0 0 0 0 0 0 0 0 0 0 0 0 0 127 0" result="hardAlpha"/><feOffset dy="4"/><feGaussianBlur stdDeviation="2"/><feComposite in2="hardAlpha" operator="out"/><feColorMatrix values="0 0 0 0 0 0 0 0 0 0 0 0 0 0 0 0 0 0 0.25 0"/><feBlend in2="BackgroundImageFix" result="effect1_dropShadow_166_9"/><feBlend in="SourceGraphic" in2="effect1_dropShadow_166_9" result="shape"/></filter></defs></svg>