<svg width="98" height="35" viewBox="0 0 98 35" fill="none" xmlns="http://www.w3.org/2000/svg"><path d="M12.328 3.472H.52V.4h27.168v3.072H15.88V34h-3.552V3.472zm39.674 18.96h-21.12c.192 2.624 1.2 4.752 3.024 6.384 1.824 1.6 4.128 2.4 6.912 2.4 1.568 0 3.008-.272 4.32-.816a9.694 9.694 0 003.408-2.496l1.92 2.208c-1.12 1.344-2.528 2.368-4.224 3.072-1.664.704-3.504 1.056-5.52 1.056-2.592 0-4.896-.544-6.912-1.632-1.984-1.12-3.536-2.656-4.656-4.608-1.12-1.952-1.68-4.16-1.68-6.624 0-2.464.528-4.672 1.584-6.624 1.088-1.952 2.56-3.472 4.416-4.56 1.888-1.088 4-1.632 6.336-1.632 2.336 0 4.432.544 6.288 1.632 1.856 1.088 3.312 2.608 4.368 4.56 1.056 1.92 1.584 4.128 1.584 6.624l-.048 1.056zM39.81 11.488c-2.432 0-4.48.784-6.144 2.352-1.632 1.536-2.56 3.552-2.784 6.048h17.904c-.224-2.496-1.168-4.512-2.832-6.048-1.632-1.568-3.68-2.352-6.144-2.352zM74.363 34l-8.016-10.56L58.283 34h-3.84l9.984-12.96-9.504-12.288h3.84l7.584 9.888 7.584-9.888h3.744L68.171 21.04 78.251 34h-3.888zm22.857-1.536c-.64.576-1.44 1.024-2.4 1.344a9.822 9.822 0 01-2.928.432c-2.368 0-4.192-.64-5.472-1.92-1.28-1.28-1.92-3.088-1.92-5.424V11.632h-4.512v-2.88H84.5v-5.52h3.408v5.52h7.68v2.88h-7.68v15.072c0 1.504.368 2.656 1.104 3.456.768.768 1.856 1.152 3.264 1.152.704 0 1.376-.112 2.016-.336a5.034 5.034 0 001.728-.96l1.2 2.448z" fill="#000"/></svg>