<svg width="411" height="72" viewBox="0 0 411 72" fill="none" xmlns="http://www.w3.org/2000/svg"><path d="M36.802 71.6c-6.933 0-13.2-1.533-18.8-4.6-5.533-3.067-9.9-7.3-13.1-12.7C1.769 48.833.202 42.733.202 36c0-6.733 1.567-12.8 4.7-18.2 3.2-5.467 7.6-9.733 13.2-12.8S29.969.4 36.902.4c5.2 0 10 .867 14.4 2.6s8.133 4.267 11.2 7.6l-4.7 4.7C52.335 9.767 45.435 7 37.102 7c-5.533 0-10.567 1.267-15.1 3.8-4.533 2.533-8.1 6-10.7 10.4-2.533 4.4-3.8 9.333-3.8 14.8 0 5.467 1.267 10.4 3.8 14.8 2.6 4.4 6.167 7.867 10.7 10.4 4.533 2.533 9.567 3.8 15.1 3.8 8.4 0 15.3-2.8 20.7-8.4l4.7 4.7c-3.067 3.333-6.833 5.9-11.3 7.7-4.4 1.733-9.2 2.6-14.4 2.6zm69.48 0c-9.067 0-16.134-2.6-21.2-7.8-5.067-5.2-7.6-12.767-7.6-22.7V1h7.4v39.8c0 8.133 1.833 14.2 5.5 18.2 3.666 4 8.966 6 15.9 6 7 0 12.333-2 16-6 3.666-4 5.5-10.067 5.5-18.2V1h7.2v40.1c0 9.933-2.534 17.5-7.6 22.7-5 5.2-12.034 7.8-21.1 7.8zM157.281 1h7.4v70h-7.4V1zm49.476 70.6c-5.2 0-10.2-.833-15-2.5-4.734-1.667-8.4-3.867-11-6.6l2.9-5.7c2.533 2.533 5.9 4.6 10.1 6.2a37.62 37.62 0 0013 2.3c6.266 0 10.966-1.133 14.1-3.4 3.133-2.333 4.7-5.333 4.7-9 0-2.8-.867-5.033-2.6-6.7-1.667-1.667-3.734-2.933-6.2-3.8-2.467-.933-5.9-1.933-10.3-3-5.267-1.333-9.467-2.6-12.6-3.8a21.586 21.586 0 01-8.1-5.7c-2.2-2.533-3.3-5.967-3.3-10.3 0-3.533.933-6.733 2.8-9.6 1.866-2.933 4.733-5.267 8.6-7 3.866-1.733 8.666-2.6 14.4-2.6 4 0 7.9.567 11.7 1.7 3.866 1.067 7.2 2.567 10 4.5l-2.5 5.9a33.323 33.323 0 00-9.4-4.3c-3.334-1-6.6-1.5-9.8-1.5-6.134 0-10.767 1.2-13.9 3.6-3.067 2.333-4.6 5.367-4.6 9.1 0 2.8.833 5.067 2.5 6.8 1.733 1.667 3.866 2.967 6.4 3.9 2.6.867 6.066 1.833 10.4 2.9 5.133 1.267 9.266 2.533 12.4 3.8 3.2 1.2 5.9 3.067 8.1 5.6 2.2 2.467 3.3 5.833 3.3 10.1 0 3.533-.967 6.767-2.9 9.7-1.867 2.867-4.767 5.167-8.7 6.9-3.934 1.667-8.767 2.5-14.5 2.5zM248.98 1h7.4v70h-7.4V1zm88.676 0v70h-6.1l-45-56.8V71h-7.4V1h6.1l45.1 56.8V1h7.3zm72.348 63.6V71h-49.5V1h48v6.4h-40.6v24.9h36.2v6.3h-36.2v26h42.1z" fill="#fff"/><path d="M18.002 67l-.485.875.005.002.48-.877zm-13.1-12.7l-.868.497.004.007.004.006.86-.51zm0-36.5l-.863-.505-.002.003.865.502zM18.102 5l-.48-.877.48.877zm33.2-2l-.367.93.367-.93zm11.2 7.6l.707.707.678-.678-.65-.706-.735.677zm-4.7 4.7l-.711.703.707.715.711-.71-.707-.708zm-35.8-4.5l-.488-.873.488.873zm-10.7 10.4l-.861-.509-.006.01.867.499zm0 29.6l-.867.499.006.01.861-.509zm10.7 10.4l-.488.873.488-.873zm35.8-4.6l.707-.707-.72-.72-.707.733.72.694zm4.7 4.7l.736.677.65-.706-.679-.678-.707.707zm-11.3 7.7l.367.93.007-.003-.374-.927zm-14.4 1.6c-6.78 0-12.88-1.498-18.32-4.477l-.96 1.754c5.76 3.154 12.194 4.723 19.28 4.723v-2zm-18.315-4.475c-5.38-2.98-9.616-7.089-12.725-12.335l-1.72 1.02c3.291 5.554 7.788 9.913 13.475 13.065l.97-1.75zM5.77 53.803C2.729 48.498 1.202 42.57 1.202 36h-2c0 6.895 1.606 13.169 4.832 18.797l1.736-.994zM1.202 36c0-6.571 1.527-12.462 4.565-17.698l-1.73-1.004C.808 22.863-.798 29.105-.798 36h2zm4.563-17.695c3.108-5.309 7.375-9.448 12.817-12.428l-.96-1.754C11.864 7.276 7.332 11.67 4.039 17.295l1.726 1.01zM18.582 5.877c5.44-2.98 11.54-4.477 18.32-4.477v-2c-7.087 0-13.52 1.569-19.28 4.723l.96 1.754zM36.902 1.4c5.087 0 9.761.847 14.033 2.53l.733-1.86C47.142.286 42.216-.6 36.903-.6v2zm14.033 2.53c4.266 1.68 7.871 4.13 10.831 7.347l1.472-1.354c-3.174-3.45-7.035-6.067-11.57-7.853l-.733 1.86zm10.86 5.963l-4.7 4.7 1.414 1.414 4.7-4.7-1.414-1.414zm-3.282 4.704C52.844 8.86 45.682 6 37.102 6v2c8.087 0 14.724 2.674 19.989 8.003l1.422-1.406zM37.102 6c-5.693 0-10.896 1.305-15.588 3.927l.976 1.746C26.864 9.228 31.728 8 37.102 8V6zM21.514 9.927c-4.685 2.618-8.381 6.21-11.073 10.764l1.722 1.018c2.508-4.245 5.945-7.588 10.327-10.036l-.976-1.746zM10.435 20.701C7.808 25.264 6.502 30.372 6.502 36h2c0-5.305 1.227-10.064 3.667-14.301l-1.734-.998zM6.502 36c0 5.628 1.306 10.736 3.933 15.299l1.734-.998C9.729 46.064 8.502 41.305 8.502 36h-2zm3.939 15.309c2.691 4.555 6.388 8.146 11.073 10.764l.976-1.746c-4.382-2.448-7.819-5.79-10.327-10.036L10.44 51.31zm11.073 10.764C26.206 64.695 31.41 66 37.102 66v-2c-5.374 0-10.238-1.228-14.612-3.673l-.976 1.746zM37.102 66c8.647 0 15.815-2.894 21.42-8.706l-1.44-1.388C51.887 61.294 45.254 64 37.102 64v2zm19.993-8.693l4.7 4.7 1.414-1.414-4.7-4.7-1.414 1.414zm4.671 3.316c-2.96 3.217-6.6 5.701-10.938 7.45l.748 1.855c4.595-1.852 8.488-4.501 11.662-7.95l-1.472-1.355zm-10.93 7.447c-4.273 1.683-8.947 2.53-14.034 2.53v2c5.313 0 10.239-.886 14.767-2.67l-.734-1.86zm34.246-4.27l.716-.698-.716.698zM77.482 1V0h-1v1h1zm7.4 0h1V0h-1v1zm37.4 58l.737.676-.737-.676zm5.5-58V0h-1v1h1zm7.2 0h1V0h-1v1zm-7.6 62.8l-.717-.698-.004.005.721.693zm-21.1 6.8c-8.868 0-15.65-2.537-20.484-7.498l-1.433 1.396c5.3 5.439 12.651 8.102 21.917 8.102v-2zm-20.484-7.498c-4.826-4.953-7.316-12.231-7.316-22.002h-2c0 10.096 2.576 17.951 7.883 23.398l1.433-1.396zM78.482 41.1V1h-2v40.1h2zm-1-39.1h7.4V0h-7.4v2zm6.4-1v39.8h2V1h-2zm0 39.8c0 8.262 1.86 14.618 5.762 18.876l1.475-1.352c-3.43-3.742-5.237-9.52-5.237-17.524h-2zm5.762 18.876C93.55 63.936 99.151 66 106.282 66v-2c-6.736 0-11.736-1.936-15.163-5.676l-1.475 1.352zM106.282 66c7.194 0 12.829-2.062 16.737-6.324l-1.475-1.352C118.119 62.062 113.087 64 106.282 64v2zm16.737-6.324c3.903-4.258 5.763-10.614 5.763-18.876h-2c0 8.005-1.807 13.782-5.238 17.524l1.475 1.352zm5.763-18.876V1h-2v39.8h2zm-1-38.8h7.2V0h-7.2v2zm6.2-1v40.1h2V1h-2zm0 40.1c0 9.77-2.49 17.049-7.317 22.002l1.433 1.396c5.307-5.447 7.884-13.302 7.884-23.398h-2zm-7.321 22.007c-4.766 4.956-11.511 7.493-20.379 7.493v2c9.264 0 16.586-2.663 21.82-8.107l-1.441-1.386zM157.281 1V0h-1v1h1zm7.4 0h1V0h-1v1zm0 70v1h1v-1h-1zm-7.4 0h-1v1h1v-1zm0-69h7.4V0h-7.4v2zm6.4-1v70h2V1h-2zm1 69h-7.4v2h7.4v-2zm-6.4 1V1h-2v70h2zm33.476-1.9l-.332.943.004.002.328-.945zm-11-6.6l-.892-.453-.32.63.487.512.725-.689zm2.9-5.7l.707-.707-.974-.974-.625 1.227.892.454zm10.1 6.2l-.356.935.013.004.343-.939zm27.1-1.1l.586.81.011-.008-.597-.802zm2.1-15.7l-.707.707.006.007.008.007.693-.721zm-6.2-3.8l-.354.935.011.005.011.003.332-.943zm-10.3-3l-.246.97.01.002.236-.972zm-12.6-3.8l-.375.927.008.004.009.003.358-.934zm-8.1-5.7l-.755.656.004.005.005.006.746-.667zm-.5-19.9l.838.546.005-.01-.843-.536zm8.6-7l.409.913-.409-.913zm26.1-.9l-.286.958.01.003.01.003.266-.964zm10 4.5l.92.39.318-.75-.67-.463-.568.823zm-2.5 5.9l-.551.835 1.003.66.468-1.105-.92-.39zm-9.4-4.3l-.288.958.009.002.009.003.27-.963zm-23.7 2.1l.605.796.003-.002-.608-.794zm-2.1 15.9l-.721.693.013.014.015.014.693-.721zm6.4 3.9l-.346.938.015.006.014.005.317-.949zm10.4 2.9l.239-.97v-.001l-.239.971zm12.4 3.8l-.375.927.012.005.012.004.351-.936zm8.1 5.6l-.755.656.008.01.747-.666zm.4 19.8l-.835-.55-.003.004.838.546zm-8.7 6.9l.39.92.006-.002.007-.003-.403-.915zm-14.5 1.5c-5.091 0-9.98-.816-14.672-2.445l-.656 1.89c4.908 1.704 10.019 2.555 15.328 2.555v-2zm-14.668-2.443c-4.632-1.631-8.147-3.759-10.608-6.346l-1.449 1.378c2.739 2.88 6.557 5.152 11.393 6.854l.664-1.886zm-10.441-5.203l2.9-5.7-1.783-.907-2.9 5.7 1.783.907zm1.302-5.447c2.655 2.655 6.151 4.79 10.451 6.428l.712-1.87c-4.101-1.562-7.338-3.56-9.749-5.972l-1.414 1.414zm10.464 6.432a38.617 38.617 0 0013.343 2.361v-2c-4.35 0-8.567-.746-12.657-2.24l-.686 1.88zm13.343 2.361c6.357 0 11.305-1.144 14.686-3.59l-1.172-1.62c-2.887 2.088-7.338 3.21-13.514 3.21v2zm14.697-3.598c3.367-2.508 5.103-5.796 5.103-9.802h-2c0 3.327-1.398 6.039-4.298 8.198l1.195 1.604zm5.103-9.802c0-3.023-.945-5.534-2.907-7.42l-1.386 1.44c1.504 1.448 2.293 3.403 2.293 5.98h2zm-2.893-7.407c-1.784-1.784-3.983-3.126-6.576-4.037l-.663 1.887c2.341.823 4.275 2.014 5.825 3.564l1.414-1.414zm-6.553-4.028c-2.524-.955-6.003-1.966-10.419-3.037l-.471 1.944c4.384 1.063 7.771 2.051 10.182 2.963l.708-1.87zm-10.409-3.034c-5.249-1.33-9.406-2.585-12.488-3.765l-.715 1.868c3.185 1.22 7.428 2.498 12.712 3.835l.491-1.938zm-12.471-3.758a20.596 20.596 0 01-7.729-5.44l-1.491 1.334a22.597 22.597 0 008.471 5.96l.749-1.854zm-7.719-5.429c-2.001-2.303-3.055-5.48-3.055-9.644h-2c0 4.502 1.145 8.193 3.545 10.956l1.51-1.312zm-3.055-9.644c0-3.346.88-6.356 2.638-9.054l-1.676-1.092c-1.976 3.035-2.962 6.426-2.962 10.146h2zm2.643-9.063c1.741-2.735 4.438-4.954 8.166-6.624l-.818-1.826c-4.006 1.796-7.042 4.245-9.035 7.376l1.687 1.074zm8.166-6.624c3.701-1.66 8.351-2.513 13.991-2.513v-2c-5.828 0-10.777.88-14.809 2.687l.818 1.826zM208.257 1.4c3.904 0 7.707.553 11.414 1.658l.571-1.916A41.712 41.712 0 00208.257-.6v2zm11.434 1.664c3.777 1.042 7.004 2.5 9.697 4.359l1.137-1.646c-2.907-2.007-6.347-3.55-10.302-4.641l-.532 1.928zm9.345 3.146l-2.5 5.9 1.841.78 2.5-5.9-1.841-.78zm-1.029 5.455a34.3 34.3 0 00-9.681-4.428l-.539 1.926a32.307 32.307 0 019.119 4.172l1.101-1.67zm-9.663-4.423c-3.418-1.025-6.782-1.542-10.087-1.542v2c3.094 0 6.264.483 9.512 1.458l.575-1.916zM208.257 5.7c-6.239 0-11.127 1.216-14.508 3.806l1.216 1.588c2.885-2.21 7.264-3.394 13.292-3.394v-2zm-14.506 3.804c-3.306 2.516-4.994 5.839-4.994 9.896h2c0-3.41 1.378-6.153 4.205-8.304l-1.211-1.592zm-4.994 9.896c0 3.013.904 5.543 2.779 7.493l1.441-1.386c-1.458-1.517-2.22-3.52-2.22-6.107h-2zm2.807 7.52c1.844 1.774 4.1 3.143 6.747 4.118l.691-1.876c-2.419-.892-4.43-2.123-6.052-3.683l-1.386 1.442zm6.776 4.129c2.637.878 6.132 1.852 10.478 2.922l.478-1.942c-4.322-1.064-7.759-2.023-10.323-2.878l-.633 1.898zm10.477 2.922c5.11 1.26 9.193 2.514 12.265 3.756l.749-1.854c-3.194-1.291-7.378-2.571-12.535-3.844l-.479 1.942zm12.289 3.765c3.047 1.143 5.607 2.915 7.696 5.32l1.51-1.312c-2.312-2.661-5.151-4.623-8.504-5.88l-.702 1.872zm7.704 5.33c1.994 2.235 3.047 5.34 3.047 9.434h2c0-4.439-1.148-8.068-3.554-10.766l-1.493 1.332zm3.047 9.434c0 3.339-.91 6.38-2.735 9.15l1.67 1.1c2.041-3.097 3.065-6.522 3.065-10.25h-2zm-2.738 9.154c-1.737 2.667-4.465 4.856-8.266 6.53l.807 1.831c4.065-1.791 7.138-4.203 9.135-7.27l-1.676-1.09zm-8.252 6.525c-3.776 1.6-8.468 2.421-14.11 2.421v2c5.824 0 10.799-.846 14.89-2.58l-.78-1.84zM248.98 1V0h-1v1h1zm7.4 0h1V0h-1v1zm0 70v1h1v-1h-1zm-7.4 0h-1v1h1v-1zm0-69h7.4V0h-7.4v2zm6.4-1v70h2V1h-2zm1 69h-7.4v2h7.4v-2zm-6.4 1V1h-2v70h2zm87.676-70h1V0h-1v1zm0 70v1h1v-1h-1zm-6.1 0l-.784.621.3.379h.484v-1zm-45-56.8l.784-.621-1.784-2.252V14.2h1zm0 56.8v1h1v-1h-1zm-7.4 0h-1v1h1v-1zm0-70V0h-1v1h1zm6.1 0l.783-.622-.3-.378h-.483v1zm45.1 56.8l-.783.622 1.783 2.246V57.8h-1zm0-56.8V0h-1v1h1zm6.3 0v70h2V1h-2zm1 69h-6.1v2h6.1v-2zm-5.316.379l-45-56.8-1.568 1.242 45 56.8 1.568-1.242zM285.556 14.2V71h2V14.2h-2zm1 55.8h-7.4v2h7.4v-2zm-6.4 1V1h-2v70h2zm-1-69h6.1V0h-6.1v2zm5.317-.378l45.1 56.8 1.566-1.244-45.1-56.8-1.566 1.244zM331.356 57.8V1h-2v56.8h2zm-1-55.8h7.3V0h-7.3v2zm79.648 62.6h1v-1h-1v1zm0 6.4v1h1v-1h-1zm-49.5 0h-1v1h1v-1zm0-70V0h-1v1h1zm48 0h1V0h-1v1zm0 6.4v1h1v-1h-1zm-40.6 0v-1h-1v1h1zm0 24.9h-1v1h1v-1zm36.2 0h1v-1h-1v1zm0 6.3v1h1v-1h-1zm-36.2 0v-1h-1v1h1zm0 26h-1v1h1v-1zm41.1 0V71h2v-6.4h-2zm1 5.4h-49.5v2h49.5v-2zm-48.5 1V1h-2v70h2zm-1-69h48V0h-48v2zm47-1v6.4h2V1h-2zm1 5.4h-40.6v2h40.6v-2zm-41.6 1v24.9h2V7.4h-2zm1 25.9h36.2v-2h-36.2v2zm35.2-1v6.3h2v-6.3h-2zm1 5.3h-36.2v2h36.2v-2zm-37.2 1v26h2v-26h-2zm1 27h42.1v-2h-42.1v2z" fill="#000"/></svg>