<svg width="152" height="46" viewBox="0 0 152 46" fill="none" xmlns="http://www.w3.org/2000/svg"><path d="M.964 2.4h3.552v30.528h18.816V36H.964V2.4zm27.546 8.352h3.408V36H28.51V10.752zm1.728-5.52c-.704 0-1.296-.24-1.776-.72a2.357 2.357 0 01-.72-1.728c0-.64.24-1.2.72-1.68s1.072-.72 1.776-.72 1.296.24 1.776.72c.48.448.72.992.72 1.632 0 .704-.24 1.296-.72 1.776s-1.072.72-1.776.72zm7.418 40.32a9.988 9.988 0 01-2.976-.432c-.96-.256-1.744-.656-2.352-1.2l1.2-2.592c.992.864 2.304 1.296 3.936 1.296 1.344 0 2.368-.4 3.072-1.2.736-.8 1.104-1.984 1.104-3.552v-27.12h3.408v27.12c0 2.368-.64 4.24-1.92 5.616-1.28 1.376-3.104 2.064-5.472 2.064zm5.712-40.368c-.704 0-1.296-.24-1.776-.72a2.357 2.357 0 01-.72-1.728c0-.64.24-1.2.72-1.68s1.072-.72 1.776-.72 1.296.24 1.776.72c.48.448.72.992.72 1.632 0 .704-.24 1.296-.72 1.776s-1.072.72-1.776.72zm11.204 5.568h3.408V36h-3.408V10.752zm1.728-5.52c-.704 0-1.296-.24-1.776-.72a2.357 2.357 0 01-.72-1.728c0-.64.24-1.2.72-1.68s1.072-.72 1.776-.72 1.296.24 1.776.72c.48.448.72.992.72 1.632 0 .704-.24 1.296-.72 1.776s-1.072.72-1.776.72zm19.995 5.328c3.296 0 5.824.832 7.584 2.496 1.76 1.632 2.64 4.064 2.64 7.296V36h-3.264v-3.936c-.768 1.312-1.904 2.336-3.408 3.072-1.472.736-3.232 1.104-5.28 1.104-2.816 0-5.056-.672-6.72-2.016-1.664-1.344-2.496-3.12-2.496-5.328 0-2.144.768-3.872 2.304-5.184 1.568-1.312 4.048-1.968 7.44-1.968h8.016v-1.536c0-2.176-.608-3.824-1.824-4.944-1.216-1.152-2.992-1.728-5.328-1.728-1.6 0-3.136.272-4.608.816-1.472.512-2.736 1.232-3.792 2.16l-1.536-2.544c1.28-1.088 2.816-1.92 4.608-2.496a17.508 17.508 0 015.664-.912zm-1.2 22.992c1.92 0 3.568-.432 4.944-1.296 1.376-.896 2.4-2.176 3.072-3.84v-4.128h-7.92c-4.32 0-6.48 1.504-6.48 4.512 0 1.472.56 2.64 1.68 3.504 1.12.832 2.688 1.248 4.704 1.248zm33.544-22.992c3.168 0 5.68.928 7.536 2.784 1.888 1.824 2.832 4.496 2.832 8.016V36h-3.408V21.696c0-2.624-.656-4.624-1.968-6-1.312-1.376-3.184-2.064-5.616-2.064-2.72 0-4.88.816-6.48 2.448-1.568 1.6-2.352 3.824-2.352 6.672V36h-3.408V10.752h3.264v4.656c.928-1.536 2.208-2.72 3.84-3.552 1.664-.864 3.584-1.296 5.76-1.296zm43.091.192v22.176c0 4.288-1.056 7.456-3.168 9.504-2.08 2.08-5.232 3.12-9.456 3.12-2.336 0-4.56-.352-6.672-1.056-2.08-.672-3.776-1.616-5.088-2.832l1.728-2.592c1.216 1.088 2.688 1.936 4.416 2.544 1.76.608 3.6.912 5.52.912 3.2 0 5.552-.752 7.056-2.256 1.504-1.472 2.256-3.776 2.256-6.912v-3.216a10.234 10.234 0 01-4.176 3.648c-1.696.832-3.584 1.248-5.664 1.248-2.368 0-4.528-.512-6.48-1.536a11.962 11.962 0 01-4.56-4.368c-1.088-1.888-1.632-4.016-1.632-6.384 0-2.368.544-4.48 1.632-6.336a11.611 11.611 0 014.56-4.32c1.92-1.024 4.08-1.536 6.48-1.536 2.144 0 4.08.432 5.808 1.296a10.467 10.467 0 014.176 3.744v-4.848h3.264zm-12.912 21.264c1.824 0 3.472-.384 4.944-1.152 1.472-.8 2.608-1.904 3.408-3.312.832-1.408 1.248-3.008 1.248-4.8 0-1.792-.416-3.376-1.248-4.752-.8-1.408-1.936-2.496-3.408-3.264-1.44-.8-3.088-1.2-4.944-1.2-1.824 0-3.472.384-4.944 1.152a8.574 8.574 0 00-3.408 3.264c-.8 1.408-1.2 3.008-1.2 4.8 0 1.792.4 3.392 1.2 4.8a8.917 8.917 0 003.408 3.312c1.472.768 3.12 1.152 4.944 1.152z" fill="#000"/></svg>