<svg width="242" height="19" viewBox="0 0 242 19" fill="none" xmlns="http://www.w3.org/2000/svg"><path d="M6.21 2.736H.308V1.2H13.89v1.536H7.987V18H6.21V2.736zM22.8 5.28c1.584 0 2.84.464 3.768 1.392.944.912 1.416 2.248 1.416 4.008V18H26.28v-7.152c0-1.312-.328-2.312-.984-3-.656-.688-1.592-1.032-2.808-1.032-1.36 0-2.44.408-3.24 1.224-.784.8-1.176 1.912-1.176 3.336V18h-1.704V.192h1.704v7.392a4.62 4.62 0 011.92-1.704c.816-.4 1.752-.6 2.808-.6zm20.85 6.936H33.09c.095 1.312.6 2.376 1.511 3.192.912.8 2.064 1.2 3.456 1.2.784 0 1.504-.136 2.16-.408a4.847 4.847 0 001.704-1.248l.96 1.104a5.388 5.388 0 01-2.112 1.536c-.832.352-1.752.528-2.76.528-1.296 0-2.448-.272-3.456-.816A6.077 6.077 0 0132.225 15c-.56-.976-.84-2.08-.84-3.312 0-1.232.264-2.336.792-3.312a5.933 5.933 0 012.208-2.28c.944-.544 2-.816 3.168-.816 1.168 0 2.216.272 3.144.816a5.764 5.764 0 012.184 2.28c.528.96.792 2.064.792 3.312l-.024.528zm-6.097-5.472c-1.216 0-2.24.392-3.072 1.176-.816.768-1.28 1.776-1.392 3.024h8.952c-.112-1.248-.584-2.256-1.416-3.024-.816-.784-1.84-1.176-3.072-1.176zm20.862 11.4c-1.248 0-2.448-.2-3.6-.6-1.136-.4-2.016-.928-2.64-1.584l.696-1.368c.608.608 1.416 1.104 2.424 1.488a9.029 9.029 0 003.12.552c1.504 0 2.632-.272 3.384-.816.752-.56 1.128-1.28 1.128-2.16 0-.672-.208-1.208-.624-1.608-.4-.4-.896-.704-1.488-.912-.592-.224-1.416-.464-2.472-.72-1.264-.32-2.272-.624-3.024-.912a5.183 5.183 0 01-1.944-1.368c-.528-.608-.792-1.432-.792-2.472 0-.848.224-1.616.672-2.304.448-.704 1.136-1.264 2.064-1.68.928-.416 2.08-.624 3.456-.624.96 0 1.896.136 2.808.408.928.256 1.728.616 2.4 1.08l-.6 1.416a7.994 7.994 0 00-2.256-1.032 8.16 8.16 0 00-2.352-.36c-1.472 0-2.584.288-3.336.864-.736.56-1.104 1.288-1.104 2.184 0 .672.2 1.216.6 1.632.416.4.928.712 1.536.936.624.208 1.456.44 2.496.696 1.232.304 2.224.608 2.976.912a4.733 4.733 0 011.944 1.344c.528.592.792 1.4.792 2.424 0 .848-.232 1.624-.696 2.328-.448.688-1.144 1.24-2.088 1.656-.944.4-2.104.6-3.48.6zm21.15-12.768V18h-1.632v-2.304a4.758 4.758 0 01-1.849 1.8c-.784.416-1.68.624-2.688.624-1.647 0-2.951-.456-3.912-1.368-.944-.928-1.415-2.28-1.415-4.056v-7.32h1.703v7.152c0 1.328.328 2.336.984 3.024.656.688 1.593 1.032 2.808 1.032 1.329 0 2.377-.4 3.145-1.2.767-.816 1.151-1.944 1.151-3.384V5.376h1.704zm20.516-.096c1.584 0 2.824.456 3.72 1.368.912.912 1.368 2.256 1.368 4.032V18h-1.704v-7.152c0-1.312-.32-2.312-.96-3-.624-.688-1.512-1.032-2.664-1.032-1.312 0-2.344.408-3.096 1.224-.752.8-1.128 1.912-1.128 3.336V18h-1.704v-7.152c0-1.312-.32-2.312-.96-3-.624-.688-1.52-1.032-2.688-1.032-1.296 0-2.328.408-3.096 1.224-.752.8-1.128 1.912-1.128 3.336V18h-1.704V5.376h1.632V7.68a4.553 4.553 0 011.872-1.776c.8-.416 1.72-.624 2.76-.624 1.056 0 1.968.224 2.736.672.784.448 1.368 1.112 1.752 1.992A4.86 4.86 0 0197.08 6c.88-.48 1.88-.72 3-.72zm25.453 0c1.584 0 2.824.456 3.72 1.368.912.912 1.368 2.256 1.368 4.032V18h-1.704v-7.152c0-1.312-.32-2.312-.96-3-.624-.688-1.512-1.032-2.664-1.032-1.312 0-2.344.408-3.096 1.224-.752.8-1.128 1.912-1.128 3.336V18h-1.704v-7.152c0-1.312-.32-2.312-.96-3-.624-.688-1.52-1.032-2.688-1.032-1.296 0-2.328.408-3.096 1.224-.752.8-1.128 1.912-1.128 3.336V18h-1.704V5.376h1.632V7.68a4.553 4.553 0 011.872-1.776c.8-.416 1.72-.624 2.76-.624 1.056 0 1.968.224 2.736.672.784.448 1.368 1.112 1.752 1.992A4.86 4.86 0 01122.534 6c.88-.48 1.88-.72 3-.72zm20.748 6.936h-10.56c.096 1.312.6 2.376 1.512 3.192.912.8 2.064 1.2 3.456 1.2.784 0 1.504-.136 2.16-.408a4.847 4.847 0 001.704-1.248l.96 1.104a5.388 5.388 0 01-2.112 1.536c-.832.352-1.752.528-2.76.528-1.296 0-2.448-.272-3.456-.816A6.077 6.077 0 01134.858 15c-.56-.976-.84-2.08-.84-3.312 0-1.232.264-2.336.792-3.312a5.933 5.933 0 012.208-2.28c.944-.544 2-.816 3.168-.816 1.168 0 2.216.272 3.144.816a5.764 5.764 0 012.184 2.28c.528.96.792 2.064.792 3.312l-.024.528zm-6.096-5.472c-1.216 0-2.24.392-3.072 1.176-.816.768-1.28 1.776-1.392 3.024h8.952c-.112-1.248-.584-2.256-1.416-3.024-.816-.784-1.84-1.176-3.072-1.176zm11.22 1.104c.4-.848.992-1.488 1.776-1.92.8-.432 1.784-.648 2.952-.648v1.656l-.408-.024c-1.328 0-2.368.408-3.12 1.224-.752.816-1.128 1.96-1.128 3.432V18h-1.704V5.376h1.632v2.472zM172.337 1.2c2.144 0 3.824.512 5.04 1.536 1.216 1.024 1.824 2.432 1.824 4.224 0 1.792-.608 3.2-1.824 4.224-1.216 1.008-2.896 1.512-5.04 1.512h-4.512V18h-1.776V1.2h6.288zm-.048 9.936c1.664 0 2.936-.36 3.816-1.08.88-.736 1.319-1.768 1.319-3.096 0-1.36-.439-2.4-1.319-3.12-.88-.736-2.152-1.104-3.816-1.104h-4.464v8.4h4.464zM186.98 5.28c1.648 0 2.912.416 3.792 1.248.88.816 1.32 2.032 1.32 3.648V18h-1.632v-1.968c-.384.656-.952 1.168-1.704 1.536-.736.368-1.616.552-2.64.552-1.408 0-2.528-.336-3.36-1.008-.832-.672-1.248-1.56-1.248-2.664 0-1.072.384-1.936 1.152-2.592.784-.656 2.024-.984 3.72-.984h4.008v-.768c0-1.088-.304-1.912-.912-2.472-.608-.576-1.496-.864-2.664-.864-.8 0-1.568.136-2.304.408a5.644 5.644 0 00-1.896 1.08l-.768-1.272c.64-.544 1.408-.96 2.304-1.248a8.754 8.754 0 012.832-.456zm-.6 11.496c.96 0 1.784-.216 2.472-.648.688-.448 1.2-1.088 1.536-1.92v-2.064h-3.96c-2.16 0-3.24.752-3.24 2.256 0 .736.28 1.32.84 1.752.56.416 1.344.624 2.352.624zM196.72.192h1.704V18h-1.704V.192zm10.861 5.088c1.648 0 2.912.416 3.792 1.248.88.816 1.32 2.032 1.32 3.648V18h-1.632v-1.968c-.384.656-.952 1.168-1.704 1.536-.736.368-1.616.552-2.64.552-1.408 0-2.528-.336-3.36-1.008-.832-.672-1.248-1.56-1.248-2.664 0-1.072.384-1.936 1.152-2.592.784-.656 2.024-.984 3.72-.984h4.008v-.768c0-1.088-.304-1.912-.912-2.472-.608-.576-1.496-.864-2.664-.864-.8 0-1.568.136-2.304.408a5.644 5.644 0 00-1.896 1.08l-.768-1.272c.64-.544 1.408-.96 2.304-1.248a8.754 8.754 0 012.832-.456zm-.6 11.496c.96 0 1.784-.216 2.472-.648.688-.448 1.2-1.088 1.536-1.92v-2.064h-3.96c-2.16 0-3.24.752-3.24 2.256 0 .736.28 1.32.84 1.752.56.416 1.344.624 2.352.624zM222.6 18.12c-1.248 0-2.368-.272-3.36-.816a5.953 5.953 0 01-2.304-2.28c-.56-.992-.84-2.104-.84-3.336 0-1.232.28-2.336.84-3.312a5.953 5.953 0 012.304-2.28c.992-.544 2.112-.816 3.36-.816 1.088 0 2.056.216 2.904.648a4.749 4.749 0 012.04 1.848l-1.272.864a3.89 3.89 0 00-1.584-1.392 4.603 4.603 0 00-2.088-.48c-.912 0-1.736.208-2.472.624-.72.4-1.288.976-1.704 1.728-.4.752-.6 1.608-.6 2.568 0 .976.2 1.84.6 2.592a4.533 4.533 0 001.704 1.728c.736.4 1.56.6 2.472.6.752 0 1.448-.152 2.088-.456a3.89 3.89 0 001.584-1.392l1.272.864a4.905 4.905 0 01-2.04 1.872c-.864.416-1.832.624-2.904.624zm19.073-5.904h-10.56c.096 1.312.6 2.376 1.512 3.192.912.8 2.064 1.2 3.456 1.2.784 0 1.504-.136 2.16-.408a4.847 4.847 0 001.704-1.248l.96 1.104a5.388 5.388 0 01-2.112 1.536c-.832.352-1.752.528-2.76.528-1.296 0-2.448-.272-3.456-.816A6.077 6.077 0 01230.249 15c-.56-.976-.84-2.08-.84-3.312 0-1.232.264-2.336.792-3.312a5.933 5.933 0 012.208-2.28c.944-.544 2-.816 3.168-.816 1.168 0 2.216.272 3.144.816a5.764 5.764 0 012.184 2.28c.528.96.792 2.064.792 3.312l-.024.528zm-6.096-5.472c-1.216 0-2.24.392-3.072 1.176-.816.768-1.28 1.776-1.392 3.024h8.952c-.112-1.248-.584-2.256-1.416-3.024-.816-.784-1.84-1.176-3.072-1.176z" fill="#000"/></svg>