<svg width="231" height="37" viewBox="0 0 231 37" fill="none" xmlns="http://www.w3.org/2000/svg"><path d="M12.367 5.472H.56V2.4h27.168v3.072H15.92V36h-3.552V5.472zm33.179 5.088c3.168 0 5.68.928 7.536 2.784 1.888 1.824 2.832 4.496 2.832 8.016V36h-3.408V21.696c0-2.624-.656-4.624-1.968-6-1.312-1.376-3.184-2.064-5.616-2.064-2.72 0-4.88.816-6.48 2.448-1.568 1.6-2.352 3.824-2.352 6.672V36h-3.408V.384h3.408v14.784c.928-1.472 2.208-2.608 3.84-3.408 1.632-.8 3.504-1.2 5.616-1.2zm41.698 13.872h-21.12c.192 2.624 1.2 4.752 3.024 6.384 1.824 1.6 4.128 2.4 6.912 2.4 1.568 0 3.008-.272 4.32-.816a9.694 9.694 0 003.408-2.496l1.92 2.208c-1.12 1.344-2.528 2.368-4.224 3.072-1.664.704-3.504 1.056-5.52 1.056-2.592 0-4.896-.544-6.912-1.632-1.984-1.12-3.536-2.656-4.656-4.608-1.12-1.952-1.68-4.16-1.68-6.624 0-2.464.528-4.672 1.584-6.624 1.088-1.952 2.56-3.472 4.416-4.56 1.888-1.088 4-1.632 6.336-1.632 2.336 0 4.432.544 6.288 1.632 1.856 1.088 3.312 2.608 4.368 4.56 1.056 1.92 1.584 4.128 1.584 6.624l-.048 1.056zM75.052 13.488c-2.432 0-4.48.784-6.144 2.352-1.632 1.536-2.56 3.552-2.784 6.048h17.904c-.224-2.496-1.168-4.512-2.832-6.048-1.632-1.568-3.68-2.352-6.144-2.352zm53.627 5.184c2.208.48 3.904 1.44 5.088 2.88 1.216 1.408 1.824 3.232 1.824 5.472 0 2.88-1.072 5.104-3.216 6.672-2.112 1.536-5.248 2.304-9.408 2.304h-15.456V2.4h14.496c3.744 0 6.64.752 8.688 2.256 2.08 1.504 3.12 3.632 3.12 6.384 0 1.856-.464 3.44-1.392 4.752-.896 1.28-2.144 2.24-3.744 2.88zM111.063 5.328V17.52h10.704c2.72 0 4.816-.512 6.288-1.536 1.472-1.056 2.208-2.576 2.208-4.56 0-1.984-.736-3.488-2.208-4.512-1.472-1.056-3.568-1.584-6.288-1.584h-10.704zm11.856 27.744c3.008 0 5.28-.512 6.816-1.536 1.536-1.024 2.304-2.624 2.304-4.8 0-4.192-3.04-6.288-9.12-6.288h-11.856v12.624h11.856zm42.812-22.32V36h-3.264v-4.608a9.516 9.516 0 01-3.696 3.6c-1.568.832-3.36 1.248-5.376 1.248-3.296 0-5.904-.912-7.824-2.736-1.888-1.856-2.832-4.56-2.832-8.112v-14.64h3.408v14.304c0 2.656.656 4.672 1.968 6.048 1.312 1.376 3.184 2.064 5.616 2.064 2.656 0 4.752-.8 6.288-2.4 1.536-1.632 2.304-3.888 2.304-6.768V10.752h3.408zm22.408-.192c3.168 0 5.68.928 7.536 2.784 1.888 1.824 2.832 4.496 2.832 8.016V36h-3.408V21.696c0-2.624-.656-4.624-1.968-6-1.312-1.376-3.184-2.064-5.616-2.064-2.72 0-4.88.816-6.48 2.448-1.568 1.6-2.352 3.824-2.352 6.672V36h-3.408V10.752h3.264v4.656c.928-1.536 2.208-2.72 3.84-3.552 1.664-.864 3.584-1.296 5.76-1.296zM230.894.384V36h-3.264v-4.992c-1.024 1.696-2.384 2.992-4.08 3.888-1.664.896-3.552 1.344-5.664 1.344-2.368 0-4.512-.544-6.432-1.632-1.92-1.088-3.424-2.608-4.512-4.56-1.088-1.952-1.632-4.176-1.632-6.672 0-2.496.544-4.72 1.632-6.672 1.088-1.952 2.592-3.456 4.512-4.512 1.92-1.088 4.064-1.632 6.432-1.632 2.048 0 3.888.432 5.52 1.296 1.664.832 3.024 2.064 4.08 3.696V.384h3.408zm-12.72 32.832c1.76 0 3.344-.4 4.752-1.2 1.44-.832 2.56-2 3.36-3.504.832-1.504 1.248-3.216 1.248-5.136s-.416-3.632-1.248-5.136c-.8-1.504-1.92-2.656-3.36-3.456-1.408-.832-2.992-1.248-4.752-1.248-1.792 0-3.408.416-4.848 1.248-1.408.8-2.528 1.952-3.36 3.456-.8 1.504-1.2 3.216-1.2 5.136s.4 3.632 1.2 5.136c.832 1.504 1.952 2.672 3.36 3.504 1.44.8 3.056 1.2 4.848 1.2z" fill="#000"/></svg>