<svg width="278" height="16" viewBox="0 0 278 16" fill="none" xmlns="http://www.w3.org/2000/svg"><path d="M8.124 15.12c-1.387 0-2.64-.307-3.76-.92a6.85 6.85 0 01-2.62-2.54C1.117 10.567.804 9.347.804 8s.313-2.56.94-3.64a6.769 6.769 0 012.64-2.56c1.12-.613 2.373-.92 3.76-.92 1.04 0 2 .173 2.88.52a5.97 5.97 0 012.24 1.52l-.94.94C11.23 2.753 9.85 2.2 8.184 2.2c-1.107 0-2.114.253-3.02.76a5.627 5.627 0 00-2.14 2.08c-.507.88-.76 1.867-.76 2.96s.253 2.08.76 2.96a5.627 5.627 0 002.14 2.08c.906.507 1.913.76 3.02.76 1.68 0 3.06-.56 4.14-1.68l.94.94a6.14 6.14 0 01-2.26 1.54c-.88.347-1.84.52-2.88.52zM16.119.16h1.42V15h-1.42V.16zm9.05 4.24c1.374 0 2.427.347 3.16 1.04.734.68 1.1 1.693 1.1 3.04V15h-1.36v-1.64c-.32.547-.793.973-1.42 1.28-.613.307-1.346.46-2.2.46-1.173 0-2.106-.28-2.8-.84-.693-.56-1.04-1.3-1.04-2.22 0-.893.32-1.613.96-2.16.654-.547 1.687-.82 3.1-.82h3.34v-.64c0-.907-.253-1.593-.76-2.06-.506-.48-1.246-.72-2.22-.72-.666 0-1.306.113-1.92.34a4.702 4.702 0 00-1.58.9l-.64-1.06c.534-.453 1.174-.8 1.92-1.04a7.295 7.295 0 012.36-.38zm-.5 9.58c.8 0 1.487-.18 2.06-.54.574-.373 1-.907 1.28-1.6v-1.72h-3.3c-1.8 0-2.7.627-2.7 1.88 0 .613.234 1.1.7 1.46.467.347 1.12.52 1.96.52zm11.438 1.12c-.854 0-1.674-.12-2.46-.36-.774-.253-1.38-.567-1.82-.94l.64-1.12c.44.347.993.633 1.66.86.666.213 1.36.32 2.08.32.96 0 1.666-.147 2.12-.44.466-.307.7-.733.7-1.28 0-.387-.127-.687-.38-.9a2.351 2.351 0 00-.96-.5c-.387-.12-.9-.233-1.54-.34-.854-.16-1.54-.32-2.06-.48a3.181 3.181 0 01-1.34-.86c-.36-.4-.54-.953-.54-1.66 0-.88.366-1.6 1.1-2.16.733-.56 1.753-.84 3.06-.84.68 0 1.36.093 2.04.28.68.173 1.24.407 1.68.7l-.62 1.14c-.867-.6-1.9-.9-3.1-.9-.907 0-1.594.16-2.06.48-.454.32-.68.74-.68 1.26 0 .4.126.72.38.96.266.24.593.42.98.54.386.107.92.22 1.6.34.84.16 1.513.32 2.02.48.506.16.94.433 1.3.82.36.387.54.92.54 1.6 0 .92-.387 1.653-1.16 2.2-.76.533-1.82.8-3.18.8zm9.785 0c-.854 0-1.674-.12-2.46-.36-.774-.253-1.38-.567-1.82-.94l.64-1.12c.44.347.993.633 1.66.86.666.213 1.36.32 2.08.32.96 0 1.666-.147 2.12-.44.466-.307.7-.733.7-1.28 0-.387-.127-.687-.38-.9a2.351 2.351 0 00-.96-.5c-.387-.12-.9-.233-1.54-.34-.854-.16-1.54-.32-2.06-.48a3.18 3.18 0 01-1.34-.86c-.36-.4-.54-.953-.54-1.66 0-.88.367-1.6 1.1-2.16.733-.56 1.753-.84 3.06-.84.68 0 1.36.093 2.04.28.68.173 1.24.407 1.68.7l-.62 1.14c-.867-.6-1.9-.9-3.1-.9-.907 0-1.593.16-2.06.48-.453.32-.68.74-.68 1.26 0 .4.127.72.38.96.267.24.593.42.98.54.386.107.92.22 1.6.34.84.16 1.513.32 2.02.48.506.16.94.433 1.3.82.36.387.54.92.54 1.6 0 .92-.387 1.653-1.16 2.2-.76.533-1.82.8-3.18.8zm6.965-10.62h1.42V15h-1.42V4.48zm.72-2.3c-.293 0-.54-.1-.74-.3-.2-.2-.3-.44-.3-.72 0-.267.1-.5.3-.7.2-.2.447-.3.74-.3s.54.1.74.3c.2.187.3.413.3.68 0 .293-.1.54-.3.74-.2.2-.447.3-.74.3zm9.011 12.92c-1.04 0-1.973-.227-2.8-.68a4.961 4.961 0 01-1.92-1.9c-.467-.827-.7-1.753-.7-2.78s.233-1.947.7-2.76a4.961 4.961 0 011.92-1.9c.827-.453 1.76-.68 2.8-.68.907 0 1.713.18 2.42.54.72.347 1.287.86 1.7 1.54l-1.06.72a3.24 3.24 0 00-1.32-1.16 3.836 3.836 0 00-1.74-.4c-.76 0-1.447.173-2.06.52-.6.333-1.073.813-1.42 1.44-.333.627-.5 1.34-.5 2.14 0 .813.167 1.533.5 2.16.347.613.82 1.093 1.42 1.44.613.333 1.3.5 2.06.5.627 0 1.207-.127 1.74-.38a3.24 3.24 0 001.32-1.16l1.06.72c-.413.68-.98 1.2-1.7 1.56-.72.347-1.527.52-2.42.52zm10.59-10.7c1.373 0 2.426.347 3.16 1.04.733.68 1.1 1.693 1.1 3.04V15h-1.36v-1.64c-.32.547-.794.973-1.42 1.28-.614.307-1.347.46-2.2.46-1.174 0-2.107-.28-2.8-.84-.694-.56-1.04-1.3-1.04-2.22 0-.893.32-1.613.96-2.16.653-.547 1.686-.82 3.1-.82h3.34v-.64c0-.907-.254-1.593-.76-2.06-.507-.48-1.247-.72-2.22-.72-.667 0-1.307.113-1.92.34a4.702 4.702 0 00-1.58.9l-.64-1.06c.533-.453 1.173-.8 1.92-1.04a7.295 7.295 0 012.36-.38zm-.5 9.58c.8 0 1.486-.18 2.06-.54.573-.373 1-.907 1.28-1.6v-1.72h-3.3c-1.8 0-2.7.627-2.7 1.88 0 .613.233 1.1.7 1.46.466.347 1.12.52 1.96.52zM81.295.16h1.42V15h-1.42V.16zM102.06 8h1.42v5.34a6.84 6.84 0 01-2.32 1.32 8.623 8.623 0 01-2.82.46c-1.4 0-2.66-.307-3.78-.92-1.12-.613-2-1.46-2.64-2.54-.64-1.093-.96-2.313-.96-3.66s.32-2.56.96-3.64a6.769 6.769 0 012.64-2.56c1.12-.613 2.387-.92 3.8-.92 1.067 0 2.047.173 2.94.52a5.75 5.75 0 012.26 1.5l-.92.94c-1.107-1.093-2.513-1.64-4.22-1.64-1.133 0-2.16.253-3.08.76a5.44 5.44 0 00-2.14 2.08c-.52.88-.78 1.867-.78 2.96s.26 2.08.78 2.96a5.627 5.627 0 002.14 2.08c.907.507 1.927.76 3.06.76 1.44 0 2.66-.36 3.66-1.08V8zm8.989-3.6c1.373 0 2.426.347 3.16 1.04.733.68 1.1 1.693 1.1 3.04V15h-1.36v-1.64c-.32.547-.794.973-1.42 1.28-.614.307-1.347.46-2.2.46-1.174 0-2.107-.28-2.8-.84-.694-.56-1.04-1.3-1.04-2.22 0-.893.32-1.613.96-2.16.653-.547 1.686-.82 3.1-.82h3.34v-.64c0-.907-.254-1.593-.76-2.06-.507-.48-1.247-.72-2.22-.72-.667 0-1.307.113-1.92.34a4.697 4.697 0 00-1.58.9l-.64-1.06c.533-.453 1.173-.8 1.92-1.04a7.29 7.29 0 012.36-.38zm-.5 9.58c.8 0 1.486-.18 2.06-.54.573-.373 1-.907 1.28-1.6v-1.72h-3.3c-1.8 0-2.7.627-2.7 1.88 0 .613.233 1.1.7 1.46.466.347 1.12.52 1.96.52zm9.977-7.44c.333-.707.826-1.24 1.48-1.6.666-.36 1.486-.54 2.46-.54v1.38l-.34-.02c-1.107 0-1.974.34-2.6 1.02-.627.68-.94 1.633-.94 2.86V15h-1.42V4.48h1.36v2.06zM136.539.16V15h-1.36v-2.08a4.311 4.311 0 01-1.7 1.62c-.693.373-1.48.56-2.36.56-.987 0-1.88-.227-2.68-.68a4.858 4.858 0 01-1.88-1.9c-.453-.813-.68-1.74-.68-2.78 0-1.04.227-1.967.68-2.78a4.721 4.721 0 011.88-1.88c.8-.453 1.693-.68 2.68-.68.853 0 1.62.18 2.3.54.693.347 1.26.86 1.7 1.54V.16h1.42zm-5.3 13.68c.733 0 1.393-.167 1.98-.5a3.601 3.601 0 001.4-1.46c.347-.627.52-1.34.52-2.14s-.173-1.513-.52-2.14a3.47 3.47 0 00-1.4-1.44 3.82 3.82 0 00-1.98-.52c-.747 0-1.42.173-2.02.52a3.64 3.64 0 00-1.4 1.44c-.333.627-.5 1.34-.5 2.14s.167 1.513.5 2.14a3.784 3.784 0 001.4 1.46c.6.333 1.273.5 2.02.5zm18.415-3.66h-8.8c.08 1.093.5 1.98 1.26 2.66.76.667 1.72 1 2.88 1 .653 0 1.253-.113 1.8-.34a4.046 4.046 0 001.42-1.04l.8.92a4.497 4.497 0 01-1.76 1.28c-.694.293-1.46.44-2.3.44-1.08 0-2.04-.227-2.88-.68a5.058 5.058 0 01-1.94-1.92c-.467-.813-.7-1.733-.7-2.76 0-1.027.22-1.947.66-2.76a4.937 4.937 0 011.84-1.9c.786-.453 1.666-.68 2.64-.68.973 0 1.846.227 2.62.68a4.805 4.805 0 011.82 1.9c.44.8.66 1.72.66 2.76l-.02.44zm-5.08-4.56c-1.014 0-1.867.327-2.56.98-.68.64-1.067 1.48-1.16 2.52h7.46c-.094-1.04-.487-1.88-1.18-2.52-.68-.653-1.534-.98-2.56-.98zm13.35-1.22c1.32 0 2.367.387 3.14 1.16.787.76 1.18 1.873 1.18 3.34V15h-1.42V9.04c0-1.093-.273-1.927-.82-2.5-.547-.573-1.327-.86-2.34-.86-1.133 0-2.033.34-2.7 1.02-.653.667-.98 1.593-.98 2.78V15h-1.42V4.48h1.36v1.94a3.9 3.9 0 011.6-1.48c.693-.36 1.493-.54 2.4-.54zm10.995 10.7c-.853 0-1.673-.12-2.46-.36-.773-.253-1.38-.567-1.82-.94l.64-1.12c.44.347.993.633 1.66.86.667.213 1.36.32 2.08.32.96 0 1.667-.147 2.12-.44.467-.307.7-.733.7-1.28 0-.387-.127-.687-.38-.9a2.347 2.347 0 00-.96-.5c-.387-.12-.9-.233-1.54-.34-.853-.16-1.54-.32-2.06-.48a3.179 3.179 0 01-1.34-.86c-.36-.4-.54-.953-.54-1.66 0-.88.367-1.6 1.1-2.16.733-.56 1.753-.84 3.06-.84.68 0 1.36.093 2.04.28.68.173 1.24.407 1.68.7l-.62 1.14c-.867-.6-1.9-.9-3.1-.9-.907 0-1.593.16-2.06.48-.453.32-.68.74-.68 1.26 0 .4.127.72.38.96.267.24.593.42.98.54.387.107.92.22 1.6.34.84.16 1.513.32 2.02.48.507.16.94.433 1.3.82.36.387.54.92.54 1.6 0 .92-.387 1.653-1.16 2.2-.76.533-1.82.8-3.18.8zm16.5 0c-1.014 0-1.927-.227-2.74-.68a5.096 5.096 0 01-1.92-1.92c-.467-.813-.7-1.733-.7-2.76 0-1.027.233-1.947.7-2.76a4.952 4.952 0 011.92-1.9c.813-.453 1.726-.68 2.74-.68 1.013 0 1.926.227 2.74.68a4.829 4.829 0 011.9 1.9c.466.813.7 1.733.7 2.76 0 1.027-.234 1.947-.7 2.76a4.968 4.968 0 01-1.9 1.92c-.814.453-1.727.68-2.74.68zm0-1.26c.746 0 1.413-.167 2-.5a3.607 3.607 0 001.4-1.46c.333-.627.5-1.34.5-2.14s-.167-1.513-.5-2.14a3.476 3.476 0 00-1.4-1.44c-.587-.347-1.254-.52-2-.52-.747 0-1.42.173-2.02.52a3.634 3.634 0 00-1.4 1.44c-.334.627-.5 1.34-.5 2.14s.166 1.513.5 2.14a3.777 3.777 0 001.4 1.46c.6.333 1.273.5 2.02.5zm11.719-12.58c-.614 0-1.08.167-1.4.5-.307.333-.46.827-.46 1.48v1.24h3.24v1.2h-3.2V15h-1.42V5.68h-1.88v-1.2h1.88v-1.3c0-.96.273-1.72.82-2.28.56-.56 1.346-.84 2.36-.84.4 0 .786.06 1.16.18.373.107.686.267.94.48l-.48 1.06c-.414-.347-.934-.52-1.56-.52zm12.691 13.86c-1.04 0-2.04-.167-3-.5-.946-.333-1.68-.773-2.2-1.32l.58-1.14c.507.507 1.18.92 2.02 1.24.84.307 1.707.46 2.6.46 1.254 0 2.194-.227 2.82-.68.627-.467.94-1.067.94-1.8 0-.56-.173-1.007-.52-1.34a3.236 3.236 0 00-1.24-.76c-.493-.187-1.18-.387-2.06-.6-1.053-.267-1.893-.52-2.52-.76a4.33 4.33 0 01-1.62-1.14c-.44-.507-.66-1.193-.66-2.06 0-.707.187-1.347.56-1.92.374-.587.947-1.053 1.72-1.4.774-.347 1.734-.52 2.88-.52.8 0 1.58.113 2.34.34.774.213 1.44.513 2 .9l-.5 1.18a6.65 6.65 0 00-1.88-.86c-.666-.2-1.32-.3-1.96-.3-1.226 0-2.153.24-2.78.72-.613.467-.92 1.073-.92 1.82 0 .56.167 1.013.5 1.36.347.333.774.593 1.28.78.52.173 1.214.367 2.08.58 1.027.253 1.854.507 2.48.76.64.24 1.18.613 1.62 1.12.44.493.66 1.167.66 2.02a3.45 3.45 0 01-.58 1.94c-.373.573-.953 1.033-1.74 1.38-.786.333-1.753.5-2.9.5zm17.625-10.64V15h-1.36v-1.92a3.965 3.965 0 01-1.54 1.5c-.653.347-1.4.52-2.24.52-1.373 0-2.46-.38-3.26-1.14-.787-.773-1.18-1.9-1.18-3.38v-6.1h1.42v5.96c0 1.107.273 1.947.82 2.52.547.573 1.327.86 2.34.86 1.107 0 1.98-.333 2.62-1 .64-.68.96-1.62.96-2.82V4.48h1.42zm11.397 9.34V15h-8.56v-.94l6.62-8.38h-6.5v-1.2h8.32v.94l-6.62 8.4h6.74zm8.155-9.42c1.32 0 2.367.387 3.14 1.16.787.76 1.18 1.873 1.18 3.34V15h-1.42V9.04c0-1.093-.273-1.927-.82-2.5-.547-.573-1.327-.86-2.34-.86-1.133 0-2.033.34-2.7 1.02-.653.667-.98 1.593-.98 2.78V15h-1.42V.16h1.42v6.16a3.852 3.852 0 011.6-1.42c.68-.333 1.46-.5 2.34-.5zm12.514 10.7c-1.013 0-1.926-.227-2.74-.68a5.11 5.11 0 01-1.92-1.92c-.466-.813-.7-1.733-.7-2.76 0-1.027.234-1.947.7-2.76a4.965 4.965 0 011.92-1.9c.814-.453 1.727-.68 2.74-.68 1.014 0 1.927.227 2.74.68a4.816 4.816 0 011.9 1.9c.467.813.7 1.733.7 2.76 0 1.027-.233 1.947-.7 2.76a4.954 4.954 0 01-1.9 1.92c-.813.453-1.726.68-2.74.68zm0-1.26c.747 0 1.414-.167 2-.5a3.601 3.601 0 001.4-1.46c.334-.627.5-1.34.5-2.14s-.166-1.513-.5-2.14a3.47 3.47 0 00-1.4-1.44c-.586-.347-1.253-.52-2-.52-.746 0-1.42.173-2.02.52a3.647 3.647 0 00-1.4 1.44c-.333.627-.5 1.34-.5 2.14s.167 1.513.5 2.14a3.791 3.791 0 001.4 1.46c.6.333 1.274.5 2.02.5zm17.719-9.36V15h-1.36v-1.92a3.958 3.958 0 01-1.54 1.5c-.653.347-1.4.52-2.24.52-1.373 0-2.46-.38-3.26-1.14-.786-.773-1.18-1.9-1.18-3.38v-6.1h1.42v5.96c0 1.107.274 1.947.82 2.52.547.573 1.327.86 2.34.86 1.107 0 1.98-.333 2.62-1 .64-.68.96-1.62.96-2.82V4.48h1.42z" fill="#fff"/></svg>