<svg width="246" height="27" viewBox="0 0 246 27" fill="none" xmlns="http://www.w3.org/2000/svg"><g filter="url(#filter0_d_159_29)"><path d="M5.67 2.28v5.5h7.24v1.28H5.67V15H4.19V1h9.6v1.28H5.67zm20.005 2.2V15h-1.36v-1.92a3.964 3.964 0 01-1.54 1.5c-.653.347-1.4.52-2.24.52-1.373 0-2.46-.38-3.26-1.14-.787-.773-1.18-1.9-1.18-3.38v-6.1h1.42v5.96c0 1.107.273 1.947.82 2.52.546.573 1.326.86 2.34.86 1.107 0 1.98-.333 2.62-1 .64-.68.96-1.62.96-2.82V4.48h1.42zm11.397 9.34V15h-8.56v-.94l6.62-8.38h-6.5v-1.2h8.32v.94l-6.62 8.4h6.74zm8.155-9.42c1.32 0 2.366.387 3.14 1.16.786.76 1.18 1.873 1.18 3.34V15h-1.42V9.04c0-1.093-.274-1.927-.82-2.5-.547-.573-1.327-.86-2.34-.86-1.134 0-2.034.34-2.7 1.02-.654.667-.98 1.593-.98 2.78V15h-1.42V.16h1.42v6.16a3.85 3.85 0 011.6-1.42c.68-.333 1.46-.5 2.34-.5zM57.74 15.1c-1.013 0-1.927-.227-2.74-.68a5.106 5.106 0 01-1.92-1.92c-.467-.813-.7-1.733-.7-2.76 0-1.027.233-1.947.7-2.76A4.961 4.961 0 0155 5.08c.813-.453 1.727-.68 2.74-.68 1.013 0 1.927.227 2.74.68a4.822 4.822 0 011.9 1.9c.467.813.7 1.733.7 2.76 0 1.027-.233 1.947-.7 2.76a4.96 4.96 0 01-1.9 1.92c-.813.453-1.727.68-2.74.68zm0-1.26c.747 0 1.413-.167 2-.5a3.603 3.603 0 001.4-1.46c.333-.627.5-1.34.5-2.14s-.167-1.513-.5-2.14a3.472 3.472 0 00-1.4-1.44c-.587-.347-1.253-.52-2-.52-.747 0-1.42.173-2.02.52a3.641 3.641 0 00-1.4 1.44c-.333.627-.5 1.34-.5 2.14s.167 1.513.5 2.14a3.785 3.785 0 001.4 1.46c.6.333 1.273.5 2.02.5zM75.46 4.48V15H74.1v-1.92a3.965 3.965 0 01-1.54 1.5c-.653.347-1.4.52-2.24.52-1.373 0-2.46-.38-3.26-1.14-.787-.773-1.18-1.9-1.18-3.38v-6.1h1.42v5.96c0 1.107.273 1.947.82 2.52.547.573 1.327.86 2.34.86 1.107 0 1.98-.333 2.62-1 .64-.68.96-1.62.96-2.82V4.48h1.42zm10.991-2.2v5.5h7.24v1.28h-7.24V15h-1.48V1h9.6v1.28h-8.12zm20.005 2.2V15h-1.36v-1.92a3.965 3.965 0 01-1.54 1.5c-.653.347-1.4.52-2.24.52-1.373 0-2.46-.38-3.26-1.14-.787-.773-1.18-1.9-1.18-3.38v-6.1h1.42v5.96c0 1.107.273 1.947.82 2.52.547.573 1.327.86 2.34.86 1.107 0 1.98-.333 2.62-1 .64-.68.96-1.62.96-2.82V4.48h1.42zM120.033.16V15h-1.36v-2.08a4.311 4.311 0 01-1.7 1.62c-.693.373-1.48.56-2.36.56-.987 0-1.88-.227-2.68-.68a4.858 4.858 0 01-1.88-1.9c-.453-.813-.68-1.74-.68-2.78 0-1.04.227-1.967.68-2.78a4.721 4.721 0 011.88-1.88c.8-.453 1.693-.68 2.68-.68.853 0 1.62.18 2.3.54.693.347 1.26.86 1.7 1.54V.16h1.42zm-5.3 13.68c.733 0 1.393-.167 1.98-.5a3.601 3.601 0 001.4-1.46c.347-.627.52-1.34.52-2.14s-.173-1.513-.52-2.14a3.47 3.47 0 00-1.4-1.44 3.82 3.82 0 00-1.98-.52c-.747 0-1.42.173-2.02.52a3.64 3.64 0 00-1.4 1.44c-.333.627-.5 1.34-.5 2.14s.167 1.513.5 2.14a3.784 3.784 0 001.4 1.46c.6.333 1.273.5 2.02.5zm12.935-9.44c1.373 0 2.426.347 3.16 1.04.733.68 1.1 1.693 1.1 3.04V15h-1.36v-1.64c-.32.547-.794.973-1.42 1.28-.614.307-1.347.46-2.2.46-1.174 0-2.107-.28-2.8-.84-.694-.56-1.04-1.3-1.04-2.22 0-.893.32-1.613.96-2.16.653-.547 1.686-.82 3.1-.82h3.34v-.64c0-.907-.254-1.593-.76-2.06-.507-.48-1.247-.72-2.22-.72-.667 0-1.307.113-1.92.34a4.697 4.697 0 00-1.58.9l-.64-1.06c.533-.453 1.173-.8 1.92-1.04a7.29 7.29 0 012.36-.38zm-.5 9.58c.8 0 1.486-.18 2.06-.54.573-.373 1-.907 1.28-1.6v-1.72h-3.3c-1.8 0-2.7.627-2.7 1.88 0 .613.233 1.1.7 1.46.466.347 1.12.52 1.96.52zm12.956 1.12c-1.014 0-1.927-.227-2.74-.68a5.096 5.096 0 01-1.92-1.92c-.467-.813-.7-1.733-.7-2.76 0-1.027.233-1.947.7-2.76a4.952 4.952 0 011.92-1.9c.813-.453 1.726-.68 2.74-.68 1.013 0 1.926.227 2.74.68a4.829 4.829 0 011.9 1.9c.466.813.7 1.733.7 2.76 0 1.027-.234 1.947-.7 2.76a4.968 4.968 0 01-1.9 1.92c-.814.453-1.727.68-2.74.68zm0-1.26c.746 0 1.413-.167 2-.5a3.607 3.607 0 001.4-1.46c.333-.627.5-1.34.5-2.14s-.167-1.513-.5-2.14a3.476 3.476 0 00-1.4-1.44c-.587-.347-1.254-.52-2-.52-.747 0-1.42.173-2.02.52a3.634 3.634 0 00-1.4 1.44c-.334.627-.5 1.34-.5 2.14s.166 1.513.5 2.14a3.777 3.777 0 001.4 1.46c.6.333 1.273.5 2.02.5zM173.117 1l-4.72 14h-1.56l-4.1-11.94-4.12 11.94h-1.54l-4.72-14h1.52l4.04 12.04L162.097 1h1.38l4.12 12.1 4.1-12.1h1.42zm5.293 3.4c1.373 0 2.427.347 3.16 1.04.733.68 1.1 1.693 1.1 3.04V15h-1.36v-1.64c-.32.547-.793.973-1.42 1.28-.613.307-1.347.46-2.2.46-1.173 0-2.107-.28-2.8-.84-.693-.56-1.04-1.3-1.04-2.22 0-.893.32-1.613.96-2.16.653-.547 1.687-.82 3.1-.82h3.34v-.64c0-.907-.253-1.593-.76-2.06-.507-.48-1.247-.72-2.22-.72-.667 0-1.307.113-1.92.34a4.706 4.706 0 00-1.58.9l-.64-1.06c.533-.453 1.173-.8 1.92-1.04a7.295 7.295 0 012.36-.38zm-.5 9.58c.8 0 1.487-.18 2.06-.54.573-.373 1-.907 1.28-1.6v-1.72h-3.3c-1.8 0-2.7.627-2.7 1.88 0 .613.233 1.1.7 1.46.467.347 1.12.52 1.96.52zM186.527.16h1.42V15h-1.42V.16zm9.271 9.56l-2.48 2.28v3h-1.42V.16h1.42v10.06l6.28-5.74h1.76l-4.5 4.3 4.92 6.22h-1.74l-4.24-5.28zm23.005-5.24L214.823 15h-1.34l-3.32-8.62-3.32 8.62h-1.34l-3.96-10.52h1.36l3.3 8.94 3.38-8.94h1.22l3.36 8.94 3.34-8.94h1.3zm5.505-.08c1.374 0 2.427.347 3.16 1.04.734.68 1.1 1.693 1.1 3.04V15h-1.36v-1.64c-.32.547-.793.973-1.42 1.28-.613.307-1.346.46-2.2.46-1.173 0-2.106-.28-2.8-.84-.693-.56-1.04-1.3-1.04-2.22 0-.893.32-1.613.96-2.16.654-.547 1.687-.82 3.1-.82h3.34v-.64c0-.907-.253-1.593-.76-2.06-.506-.48-1.246-.72-2.22-.72a5.5 5.5 0 00-1.92.34 4.706 4.706 0 00-1.58.9l-.64-1.06c.534-.453 1.174-.8 1.92-1.04a7.3 7.3 0 012.36-.38zm-.5 9.58c.8 0 1.487-.18 2.06-.54.574-.373 1-.907 1.28-1.6v-1.72h-3.3c-1.8 0-2.7.627-2.7 1.88 0 .613.234 1.1.7 1.46.467.347 1.12.52 1.96.52zm17.262-9.5l-5.26 11.78c-.427.987-.92 1.687-1.48 2.1-.56.413-1.233.62-2.02.62-.507 0-.98-.08-1.42-.24-.44-.16-.82-.4-1.14-.72l.66-1.06c.533.533 1.173.8 1.92.8.48 0 .887-.133 1.22-.4.347-.267.667-.72.96-1.36l.46-1.02-4.7-10.5h1.48l3.96 8.94 3.96-8.94h1.4z" fill="#fff"/></g><defs><filter id="filter0_d_159_29" x=".19" y=".16" width="244.88" height="26.82" filterUnits="userSpaceOnUse" color-interpolation-filters="sRGB"><feFlood flood-opacity="0" result="BackgroundImageFix"/><feColorMatrix in="SourceAlpha" values="0 0 0 0 0 0 0 0 0 0 0 0 0 0 0 0 0 0 127 0" result="hardAlpha"/><feOffset dy="4"/><feGaussianBlur stdDeviation="2"/><feComposite in2="hardAlpha" operator="out"/><feColorMatrix values="0 0 0 0 0 0 0 0 0 0 0 0 0 0 0 0 0 0 0.25 0"/><feBlend in2="BackgroundImageFix" result="effect1_dropShadow_159_29"/><feBlend in="SourceGraphic" in2="effect1_dropShadow_159_29" result="shape"/></filter></defs></svg>