<svg width="261" height="27" viewBox="0 0 261 27" fill="none" xmlns="http://www.w3.org/2000/svg"><g filter="url(#filter0_d_159_23)"><path d="M13.524 7.78c.92.2 1.627.6 2.12 1.2.507.587.76 1.347.76 2.28 0 1.2-.447 2.127-1.34 2.78-.88.64-2.187.96-3.92.96h-6.44V1h6.04c1.56 0 2.767.313 3.62.94.866.627 1.3 1.513 1.3 2.66 0 .773-.194 1.433-.58 1.98-.373.533-.893.933-1.56 1.2zm-7.34-5.56V7.3h4.46c1.133 0 2.006-.213 2.62-.64.613-.44.92-1.073.92-1.9s-.307-1.453-.92-1.88c-.614-.44-1.487-.66-2.62-.66h-4.46zm4.94 11.56c1.253 0 2.2-.213 2.84-.64.64-.427.96-1.093.96-2 0-1.747-1.267-2.62-3.8-2.62h-4.94v5.26h4.94zm17.518-3.6h-8.8c.08 1.093.5 1.98 1.26 2.66.76.667 1.72 1 2.88 1 .653 0 1.253-.113 1.8-.34a4.04 4.04 0 001.42-1.04l.8.92a4.49 4.49 0 01-1.76 1.28c-.693.293-1.46.44-2.3.44-1.08 0-2.04-.227-2.88-.68a5.064 5.064 0 01-1.94-1.92c-.467-.813-.7-1.733-.7-2.76 0-1.027.22-1.947.66-2.76a4.944 4.944 0 011.84-1.9c.787-.453 1.667-.68 2.64-.68.973 0 1.847.227 2.62.68a4.803 4.803 0 011.82 1.9c.44.8.66 1.72.66 2.76l-.02.44zm-5.08-4.56c-1.013 0-1.867.327-2.56.98-.68.64-1.067 1.48-1.16 2.52h7.46c-.093-1.04-.487-1.88-1.18-2.52-.68-.653-1.533-.98-2.56-.98zm7.99-1.14h1.42V15h-1.42V4.48zm.72-2.3c-.293 0-.54-.1-.74-.3-.2-.2-.3-.44-.3-.72 0-.267.1-.5.3-.7.2-.2.447-.3.74-.3.294 0 .54.1.74.3.2.187.3.413.3.68 0 .293-.1.54-.3.74-.2.2-.446.3-.74.3zm3.091 16.8c-.44 0-.853-.06-1.24-.18-.4-.107-.726-.273-.98-.5l.5-1.08c.414.36.96.54 1.64.54.56 0 .987-.167 1.28-.5.307-.333.46-.827.46-1.48V4.48h1.42v11.3c0 .987-.266 1.767-.8 2.34-.533.573-1.293.86-2.28.86zm2.38-16.82c-.293 0-.54-.1-.74-.3-.2-.2-.3-.44-.3-.72 0-.267.1-.5.3-.7.2-.2.447-.3.74-.3.294 0 .54.1.74.3.2.187.3.413.3.68 0 .293-.1.54-.3.74-.2.2-.446.3-.74.3zm4.669 2.32h1.42V15h-1.42V4.48zm.72-2.3c-.294 0-.54-.1-.74-.3-.2-.2-.3-.44-.3-.72 0-.267.1-.5.3-.7.2-.2.446-.3.74-.3.293 0 .54.1.74.3.2.187.3.413.3.68 0 .293-.1.54-.3.74-.2.2-.447.3-.74.3zm10.01 2.22c1.32 0 2.367.387 3.14 1.16.787.76 1.18 1.873 1.18 3.34V15h-1.42V9.04c0-1.093-.273-1.927-.82-2.5-.546-.573-1.326-.86-2.34-.86-1.133 0-2.033.34-2.7 1.02-.653.667-.98 1.593-.98 2.78V15h-1.42V4.48h1.36v1.94c.387-.64.92-1.133 1.6-1.48.694-.36 1.494-.54 2.4-.54zm17.955.08v9.24c0 1.787-.44 3.107-1.32 3.96-.867.867-2.18 1.3-3.94 1.3-.973 0-1.9-.147-2.78-.44-.867-.28-1.573-.673-2.12-1.18l.72-1.08c.507.453 1.12.807 1.84 1.06.733.253 1.5.38 2.3.38 1.333 0 2.313-.313 2.94-.94.627-.613.94-1.573.94-2.88v-1.34a4.264 4.264 0 01-1.74 1.52c-.707.347-1.493.52-2.36.52-.987 0-1.887-.213-2.7-.64a4.984 4.984 0 01-1.9-1.82c-.453-.787-.68-1.673-.68-2.66 0-.987.227-1.867.68-2.64a4.838 4.838 0 011.9-1.8c.8-.427 1.7-.64 2.7-.64.893 0 1.7.18 2.42.54.72.36 1.3.88 1.74 1.56V4.48h1.36zm-5.38 8.86c.76 0 1.447-.16 2.06-.48a3.539 3.539 0 001.42-1.38c.347-.587.52-1.253.52-2 0-.747-.173-1.407-.52-1.98a3.41 3.41 0 00-1.42-1.36c-.6-.333-1.287-.5-2.06-.5-.76 0-1.447.16-2.06.48-.6.32-1.073.773-1.42 1.36-.333.587-.5 1.253-.5 2 0 .747.167 1.413.5 2 .347.587.82 1.047 1.42 1.38.613.32 1.3.48 2.06.48zM83.322 2.28h-4.92V1h11.32v1.28h-4.92V15h-1.48V2.28zm16.53 7.9h-8.8c.08 1.093.5 1.98 1.26 2.66.76.667 1.72 1 2.88 1 .654 0 1.254-.113 1.8-.34a4.04 4.04 0 001.42-1.04l.8.92a4.49 4.49 0 01-1.76 1.28c-.692.293-1.46.44-2.3.44-1.08 0-2.04-.227-2.88-.68a5.064 5.064 0 01-1.94-1.92c-.466-.813-.7-1.733-.7-2.76 0-1.027.22-1.947.66-2.76a4.944 4.944 0 011.84-1.9c.788-.453 1.668-.68 2.64-.68.974 0 1.848.227 2.62.68a4.803 4.803 0 011.82 1.9c.44.8.66 1.72.66 2.76l-.02.44zm-5.08-4.56c-1.012 0-1.866.327-2.56.98-.68.64-1.066 1.48-1.16 2.52h7.46c-.092-1.04-.486-1.88-1.18-2.52-.68-.653-1.532-.98-2.56-.98zm21.111-1.22c1.32 0 2.354.38 3.1 1.14.76.76 1.14 1.88 1.14 3.36V15h-1.42V9.04c0-1.093-.266-1.927-.8-2.5-.52-.573-1.26-.86-2.22-.86-1.093 0-1.953.34-2.58 1.02-.626.667-.94 1.593-.94 2.78V15h-1.42V9.04c0-1.093-.266-1.927-.8-2.5-.52-.573-1.266-.86-2.24-.86-1.08 0-1.94.34-2.58 1.02-.626.667-.94 1.593-.94 2.78V15h-1.42V4.48h1.36V6.4a3.803 3.803 0 011.56-1.48c.667-.347 1.434-.52 2.3-.52.88 0 1.64.187 2.28.56.654.373 1.14.927 1.46 1.66a4.052 4.052 0 011.66-1.62c.734-.4 1.567-.6 2.5-.6zm13.511 0c.987 0 1.88.227 2.68.68.8.44 1.427 1.067 1.88 1.88.453.813.68 1.74.68 2.78 0 1.053-.227 1.987-.68 2.8a4.858 4.858 0 01-1.88 1.9c-.787.44-1.68.66-2.68.66-.853 0-1.627-.173-2.32-.52-.68-.36-1.24-.88-1.68-1.56v5.86h-1.42V4.48h1.36v2.08a4.399 4.399 0 011.68-1.6c.707-.373 1.5-.56 2.38-.56zm-.1 9.44c.733 0 1.4-.167 2-.5a3.601 3.601 0 001.4-1.46c.347-.627.52-1.34.52-2.14s-.173-1.507-.52-2.12a3.601 3.601 0 00-1.4-1.46 3.926 3.926 0 00-2-.52c-.747 0-1.42.173-2.02.52a3.784 3.784 0 00-1.4 1.46c-.333.613-.5 1.32-.5 2.12s.167 1.513.5 2.14a3.784 3.784 0 001.4 1.46c.6.333 1.273.5 2.02.5zM137.529.16h1.42V15h-1.42V.16zm14.531 10.02h-8.8c.08 1.093.5 1.98 1.26 2.66.76.667 1.72 1 2.88 1 .653 0 1.253-.113 1.8-.34a4.037 4.037 0 001.42-1.04l.8.92a4.49 4.49 0 01-1.76 1.28c-.693.293-1.46.44-2.3.44-1.08 0-2.04-.227-2.88-.68a5.064 5.064 0 01-1.94-1.92c-.467-.813-.7-1.733-.7-2.76 0-1.027.22-1.947.66-2.76a4.944 4.944 0 011.84-1.9c.787-.453 1.667-.68 2.64-.68.973 0 1.847.227 2.62.68a4.805 4.805 0 011.82 1.9c.44.8.66 1.72.66 2.76l-.02.44zm-5.08-4.56c-1.013 0-1.867.327-2.56.98-.68.64-1.067 1.48-1.16 2.52h7.46c-.093-1.04-.487-1.88-1.18-2.52-.68-.653-1.533-.98-2.56-.98zm17.525 9.48c-1.014 0-1.927-.227-2.74-.68a5.096 5.096 0 01-1.92-1.92c-.467-.813-.7-1.733-.7-2.76 0-1.027.233-1.947.7-2.76a4.952 4.952 0 011.92-1.9c.813-.453 1.726-.68 2.74-.68 1.013 0 1.926.227 2.74.68a4.829 4.829 0 011.9 1.9c.466.813.7 1.733.7 2.76 0 1.027-.234 1.947-.7 2.76a4.968 4.968 0 01-1.9 1.92c-.814.453-1.727.68-2.74.68zm0-1.26c.746 0 1.413-.167 2-.5a3.607 3.607 0 001.4-1.46c.333-.627.5-1.34.5-2.14s-.167-1.513-.5-2.14a3.476 3.476 0 00-1.4-1.44c-.587-.347-1.254-.52-2-.52-.747 0-1.42.173-2.02.52a3.634 3.634 0 00-1.4 1.44c-.334.627-.5 1.34-.5 2.14s.166 1.513.5 2.14a3.777 3.777 0 001.4 1.46c.6.333 1.273.5 2.02.5zm11.719-12.58c-.614 0-1.08.167-1.4.5-.307.333-.46.827-.46 1.48v1.24h3.24v1.2h-3.2V15h-1.42V5.68h-1.88v-1.2h1.88v-1.3c0-.96.273-1.72.82-2.28.56-.56 1.346-.84 2.36-.84.4 0 .786.06 1.16.18.373.107.686.267.94.48l-.48 1.06c-.414-.347-.934-.52-1.56-.52zM196.755 1v14h-1.46V8.54h-8.76V15h-1.48V1h1.48v6.24h8.76V1h1.46zm13.43 9.18h-8.8c.08 1.093.5 1.98 1.26 2.66.76.667 1.72 1 2.88 1 .653 0 1.253-.113 1.8-.34a4.037 4.037 0 001.42-1.04l.8.92a4.49 4.49 0 01-1.76 1.28c-.693.293-1.46.44-2.3.44-1.08 0-2.04-.227-2.88-.68a5.064 5.064 0 01-1.94-1.92c-.467-.813-.7-1.733-.7-2.76 0-1.027.22-1.947.66-2.76a4.944 4.944 0 011.84-1.9c.787-.453 1.667-.68 2.64-.68.973 0 1.847.227 2.62.68a4.805 4.805 0 011.82 1.9c.44.8.66 1.72.66 2.76l-.02.44zm-5.08-4.56c-1.013 0-1.867.327-2.56.98-.68.64-1.067 1.48-1.16 2.52h7.46c-.093-1.04-.487-1.88-1.18-2.52-.68-.653-1.533-.98-2.56-.98zm11.377-1.22c1.374 0 2.427.347 3.16 1.04.734.68 1.1 1.693 1.1 3.04V15h-1.36v-1.64c-.32.547-.793.973-1.42 1.28-.613.307-1.346.46-2.2.46-1.173 0-2.106-.28-2.8-.84-.693-.56-1.04-1.3-1.04-2.22 0-.893.32-1.613.96-2.16.654-.547 1.687-.82 3.1-.82h3.34v-.64c0-.907-.253-1.593-.76-2.06-.506-.48-1.246-.72-2.22-.72a5.5 5.5 0 00-1.92.34 4.706 4.706 0 00-1.58.9l-.64-1.06c.534-.453 1.174-.8 1.92-1.04a7.3 7.3 0 012.36-.38zm-.5 9.58c.8 0 1.487-.18 2.06-.54.574-.373 1-.907 1.28-1.6v-1.72h-3.3c-1.8 0-2.7.627-2.7 1.88 0 .613.234 1.1.7 1.46.467.347 1.12.52 1.96.52zm17.262-9.5L228.564 15h-1.46l-4.66-10.52h1.48l3.94 8.96 3.98-8.96h1.4zm10.867 5.7h-8.8c.08 1.093.5 1.98 1.26 2.66.76.667 1.72 1 2.88 1 .653 0 1.253-.113 1.8-.34a4.046 4.046 0 001.42-1.04l.8.92a4.497 4.497 0 01-1.76 1.28c-.694.293-1.46.44-2.3.44-1.08 0-2.04-.227-2.88-.68a5.058 5.058 0 01-1.94-1.92c-.467-.813-.7-1.733-.7-2.76 0-1.027.22-1.947.66-2.76a4.937 4.937 0 011.84-1.9c.786-.453 1.666-.68 2.64-.68.973 0 1.846.227 2.62.68a4.805 4.805 0 011.82 1.9c.44.8.66 1.72.66 2.76l-.02.44zm-5.08-4.56c-1.014 0-1.867.327-2.56.98-.68.64-1.067 1.48-1.16 2.52h7.46c-.094-1.04-.487-1.88-1.18-2.52-.68-.653-1.534-.98-2.56-.98zm13.35-1.22c1.32 0 2.367.387 3.14 1.16.787.76 1.18 1.873 1.18 3.34V15h-1.42V9.04c0-1.093-.273-1.927-.82-2.5-.547-.573-1.327-.86-2.34-.86-1.133 0-2.033.34-2.7 1.02-.653.667-.98 1.593-.98 2.78V15h-1.42V4.48h1.36v1.94a3.9 3.9 0 011.6-1.48c.693-.36 1.493-.54 2.4-.54z" fill="#fff"/></g><defs><filter id="filter0_d_159_23" x=".704" y=".06" width="259.998" height="26.92" filterUnits="userSpaceOnUse" color-interpolation-filters="sRGB"><feFlood flood-opacity="0" result="BackgroundImageFix"/><feColorMatrix in="SourceAlpha" values="0 0 0 0 0 0 0 0 0 0 0 0 0 0 0 0 0 0 127 0" result="hardAlpha"/><feOffset dy="4"/><feGaussianBlur stdDeviation="2"/><feComposite in2="hardAlpha" operator="out"/><feColorMatrix values="0 0 0 0 0 0 0 0 0 0 0 0 0 0 0 0 0 0 0.25 0"/><feBlend in2="BackgroundImageFix" result="effect1_dropShadow_159_23"/><feBlend in="SourceGraphic" in2="effect1_dropShadow_159_23" result="shape"/></filter></defs></svg>