<svg width="260" height="27" viewBox="0 0 260 27" fill="none" xmlns="http://www.w3.org/2000/svg"><g filter="url(#filter0_d_159_33)"><path d="M15.757 13.72V15H4.277v-1.02l9.28-11.7h-9.14V1h11.1v1.02l-9.26 11.7h9.5zm7.987-9.32c1.32 0 2.367.387 3.14 1.16.787.76 1.18 1.873 1.18 3.34V15h-1.42V9.04c0-1.093-.273-1.927-.82-2.5-.546-.573-1.326-.86-2.34-.86-1.133 0-2.033.34-2.7 1.02-.653.667-.98 1.593-.98 2.78V15h-1.42V.16h1.42v6.16a3.85 3.85 0 011.6-1.42c.68-.333 1.46-.5 2.34-.5zm11.855 0c1.374 0 2.427.347 3.16 1.04.734.68 1.1 1.693 1.1 3.04V15H38.5v-1.64c-.32.547-.793.973-1.42 1.28-.613.307-1.346.46-2.2.46-1.173 0-2.106-.28-2.8-.84-.693-.56-1.04-1.3-1.04-2.22 0-.893.32-1.613.96-2.16.654-.547 1.687-.82 3.1-.82h3.34v-.64c0-.907-.253-1.593-.76-2.06-.506-.48-1.246-.72-2.22-.72-.666 0-1.306.113-1.92.34a4.702 4.702 0 00-1.58.9l-.64-1.06c.534-.453 1.174-.8 1.92-1.04a7.295 7.295 0 012.36-.38zm-.5 9.58c.8 0 1.487-.18 2.06-.54.574-.373 1-.907 1.28-1.6v-1.72h-3.3c-1.8 0-2.7.627-2.7 1.88 0 .613.234 1.1.7 1.46.467.347 1.12.52 1.96.52zM49.076 4.4c1.32 0 2.367.387 3.14 1.16.787.76 1.18 1.873 1.18 3.34V15h-1.42V9.04c0-1.093-.273-1.927-.82-2.5-.546-.573-1.326-.86-2.34-.86-1.133 0-2.033.34-2.7 1.02-.653.667-.98 1.593-.98 2.78V15h-1.42V4.48h1.36v1.94c.387-.64.92-1.133 1.6-1.48.694-.36 1.494-.54 2.4-.54zm17.955.08v9.24c0 1.787-.44 3.107-1.32 3.96-.867.867-2.18 1.3-3.94 1.3-.974 0-1.9-.147-2.78-.44-.867-.28-1.574-.673-2.12-1.18l.72-1.08c.506.453 1.12.807 1.84 1.06.733.253 1.5.38 2.3.38 1.333 0 2.313-.313 2.94-.94.626-.613.94-1.573.94-2.88v-1.34a4.264 4.264 0 01-1.74 1.52c-.707.347-1.494.52-2.36.52-.987 0-1.887-.213-2.7-.64a4.985 4.985 0 01-1.9-1.82c-.454-.787-.68-1.673-.68-2.66 0-.987.226-1.867.68-2.64a4.838 4.838 0 011.9-1.8c.8-.427 1.7-.64 2.7-.64.893 0 1.7.18 2.42.54.72.36 1.3.88 1.74 1.56V4.48h1.36zm-5.38 8.86c.76 0 1.446-.16 2.06-.48a3.538 3.538 0 001.42-1.38c.346-.587.52-1.253.52-2 0-.747-.174-1.407-.52-1.98a3.408 3.408 0 00-1.42-1.36c-.6-.333-1.287-.5-2.06-.5-.76 0-1.447.16-2.06.48-.6.32-1.074.773-1.42 1.36-.334.587-.5 1.253-.5 2 0 .747.166 1.413.5 2 .346.587.82 1.047 1.42 1.38.613.32 1.3.48 2.06.48zm7.79 5.64c-.44 0-.853-.06-1.24-.18-.4-.107-.726-.273-.98-.5l.5-1.08c.414.36.96.54 1.64.54.56 0 .987-.167 1.28-.5.307-.333.46-.827.46-1.48V4.48h1.42v11.3c0 .987-.266 1.767-.8 2.34-.533.573-1.293.86-2.28.86zm2.38-16.82c-.293 0-.54-.1-.74-.3-.2-.2-.3-.44-.3-.72 0-.267.1-.5.3-.7.2-.2.447-.3.74-.3.294 0 .54.1.74.3.2.187.3.413.3.68 0 .293-.1.54-.3.74-.2.2-.446.3-.74.3zm4.669 2.32h1.42V15h-1.42V4.48zm.72-2.3c-.294 0-.54-.1-.74-.3-.2-.2-.3-.44-.3-.72 0-.267.1-.5.3-.7.2-.2.446-.3.74-.3.293 0 .54.1.74.3.2.187.3.413.3.68 0 .293-.1.54-.3.74-.2.2-.447.3-.74.3zm8.33 2.22c1.374 0 2.427.347 3.16 1.04.734.68 1.1 1.693 1.1 3.04V15h-1.36v-1.64c-.32.547-.793.973-1.42 1.28-.612.307-1.346.46-2.2.46-1.172 0-2.106-.28-2.8-.84-.692-.56-1.04-1.3-1.04-2.22 0-.893.32-1.613.96-2.16.654-.547 1.688-.82 3.1-.82h3.34v-.64c0-.907-.252-1.593-.76-2.06-.506-.48-1.246-.72-2.22-.72-.666 0-1.306.113-1.92.34a4.702 4.702 0 00-1.58.9l-.64-1.06c.534-.453 1.174-.8 1.92-1.04a7.295 7.295 0 012.36-.38zm-.5 9.58c.8 0 1.487-.18 2.06-.54.574-.373 1-.907 1.28-1.6v-1.72h-3.3c-1.8 0-2.7.627-2.7 1.88 0 .613.234 1.1.7 1.46.468.347 1.12.52 1.96.52zm7.058 5c-.44 0-.854-.06-1.24-.18-.4-.107-.727-.273-.98-.5l.5-1.08c.413.36.96.54 1.64.54.56 0 .986-.167 1.28-.5.306-.333.46-.827.46-1.48V4.48h1.42v11.3c0 .987-.267 1.767-.8 2.34-.534.573-1.294.86-2.28.86zm2.38-16.82c-.294 0-.54-.1-.74-.3-.2-.2-.3-.44-.3-.72 0-.267.1-.5.3-.7.2-.2.446-.3.74-.3.293 0 .54.1.74.3.2.187.3.413.3.68 0 .293-.1.54-.3.74-.2.2-.447.3-.74.3zm4.668 2.32h1.42V15h-1.42V4.48zm.72-2.3c-.293 0-.54-.1-.74-.3-.2-.2-.3-.44-.3-.72 0-.267.1-.5.3-.7.2-.2.447-.3.74-.3s.54.1.74.3c.2.187.3.413.3.68 0 .293-.1.54-.3.74-.2.2-.447.3-.74.3zm13.811 8h-8.8c.08 1.093.5 1.98 1.26 2.66.76.667 1.72 1 2.88 1 .653 0 1.253-.113 1.8-.34a4.037 4.037 0 001.42-1.04l.8.92a4.49 4.49 0 01-1.76 1.28c-.693.293-1.46.44-2.3.44-1.08 0-2.04-.227-2.88-.68a5.064 5.064 0 01-1.94-1.92c-.467-.813-.7-1.733-.7-2.76 0-1.027.22-1.947.66-2.76a4.944 4.944 0 011.84-1.9c.787-.453 1.667-.68 2.64-.68.973 0 1.847.227 2.62.68a4.805 4.805 0 011.82 1.9c.44.8.66 1.72.66 2.76l-.02.44zm-5.08-4.56c-1.013 0-1.867.327-2.56.98-.68.64-1.067 1.48-1.16 2.52h7.46c-.093-1.04-.487-1.88-1.18-2.52-.68-.653-1.533-.98-2.56-.98zM133.822 1v14h-1.22l-9-11.36V15h-1.48V1h1.22l9.02 11.36V1h1.46zm7.949 3.4c1.374 0 2.427.347 3.16 1.04.734.68 1.1 1.693 1.1 3.04V15h-1.36v-1.64c-.32.547-.793.973-1.42 1.28-.613.307-1.346.46-2.2.46-1.173 0-2.106-.28-2.8-.84-.693-.56-1.04-1.3-1.04-2.22 0-.893.32-1.613.96-2.16.654-.547 1.687-.82 3.1-.82h3.34v-.64c0-.907-.253-1.593-.76-2.06-.506-.48-1.246-.72-2.22-.72a5.5 5.5 0 00-1.92.34 4.706 4.706 0 00-1.58.9l-.64-1.06c.534-.453 1.174-.8 1.92-1.04a7.3 7.3 0 012.36-.38zm-.5 9.58c.8 0 1.487-.18 2.06-.54.574-.373 1-.907 1.28-1.6v-1.72h-3.3c-1.8 0-2.7.627-2.7 1.88 0 .613.234 1.1.7 1.46.467.347 1.12.52 1.96.52zm14.157.38c-.266.24-.6.427-1 .56-.386.12-.793.18-1.22.18-.986 0-1.746-.267-2.28-.8-.533-.533-.8-1.287-.8-2.26V5.68h-1.88v-1.2h1.88v-2.3h1.42v2.3h3.2v1.2h-3.2v6.28c0 .627.154 1.107.46 1.44.32.32.774.48 1.36.48.294 0 .574-.047.84-.14.28-.093.52-.227.72-.4l.5 1.02zm2.585-9.88h1.42V15h-1.42V4.48zm.72-2.3c-.293 0-.54-.1-.74-.3-.2-.2-.3-.44-.3-.72 0-.267.1-.5.3-.7.2-.2.447-.3.74-.3.294 0 .54.1.74.3.2.187.3.413.3.68 0 .293-.1.54-.3.74-.2.2-.446.3-.74.3zm8.951 12.92c-1.013 0-1.926-.227-2.74-.68a5.11 5.11 0 01-1.92-1.92c-.466-.813-.7-1.733-.7-2.76 0-1.027.234-1.947.7-2.76a4.965 4.965 0 011.92-1.9c.814-.453 1.727-.68 2.74-.68 1.014 0 1.927.227 2.74.68a4.816 4.816 0 011.9 1.9c.467.813.7 1.733.7 2.76 0 1.027-.233 1.947-.7 2.76a4.954 4.954 0 01-1.9 1.92c-.813.453-1.726.68-2.74.68zm0-1.26c.747 0 1.414-.167 2-.5a3.601 3.601 0 001.4-1.46c.334-.627.5-1.34.5-2.14s-.166-1.513-.5-2.14a3.47 3.47 0 00-1.4-1.44c-.586-.347-1.253-.52-2-.52-.746 0-1.42.173-2.02.52a3.647 3.647 0 00-1.4 1.44c-.333.627-.5 1.34-.5 2.14s.167 1.513.5 2.14a3.791 3.791 0 001.4 1.46c.6.333 1.274.5 2.02.5zm13.599-9.44c1.32 0 2.367.387 3.14 1.16.787.76 1.18 1.873 1.18 3.34V15h-1.42V9.04c0-1.093-.273-1.927-.82-2.5-.546-.573-1.326-.86-2.34-.86-1.133 0-2.033.34-2.7 1.02-.653.667-.98 1.593-.98 2.78V15h-1.42V4.48h1.36v1.94a3.9 3.9 0 011.6-1.48c.694-.36 1.494-.54 2.4-.54zm11.856 0c1.373 0 2.426.347 3.16 1.04.733.68 1.1 1.693 1.1 3.04V15h-1.36v-1.64c-.32.547-.794.973-1.42 1.28-.614.307-1.347.46-2.2.46-1.174 0-2.107-.28-2.8-.84-.694-.56-1.04-1.3-1.04-2.22 0-.893.32-1.613.96-2.16.653-.547 1.686-.82 3.1-.82h3.34v-.64c0-.907-.254-1.593-.76-2.06-.507-.48-1.247-.72-2.22-.72-.667 0-1.307.113-1.92.34a4.697 4.697 0 00-1.58.9l-.64-1.06c.533-.453 1.173-.8 1.92-1.04a7.29 7.29 0 012.36-.38zm-.5 9.58c.8 0 1.486-.18 2.06-.54.573-.373 1-.907 1.28-1.6v-1.72h-3.3c-1.8 0-2.7.627-2.7 1.88 0 .613.233 1.1.7 1.46.466.347 1.12.52 1.96.52zM201.255.16h1.42V15h-1.42V.16zm16.146.84c1.787 0 3.187.427 4.2 1.28 1.013.853 1.52 2.027 1.52 3.52 0 1.493-.507 2.667-1.52 3.52-1.013.84-2.413 1.26-4.2 1.26h-3.76V15h-1.48V1h5.24zm-.04 8.28c1.387 0 2.447-.3 3.18-.9.733-.613 1.1-1.473 1.1-2.58 0-1.133-.367-2-1.1-2.6-.733-.613-1.793-.92-3.18-.92h-3.72v7h3.72zm12.242-4.88c1.374 0 2.427.347 3.16 1.04.734.68 1.1 1.693 1.1 3.04V15h-1.36v-1.64c-.32.547-.793.973-1.42 1.28-.613.307-1.346.46-2.2.46-1.173 0-2.106-.28-2.8-.84-.693-.56-1.04-1.3-1.04-2.22 0-.893.32-1.613.96-2.16.654-.547 1.687-.82 3.1-.82h3.34v-.64c0-.907-.253-1.593-.76-2.06-.506-.48-1.246-.72-2.22-.72a5.5 5.5 0 00-1.92.34 4.706 4.706 0 00-1.58.9l-.64-1.06c.534-.453 1.174-.8 1.92-1.04a7.3 7.3 0 012.36-.38zm-.5 9.58c.8 0 1.487-.18 2.06-.54.574-.373 1-.907 1.28-1.6v-1.72h-3.3c-1.8 0-2.7.627-2.7 1.88 0 .613.234 1.1.7 1.46.467.347 1.12.52 1.96.52zm9.977-7.44c.334-.707.827-1.24 1.48-1.6.667-.36 1.487-.54 2.46-.54v1.38l-.34-.02c-1.106 0-1.973.34-2.6 1.02-.626.68-.94 1.633-.94 2.86V15h-1.42V4.48h1.36v2.06zm10.411 3.18l-2.48 2.28v3h-1.42V.16h1.42v10.06l6.28-5.74h1.76l-4.5 4.3 4.92 6.22h-1.74l-4.24-5.28z" fill="#fff"/></g><defs><filter id="filter0_d_159_33" x=".277" y=".14" width="259.194" height="26.84" filterUnits="userSpaceOnUse" color-interpolation-filters="sRGB"><feFlood flood-opacity="0" result="BackgroundImageFix"/><feColorMatrix in="SourceAlpha" values="0 0 0 0 0 0 0 0 0 0 0 0 0 0 0 0 0 0 127 0" result="hardAlpha"/><feOffset dy="4"/><feGaussianBlur stdDeviation="2"/><feComposite in2="hardAlpha" operator="out"/><feColorMatrix values="0 0 0 0 0 0 0 0 0 0 0 0 0 0 0 0 0 0 0.25 0"/><feBlend in2="BackgroundImageFix" result="effect1_dropShadow_159_33"/><feBlend in="SourceGraphic" in2="effect1_dropShadow_159_33" result="shape"/></filter></defs></svg>