<svg width="202" height="27" viewBox="0 0 202 27" fill="none" xmlns="http://www.w3.org/2000/svg"><g filter="url(#filter0_d_159_38)"><path d="M9.73 15.12c-1.04 0-2.04-.167-3-.5-.947-.333-1.68-.773-2.2-1.32l.58-1.14c.507.507 1.18.92 2.02 1.24.84.307 1.707.46 2.6.46 1.253 0 2.193-.227 2.82-.68.627-.467.94-1.067.94-1.8 0-.56-.174-1.007-.52-1.34a3.243 3.243 0 00-1.24-.76c-.494-.187-1.18-.387-2.06-.6-1.053-.267-1.893-.52-2.52-.76a4.32 4.32 0 01-1.62-1.14c-.44-.507-.66-1.193-.66-2.06 0-.707.187-1.347.56-1.92.373-.587.947-1.053 1.72-1.4S8.883.88 10.03.88c.8 0 1.58.113 2.34.34.773.213 1.44.513 2 .9l-.5 1.18a6.66 6.66 0 00-1.88-.86 6.8 6.8 0 00-1.96-.3c-1.227 0-2.153.24-2.78.72-.613.467-.92 1.073-.92 1.82 0 .56.167 1.013.5 1.36.347.333.773.593 1.28.78.52.173 1.213.367 2.08.58 1.027.253 1.853.507 2.48.76.64.24 1.18.613 1.62 1.12.44.493.66 1.167.66 2.02 0 .707-.193 1.353-.58 1.94-.373.573-.954 1.033-1.74 1.38-.787.333-1.754.5-2.9.5zm8.145-10.64h1.42V15h-1.42V4.48zm.72-2.3c-.294 0-.54-.1-.74-.3-.2-.2-.3-.44-.3-.72 0-.267.1-.5.3-.7.2-.2.446-.3.74-.3.293 0 .54.1.74.3.2.187.3.413.3.68 0 .293-.1.54-.3.74-.2.2-.447.3-.74.3zm9.01 12.92c-1.04 0-1.973-.227-2.8-.68a4.961 4.961 0 01-1.92-1.9c-.466-.827-.7-1.753-.7-2.78s.234-1.947.7-2.76a4.961 4.961 0 011.92-1.9c.827-.453 1.76-.68 2.8-.68.907 0 1.714.18 2.42.54.72.347 1.287.86 1.7 1.54l-1.06.72a3.24 3.24 0 00-1.32-1.16 3.836 3.836 0 00-1.74-.4c-.76 0-1.446.173-2.06.52-.6.333-1.073.813-1.42 1.44-.333.627-.5 1.34-.5 2.14 0 .813.167 1.533.5 2.16.347.613.82 1.093 1.42 1.44.614.333 1.3.5 2.06.5.627 0 1.207-.127 1.74-.38a3.24 3.24 0 001.32-1.16l1.06.72c-.413.68-.98 1.2-1.7 1.56-.72.347-1.526.52-2.42.52zM39.72 4.4c1.32 0 2.367.387 3.14 1.16.787.76 1.18 1.873 1.18 3.34V15h-1.42V9.04c0-1.093-.273-1.927-.82-2.5-.547-.573-1.327-.86-2.34-.86-1.133 0-2.033.34-2.7 1.02-.653.667-.98 1.593-.98 2.78V15h-1.42V.16h1.42v6.16a3.85 3.85 0 011.6-1.42c.68-.333 1.46-.5 2.34-.5zm17.655.08V15h-1.36v-1.92a3.966 3.966 0 01-1.54 1.5c-.653.347-1.4.52-2.24.52-1.373 0-2.46-.38-3.26-1.14-.787-.773-1.18-1.9-1.18-3.38v-6.1h1.42v5.96c0 1.107.273 1.947.82 2.52.547.573 1.327.86 2.34.86 1.107 0 1.98-.333 2.62-1 .64-.68.96-1.62.96-2.82V4.48h1.42zm7.657-.08c1.373 0 2.427.347 3.16 1.04.733.68 1.1 1.693 1.1 3.04V15h-1.36v-1.64c-.32.547-.793.973-1.42 1.28-.613.307-1.347.46-2.2.46-1.173 0-2.107-.28-2.8-.84-.693-.56-1.04-1.3-1.04-2.22 0-.893.32-1.613.96-2.16.653-.547 1.687-.82 3.1-.82h3.34v-.64c0-.907-.253-1.593-.76-2.06-.507-.48-1.247-.72-2.22-.72-.667 0-1.307.113-1.92.34a4.703 4.703 0 00-1.58.9l-.64-1.06c.533-.453 1.173-.8 1.92-1.04a7.295 7.295 0 012.36-.38zm-.5 9.58c.8 0 1.487-.18 2.06-.54.573-.373 1-.907 1.28-1.6v-1.72h-3.3c-1.8 0-2.7.627-2.7 1.88 0 .613.233 1.1.7 1.46.467.347 1.12.52 1.96.52zM78.508 4.4c1.32 0 2.367.387 3.14 1.16.787.76 1.18 1.873 1.18 3.34V15h-1.42V9.04c0-1.093-.273-1.927-.82-2.5-.547-.573-1.327-.86-2.34-.86-1.133 0-2.033.34-2.7 1.02-.653.667-.98 1.593-.98 2.78V15h-1.42V4.48h1.36v1.94c.387-.64.92-1.133 1.6-1.48.693-.36 1.493-.54 2.4-.54zm15.21 10.72c-.8 0-1.54-.173-2.22-.52a4.327 4.327 0 01-1.66-1.48l.88-1c.773 1.147 1.78 1.72 3.02 1.72 1.733 0 2.6-1.027 2.6-3.08V2.28h-5.12V1h6.58v9.7c0 1.467-.347 2.573-1.04 3.32-.68.733-1.694 1.1-3.04 1.1zm8.219-10.64h1.42V15h-1.42V4.48zm.72-2.3c-.293 0-.54-.1-.74-.3-.2-.2-.3-.44-.3-.72 0-.267.1-.5.3-.7.2-.2.447-.3.74-.3s.54.1.74.3c.2.187.3.413.3.68 0 .293-.1.54-.3.74-.2.2-.447.3-.74.3zm14.131 2.3V15h-1.36v-1.92a3.965 3.965 0 01-1.54 1.5c-.653.347-1.4.52-2.24.52-1.373 0-2.46-.38-3.26-1.14-.787-.773-1.18-1.9-1.18-3.38v-6.1h1.42v5.96c0 1.107.273 1.947.82 2.52.547.573 1.327.86 2.34.86 1.107 0 1.98-.333 2.62-1 .64-.68.96-1.62.96-2.82V4.48h1.42zm11.397 9.34V15h-8.56v-.94l6.62-8.38h-6.5v-1.2h8.32v.94l-6.62 8.4h6.74zm8.155-9.42c1.32 0 2.367.387 3.14 1.16.787.76 1.18 1.873 1.18 3.34V15h-1.42V9.04c0-1.093-.273-1.927-.82-2.5-.547-.573-1.327-.86-2.34-.86-1.133 0-2.033.34-2.7 1.02-.653.667-.98 1.593-.98 2.78V15h-1.42V.16h1.42v6.16A3.852 3.852 0 01134 4.9c.68-.333 1.46-.5 2.34-.5zm11.855 0c1.373 0 2.427.347 3.16 1.04.733.68 1.1 1.693 1.1 3.04V15h-1.36v-1.64c-.32.547-.793.973-1.42 1.28-.613.307-1.347.46-2.2.46-1.173 0-2.107-.28-2.8-.84-.693-.56-1.04-1.3-1.04-2.22 0-.893.32-1.613.96-2.16.653-.547 1.687-.82 3.1-.82h3.34v-.64c0-.907-.253-1.593-.76-2.06-.507-.48-1.247-.72-2.22-.72-.667 0-1.307.113-1.92.34a4.706 4.706 0 00-1.58.9l-.64-1.06c.533-.453 1.173-.8 1.92-1.04a7.295 7.295 0 012.36-.38zm-.5 9.58c.8 0 1.487-.18 2.06-.54.573-.373 1-.907 1.28-1.6v-1.72h-3.3c-1.8 0-2.7.627-2.7 1.88 0 .613.233 1.1.7 1.46.467.347 1.12.52 1.96.52zm8.617-9.5h1.42V15h-1.42V4.48zm.72-2.3c-.293 0-.54-.1-.74-.3-.2-.2-.3-.44-.3-.72 0-.267.1-.5.3-.7.2-.2.447-.3.74-.3s.54.1.74.3c.2.187.3.413.3.68 0 .293-.1.54-.3.74-.2.2-.447.3-.74.3zm14.391 2.3v9.24c0 1.787-.44 3.107-1.32 3.96-.867.867-2.18 1.3-3.94 1.3-.973 0-1.9-.147-2.78-.44-.867-.28-1.573-.673-2.12-1.18l.72-1.08c.507.453 1.12.807 1.84 1.06.733.253 1.5.38 2.3.38 1.333 0 2.313-.313 2.94-.94.627-.613.94-1.573.94-2.88v-1.34a4.264 4.264 0 01-1.74 1.52c-.707.347-1.493.52-2.36.52-.987 0-1.887-.213-2.7-.64a4.987 4.987 0 01-1.9-1.82c-.453-.787-.68-1.673-.68-2.66 0-.987.227-1.867.68-2.64a4.84 4.84 0 011.9-1.8c.8-.427 1.7-.64 2.7-.64.893 0 1.7.18 2.42.54.72.36 1.3.88 1.74 1.56V4.48h1.36zm-5.38 8.86c.76 0 1.447-.16 2.06-.48a3.538 3.538 0 001.42-1.38c.347-.587.52-1.253.52-2 0-.747-.173-1.407-.52-1.98a3.409 3.409 0 00-1.42-1.36c-.6-.333-1.287-.5-2.06-.5-.76 0-1.447.16-2.06.48-.6.32-1.073.773-1.42 1.36-.333.587-.5 1.253-.5 2 0 .747.167 1.413.5 2 .347.587.82 1.047 1.42 1.38.613.32 1.3.48 2.06.48zm13.651 1.76c-1.013 0-1.927-.227-2.74-.68a5.11 5.11 0 01-1.92-1.92c-.467-.813-.7-1.733-.7-2.76 0-1.027.233-1.947.7-2.76a4.965 4.965 0 011.92-1.9c.813-.453 1.727-.68 2.74-.68 1.013 0 1.927.227 2.74.68a4.823 4.823 0 011.9 1.9c.467.813.7 1.733.7 2.76 0 1.027-.233 1.947-.7 2.76a4.961 4.961 0 01-1.9 1.92c-.813.453-1.727.68-2.74.68zm0-1.26c.747 0 1.413-.167 2-.5a3.601 3.601 0 001.4-1.46c.333-.627.5-1.34.5-2.14s-.167-1.513-.5-2.14a3.47 3.47 0 00-1.4-1.44c-.587-.347-1.253-.52-2-.52-.747 0-1.42.173-2.02.52a3.64 3.64 0 00-1.4 1.44c-.333.627-.5 1.34-.5 2.14s.167 1.513.5 2.14a3.784 3.784 0 001.4 1.46c.6.333 1.273.5 2.02.5zm17.719-9.36V15h-1.36v-1.92a3.965 3.965 0 01-1.54 1.5c-.653.347-1.4.52-2.24.52-1.373 0-2.46-.38-3.26-1.14-.787-.773-1.18-1.9-1.18-3.38v-6.1h1.42v5.96c0 1.107.273 1.947.82 2.52.547.573 1.327.86 2.34.86 1.107 0 1.98-.333 2.62-1 .64-.68.96-1.62.96-2.82V4.48h1.42z" fill="#fff"/></g><defs><filter id="filter0_d_159_38" x=".53" y=".16" width="200.883" height="26.82" filterUnits="userSpaceOnUse" color-interpolation-filters="sRGB"><feFlood flood-opacity="0" result="BackgroundImageFix"/><feColorMatrix in="SourceAlpha" values="0 0 0 0 0 0 0 0 0 0 0 0 0 0 0 0 0 0 127 0" result="hardAlpha"/><feOffset dy="4"/><feGaussianBlur stdDeviation="2"/><feComposite in2="hardAlpha" operator="out"/><feColorMatrix values="0 0 0 0 0 0 0 0 0 0 0 0 0 0 0 0 0 0 0.25 0"/><feBlend in2="BackgroundImageFix" result="effect1_dropShadow_159_38"/><feBlend in="SourceGraphic" in2="effect1_dropShadow_159_38" result="shape"/></filter></defs></svg>