<svg width="164" height="24" viewBox="0 0 164 24" fill="none" xmlns="http://www.w3.org/2000/svg"><g filter="url(#filter0_d_166_12)"><path d="M15.533 15l-4.52-6.16-4.5 6.16h-1.7l5.32-7.2L5.153 1h1.7l4.22 5.72 4.2-5.72h1.6l-4.96 6.76 5.34 7.24h-1.72zm3.85-10.52h1.42V15h-1.42V4.48zm.72-2.3c-.294 0-.54-.1-.74-.3-.2-.2-.3-.44-.3-.72 0-.267.1-.5.3-.7.2-.2.446-.3.74-.3.293 0 .54.1.74.3.2.187.3.413.3.68 0 .293-.1.54-.3.74-.2.2-.447.3-.74.3zm4.81-2.12c.307 0 .56.107.76.32.2.2.3.453.3.76 0 .16-.026.333-.08.52-.04.173-.1.38-.18.62l-.86 2.76h-.96l.7-2.88a1.026 1.026 0 01-.54-.36 1.106 1.106 0 01-.2-.66c0-.32.1-.58.3-.78.2-.2.454-.3.76-.3zm7.563 4.34c1.374 0 2.427.347 3.16 1.04.734.68 1.1 1.693 1.1 3.04V15h-1.36v-1.64c-.32.547-.793.973-1.42 1.28-.613.307-1.346.46-2.2.46-1.173 0-2.106-.28-2.8-.84-.693-.56-1.04-1.3-1.04-2.22 0-.893.32-1.613.96-2.16.654-.547 1.687-.82 3.1-.82h3.34v-.64c0-.907-.253-1.593-.76-2.06-.506-.48-1.246-.72-2.22-.72-.666 0-1.306.113-1.92.34a4.703 4.703 0 00-1.58.9l-.64-1.06c.534-.453 1.174-.8 1.92-1.04a7.295 7.295 0 012.36-.38zm-.5 9.58c.8 0 1.487-.18 2.06-.54.574-.373 1-.907 1.28-1.6v-1.72h-3.3c-1.8 0-2.7.627-2.7 1.88 0 .613.234 1.1.7 1.46.467.347 1.12.52 1.96.52zM45.953 4.4c1.32 0 2.367.387 3.14 1.16.787.76 1.18 1.873 1.18 3.34V15h-1.42V9.04c0-1.093-.273-1.927-.82-2.5-.546-.573-1.326-.86-2.34-.86-1.133 0-2.033.34-2.7 1.02-.653.667-.98 1.593-.98 2.78V15h-1.42V4.48h1.36v1.94c.387-.64.92-1.133 1.6-1.48.694-.36 1.494-.54 2.4-.54zm22.53 3.38c.92.2 1.626.6 2.12 1.2.507.587.76 1.347.76 2.28 0 1.2-.447 2.127-1.34 2.78-.88.64-2.187.96-3.92.96h-6.44V1h6.04c1.56 0 2.766.313 3.62.94.867.627 1.3 1.513 1.3 2.66 0 .773-.194 1.433-.58 1.98-.374.533-.894.933-1.56 1.2zm-7.34-5.56V7.3h4.46c1.133 0 2.007-.213 2.62-.64.613-.44.92-1.073.92-1.9s-.307-1.453-.92-1.88c-.614-.44-1.487-.66-2.62-.66h-4.46zm4.94 11.56c1.253 0 2.2-.213 2.84-.64.64-.427.96-1.093.96-2 0-1.747-1.267-2.62-3.8-2.62h-4.94v5.26h4.94zm17.518-3.6h-8.8c.08 1.093.5 1.98 1.26 2.66.76.667 1.72 1 2.88 1 .653 0 1.253-.113 1.8-.34a4.04 4.04 0 001.42-1.04l.8.92a4.49 4.49 0 01-1.76 1.28c-.693.293-1.46.44-2.3.44-1.08 0-2.04-.227-2.88-.68a5.065 5.065 0 01-1.94-1.92c-.467-.813-.7-1.733-.7-2.76 0-1.027.22-1.947.66-2.76a4.945 4.945 0 011.84-1.9c.787-.453 1.667-.68 2.64-.68.973 0 1.847.227 2.62.68a4.803 4.803 0 011.82 1.9c.44.8.66 1.72.66 2.76l-.02.44zm-5.08-4.56c-1.013 0-1.867.327-2.56.98-.68.64-1.067 1.48-1.16 2.52h7.46c-.093-1.04-.487-1.88-1.18-2.52-.68-.653-1.533-.98-2.56-.98zM86.51.16h1.42V15h-1.42V.16zm5.371 0h1.42V15h-1.42V.16zm13.626 2.12h-4.92V1h11.32v1.28h-4.92V15h-1.48V2.28zm11.67 12.82c-1.013 0-1.926-.227-2.74-.68a5.11 5.11 0 01-1.92-1.92c-.466-.813-.7-1.733-.7-2.76 0-1.027.234-1.947.7-2.76a4.965 4.965 0 011.92-1.9c.814-.453 1.727-.68 2.74-.68 1.014 0 1.927.227 2.74.68a4.816 4.816 0 011.9 1.9c.467.813.7 1.733.7 2.76 0 1.027-.233 1.947-.7 2.76a4.954 4.954 0 01-1.9 1.92c-.813.453-1.726.68-2.74.68zm0-1.26c.747 0 1.414-.167 2-.5a3.601 3.601 0 001.4-1.46c.334-.627.5-1.34.5-2.14s-.166-1.513-.5-2.14a3.47 3.47 0 00-1.4-1.44c-.586-.347-1.253-.52-2-.52-.746 0-1.42.173-2.02.52a3.647 3.647 0 00-1.4 1.44c-.333.627-.5 1.34-.5 2.14s.167 1.513.5 2.14a3.791 3.791 0 001.4 1.46c.6.333 1.274.5 2.02.5zm23.387-9.36L136.585 15h-1.34l-3.32-8.62-3.32 8.62h-1.34l-3.96-10.52h1.36l3.3 8.94 3.38-8.94h1.22l3.36 8.94 3.34-8.94h1.3zm11.005 5.7h-8.8c.08 1.093.5 1.98 1.26 2.66.76.667 1.72 1 2.88 1 .653 0 1.253-.113 1.8-.34a4.046 4.046 0 001.42-1.04l.8.92a4.497 4.497 0 01-1.76 1.28c-.694.293-1.46.44-2.3.44-1.08 0-2.04-.227-2.88-.68a5.058 5.058 0 01-1.94-1.92c-.467-.813-.7-1.733-.7-2.76 0-1.027.22-1.947.66-2.76a4.937 4.937 0 011.84-1.9c.786-.453 1.666-.68 2.64-.68.973 0 1.846.227 2.62.68a4.805 4.805 0 011.82 1.9c.44.8.66 1.72.66 2.76l-.02.44zm-5.08-4.56c-1.014 0-1.867.327-2.56.98-.68.64-1.067 1.48-1.16 2.52h7.46c-.094-1.04-.487-1.88-1.18-2.52-.68-.653-1.534-.98-2.56-.98zm9.35.92a3.454 3.454 0 011.48-1.6c.667-.36 1.487-.54 2.46-.54v1.38l-.34-.02c-1.107 0-1.973.34-2.6 1.02-.627.68-.94 1.633-.94 2.86V15h-1.42V4.48h1.36v2.06z" fill="#fff"/></g><defs><filter id="filter0_d_166_12" x=".813" y=".06" width="162.967" height="23.04" filterUnits="userSpaceOnUse" color-interpolation-filters="sRGB"><feFlood flood-opacity="0" result="BackgroundImageFix"/><feColorMatrix in="SourceAlpha" values="0 0 0 0 0 0 0 0 0 0 0 0 0 0 0 0 0 0 127 0" result="hardAlpha"/><feOffset dy="4"/><feGaussianBlur stdDeviation="2"/><feComposite in2="hardAlpha" operator="out"/><feColorMatrix values="0 0 0 0 0 0 0 0 0 0 0 0 0 0 0 0 0 0 0.25 0"/><feBlend in2="BackgroundImageFix" result="effect1_dropShadow_166_12"/><feBlend in="SourceGraphic" in2="effect1_dropShadow_166_12" result="shape"/></filter></defs></svg>