<svg width="269" height="27" viewBox="0 0 269 27" fill="none" xmlns="http://www.w3.org/2000/svg"><g filter="url(#filter0_d_166_5)"><path d="M15.81 8h1.42v5.34a6.84 6.84 0 01-2.32 1.32 8.623 8.623 0 01-2.82.46c-1.4 0-2.66-.307-3.78-.92-1.12-.613-2-1.46-2.64-2.54-.64-1.093-.96-2.313-.96-3.66s.32-2.56.96-3.64A6.769 6.769 0 018.31 1.8c1.12-.613 2.387-.92 3.8-.92 1.067 0 2.047.173 2.94.52a5.749 5.749 0 012.26 1.5l-.92.94c-1.107-1.093-2.513-1.64-4.22-1.64-1.133 0-2.16.253-3.08.76a5.44 5.44 0 00-2.14 2.08c-.52.88-.78 1.867-.78 2.96s.26 2.08.78 2.96a5.627 5.627 0 002.14 2.08c.907.507 1.927.76 3.06.76 1.44 0 2.66-.36 3.66-1.08V8zm14.789-3.52V15h-1.36v-1.92a3.966 3.966 0 01-1.54 1.5c-.654.347-1.4.52-2.24.52-1.374 0-2.46-.38-3.26-1.14-.787-.773-1.18-1.9-1.18-3.38v-6.1h1.42v5.96c0 1.107.273 1.947.82 2.52.546.573 1.326.86 2.34.86 1.106 0 1.98-.333 2.62-1 .64-.68.96-1.62.96-2.82V4.48h1.42zm7.657-.08c1.373 0 2.426.347 3.16 1.04.733.68 1.1 1.693 1.1 3.04V15h-1.36v-1.64c-.32.547-.794.973-1.42 1.28-.614.307-1.347.46-2.2.46-1.174 0-2.107-.28-2.8-.84-.694-.56-1.04-1.3-1.04-2.22 0-.893.32-1.613.96-2.16.653-.547 1.686-.82 3.1-.82h3.34v-.64c0-.907-.254-1.593-.76-2.06-.507-.48-1.247-.72-2.22-.72-.667 0-1.307.113-1.92.34a4.703 4.703 0 00-1.58.9l-.64-1.06c.533-.453 1.173-.8 1.92-1.04a7.295 7.295 0 012.36-.38zm-.5 9.58c.8 0 1.486-.18 2.06-.54.573-.373 1-.907 1.28-1.6v-1.72h-3.3c-1.8 0-2.7.627-2.7 1.88 0 .613.233 1.1.7 1.46.466.347 1.12.52 1.96.52zM51.733 4.4c1.32 0 2.366.387 3.14 1.16.786.76 1.18 1.873 1.18 3.34V15h-1.42V9.04c0-1.093-.274-1.927-.82-2.5-.547-.573-1.327-.86-2.34-.86-1.134 0-2.034.34-2.7 1.02-.654.667-.98 1.593-.98 2.78V15h-1.42V4.48h1.36v1.94c.386-.64.92-1.133 1.6-1.48.693-.36 1.493-.54 2.4-.54zm17.954.08v9.24c0 1.787-.44 3.107-1.32 3.96-.867.867-2.18 1.3-3.94 1.3-.974 0-1.9-.147-2.78-.44-.867-.28-1.573-.673-2.12-1.18l.72-1.08c.507.453 1.12.807 1.84 1.06.733.253 1.5.38 2.3.38 1.333 0 2.313-.313 2.94-.94.627-.613.94-1.573.94-2.88v-1.34a4.264 4.264 0 01-1.74 1.52c-.707.347-1.493.52-2.36.52-.987 0-1.887-.213-2.7-.64a4.985 4.985 0 01-1.9-1.82c-.453-.787-.68-1.673-.68-2.66 0-.987.227-1.867.68-2.64a4.838 4.838 0 011.9-1.8c.8-.427 1.7-.64 2.7-.64.893 0 1.7.18 2.42.54.72.36 1.3.88 1.74 1.56V4.48h1.36zm-5.38 8.86c.76 0 1.447-.16 2.06-.48a3.538 3.538 0 001.42-1.38c.346-.587.52-1.253.52-2 0-.747-.174-1.407-.52-1.98a3.409 3.409 0 00-1.42-1.36c-.6-.333-1.287-.5-2.06-.5-.76 0-1.447.16-2.06.48-.6.32-1.074.773-1.42 1.36-.334.587-.5 1.253-.5 2 0 .747.166 1.413.5 2 .346.587.82 1.047 1.42 1.38.613.32 1.3.48 2.06.48zm16.77.48V15h-8.56v-.94l6.62-8.38h-6.5v-1.2h8.32v.94l-6.62 8.4h6.74zm8.156-9.42c1.32 0 2.366.387 3.14 1.16.786.76 1.18 1.873 1.18 3.34V15h-1.42V9.04c0-1.093-.274-1.927-.82-2.5-.547-.573-1.327-.86-2.34-.86-1.134 0-2.034.34-2.7 1.02-.654.667-.98 1.593-.98 2.78V15h-1.42V.16h1.42v6.16a3.85 3.85 0 011.6-1.42c.68-.333 1.46-.5 2.34-.5zm12.514 10.7c-1.014 0-1.927-.227-2.74-.68a5.106 5.106 0 01-1.92-1.92c-.467-.813-.7-1.733-.7-2.76 0-1.027.233-1.947.7-2.76a4.961 4.961 0 011.92-1.9c.813-.453 1.726-.68 2.74-.68 1.013 0 1.926.227 2.74.68a4.829 4.829 0 011.9 1.9c.466.813.7 1.733.7 2.76 0 1.027-.234 1.947-.7 2.76a4.968 4.968 0 01-1.9 1.92c-.814.453-1.727.68-2.74.68zm0-1.26c.746 0 1.413-.167 2-.5a3.607 3.607 0 001.4-1.46c.333-.627.5-1.34.5-2.14s-.167-1.513-.5-2.14a3.476 3.476 0 00-1.4-1.44c-.587-.347-1.254-.52-2-.52-.747 0-1.42.173-2.02.52a3.64 3.64 0 00-1.4 1.44c-.334.627-.5 1.34-.5 2.14s.166 1.513.5 2.14a3.784 3.784 0 001.4 1.46c.6.333 1.273.5 2.02.5zm17.719-9.36V15h-1.36v-1.92a3.965 3.965 0 01-1.54 1.5c-.653.347-1.4.52-2.24.52-1.373 0-2.46-.38-3.26-1.14-.787-.773-1.18-1.9-1.18-3.38v-6.1h1.42v5.96c0 1.107.273 1.947.82 2.52.547.573 1.327.86 2.34.86 1.107 0 1.98-.333 2.62-1 .64-.68.96-1.62.96-2.82V4.48h1.42zm15.591 10.64c-1.386 0-2.64-.307-3.76-.92a6.855 6.855 0 01-2.62-2.54c-.626-1.093-.94-2.313-.94-3.66s.314-2.56.94-3.64a6.769 6.769 0 012.64-2.56c1.12-.613 2.374-.92 3.76-.92 1.04 0 2 .173 2.88.52.88.347 1.627.853 2.24 1.52l-.94.94c-1.093-1.107-2.473-1.66-4.14-1.66-1.106 0-2.113.253-3.02.76a5.631 5.631 0 00-2.14 2.08c-.506.88-.76 1.867-.76 2.96s.254 2.08.76 2.96a5.632 5.632 0 002.14 2.08c.907.507 1.914.76 3.02.76 1.68 0 3.06-.56 4.14-1.68l.94.94a6.131 6.131 0 01-2.26 1.54c-.88.347-1.84.52-2.88.52zM146.576 4.4c1.373 0 2.427.347 3.16 1.04.733.68 1.1 1.693 1.1 3.04V15h-1.36v-1.64c-.32.547-.793.973-1.42 1.28-.613.307-1.347.46-2.2.46-1.173 0-2.107-.28-2.8-.84-.693-.56-1.04-1.3-1.04-2.22 0-.893.32-1.613.96-2.16.653-.547 1.687-.82 3.1-.82h3.34v-.64c0-.907-.253-1.593-.76-2.06-.507-.48-1.247-.72-2.22-.72-.667 0-1.307.113-1.92.34a4.706 4.706 0 00-1.58.9l-.64-1.06c.533-.453 1.173-.8 1.92-1.04a7.295 7.295 0 012.36-.38zm-.5 9.58c.8 0 1.487-.18 2.06-.54.573-.373 1-.907 1.28-1.6v-1.72h-3.3c-1.8 0-2.7.627-2.7 1.88 0 .613.233 1.1.7 1.46.467.347 1.12.52 1.96.52zm13.977-9.58c1.32 0 2.367.387 3.14 1.16.787.76 1.18 1.873 1.18 3.34V15h-1.42V9.04c0-1.093-.273-1.927-.82-2.5-.547-.573-1.327-.86-2.34-.86-1.133 0-2.033.34-2.7 1.02-.653.667-.98 1.593-.98 2.78V15h-1.42V4.48h1.36v1.94a3.9 3.9 0 011.6-1.48c.693-.36 1.493-.54 2.4-.54zm13.715 9.96c-.267.24-.6.427-1 .56-.387.12-.793.18-1.22.18-.987 0-1.747-.267-2.28-.8-.533-.533-.8-1.287-.8-2.26V5.68h-1.88v-1.2h1.88v-2.3h1.42v2.3h3.2v1.2h-3.2v6.28c0 .627.153 1.107.46 1.44.32.32.773.48 1.36.48.293 0 .573-.047.84-.14.28-.093.52-.227.72-.4l.5 1.02zm6.514.74c-1.013 0-1.927-.227-2.74-.68a5.11 5.11 0 01-1.92-1.92c-.467-.813-.7-1.733-.7-2.76 0-1.027.233-1.947.7-2.76a4.965 4.965 0 011.92-1.9c.813-.453 1.727-.68 2.74-.68 1.013 0 1.927.227 2.74.68a4.823 4.823 0 011.9 1.9c.467.813.7 1.733.7 2.76 0 1.027-.233 1.947-.7 2.76a4.961 4.961 0 01-1.9 1.92c-.813.453-1.727.68-2.74.68zm0-1.26c.747 0 1.413-.167 2-.5a3.601 3.601 0 001.4-1.46c.333-.627.5-1.34.5-2.14s-.167-1.513-.5-2.14a3.47 3.47 0 00-1.4-1.44c-.587-.347-1.253-.52-2-.52-.747 0-1.42.173-2.02.52a3.64 3.64 0 00-1.4 1.44c-.333.627-.5 1.34-.5 2.14s.167 1.513.5 2.14a3.784 3.784 0 001.4 1.46c.6.333 1.273.5 2.02.5zm13.599-9.44c1.32 0 2.367.387 3.14 1.16.787.76 1.18 1.873 1.18 3.34V15h-1.42V9.04c0-1.093-.273-1.927-.82-2.5-.547-.573-1.327-.86-2.34-.86-1.133 0-2.033.34-2.7 1.02-.653.667-.98 1.593-.98 2.78V15h-1.42V4.48h1.36v1.94a3.9 3.9 0 011.6-1.48c.693-.36 1.493-.54 2.4-.54zm16.43-2.12h-4.92V1h11.32v1.28h-4.92V15h-1.48V2.28zm11.67 12.82c-1.013 0-1.926-.227-2.74-.68a5.11 5.11 0 01-1.92-1.92c-.466-.813-.7-1.733-.7-2.76 0-1.027.234-1.947.7-2.76a4.965 4.965 0 011.92-1.9c.814-.453 1.727-.68 2.74-.68 1.014 0 1.927.227 2.74.68a4.816 4.816 0 011.9 1.9c.467.813.7 1.733.7 2.76 0 1.027-.233 1.947-.7 2.76a4.954 4.954 0 01-1.9 1.92c-.813.453-1.726.68-2.74.68zm0-1.26c.747 0 1.414-.167 2-.5a3.601 3.601 0 001.4-1.46c.334-.627.5-1.34.5-2.14s-.166-1.513-.5-2.14a3.47 3.47 0 00-1.4-1.44c-.586-.347-1.253-.52-2-.52-.746 0-1.42.173-2.02.52a3.647 3.647 0 00-1.4 1.44c-.333.627-.5 1.34-.5 2.14s.167 1.513.5 2.14a3.791 3.791 0 001.4 1.46c.6.333 1.274.5 2.02.5zm23.386-9.36L241.387 15h-1.34l-3.32-8.62-3.32 8.62h-1.34l-3.96-10.52h1.36l3.3 8.94 3.38-8.94h1.22l3.36 8.94 3.34-8.94h1.3zm11.005 5.7h-8.8c.08 1.093.5 1.98 1.26 2.66.76.667 1.72 1 2.88 1a4.65 4.65 0 001.8-.34 4.037 4.037 0 001.42-1.04l.8.92a4.483 4.483 0 01-1.76 1.28c-.693.293-1.46.44-2.3.44-1.08 0-2.04-.227-2.88-.68a5.071 5.071 0 01-1.94-1.92c-.466-.813-.7-1.733-.7-2.76 0-1.027.22-1.947.66-2.76a4.952 4.952 0 011.84-1.9c.787-.453 1.667-.68 2.64-.68.974 0 1.847.227 2.62.68a4.799 4.799 0 011.82 1.9c.44.8.66 1.72.66 2.76l-.02.44zm-5.08-4.56c-1.013 0-1.866.327-2.56.98-.68.64-1.066 1.48-1.16 2.52h7.46c-.093-1.04-.486-1.88-1.18-2.52-.68-.653-1.533-.98-2.56-.98zm9.351.92c.333-.707.826-1.24 1.48-1.6.666-.36 1.486-.54 2.46-.54v1.38l-.34-.02c-1.107 0-1.974.34-2.6 1.02-.627.68-.94 1.633-.94 2.86V15h-1.42V4.48h1.36v2.06z" fill="#fff"/></g><defs><filter id="filter0_d_166_5" x=".71" y=".16" width="267.873" height="26.82" filterUnits="userSpaceOnUse" color-interpolation-filters="sRGB"><feFlood flood-opacity="0" result="BackgroundImageFix"/><feColorMatrix in="SourceAlpha" values="0 0 0 0 0 0 0 0 0 0 0 0 0 0 0 0 0 0 127 0" result="hardAlpha"/><feOffset dy="4"/><feGaussianBlur stdDeviation="2"/><feComposite in2="hardAlpha" operator="out"/><feColorMatrix values="0 0 0 0 0 0 0 0 0 0 0 0 0 0 0 0 0 0 0.25 0"/><feBlend in2="BackgroundImageFix" result="effect1_dropShadow_166_5"/><feBlend in="SourceGraphic" in2="effect1_dropShadow_166_5" result="shape"/></filter></defs></svg>