<svg width="86" height="21" viewBox="0 0 86 21" fill="none" xmlns="http://www.w3.org/2000/svg"><path d="M.042.4h2.072v17.808H13.09V20H.042V.4zm21.87 19.74c-1.42 0-2.698-.317-3.837-.952a7.147 7.147 0 01-2.688-2.688c-.653-1.139-.98-2.427-.98-3.864 0-1.437.327-2.725.98-3.864a6.946 6.946 0 012.688-2.66c1.139-.635 2.418-.952 3.836-.952 1.419 0 2.697.317 3.836.952a6.751 6.751 0 012.66 2.66c.654 1.139.98 2.427.98 3.864 0 1.437-.326 2.725-.98 3.864a6.944 6.944 0 01-2.66 2.688c-1.139.635-2.417.952-3.836.952zm0-1.764c1.044 0 1.978-.233 2.8-.7a5.044 5.044 0 001.96-2.044c.466-.877.7-1.876.7-2.996s-.234-2.119-.7-2.996a4.86 4.86 0 00-1.96-2.016c-.822-.485-1.756-.728-2.8-.728-1.046 0-1.989.243-2.829.728-.821.467-1.474 1.139-1.96 2.016-.466.877-.7 1.876-.7 2.996s.234 2.119.7 2.996c.485.877 1.139 1.559 1.96 2.044.84.467 1.783.7 2.828.7zM35.35 8.156c.466-.99 1.157-1.736 2.072-2.24.933-.504 2.081-.756 3.444-.756v1.932l-.476-.028c-1.55 0-2.763.476-3.64 1.428-.877.952-1.316 2.287-1.316 4.004V20h-1.988V5.272h1.904v2.884zm21.803 5.096h-12.32c.112 1.53.7 2.772 1.764 3.724 1.064.933 2.408 1.4 4.032 1.4.914 0 1.754-.159 2.52-.476a5.654 5.654 0 001.988-1.456l1.12 1.288a6.286 6.286 0 01-2.464 1.792c-.971.41-2.044.616-3.22.616-1.512 0-2.856-.317-4.032-.952a7.09 7.09 0 01-2.716-2.688c-.654-1.139-.98-2.427-.98-3.864 0-1.437.308-2.725.924-3.864.634-1.139 1.493-2.025 2.576-2.66 1.101-.635 2.333-.952 3.696-.952 1.362 0 2.585.317 3.668.952 1.082.635 1.932 1.521 2.548 2.66.616 1.12.924 2.408.924 3.864l-.028.616zM50.04 6.868c-1.419 0-2.614.457-3.584 1.372-.952.896-1.494 2.072-1.624 3.528h10.444c-.131-1.456-.682-2.632-1.652-3.528-.952-.915-2.147-1.372-3.584-1.372zM79.595 5.16c1.848 0 3.295.532 4.34 1.596C85 7.82 85.531 9.388 85.531 11.46V20h-1.988v-8.344c0-1.53-.373-2.697-1.12-3.5-.728-.803-1.764-1.204-3.108-1.204-1.53 0-2.735.476-3.612 1.428-.877.933-1.316 2.23-1.316 3.892V20H72.4v-8.344c0-1.53-.373-2.697-1.12-3.5-.728-.803-1.773-1.204-3.136-1.204-1.512 0-2.716.476-3.612 1.428-.877.933-1.316 2.23-1.316 3.892V20h-1.988V5.272h1.904V7.96a5.311 5.311 0 012.184-2.072c.933-.485 2.007-.728 3.22-.728 1.232 0 2.296.261 3.192.784.915.523 1.596 1.297 2.044 2.324A5.67 5.67 0 0176.095 6c1.027-.56 2.193-.84 3.5-.84z" fill="#000"/></svg>