<svg width="397" height="55" viewBox="0 0 397 55" fill="none" xmlns="http://www.w3.org/2000/svg"><path d="M40.156 40.536h-28.08L6.028 54H.484l23.04-50.4h5.256L51.82 54h-5.616l-6.048-13.464zm-1.944-4.32L26.116 9.144 14.02 36.216h24.192zm40.458 15.48c-.96.864-2.16 1.536-3.6 2.016a14.734 14.734 0 01-4.392.648c-3.552 0-6.288-.96-8.208-2.88s-2.88-4.632-2.88-8.136V20.448h-6.768v-4.32h6.768v-8.28h5.112v8.28h11.52v4.32h-11.52v22.608c0 2.256.552 3.984 1.656 5.184 1.152 1.152 2.784 1.728 4.896 1.728a9.087 9.087 0 003.024-.504c1.008-.336 1.872-.816 2.592-1.44l1.8 3.672zm28.265 0c-.96.864-2.16 1.536-3.6 2.016a14.733 14.733 0 01-4.392.648c-3.552 0-6.288-.96-8.208-2.88s-2.88-4.632-2.88-8.136V20.448h-6.768v-4.32h6.768v-8.28h5.112v8.28h11.52v4.32h-11.52v22.608c0 2.256.552 3.984 1.656 5.184 1.152 1.152 2.784 1.728 4.896 1.728a9.087 9.087 0 003.024-.504c1.008-.336 1.872-.816 2.592-1.44l1.8 3.672zm14.202-28.152c1.2-2.544 2.976-4.464 5.328-5.76 2.4-1.296 5.352-1.944 8.856-1.944v4.968l-1.224-.072c-3.984 0-7.104 1.224-9.36 3.672-2.256 2.448-3.384 5.88-3.384 10.296V54h-5.112V16.128h4.896v7.416zm36.618-7.704c4.944 0 8.736 1.248 11.376 3.744 2.64 2.448 3.96 6.096 3.96 10.944V54h-4.896v-5.904c-1.152 1.968-2.856 3.504-5.112 4.608-2.208 1.104-4.848 1.656-7.92 1.656-4.224 0-7.584-1.008-10.08-3.024-2.496-2.016-3.744-4.68-3.744-7.992 0-3.216 1.152-5.808 3.456-7.776 2.352-1.968 6.072-2.952 11.16-2.952h12.024v-2.304c0-3.264-.912-5.736-2.736-7.416-1.824-1.728-4.488-2.592-7.992-2.592-2.4 0-4.704.408-6.912 1.224-2.208.768-4.104 1.848-5.688 3.24l-2.304-3.816c1.92-1.632 4.224-2.88 6.912-3.744 2.688-.912 5.52-1.368 8.496-1.368zm-1.8 34.488c2.88 0 5.352-.648 7.416-1.944 2.064-1.344 3.6-3.264 4.608-5.76v-6.192h-11.88c-6.48 0-9.72 2.256-9.72 6.768 0 2.208.84 3.96 2.52 5.256 1.68 1.248 4.032 1.872 7.056 1.872zm46.857 4.032c-3.744 0-7.104-.816-10.08-2.448-2.928-1.632-5.232-3.912-6.912-6.84-1.68-2.976-2.52-6.312-2.52-10.008 0-3.696.84-7.008 2.52-9.936 1.68-2.928 3.984-5.208 6.912-6.84 2.976-1.632 6.336-2.448 10.08-2.448 3.264 0 6.168.648 8.712 1.944 2.592 1.248 4.632 3.096 6.12 5.544l-3.816 2.592c-1.248-1.872-2.832-3.264-4.752-4.176-1.92-.96-4.008-1.44-6.264-1.44-2.736 0-5.208.624-7.416 1.872-2.16 1.2-3.864 2.928-5.112 5.184-1.2 2.256-1.8 4.824-1.8 7.704 0 2.928.6 5.52 1.8 7.776 1.248 2.208 2.952 3.936 5.112 5.184 2.208 1.2 4.68 1.8 7.416 1.8 2.256 0 4.344-.456 6.264-1.368 1.92-.912 3.504-2.304 4.752-4.176l3.816 2.592c-1.488 2.448-3.528 4.32-6.12 5.616-2.592 1.248-5.496 1.872-8.712 1.872zm45.24-2.664c-.96.864-2.16 1.536-3.6 2.016a14.734 14.734 0 01-4.392.648c-3.552 0-6.288-.96-8.208-2.88s-2.88-4.632-2.88-8.136V20.448h-6.768v-4.32h6.768v-8.28h5.112v8.28h11.52v4.32h-11.52v22.608c0 2.256.552 3.984 1.656 5.184 1.152 1.152 2.784 1.728 4.896 1.728a9.087 9.087 0 003.024-.504c1.008-.336 1.872-.816 2.592-1.44l1.8 3.672zm9.306-35.568h5.112V54h-5.112V16.128zm2.592-8.28c-1.056 0-1.944-.36-2.664-1.08-.72-.72-1.08-1.584-1.08-2.592 0-.96.36-1.8 1.08-2.52.72-.72 1.608-1.08 2.664-1.08s1.944.36 2.664 1.08c.72.672 1.08 1.488 1.08 2.448 0 1.056-.36 1.944-1.08 2.664-.72.72-1.608 1.08-2.664 1.08zm32.224 46.512c-3.648 0-6.936-.816-9.864-2.448A18.377 18.377 0 01275.398 45c-1.68-2.928-2.52-6.24-2.52-9.936 0-3.696.84-7.008 2.52-9.936 1.68-2.928 3.984-5.208 6.912-6.84 2.928-1.632 6.216-2.448 9.864-2.448 3.648 0 6.936.816 9.864 2.448 2.928 1.632 5.208 3.912 6.84 6.84 1.68 2.928 2.52 6.24 2.52 9.936 0 3.696-.84 7.008-2.52 9.936-1.632 2.928-3.912 5.232-6.84 6.912-2.928 1.632-6.216 2.448-9.864 2.448zm0-4.536c2.688 0 5.088-.6 7.2-1.8 2.16-1.248 3.84-3 5.04-5.256 1.2-2.256 1.8-4.824 1.8-7.704s-.6-5.448-1.8-7.704c-1.2-2.256-2.88-3.984-5.04-5.184-2.112-1.248-4.512-1.872-7.2-1.872-2.688 0-5.112.624-7.272 1.872-2.112 1.2-3.792 2.928-5.04 5.184-1.2 2.256-1.8 4.824-1.8 7.704s.6 5.448 1.8 7.704c1.248 2.256 2.928 4.008 5.04 5.256 2.16 1.2 4.584 1.8 7.272 1.8zm48.957-33.984c4.752 0 8.52 1.392 11.304 4.176 2.832 2.736 4.248 6.744 4.248 12.024V54h-5.112V32.544c0-3.936-.984-6.936-2.952-9s-4.776-3.096-8.424-3.096c-4.08 0-7.32 1.224-9.72 3.672-2.352 2.4-3.528 5.736-3.528 10.008V54h-5.112V16.128h4.896v6.984c1.392-2.304 3.312-4.08 5.76-5.328 2.496-1.296 5.376-1.944 8.64-1.944zm39.583 38.52c-3.072 0-6.024-.432-8.856-1.296-2.784-.912-4.968-2.04-6.552-3.384l2.304-4.032c1.584 1.248 3.576 2.28 5.976 3.096 2.4.768 4.896 1.152 7.488 1.152 3.456 0 6-.528 7.632-1.584 1.68-1.104 2.52-2.64 2.52-4.608 0-1.392-.456-2.472-1.368-3.24-.912-.816-2.064-1.416-3.456-1.8-1.392-.432-3.24-.84-5.544-1.224-3.072-.576-5.544-1.152-7.416-1.728a11.45 11.45 0 01-4.824-3.096c-1.296-1.44-1.944-3.432-1.944-5.976 0-3.168 1.32-5.76 3.96-7.776 2.64-2.016 6.312-3.024 11.016-3.024 2.448 0 4.896.336 7.344 1.008 2.448.624 4.464 1.464 6.048 2.52l-2.232 4.104c-3.12-2.16-6.84-3.24-11.16-3.24-3.264 0-5.736.576-7.416 1.728-1.632 1.152-2.448 2.664-2.448 4.536 0 1.44.456 2.592 1.368 3.456.96.864 2.136 1.512 3.528 1.944 1.392.384 3.312.792 5.76 1.224 3.024.576 5.448 1.152 7.272 1.728a10.683 10.683 0 014.68 2.952c1.296 1.392 1.944 3.312 1.944 5.76 0 3.312-1.392 5.952-4.176 7.92-2.736 1.92-6.552 2.88-11.448 2.88z" fill="#000"/></svg>