<svg width="305" height="95" viewBox="0 0 305 95" fill="none" xmlns="http://www.w3.org/2000/svg"><path d="M.965 1.4h2.072v17.808h10.976V21H.965V1.4zm21.87 19.74c-1.419 0-2.697-.317-3.836-.952a7.146 7.146 0 01-2.688-2.688c-.653-1.139-.98-2.427-.98-3.864 0-1.437.327-2.725.98-3.864a6.944 6.944 0 012.688-2.66c1.139-.635 2.417-.952 3.836-.952s2.697.317 3.836.952a6.752 6.752 0 012.66 2.66c.653 1.139.98 2.427.98 3.864 0 1.437-.327 2.725-.98 3.864a6.945 6.945 0 01-2.66 2.688c-1.139.635-2.417.952-3.836.952zm0-1.764c1.045 0 1.979-.233 2.8-.7a5.045 5.045 0 001.96-2.044c.467-.877.7-1.876.7-2.996s-.233-2.119-.7-2.996a4.861 4.861 0 00-1.96-2.016c-.821-.485-1.755-.728-2.8-.728s-1.988.243-2.828.728c-.821.467-1.475 1.139-1.96 2.016-.467.877-.7 1.876-.7 2.996s.233 2.119.7 2.996c.485.877 1.139 1.559 1.96 2.044.84.467 1.783.7 2.828.7zm13.439-10.22c.466-.99 1.157-1.736 2.072-2.24.933-.504 2.081-.756 3.444-.756v1.932l-.476-.028c-1.55 0-2.763.476-3.64 1.428-.878.952-1.316 2.287-1.316 4.004V21H34.37V6.272h1.904v2.884zm21.803 5.096h-12.32c.111 1.53.7 2.772 1.764 3.724 1.063.933 2.407 1.4 4.032 1.4.914 0 1.754-.159 2.52-.476a5.655 5.655 0 001.987-1.456l1.12 1.288a6.288 6.288 0 01-2.463 1.792c-.971.41-2.044.616-3.22.616-1.513 0-2.856-.317-4.032-.952a7.088 7.088 0 01-2.717-2.688c-.653-1.139-.98-2.427-.98-3.864 0-1.437.309-2.725.925-3.864.634-1.139 1.493-2.025 2.576-2.66 1.1-.635 2.333-.952 3.696-.952 1.362 0 2.585.317 3.667.952 1.083.635 1.933 1.521 2.549 2.66.616 1.12.924 2.408.924 3.864l-.028.616zm-7.112-6.384c-1.42 0-2.614.457-3.585 1.372-.952.896-1.493 2.072-1.623 3.528H56.2c-.131-1.456-.682-2.632-1.653-3.528-.952-.915-2.146-1.372-3.584-1.372zM80.519 6.16c1.848 0 3.295.532 4.34 1.596 1.064 1.064 1.596 2.632 1.596 4.704V21h-1.988v-8.344c0-1.53-.373-2.697-1.12-3.5-.728-.803-1.764-1.204-3.108-1.204-1.53 0-2.735.476-3.612 1.428-.877.933-1.316 2.23-1.316 3.892V21h-1.988v-8.344c0-1.53-.373-2.697-1.12-3.5-.728-.803-1.773-1.204-3.136-1.204-1.512 0-2.716.476-3.612 1.428-.877.933-1.316 2.23-1.316 3.892V21H62.15V6.272h1.904V8.96a5.313 5.313 0 012.184-2.072c.933-.485 2.007-.728 3.22-.728 1.232 0 2.296.261 3.192.784.915.523 1.596 1.297 2.044 2.324A5.67 5.67 0 0177.019 7c1.027-.56 2.193-.84 3.5-.84zm18.655.112h1.988V21h-1.988V6.272zm1.008-3.22c-.41 0-.756-.14-1.036-.42-.28-.28-.42-.616-.42-1.008 0-.373.14-.7.42-.98.28-.28.626-.42 1.036-.42.411 0 .756.14 1.036.42.28.261.42.579.42.952 0 .41-.14.756-.42 1.036-.28.28-.625.42-1.036.42zm14.1 3.108c1.381 0 2.632.317 3.752.952a6.615 6.615 0 012.632 2.632c.635 1.139.952 2.436.952 3.892 0 1.475-.317 2.781-.952 3.92a6.806 6.806 0 01-2.632 2.66c-1.101.616-2.352.924-3.752.924-1.195 0-2.277-.243-3.248-.728-.952-.504-1.736-1.232-2.352-2.184v8.204h-1.988V6.272h1.904v2.912a6.147 6.147 0 012.352-2.24c.989-.523 2.1-.784 3.332-.784zm-.14 13.216c1.027 0 1.96-.233 2.8-.7a5.047 5.047 0 001.96-2.044c.485-.877.728-1.876.728-2.996s-.243-2.11-.728-2.968a5.047 5.047 0 00-1.96-2.044c-.84-.485-1.773-.728-2.8-.728-1.045 0-1.988.243-2.828.728a5.298 5.298 0 00-1.96 2.044c-.467.859-.7 1.848-.7 2.968 0 1.12.233 2.119.7 2.996a5.298 5.298 0 001.96 2.044c.84.467 1.783.7 2.828.7zm15.476 1.764c-1.194 0-2.342-.168-3.444-.504-1.082-.355-1.932-.793-2.548-1.316l.896-1.568c.616.485 1.391.887 2.324 1.204a9.498 9.498 0 002.912.448c1.344 0 2.334-.205 2.968-.616.654-.43.98-1.027.98-1.792 0-.541-.177-.961-.532-1.26-.354-.317-.802-.55-1.344-.7-.541-.168-1.26-.327-2.156-.476-1.194-.224-2.156-.448-2.884-.672a4.455 4.455 0 01-1.876-1.204c-.504-.56-.756-1.335-.756-2.324 0-1.232.514-2.24 1.54-3.024 1.027-.784 2.455-1.176 4.284-1.176.952 0 1.904.13 2.856.392.952.243 1.736.57 2.352.98l-.868 1.596c-1.213-.84-2.66-1.26-4.34-1.26-1.269 0-2.23.224-2.884.672-.634.448-.952 1.036-.952 1.764 0 .56.178 1.008.532 1.344.374.336.831.588 1.372.756.542.15 1.288.308 2.24.476 1.176.224 2.119.448 2.828.672.71.224 1.316.607 1.82 1.148.504.541.756 1.288.756 2.24 0 1.288-.541 2.315-1.624 3.08-1.064.747-2.548 1.12-4.452 1.12zm23.024-14.868V21h-1.904v-2.688a5.558 5.558 0 01-2.156 2.1c-.915.485-1.96.728-3.136.728-1.923 0-3.444-.532-4.564-1.596-1.102-1.083-1.652-2.66-1.652-4.732v-8.54h1.988v8.344c0 1.55.382 2.725 1.148 3.528.765.803 1.857 1.204 3.276 1.204 1.549 0 2.772-.467 3.668-1.4.896-.952 1.344-2.268 1.344-3.948V6.272h1.988zm23.936-.112c1.848 0 3.294.532 4.34 1.596 1.064 1.064 1.596 2.632 1.596 4.704V21h-1.988v-8.344c0-1.53-.374-2.697-1.12-3.5-.728-.803-1.764-1.204-3.108-1.204-1.531 0-2.735.476-3.612 1.428-.878.933-1.316 2.23-1.316 3.892V21h-1.988v-8.344c0-1.53-.374-2.697-1.12-3.5-.728-.803-1.774-1.204-3.136-1.204-1.512 0-2.716.476-3.612 1.428-.878.933-1.316 2.23-1.316 3.892V21h-1.988V6.272h1.904V8.96a5.304 5.304 0 012.184-2.072c.933-.485 2.006-.728 3.22-.728 1.232 0 2.296.261 3.192.784.914.523 1.596 1.297 2.044 2.324A5.667 5.667 0 01173.078 7c1.026-.56 2.193-.84 3.5-.84zM208.673.224V21h-1.904v-2.912a6.037 6.037 0 01-2.38 2.268c-.971.523-2.072.784-3.304.784-1.381 0-2.632-.317-3.752-.952a6.806 6.806 0 01-2.632-2.66c-.635-1.139-.952-2.436-.952-3.892s.317-2.753.952-3.892a6.615 6.615 0 012.632-2.632c1.12-.635 2.371-.952 3.752-.952 1.195 0 2.268.252 3.22.756.971.485 1.764 1.204 2.38 2.156V.224h1.988zm-7.42 19.152c1.027 0 1.951-.233 2.772-.7a5.047 5.047 0 001.96-2.044c.485-.877.728-1.876.728-2.996s-.243-2.119-.728-2.996a4.863 4.863 0 00-1.96-2.016c-.821-.485-1.745-.728-2.772-.728-1.045 0-1.988.243-2.828.728-.821.467-1.475 1.139-1.96 2.016-.467.877-.7 1.876-.7 2.996s.233 2.119.7 2.996a5.298 5.298 0 001.96 2.044c.84.467 1.783.7 2.828.7zm18.977 1.764c-1.419 0-2.698-.317-3.836-.952a7.141 7.141 0 01-2.688-2.688c-.654-1.139-.98-2.427-.98-3.864 0-1.437.326-2.725.98-3.864a6.94 6.94 0 012.688-2.66c1.138-.635 2.417-.952 3.836-.952 1.418 0 2.697.317 3.836.952a6.758 6.758 0 012.66 2.66c.653 1.139.98 2.427.98 3.864 0 1.437-.327 2.725-.98 3.864a6.951 6.951 0 01-2.66 2.688c-1.139.635-2.418.952-3.836.952zm0-1.764c1.045 0 1.978-.233 2.8-.7a5.047 5.047 0 001.96-2.044c.466-.877.7-1.876.7-2.996s-.234-2.119-.7-2.996a4.863 4.863 0 00-1.96-2.016c-.822-.485-1.755-.728-2.8-.728-1.046 0-1.988.243-2.828.728-.822.467-1.475 1.139-1.96 2.016-.467.877-.7 1.876-.7 2.996s.233 2.119.7 2.996c.485.877 1.138 1.559 1.96 2.044.84.467 1.782.7 2.828.7zM231.764.224h1.988V21h-1.988V.224zm13.54 20.916c-1.419 0-2.698-.317-3.836-.952a7.141 7.141 0 01-2.688-2.688c-.654-1.139-.98-2.427-.98-3.864 0-1.437.326-2.725.98-3.864a6.94 6.94 0 012.688-2.66c1.138-.635 2.417-.952 3.836-.952 1.418 0 2.697.317 3.836.952a6.758 6.758 0 012.66 2.66c.653 1.139.98 2.427.98 3.864 0 1.437-.327 2.725-.98 3.864a6.951 6.951 0 01-2.66 2.688c-1.139.635-2.418.952-3.836.952zm0-1.764c1.045 0 1.978-.233 2.8-.7a5.047 5.047 0 001.96-2.044c.466-.877.7-1.876.7-2.996s-.234-2.119-.7-2.996a4.863 4.863 0 00-1.96-2.016c-.822-.485-1.755-.728-2.8-.728-1.046 0-1.988.243-2.828.728-.822.467-1.475 1.139-1.96 2.016-.467.877-.7 1.876-.7 2.996s.233 2.119.7 2.996c.485.877 1.138 1.559 1.96 2.044.84.467 1.782.7 2.828.7zm13.438-10.22c.467-.99 1.158-1.736 2.072-2.24.934-.504 2.082-.756 3.444-.756v1.932l-.476-.028c-1.549 0-2.762.476-3.64 1.428-.877.952-1.316 2.287-1.316 4.004V21h-1.988V6.272h1.904v2.884zm20.611 11.984c-1.195 0-2.343-.168-3.444-.504-1.083-.355-1.932-.793-2.548-1.316l.896-1.568c.616.485 1.39.887 2.324 1.204a9.493 9.493 0 002.912.448c1.344 0 2.333-.205 2.968-.616.653-.43.98-1.027.98-1.792 0-.541-.178-.961-.532-1.26-.355-.317-.803-.55-1.344-.7-.542-.168-1.26-.327-2.156-.476-1.195-.224-2.156-.448-2.884-.672a4.45 4.45 0 01-1.876-1.204c-.504-.56-.756-1.335-.756-2.324 0-1.232.513-2.24 1.54-3.024 1.026-.784 2.454-1.176 4.284-1.176.952 0 1.904.13 2.856.392.952.243 1.736.57 2.352.98l-.868 1.596c-1.214-.84-2.66-1.26-4.34-1.26-1.27 0-2.231.224-2.884.672-.635.448-.952 1.036-.952 1.764 0 .56.177 1.008.532 1.344.373.336.83.588 1.372.756.541.15 1.288.308 2.24.476 1.176.224 2.118.448 2.828.672a4.157 4.157 0 011.82 1.148c.504.541.756 1.288.756 2.24 0 1.288-.542 2.315-1.624 3.08-1.064.747-2.548 1.12-4.452 1.12zm9.751-14.868h1.988V21h-1.988V6.272zm1.008-3.22c-.411 0-.756-.14-1.036-.42-.28-.28-.42-.616-.42-1.008 0-.373.14-.7.42-.98.28-.28.625-.42 1.036-.42.411 0 .756.14 1.036.42.28.261.42.579.42.952 0 .41-.14.756-.42 1.036-.28.28-.625.42-1.036.42zm14.268 17.052c-.374.336-.84.597-1.4.784a5.735 5.735 0 01-1.708.252c-1.382 0-2.446-.373-3.192-1.12-.747-.747-1.12-1.801-1.12-3.164V7.952h-2.632v-1.68h2.632v-3.22h1.988v3.22h4.48v1.68h-4.48v8.792c0 .877.214 1.55.644 2.016.448.448 1.082.672 1.904.672.41 0 .802-.065 1.176-.196.392-.13.728-.317 1.008-.56l.7 1.428zM31.496 40.16c1.923 0 3.398.485 4.424 1.456 1.027.952 1.54 2.37 1.54 4.256V55h-1.904v-2.296c-.448.765-1.11 1.363-1.988 1.792-.858.43-1.885.644-3.08.644-1.642 0-2.95-.392-3.92-1.176-.97-.784-1.456-1.82-1.456-3.108 0-1.25.448-2.259 1.344-3.024.915-.765 2.362-1.148 4.34-1.148h4.676v-.896c0-1.27-.354-2.23-1.064-2.884-.71-.672-1.745-1.008-3.108-1.008-.933 0-1.83.159-2.688.476-.858.299-1.596.719-2.212 1.26l-.896-1.484c.747-.635 1.643-1.12 2.688-1.456a10.212 10.212 0 013.304-.532zm-.7 13.412c1.12 0 2.082-.252 2.884-.756.803-.523 1.4-1.27 1.792-2.24v-2.408h-4.62c-2.52 0-3.78.877-3.78 2.632 0 .859.327 1.54.98 2.044.654.485 1.568.728 2.744.728zM61.228 40.16c1.848 0 3.295.532 4.34 1.596 1.064 1.064 1.596 2.632 1.596 4.704V55h-1.988v-8.344c0-1.53-.373-2.697-1.12-3.5-.728-.803-1.764-1.204-3.108-1.204-1.53 0-2.735.476-3.612 1.428-.877.933-1.316 2.23-1.316 3.892V55h-1.988v-8.344c0-1.53-.373-2.697-1.12-3.5-.728-.803-1.773-1.204-3.136-1.204-1.512 0-2.716.476-3.612 1.428-.877.933-1.316 2.23-1.316 3.892V55H42.86V40.272h1.904v2.688a5.313 5.313 0 012.184-2.072c.933-.485 2.007-.728 3.22-.728 1.232 0 2.296.261 3.192.784.915.523 1.596 1.297 2.044 2.324A5.669 5.669 0 0157.728 41c1.027-.56 2.193-.84 3.5-.84zm24.206 8.092h-12.32c.112 1.53.7 2.772 1.764 3.724 1.064.933 2.408 1.4 4.032 1.4.915 0 1.755-.159 2.52-.476a5.655 5.655 0 001.988-1.456l1.12 1.288a6.287 6.287 0 01-2.464 1.792c-.97.41-2.044.616-3.22.616-1.512 0-2.856-.317-4.032-.952a7.09 7.09 0 01-2.716-2.688c-.653-1.139-.98-2.427-.98-3.864 0-1.437.308-2.725.924-3.864.635-1.139 1.493-2.025 2.576-2.66 1.101-.635 2.333-.952 3.696-.952s2.585.317 3.668.952c1.083.635 1.932 1.521 2.548 2.66.616 1.12.924 2.408.924 3.864l-.028.616zm-7.112-6.384c-1.419 0-2.613.457-3.584 1.372-.952.896-1.493 2.072-1.624 3.528h10.444c-.13-1.456-.681-2.632-1.652-3.528-.952-.915-2.147-1.372-3.584-1.372zm18.942 12.236c-.373.336-.84.597-1.4.784a5.73 5.73 0 01-1.708.252c-1.381 0-2.445-.373-3.192-1.12-.746-.747-1.12-1.801-1.12-3.164v-8.904h-2.632v-1.68h2.632v-3.22h1.988v3.22h4.48v1.68h-4.48v8.792c0 .877.215 1.55.644 2.016.448.448 1.083.672 1.904.672.411 0 .803-.065 1.176-.196.392-.13.728-.317 1.008-.56l.7 1.428zm4.117-2.016c.429 0 .784.15 1.064.448.28.28.42.635.42 1.064 0 .224-.038.467-.112.728a6.05 6.05 0 01-.28.896l-1.176 3.864h-1.344l.952-4.06a1.431 1.431 0 01-.728-.504 1.546 1.546 0 01-.28-.924c0-.43.14-.784.42-1.064.28-.299.634-.448 1.064-.448zm19.141 3.052c-1.456 0-2.762-.317-3.92-.952a6.954 6.954 0 01-2.688-2.66c-.653-1.157-.98-2.455-.98-3.892 0-1.437.327-2.725.98-3.864a6.954 6.954 0 012.688-2.66c1.158-.635 2.464-.952 3.92-.952 1.27 0 2.399.252 3.388.756a5.536 5.536 0 012.38 2.156l-1.484 1.008a4.534 4.534 0 00-1.848-1.624 5.367 5.367 0 00-2.436-.56c-1.064 0-2.025.243-2.884.728-.84.467-1.502 1.139-1.988 2.016-.466.877-.7 1.876-.7 2.996 0 1.139.234 2.147.7 3.024a5.293 5.293 0 001.988 2.016c.859.467 1.82.7 2.884.7a5.6 5.6 0 002.436-.532 4.534 4.534 0 001.848-1.624l1.484 1.008a5.719 5.719 0 01-2.38 2.184c-1.008.485-2.137.728-3.388.728zm15.448 0c-1.419 0-2.698-.317-3.836-.952a7.141 7.141 0 01-2.688-2.688c-.654-1.139-.98-2.427-.98-3.864 0-1.437.326-2.725.98-3.864a6.94 6.94 0 012.688-2.66c1.138-.635 2.417-.952 3.836-.952 1.418 0 2.697.317 3.836.952a6.758 6.758 0 012.66 2.66c.653 1.139.98 2.427.98 3.864 0 1.437-.327 2.725-.98 3.864a6.951 6.951 0 01-2.66 2.688c-1.139.635-2.418.952-3.836.952zm0-1.764c1.045 0 1.978-.233 2.8-.7a5.047 5.047 0 001.96-2.044c.466-.877.7-1.876.7-2.996s-.234-2.119-.7-2.996a4.863 4.863 0 00-1.96-2.016c-.822-.485-1.755-.728-2.8-.728-1.046 0-1.988.243-2.828.728-.822.467-1.475 1.139-1.96 2.016-.467.877-.7 1.876-.7 2.996s.233 2.119.7 2.996c.485.877 1.138 1.559 1.96 2.044.84.467 1.782.7 2.828.7zm19.038-13.216c1.848 0 3.314.541 4.396 1.624 1.102 1.064 1.652 2.623 1.652 4.676V55h-1.988v-8.344c0-1.53-.382-2.697-1.148-3.5-.765-.803-1.857-1.204-3.276-1.204-1.586 0-2.846.476-3.78 1.428-.914.933-1.372 2.23-1.372 3.892V55h-1.988V40.272h1.904v2.716a5.46 5.46 0 012.24-2.072c.971-.504 2.091-.756 3.36-.756zm15.394 14.98c-1.195 0-2.343-.168-3.444-.504-1.083-.355-1.932-.793-2.548-1.316l.896-1.568c.616.485 1.39.887 2.324 1.204a9.493 9.493 0 002.912.448c1.344 0 2.333-.205 2.968-.616.653-.43.98-1.027.98-1.792 0-.541-.178-.961-.532-1.26-.355-.317-.803-.55-1.344-.7-.542-.168-1.26-.327-2.156-.476-1.195-.224-2.156-.448-2.884-.672a4.45 4.45 0 01-1.876-1.204c-.504-.56-.756-1.335-.756-2.324 0-1.232.513-2.24 1.54-3.024 1.026-.784 2.454-1.176 4.284-1.176.952 0 1.904.13 2.856.392.952.243 1.736.57 2.352.98l-.868 1.596c-1.214-.84-2.66-1.26-4.34-1.26-1.27 0-2.231.224-2.884.672-.635.448-.952 1.036-.952 1.764 0 .56.177 1.008.532 1.344.373.336.83.588 1.372.756.541.15 1.288.308 2.24.476 1.176.224 2.118.448 2.828.672a4.157 4.157 0 011.82 1.148c.504.541.756 1.288.756 2.24 0 1.288-.542 2.315-1.624 3.08-1.064.747-2.548 1.12-4.452 1.12zm22.575-6.888h-12.32c.112 1.53.7 2.772 1.764 3.724 1.064.933 2.408 1.4 4.032 1.4.915 0 1.755-.159 2.52-.476a5.657 5.657 0 001.988-1.456l1.12 1.288a6.287 6.287 0 01-2.464 1.792c-.971.41-2.044.616-3.22.616-1.512 0-2.856-.317-4.032-.952a7.09 7.09 0 01-2.716-2.688c-.653-1.139-.98-2.427-.98-3.864 0-1.437.308-2.725.924-3.864.635-1.139 1.493-2.025 2.576-2.66 1.101-.635 2.333-.952 3.696-.952s2.585.317 3.668.952c1.083.635 1.932 1.521 2.548 2.66.616 1.12.924 2.408.924 3.864l-.028.616zm-7.112-6.384c-1.419 0-2.613.457-3.584 1.372-.952.896-1.493 2.072-1.624 3.528h10.444c-.131-1.456-.681-2.632-1.652-3.528-.952-.915-2.147-1.372-3.584-1.372zm17.29 13.272c-1.456 0-2.762-.317-3.92-.952a6.954 6.954 0 01-2.688-2.66c-.653-1.157-.98-2.455-.98-3.892 0-1.437.327-2.725.98-3.864a6.954 6.954 0 012.688-2.66c1.158-.635 2.464-.952 3.92-.952 1.27 0 2.399.252 3.388.756a5.536 5.536 0 012.38 2.156l-1.484 1.008a4.534 4.534 0 00-1.848-1.624 5.367 5.367 0 00-2.436-.56c-1.064 0-2.025.243-2.884.728-.84.467-1.502 1.139-1.988 2.016-.466.877-.7 1.876-.7 2.996 0 1.139.234 2.147.7 3.024a5.293 5.293 0 001.988 2.016c.859.467 1.82.7 2.884.7a5.6 5.6 0 002.436-.532 4.534 4.534 0 001.848-1.624l1.484 1.008a5.719 5.719 0 01-2.38 2.184c-1.008.485-2.137.728-3.388.728zm17.594-1.036c-.374.336-.84.597-1.4.784a5.735 5.735 0 01-1.708.252c-1.382 0-2.446-.373-3.192-1.12-.747-.747-1.12-1.801-1.12-3.164v-8.904h-2.632v-1.68h2.632v-3.22h1.988v3.22h4.48v1.68h-4.48v8.792c0 .877.214 1.55.644 2.016.448.448 1.082.672 1.904.672.41 0 .802-.065 1.176-.196.392-.13.728-.317 1.008-.56l.7 1.428zm15.923-5.852h-12.32c.112 1.53.7 2.772 1.764 3.724 1.064.933 2.408 1.4 4.032 1.4.915 0 1.755-.159 2.52-.476a5.648 5.648 0 001.988-1.456l1.12 1.288a6.28 6.28 0 01-2.464 1.792c-.97.41-2.044.616-3.22.616-1.512 0-2.856-.317-4.032-.952a7.096 7.096 0 01-2.716-2.688c-.653-1.139-.98-2.427-.98-3.864 0-1.437.308-2.725.924-3.864.635-1.139 1.494-2.025 2.576-2.66 1.102-.635 2.334-.952 3.696-.952 1.363 0 2.586.317 3.668.952 1.083.635 1.932 1.521 2.548 2.66.616 1.12.924 2.408.924 3.864l-.028.616zm-7.112-6.384c-1.418 0-2.613.457-3.584 1.372-.952.896-1.493 2.072-1.624 3.528h10.444c-.13-1.456-.681-2.632-1.652-3.528-.952-.915-2.146-1.372-3.584-1.372zm18.943 12.236c-.374.336-.84.597-1.4.784a5.735 5.735 0 01-1.708.252c-1.382 0-2.446-.373-3.192-1.12-.747-.747-1.12-1.801-1.12-3.164v-8.904h-2.632v-1.68h2.632v-3.22h1.988v3.22h4.48v1.68h-4.48v8.792c0 .877.214 1.55.644 2.016.448.448 1.082.672 1.904.672.41 0 .802-.065 1.176-.196.392-.13.728-.317 1.008-.56l.7 1.428zm16.891-13.832V55h-1.904v-2.688a5.558 5.558 0 01-2.156 2.1c-.915.485-1.96.728-3.136.728-1.923 0-3.444-.532-4.564-1.596-1.102-1.083-1.652-2.66-1.652-4.732v-8.54h1.988v8.344c0 1.55.382 2.725 1.148 3.528.765.803 1.857 1.204 3.276 1.204 1.549 0 2.772-.467 3.668-1.4.896-.952 1.344-2.268 1.344-3.948v-7.728h1.988zm7.471 2.884c.467-.99 1.158-1.736 2.072-2.24.934-.504 2.082-.756 3.444-.756v1.932l-.476-.028c-1.549 0-2.762.476-3.64 1.428-.877.952-1.316 2.287-1.316 4.004V55h-1.988V40.272h1.904v2.884zM67.412 74.16c1.923 0 3.398.485 4.424 1.456 1.027.952 1.54 2.37 1.54 4.256V89h-1.904v-2.296c-.448.765-1.11 1.363-1.988 1.792-.858.43-1.885.644-3.08.644-1.642 0-2.95-.392-3.92-1.176-.97-.784-1.456-1.82-1.456-3.108 0-1.25.448-2.259 1.344-3.024.915-.765 2.362-1.148 4.34-1.148h4.676v-.896c0-1.27-.354-2.23-1.064-2.884-.71-.672-1.745-1.008-3.108-1.008-.933 0-1.83.159-2.688.476-.858.299-1.596.719-2.212 1.26l-.896-1.484c.747-.635 1.643-1.12 2.688-1.456a10.212 10.212 0 013.304-.532zm-.7 13.412c1.12 0 2.082-.252 2.884-.756.803-.523 1.4-1.27 1.792-2.24v-2.408h-4.62c-2.52 0-3.78.877-3.78 2.632 0 .859.327 1.54.98 2.044.654.485 1.568.728 2.744.728zm25.559-19.348V89h-1.904v-2.912a6.037 6.037 0 01-2.38 2.268c-.971.523-2.072.784-3.304.784-1.382 0-2.632-.317-3.752-.952a6.804 6.804 0 01-2.632-2.66c-.635-1.139-.952-2.436-.952-3.892s.317-2.753.952-3.892a6.613 6.613 0 012.632-2.632c1.12-.635 2.37-.952 3.752-.952 1.194 0 2.268.252 3.22.756.97.485 1.764 1.204 2.38 2.156v-8.848h1.988zm-7.42 19.152c1.026 0 1.95-.233 2.772-.7a5.045 5.045 0 001.96-2.044c.485-.877.728-1.876.728-2.996s-.243-2.119-.728-2.996a4.861 4.861 0 00-1.96-2.016c-.822-.485-1.746-.728-2.772-.728-1.046 0-1.988.243-2.828.728-.822.467-1.475 1.139-1.96 2.016-.467.877-.7 1.876-.7 2.996s.233 2.119.7 2.996c.485.877 1.138 1.559 1.96 2.044.84.467 1.782.7 2.828.7zm12.956-13.104h1.988V89h-1.988V74.272zm1.008-3.22c-.41 0-.756-.14-1.036-.42-.28-.28-.42-.616-.42-1.008 0-.373.14-.7.42-.98.28-.28.626-.42 1.036-.42.41 0 .756.14 1.036.42.28.261.42.579.42.952 0 .41-.14.756-.42 1.036-.28.28-.625.42-1.036.42zm14.1 3.108c1.381 0 2.632.317 3.752.952a6.615 6.615 0 012.632 2.632c.634 1.139.952 2.436.952 3.892 0 1.475-.318 2.781-.952 3.92a6.806 6.806 0 01-2.632 2.66c-1.102.616-2.352.924-3.752.924-1.195 0-2.278-.243-3.248-.728-.952-.504-1.736-1.232-2.352-2.184v8.204h-1.988v-20.16h1.904v2.912a6.147 6.147 0 012.352-2.24c.989-.523 2.1-.784 3.332-.784zm-.14 13.216c1.026 0 1.96-.233 2.8-.7a5.047 5.047 0 001.96-2.044c.485-.877.728-1.876.728-2.996s-.243-2.11-.728-2.968a5.047 5.047 0 00-1.96-2.044c-.84-.485-1.774-.728-2.8-.728-1.046 0-1.988.243-2.828.728-.822.485-1.475 1.167-1.96 2.044-.467.859-.7 1.848-.7 2.968 0 1.12.233 2.119.7 2.996.485.877 1.138 1.559 1.96 2.044.84.467 1.782.7 2.828.7zm11.528-13.104h1.988V89h-1.988V74.272zm1.008-3.22c-.41 0-.756-.14-1.036-.42-.28-.28-.42-.616-.42-1.008 0-.373.14-.7.42-.98.28-.28.626-.42 1.036-.42.411 0 .756.14 1.036.42.28.261.42.579.42.952 0 .41-.14.756-.42 1.036-.28.28-.625.42-1.036.42zm10.46 18.088c-1.195 0-2.343-.168-3.444-.504-1.083-.355-1.932-.793-2.548-1.316l.896-1.568c.616.485 1.39.887 2.324 1.204a9.493 9.493 0 002.912.448c1.344 0 2.333-.205 2.968-.616.653-.43.98-1.027.98-1.792 0-.541-.178-.961-.532-1.26-.355-.317-.803-.55-1.344-.7-.542-.168-1.26-.327-2.156-.476-1.195-.224-2.156-.448-2.884-.672a4.45 4.45 0 01-1.876-1.204c-.504-.56-.756-1.335-.756-2.324 0-1.232.513-2.24 1.54-3.024 1.026-.784 2.454-1.176 4.284-1.176.952 0 1.904.13 2.856.392.952.243 1.736.57 2.352.98l-.868 1.596c-1.214-.84-2.66-1.26-4.34-1.26-1.27 0-2.231.224-2.884.672-.635.448-.952 1.036-.952 1.764 0 .56.177 1.008.532 1.344.373.336.83.588 1.372.756.541.15 1.288.308 2.24.476 1.176.224 2.118.448 2.828.672a4.157 4.157 0 011.82 1.148c.504.541.756 1.288.756 2.24 0 1.288-.542 2.315-1.624 3.08-1.064.747-2.548 1.12-4.452 1.12zm15.855 0c-1.456 0-2.763-.317-3.92-.952a6.94 6.94 0 01-2.688-2.66c-.653-1.157-.98-2.455-.98-3.892 0-1.437.327-2.725.98-3.864a6.94 6.94 0 012.688-2.66c1.157-.635 2.464-.952 3.92-.952 1.269 0 2.399.252 3.388.756a5.542 5.542 0 012.38 2.156l-1.484 1.008a4.534 4.534 0 00-1.848-1.624 5.373 5.373 0 00-2.436-.56c-1.064 0-2.025.243-2.884.728a5.04 5.04 0 00-1.988 2.016c-.467.877-.7 1.876-.7 2.996 0 1.139.233 2.147.7 3.024a5.286 5.286 0 001.988 2.016c.859.467 1.82.7 2.884.7.877 0 1.689-.177 2.436-.532a4.534 4.534 0 001.848-1.624l1.484 1.008a5.725 5.725 0 01-2.38 2.184c-1.008.485-2.137.728-3.388.728zm9.673-14.868h1.988V89h-1.988V74.272zm1.008-3.22c-.41 0-.756-.14-1.036-.42-.28-.28-.42-.616-.42-1.008 0-.373.14-.7.42-.98.28-.28.626-.42 1.036-.42.411 0 .756.14 1.036.42.28.261.42.579.42.952 0 .41-.14.756-.42 1.036-.28.28-.625.42-1.036.42zm14.016 3.108c1.848 0 3.313.541 4.396 1.624 1.101 1.064 1.652 2.623 1.652 4.676V89h-1.988v-8.344c0-1.53-.383-2.697-1.148-3.5-.765-.803-1.857-1.204-3.276-1.204-1.587 0-2.847.476-3.78 1.428-.915.933-1.372 2.23-1.372 3.892V89h-1.988V74.272h1.904v2.716a5.454 5.454 0 012.24-2.072c.971-.504 2.091-.756 3.36-.756zm25.136.112v12.936c0 2.501-.616 4.35-1.848 5.544-1.214 1.213-3.052 1.82-5.516 1.82-1.363 0-2.66-.205-3.892-.616-1.214-.392-2.203-.943-2.968-1.652l1.008-1.512c.709.635 1.568 1.13 2.576 1.484 1.026.355 2.1.532 3.22.532 1.866 0 3.238-.439 4.116-1.316.877-.859 1.316-2.203 1.316-4.032v-1.876a5.97 5.97 0 01-2.436 2.128c-.99.485-2.091.728-3.304.728-1.382 0-2.642-.299-3.78-.896a6.975 6.975 0 01-2.66-2.548c-.635-1.101-.952-2.343-.952-3.724 0-1.381.317-2.613.952-3.696a6.77 6.77 0 012.66-2.52c1.12-.597 2.38-.896 3.78-.896 1.25 0 2.38.252 3.388.756a6.106 6.106 0 012.436 2.184v-2.828h1.904zm-7.532 12.404c1.064 0 2.025-.224 2.884-.672a4.961 4.961 0 001.988-1.932c.485-.821.728-1.755.728-2.8s-.243-1.97-.728-2.772a4.778 4.778 0 00-1.988-1.904c-.84-.467-1.802-.7-2.884-.7-1.064 0-2.026.224-2.884.672a5 5 0 00-1.988 1.904c-.467.821-.7 1.755-.7 2.8s.233 1.979.7 2.8a5.2 5.2 0 001.988 1.932c.858.448 1.82.672 2.884.672zm33.243-4.424h-12.32c.112 1.53.7 2.772 1.764 3.724 1.064.933 2.408 1.4 4.032 1.4.915 0 1.755-.159 2.52-.476a5.648 5.648 0 001.988-1.456l1.12 1.288a6.28 6.28 0 01-2.464 1.792c-.97.41-2.044.616-3.22.616-1.512 0-2.856-.317-4.032-.952a7.096 7.096 0 01-2.716-2.688c-.653-1.139-.98-2.427-.98-3.864 0-1.437.308-2.725.924-3.864.635-1.139 1.494-2.025 2.576-2.66 1.102-.635 2.334-.952 3.696-.952 1.363 0 2.586.317 3.668.952 1.083.635 1.932 1.521 2.548 2.66.616 1.12.924 2.408.924 3.864l-.028.616zm-7.112-6.384c-1.418 0-2.613.457-3.584 1.372-.952.896-1.493 2.072-1.624 3.528h10.444c-.13-1.456-.681-2.632-1.652-3.528-.952-.915-2.146-1.372-3.584-1.372zm11.187-7.644h1.988V89h-1.988V68.224zm7.519 6.048h1.988V89h-1.988V74.272zm1.008-3.22c-.41 0-.756-.14-1.036-.42-.28-.28-.42-.616-.42-1.008 0-.373.14-.7.42-.98.28-.28.626-.42 1.036-.42.411 0 .756.14 1.036.42.28.261.42.579.42.952 0 .41-.14.756-.42 1.036-.28.28-.625.42-1.036.42z" fill="#000"/></svg>